ply
format ascii 1.0
element vertex 42
property float x
property float y
property float z
element face 23
property list uchar int vertex_index
property uchar red
property uchar green
property uchar blue
end_header
0.421875 0.20123589038848877 1.0
0.640625 0.22589978575706482 1.0
0.79831463098526 0.3125 1.0
0.859375 0.4950961768627167 1.0
0.734375 0.6166785359382629 1.0
0.546875 0.5479914546012878 1.0
0.451725572347641 0.40625 1.0
0.5729556679725647 0.328125 1.0
0.5878175497055054 0.46875 1.0
0.751358151435852 0.53125 1.0
0.765625 0.35969269275665283 1.0
0.609375 0.2684083878993988 1.0
0.40798816084861755 0.296875 1.0
0.328125 0.44006431102752686 1.0
0.3385206162929535 0.625 1.0
0.390625 0.7931085824966431 1.0
0.36317142844200134 0.890625 1.0
0.28125 0.7264902591705322 1.0
0.234375 0.5554274916648865 1.0
0.25350311398506165 0.34375 1.0
0.390625 0.22564592957496643 1.0
0.421875 0.20123589038848877 0.0
0.640625 0.22589978575706482 0.0
0.79831463098526 0.3125 0.0
0.859375 0.4950961768627167 0.0
0.734375 0.6166785359382629 0.0
0.546875 0.5479914546012878 0.0
0.451725572347641 0.40625 0.0
0.5729556679725647 0.328125 0.0
0.5878175497055054 0.46875 0.0
0.751358151435852 0.53125 0.0
0.765625 0.35969269275665283 0.0
0.609375 0.2684083878993988 0.0
0.40798816084861755 0.296875 0.0
0.328125 0.44006431102752686 0.0
0.3385206162929535 0.625 0.0
0.390625 0.7931085824966431 0.0
0.36317142844200134 0.890625 0.0
0.28125 0.7264902591705322 0.0
0.234375 0.5554274916648865 0.0
0.25350311398506165 0.34375 0.0
0.390625 0.22564592957496643 0.0
21 0 1 2 3 4 5 6 7 8 9 10 11 12 13 14 15 16 17 18 19 20 255 0 0
21 21 41 40 39 38 37 36 35 34 33 32 31 30 29 28 27 26 25 24 23 22 0 0 255
4 1 0 21 22 128 0 128
4 2 1 22 23 0 255 0
4 3 2 23 24 0 255 0
4 4 3 24 25 0 255 0
4 5 4 25 26 0 255 0
4 6 5 26 27 0 255 0
4 7 6 27 28 0 255 0
4 8 7 28 29 0 255 0
4 9 8 29 30 0 255 0
4 10 9 30 31 0 255 0
4 11 10 31 32 0 255 0
4 12 11 32 33 0 255 0
4 13 12 33 34 0 255 0
4 14 13 34 35 0 255 0
4 15 14 35 36 0 255 0
4 16 15 36 37 0 255 0
4 17 16 37 38 0 255 0
4 18 17 38 39 0 255 0
4 19 18 39 40 0 255 0
4 20 19 40 41 0 255 0
4 0 20 41 21 128 0 128
