ply
format ascii 1.0
element vertex 28
property float x
property float y
property float z
element face 20
property list uchar int vertex_index
property uchar red
property uchar green
property uchar blue
end_header
0.2639029622077942 0.234375 1.0
0.17159436643123627 0.390625 1.0
0.28125 0.5241740942001343 1.0
0.46875 0.5623979568481445 1.0
0.5874763131141663 0.6875 1.0
0.6618748307228088 0.78125 1.0
0.7402079701423645 0.609375 1.0
0.839082658290863 0.484375 1.0
0.75 0.35917821526527405 1.0
0.546875 0.3303457796573639 1.0
0.390625 0.2401687204837799 1.0
0.296875 0.3613414466381073 1.0
0.3531530499458313 0.375 1.0
0.2919512391090393 0.421875 1.0
0.2639029622077942 0.234375 0.0
0.17159436643123627 0.390625 0.0
0.28125 0.5241740942001343 0.0
0.46875 0.5623979568481445 0.0
0.5874763131141663 0.6875 0.0
0.6618748307228088 0.78125 0.0
0.7402079701423645 0.609375 0.0
0.839082658290863 0.484375 0.0
0.75 0.35917821526527405 0.0
0.546875 0.3303457796573639 0.0
0.390625 0.2401687204837799 0.0
0.296875 0.3613414466381073 0.0
0.3531530499458313 0.375 0.0
0.2919512391090393 0.421875 0.0
5 10 12 11 1 0 255 0 0
4 1 11 13 2 255 0 0
11 2 13 12 10 9 8 7 6 5 4 3 255 0 0
5 24 14 15 25 26 0 0 255
4 15 16 27 25 0 0 255
11 16 17 18 19 20 21 22 23 24 26 27 0 0 255
4 0 1 15 14 128 0 128
4 1 2 16 15 0 255 0
4 2 3 17 16 0 255 0
4 3 4 18 17 0 255 0
4 4 5 19 18 0 255 0
4 5 6 20 19 0 255 0
4 6 7 21 20 0 255 0
4 7 8 22 21 0 255 0
4 8 9 23 22 0 255 0
4 9 10 24 23 0 255 0
4 10 0 14 24 128 0 128
4 11 12 26 25 0 255 0
4 12 13 27 26 0 255 0
4 13 11 25 27 0 255 0
