ply
format ascii 1.0
element vertex 38
property float x
property float y
property float z
element face 31
property list uchar int vertex_index
property uchar red
property uchar green
property uchar blue
end_header
0.28058546781539917 0.09375 1.0
0.308295339345932 0.28125 1.0
0.35010242462158203 0.421875 1.0
0.2919273376464844 0.609375 1.0
0.421875 0.7302373051643372 1.0
0.59375 0.8028560876846313 1.0
0.7787185907363892 0.734375 1.0
0.7249751687049866 0.5625 1.0
0.59375 0.44265875220298767 1.0
0.516014575958252 0.296875 1.0
0.5033047795295715 0.09375 1.0
0.4289012849330902 0.21875 1.0
0.359375 0.13548643887043 1.0
0.484375 0.49567025899887085 1.0
0.5213660001754761 0.515625 1.0
0.65625 0.6343368291854858 1.0
0.59375 0.7125754952430725 1.0
0.4409591555595398 0.640625 1.0
0.4644833207130432 0.5 1.0
0.28058546781539917 0.09375 0.0
0.308295339345932 0.28125 0.0
0.35010242462158203 0.421875 0.0
0.2919273376464844 0.609375 0.0
0.421875 0.7302373051643372 0.0
0.59375 0.8028560876846313 0.0
0.7787185907363892 0.734375 0.0
0.7249751687049866 0.5625 0.0
0.59375 0.44265875220298767 0.0
0.516014575958252 0.296875 0.0
0.5033047795295715 0.09375 0.0
0.4289012849330902 0.21875 0.0
0.359375 0.13548643887043 0.0
0.484375 0.49567025899887085 0.0
0.5213660001754761 0.515625 0.0
0.65625 0.6343368291854858 0.0
0.59375 0.7125754952430725 0.0
0.4409591555595398 0.640625 0.0
0.4644833207130432 0.5 0.0
4 7 15 14 8 255 0 0
4 4 17 16 5 255 0 0
10 8 13 18 2 1 0 12 11 10 9 255 0 0
3 8 14 13 255 0 0
5 5 16 15 7 6 255 0 0
5 2 18 17 4 3 255 0 0
4 26 27 33 34 0 0 255
4 23 24 35 36 0 0 255
10 27 28 29 30 31 19 20 21 37 32 0 0 255
3 27 32 33 0 0 255
5 24 25 26 34 35 0 0 255
5 21 22 23 36 37 0 0 255
4 0 1 20 19 0 255 0
4 1 2 21 20 0 255 0
4 2 3 22 21 0 255 0
4 3 4 23 22 0 255 0
4 4 5 24 23 0 255 0
4 5 6 25 24 0 255 0
4 6 7 26 25 0 255 0
4 7 8 27 26 0 255 0
4 8 9 28 27 0 255 0
4 9 10 29 28 0 255 0
4 10 11 30 29 0 255 0
4 11 12 31 30 0 255 0
4 12 0 19 31 0 255 0
4 13 14 33 32 0 255 0
4 14 15 34 33 0 255 0
4 15 16 35 34 0 255 0
4 16 17 36 35 0 255 0
4 17 18 37 36 0 255 0
4 18 13 32 37 0 255 0
