ply
format ascii 1.0
element vertex 38
property float x
property float y
property float z
element face 35
property list uchar int vertex_index
property uchar red
property uchar green
property uchar blue
end_header
0.4611492156982422 0.125 1.0
0.296875 0.21464456617832184 1.0
0.24412181973457336 0.40625 1.0
0.2879679501056671 0.609375 1.0
0.390625 0.7570927143096924 1.0
0.5479683876037598 0.828125 1.0
0.6875 0.71714848279953 1.0
0.78125 0.5581167936325073 1.0
0.78125 0.32411664724349976 1.0
0.65625 0.1927388310432434 1.0
0.484375 0.12403766065835953 1.0
0.46875 0.23859797418117523 1.0
0.6201217174530029 0.28125 1.0
0.6937180757522583 0.453125 1.0
0.625 0.6311693787574768 1.0
0.484375 0.7407543659210205 1.0
0.375 0.6057916283607483 1.0
0.3555784225463867 0.40625 1.0
0.4455200731754303 0.25 1.0
0.4611492156982422 0.125 0.0
0.296875 0.21464456617832184 0.0
0.24412181973457336 0.40625 0.0
0.2879679501056671 0.609375 0.0
0.390625 0.7570927143096924 0.0
0.5479683876037598 0.828125 0.0
0.6875 0.71714848279953 0.0
0.78125 0.5581167936325073 0.0
0.78125 0.32411664724349976 0.0
0.65625 0.1927388310432434 0.0
0.484375 0.12403766065835953 0.0
0.46875 0.23859797418117523 0.0
0.6201217174530029 0.28125 0.0
0.6937180757522583 0.453125 0.0
0.625 0.6311693787574768 0.0
0.484375 0.7407543659210205 0.0
0.375 0.6057916283607483 0.0
0.3555784225463867 0.40625 0.0
0.4455200731754303 0.25 0.0
5 7 13 12 9 8 255 0 0
3 0 11 18 255 0 0
4 3 16 15 4 255 0 0
5 0 18 17 2 1 255 0 0
5 9 12 11 0 10 255 0 0
4 6 14 13 7 255 0 0
4 2 17 16 3 255 0 0
5 4 15 14 6 5 255 0 0
5 26 27 28 31 32 0 0 255
3 19 37 30 0 0 255
4 22 23 34 35 0 0 255
5 19 20 21 36 37 0 0 255
5 28 29 19 30 31 0 0 255
4 25 26 32 33 0 0 255
4 21 22 35 36 0 0 255
5 23 24 25 33 34 0 0 255
4 0 1 20 19 0 255 0
4 1 2 21 20 0 255 0
4 2 3 22 21 0 255 0
4 3 4 23 22 0 255 0
4 4 5 24 23 0 255 0
4 5 6 25 24 0 255 0
4 6 7 26 25 0 255 0
4 7 8 27 26 0 255 0
4 8 9 28 27 0 255 0
4 9 10 29 28 128 0 128
4 10 0 19 29 128 0 128
4 11 12 31 30 0 255 0
4 12 13 32 31 0 255 0
4 13 14 33 32 0 255 0
4 14 15 34 33 0 255 0
4 15 16 35 34 0 255 0
4 16 17 36 35 0 255 0
4 17 18 37 36 0 255 0
4 18 11 30 37 0 255 0
