ply
format ascii 1.0
element vertex 32
property float x
property float y
property float z
element face 24
property list uchar int vertex_index
property uchar red
property uchar green
property uchar blue
end_header
0.4499141275882721 0.234375 1.0
0.3125 0.3481818437576294 1.0
0.28525909781455994 0.546875 1.0
0.3282507658004761 0.71875 1.0
0.3970239758491516 0.90625 1.0
0.4136497378349304 0.8125 1.0
0.3598569929599762 0.609375 1.0
0.36362147331237793 0.421875 1.0
0.49510473012924194 0.5 1.0
0.671875 0.5664133429527283 1.0
0.734375 0.424263060092926 1.0
0.609375 0.29924726486206055 1.0
0.484375 0.34178516268730164 1.0
0.546875 0.36665675044059753 1.0
0.640625 0.4821356534957886 1.0
0.4813241958618164 0.390625 1.0
0.4499141275882721 0.234375 0.0
0.3125 0.3481818437576294 0.0
0.28525909781455994 0.546875 0.0
0.3282507658004761 0.71875 0.0
0.3970239758491516 0.90625 0.0
0.4136497378349304 0.8125 0.0
0.3598569929599762 0.609375 0.0
0.36362147331237793 0.421875 0.0
0.49510473012924194 0.5 0.0
0.671875 0.5664133429527283 0.0
0.734375 0.424263060092926 0.0
0.609375 0.29924726486206055 0.0
0.484375 0.34178516268730164 0.0
0.546875 0.36665675044059753 0.0
0.640625 0.4821356534957886 0.0
0.4813241958618164 0.390625 0.0
4 8 15 14 9 255 0 0
5 9 14 13 11 10 255 0 0
11 0 12 15 8 7 6 5 4 3 2 1 255 0 0
4 11 13 12 0 255 0 0
4 24 25 30 31 0 0 255
5 25 26 27 29 30 0 0 255
11 16 17 18 19 20 21 22 23 24 31 28 0 0 255
4 27 16 28 29 0 0 255
4 0 1 17 16 128 0 128
4 1 2 18 17 0 255 0
4 2 3 19 18 0 255 0
4 3 4 20 19 0 255 0
4 4 5 21 20 0 255 0
4 5 6 22 21 0 255 0
4 6 7 23 22 0 255 0
4 7 8 24 23 0 255 0
4 8 9 25 24 0 255 0
4 9 10 26 25 0 255 0
4 10 11 27 26 0 255 0
4 11 0 16 27 128 0 128
4 12 13 29 28 0 255 0
4 13 14 30 29 0 255 0
4 14 15 31 30 0 255 0
4 15 12 28 31 0 255 0
