ply
format ascii 1.0
element vertex 36
property float x
property float y
property float z
element face 28
property list uchar int vertex_index
property uchar red
property uchar green
property uchar blue
end_header
0.34375 0.0970403179526329 1.0
0.3074866831302643 0.28125 1.0
0.3896004855632782 0.453125 1.0
0.3097686171531677 0.625 1.0
0.4375 0.7470368146896362 1.0
0.578125 0.700033962726593 1.0
0.6924169063568115 0.734375 1.0
0.8103496432304382 0.734375 1.0
0.7043219804763794 0.578125 1.0
0.578125 0.4533582329750061 1.0
0.5731375813484192 0.28125 1.0
0.46875 0.12970593571662903 1.0
0.4259909987449646 0.25 1.0
0.44629260897636414 0.265625 1.0
0.421875 0.3039616048336029 1.0
0.46875 0.5298627614974976 1.0
0.5395435094833374 0.640625 1.0
0.4375 0.5488680601119995 1.0
0.34375 0.0970403179526329 0.0
0.3074866831302643 0.28125 0.0
0.3896004855632782 0.453125 0.0
0.3097686171531677 0.625 0.0
0.4375 0.7470368146896362 0.0
0.578125 0.700033962726593 0.0
0.6924169063568115 0.734375 0.0
0.8103496432304382 0.734375 0.0
0.7043219804763794 0.578125 0.0
0.578125 0.4533582329750061 0.0
0.5731375813484192 0.28125 0.0
0.46875 0.12970593571662903 0.0
0.4259909987449646 0.25 0.0
0.44629260897636414 0.265625 0.0
0.421875 0.3039616048336029 0.0
0.46875 0.5298627614974976 0.0
0.5395435094833374 0.640625 0.0
0.4375 0.5488680601119995 0.0
3 1 12 14 255 0 0
12 1 14 13 10 9 8 7 6 5 16 15 2 255 0 0
6 10 13 12 1 0 11 255 0 0
3 2 15 17 255 0 0
6 2 17 16 5 4 3 255 0 0
3 19 32 30 0 0 255
12 19 20 33 34 23 24 25 26 27 28 31 32 0 0 255
6 28 29 18 19 30 31 0 0 255
3 20 35 33 0 0 255
6 20 21 22 23 34 35 0 0 255
4 0 1 19 18 128 0 128
4 1 2 20 19 0 255 0
4 2 3 21 20 0 255 0
4 3 4 22 21 0 255 0
4 4 5 23 22 0 255 0
4 5 6 24 23 0 255 0
4 6 7 25 24 0 255 0
4 7 8 26 25 0 255 0
4 8 9 27 26 0 255 0
4 9 10 28 27 0 255 0
4 10 11 29 28 0 255 0
4 11 0 18 29 128 0 128
4 12 13 31 30 0 255 0
4 13 14 32 31 0 255 0
4 14 12 30 32 0 255 0
4 15 16 34 33 0 255 0
4 16 17 35 34 0 255 0
4 17 15 33 35 0 255 0
