ply
format ascii 1.0
element vertex 40
property float x
property float y
property float z
element face 36
property list uchar int vertex_index
property uchar red
property uchar green
property uchar blue
end_header
0.1950272023677826 0.15625 1.0
0.12474341690540314 0.328125 1.0
0.21561996638774872 0.484375 1.0
0.34375 0.6052554845809937 1.0
0.46875 0.728533923625946 1.0
0.609375 0.8397627472877502 1.0
0.7761045694351196 0.75 1.0
0.8396700620651245 0.5625 1.0
0.7698726654052734 0.375 1.0
0.6479892730712891 0.25 1.0
0.484375 0.16277527809143066 1.0
0.25 0.14456512033939362 1.0
0.265625 0.26294514536857605 1.0
0.40625 0.27676090598106384 1.0
0.59375 0.3309592008590698 1.0
0.703125 0.48119089007377625 1.0
0.6980248689651489 0.640625 1.0
0.53125 0.6569400429725647 1.0
0.40625 0.5320788621902466 1.0
0.2889712154865265 0.40625 1.0
0.1950272023677826 0.15625 0.0
0.12474341690540314 0.328125 0.0
0.21561996638774872 0.484375 0.0
0.34375 0.6052554845809937 0.0
0.46875 0.728533923625946 0.0
0.609375 0.8397627472877502 0.0
0.7761045694351196 0.75 0.0
0.8396700620651245 0.5625 0.0
0.7698726654052734 0.375 0.0
0.6479892730712891 0.25 0.0
0.484375 0.16277527809143066 0.0
0.25 0.14456512033939362 0.0
0.265625 0.26294514536857605 0.0
0.40625 0.27676090598106384 0.0
0.59375 0.3309592008590698 0.0
0.703125 0.48119089007377625 0.0
0.6980248689651489 0.640625 0.0
0.53125 0.6569400429725647 0.0
0.40625 0.5320788621902466 0.0
0.2889712154865265 0.40625 0.0
5 4 17 16 6 5 255 0 0
4 10 13 12 11 255 0 0
5 6 16 15 8 7 255 0 0
4 3 18 17 4 255 0 0
6 11 12 19 2 1 0 255 0 0
4 9 14 13 10 255 0 0
4 8 15 14 9 255 0 0
4 2 19 18 3 255 0 0
5 24 25 26 36 37 0 0 255
4 30 31 32 33 0 0 255
5 26 27 28 35 36 0 0 255
4 23 24 37 38 0 0 255
6 31 20 21 22 39 32 0 0 255
4 29 30 33 34 0 0 255
4 28 29 34 35 0 0 255
4 22 23 38 39 0 0 255
4 0 1 21 20 0 255 0
4 1 2 22 21 0 255 0
4 2 3 23 22 0 255 0
4 3 4 24 23 0 255 0
4 4 5 25 24 0 255 0
4 5 6 26 25 0 255 0
4 6 7 27 26 0 255 0
4 7 8 28 27 0 255 0
4 8 9 29 28 0 255 0
4 9 10 30 29 0 255 0
4 10 11 31 30 128 0 128
4 11 0 20 31 128 0 128
4 12 13 33 32 0 255 0
4 13 14 34 33 0 255 0
4 14 15 35 34 0 255 0
4 15 16 36 35 0 255 0
4 16 17 37 36 0 255 0
4 17 18 38 37 0 255 0
4 18 19 39 38 0 255 0
4 19 12 32 39 0 255 0
