ply
format ascii 1.0
element vertex 28
property float x
property float y
property float z
element face 18
property list uchar int vertex_index
property uchar red
property uchar green
property uchar blue
end_header
0.4743618667125702 0.171875 1.0
0.390625 0.3285788595676422 1.0
0.34524691104888916 0.515625 1.0
0.4144245684146881 0.703125 1.0
0.5 0.8648746013641357 1.0
0.4994954764842987 0.734375 1.0
0.4307262599468231 0.546875 1.0
0.4375 0.36557239294052124 1.0
0.6011525392532349 0.390625 1.0
0.7626262307167053 0.4375 1.0
0.6875 0.2875783145427704 1.0
0.5223402380943298 0.203125 1.0
0.609375 0.31145164370536804 1.0
0.65625 0.3692517578601837 1.0
0.4743618667125702 0.171875 0.0
0.390625 0.3285788595676422 0.0
0.34524691104888916 0.515625 0.0
0.4144245684146881 0.703125 0.0
0.5 0.8648746013641357 0.0
0.4994954764842987 0.734375 0.0
0.4307262599468231 0.546875 0.0
0.4375 0.36557239294052124 0.0
0.6011525392532349 0.390625 0.0
0.7626262307167053 0.4375 0.0
0.6875 0.2875783145427704 0.0
0.5223402380943298 0.203125 0.0
0.609375 0.31145164370536804 0.0
0.65625 0.3692517578601837 0.0
3 8 12 13 255 0 0
3 8 13 12 255 0 0
12 1 0 11 10 9 8 7 6 5 4 3 2 255 0 0
3 22 27 26 0 0 255
3 22 26 27 0 0 255
12 15 16 17 18 19 20 21 22 23 24 25 14 0 0 255
4 0 1 15 14 128 0 128
4 1 2 16 15 0 255 0
4 2 3 17 16 0 255 0
4 3 4 18 17 0 255 0
4 4 5 19 18 0 255 0
4 5 6 20 19 0 255 0
4 6 7 21 20 0 255 0
4 7 8 22 21 0 255 0
4 8 9 23 22 0 255 0
4 9 10 24 23 0 255 0
4 10 11 25 24 0 255 0
4 11 0 14 25 128 0 128
