ply
format ascii 1.0
element vertex 42
property float x
property float y
property float z
element face 23
property list uchar int vertex_index
property uchar red
property uchar green
property uchar blue
end_header
0.19777372479438782 0.234375 1.0
0.21875 0.3961043059825897 1.0
0.390625 0.41440197825431824 1.0
0.5262628197669983 0.5 1.0
0.578125 0.6794731020927429 1.0
0.4193933606147766 0.65625 1.0
0.375 0.6856493353843689 1.0
0.5625 0.7415227293968201 1.0
0.6243610382080078 0.578125 1.0
0.515625 0.4239841103553772 1.0
0.640625 0.3503688871860504 1.0
0.8148823380470276 0.421875 1.0
0.796875 0.3351409137248993 1.0
0.59375 0.29367369413375854 1.0
0.40625 0.31773555278778076 1.0
0.25 0.23313964903354645 1.0
0.19777372479438782 0.234375 1.0
0.234375 0.2741346061229706 1.0
0.34375 0.3198230266571045 1.0
0.25 0.36678579449653625 1.0
0.234375 0.2741346061229706 1.0
0.19777372479438782 0.234375 0.0
0.21875 0.3961043059825897 0.0
0.390625 0.41440197825431824 0.0
0.5262628197669983 0.5 0.0
0.578125 0.6794731020927429 0.0
0.4193933606147766 0.65625 0.0
0.375 0.6856493353843689 0.0
0.5625 0.7415227293968201 0.0
0.6243610382080078 0.578125 0.0
0.515625 0.4239841103553772 0.0
0.640625 0.3503688871860504 0.0
0.8148823380470276 0.421875 0.0
0.796875 0.3351409137248993 0.0
0.59375 0.29367369413375854 0.0
0.40625 0.31773555278778076 0.0
0.25 0.23313964903354645 0.0
0.19777372479438782 0.234375 0.0
0.234375 0.2741346061229706 0.0
0.34375 0.3198230266571045 0.0
0.25 0.36678579449653625 0.0
0.234375 0.2741346061229706 0.0
16 1 19 18 14 13 12 11 10 9 8 7 6 5 4 3 2 255 0 0
4 14 18 17 15 255 0 0
16 22 23 24 25 26 27 28 29 30 31 32 33 34 35 39 40 0 0 255
4 35 36 38 39 0 0 255
4 0 1 22 21 0 255 0
4 1 2 23 22 0 255 0
4 2 3 24 23 0 255 0
4 3 4 25 24 0 255 0
4 4 5 26 25 0 255 0
4 5 6 27 26 0 255 0
4 6 7 28 27 0 255 0
4 7 8 29 28 0 255 0
4 8 9 30 29 0 255 0
4 9 10 31 30 0 255 0
4 10 11 32 31 0 255 0
4 11 12 33 32 0 255 0
4 12 13 34 33 0 255 0
4 13 14 35 34 0 255 0
4 14 15 36 35 128 0 128
4 15 16 37 36 128 0 128
4 17 18 39 38 0 255 0
4 18 19 40 39 0 255 0
4 19 20 41 40 0 255 0
