ply
format ascii 1.0
element vertex 42
property float x
property float y
property float z
element face 41
property list uchar int vertex_index
property uchar red
property uchar green
property uchar blue
end_header
0.3874630331993103 0.140625 1.0
0.234375 0.24900151789188385 1.0
0.19975410401821136 0.453125 1.0
0.26335474848747253 0.640625 1.0
0.37281545996665955 0.78125 1.0
0.5625 0.8306524753570557 1.0
0.71875 0.7360154390335083 1.0
0.8125 0.5791866183280945 1.0
0.8277509212493896 0.375 1.0
0.719970703125 0.21875 1.0
0.5540792942047119 0.140625 1.0
0.4375 0.19844940304756165 1.0
0.46875 0.19783039391040802 1.0
0.65625 0.2558309733867645 1.0
0.7687884569168091 0.390625 1.0
0.75 0.5873382687568665 1.0
0.6443618535995483 0.734375 1.0
0.46875 0.7387393712997437 1.0
0.34375 0.6242299675941467 1.0
0.26207515597343445 0.453125 1.0
0.3137983977794647 0.265625 1.0
0.3874630331993103 0.140625 0.0
0.234375 0.24900151789188385 0.0
0.19975410401821136 0.453125 0.0
0.26335474848747253 0.640625 0.0
0.37281545996665955 0.78125 0.0
0.5625 0.8306524753570557 0.0
0.71875 0.7360154390335083 0.0
0.8125 0.5791866183280945 0.0
0.8277509212493896 0.375 0.0
0.719970703125 0.21875 0.0
0.5540792942047119 0.140625 0.0
0.4375 0.19844940304756165 0.0
0.46875 0.19783039391040802 0.0
0.65625 0.2558309733867645 0.0
0.7687884569168091 0.390625 0.0
0.75 0.5873382687568665 0.0
0.6443618535995483 0.734375 0.0
0.46875 0.7387393712997437 0.0
0.34375 0.6242299675941467 0.0
0.26207515597343445 0.453125 0.0
0.3137983977794647 0.265625 0.0
4 7 15 14 8 255 0 0
5 4 17 16 6 5 255 0 0
4 8 14 13 9 255 0 0
4 0 11 20 1 255 0 0
3 0 12 11 255 0 0
4 6 16 15 7 255 0 0
4 3 18 17 4 255 0 0
5 9 13 12 0 10 255 0 0
4 2 19 18 3 255 0 0
4 1 20 19 2 255 0 0
4 28 29 35 36 0 0 255
5 25 26 27 37 38 0 0 255
4 29 30 34 35 0 0 255
4 21 22 41 32 0 0 255
3 21 32 33 0 0 255
4 27 28 36 37 0 0 255
4 24 25 38 39 0 0 255
5 30 31 21 33 34 0 0 255
4 23 24 39 40 0 0 255
4 22 23 40 41 0 0 255
4 0 1 22 21 0 255 0
4 1 2 23 22 0 255 0
4 2 3 24 23 0 255 0
4 3 4 25 24 0 255 0
4 4 5 26 25 0 255 0
4 5 6 27 26 0 255 0
4 6 7 28 27 0 255 0
4 7 8 29 28 0 255 0
4 8 9 30 29 0 255 0
4 9 10 31 30 0 255 0
4 10 0 21 31 128 0 128
4 11 12 33 32 0 255 0
4 12 13 34 33 0 255 0
4 13 14 35 34 0 255 0
4 14 15 36 35 0 255 0
4 15 16 37 36 0 255 0
4 16 17 38 37 0 255 0
4 17 18 39 38 0 255 0
4 18 19 40 39 0 255 0
4 19 20 41 40 0 255 0
4 20 11 32 41 0 255 0
