ply
format ascii 1.0
element vertex 38
property float x
property float y
property float z
element face 33
property list uchar int vertex_index
property uchar red
property uchar green
property uchar blue
end_header
0.4375 0.09976297616958618 1.0
0.296875 0.2083110511302948 1.0
0.359375 0.37915778160095215 1.0
0.38187798857688904 0.546875 1.0
0.3895006477832794 0.734375 1.0
0.578125 0.7940857410430908 1.0
0.6587384939193726 0.65625 1.0
0.5627676844596863 0.5 1.0
0.6436429619789124 0.359375 1.0
0.6256741881370544 0.1875 1.0
0.484375 0.09322787821292877 1.0
0.4375 0.17799189686775208 1.0
0.547261118888855 0.21875 1.0
0.5203042030334473 0.375 1.0
0.39697033166885376 0.265625 1.0
0.484375 0.5641487836837769 1.0
0.5 0.5674653053283691 1.0
0.53125 0.7113378643989563 1.0
0.453125 0.5843081474304199 1.0
0.4375 0.09976297616958618 0.0
0.296875 0.2083110511302948 0.0
0.359375 0.37915778160095215 0.0
0.38187798857688904 0.546875 0.0
0.3895006477832794 0.734375 0.0
0.578125 0.7940857410430908 0.0
0.6587384939193726 0.65625 0.0
0.5627676844596863 0.5 0.0
0.6436429619789124 0.359375 0.0
0.6256741881370544 0.1875 0.0
0.484375 0.09322787821292877 0.0
0.4375 0.17799189686775208 0.0
0.547261118888855 0.21875 0.0
0.5203042030334473 0.375 0.0
0.39697033166885376 0.265625 0.0
0.484375 0.5641487836837769 0.0
0.5 0.5674653053283691 0.0
0.53125 0.7113378643989563 0.0
0.453125 0.5843081474304199 0.0
4 8 13 12 9 255 0 0
9 7 15 18 3 2 1 14 13 8 255 0 0
3 7 16 15 255 0 0
4 0 11 14 1 255 0 0
5 9 12 11 0 10 255 0 0
5 3 18 17 5 4 255 0 0
5 5 17 16 7 6 255 0 0
4 27 28 31 32 0 0 255
9 26 27 32 33 20 21 22 37 34 0 0 255
3 26 34 35 0 0 255
4 19 20 33 30 0 0 255
5 28 29 19 30 31 0 0 255
5 22 23 24 36 37 0 0 255
5 24 25 26 35 36 0 0 255
4 0 1 20 19 0 255 0
4 1 2 21 20 0 255 0
4 2 3 22 21 0 255 0
4 3 4 23 22 0 255 0
4 4 5 24 23 0 255 0
4 5 6 25 24 0 255 0
4 6 7 26 25 0 255 0
4 7 8 27 26 0 255 0
4 8 9 28 27 0 255 0
4 9 10 29 28 128 0 128
4 10 0 19 29 128 0 128
4 11 12 31 30 0 255 0
4 12 13 32 31 0 255 0
4 13 14 33 32 0 255 0
4 14 11 30 33 0 255 0
4 15 16 35 34 0 255 0
4 16 17 36 35 0 255 0
4 17 18 37 36 0 255 0
4 18 15 34 37 0 255 0
