ply
format ascii 1.0
element vertex 44
property float x
property float y
property float z
element face 24
property list uchar int vertex_index
property uchar red
property uchar green
property uchar blue
end_header
0.46875 0.137639582157135 1.0
0.6875 0.15646077692508698 1.0
0.828125 0.27659377455711365 1.0
0.796875 0.44087833166122437 1.0
0.625 0.5186550617218018 1.0
0.4375 0.578283429145813 1.0
0.375 0.6353941559791565 1.0
0.5625 0.6666215658187866 1.0
0.78125 0.7004573345184326 1.0
0.796875 0.7621258497238159 1.0
0.5625 0.7669548392295837 1.0
0.359375 0.7281007170677185 1.0
0.19225375354290009 0.640625 1.0
0.265625 0.49635228514671326 1.0
0.46875 0.45010051131248474 1.0
0.671875 0.39649802446365356 1.0
0.6875 0.2789991497993469 1.0
0.484375 0.23206675052642822 1.0
0.3125 0.3003282845020294 1.0
0.16181401908397675 0.359375 1.0
0.2778261601924896 0.21875 1.0
0.453125 0.14849023520946503 1.0
0.46875 0.137639582157135 0.0
0.6875 0.15646077692508698 0.0
0.828125 0.27659377455711365 0.0
0.796875 0.44087833166122437 0.0
0.625 0.5186550617218018 0.0
0.4375 0.578283429145813 0.0
0.375 0.6353941559791565 0.0
0.5625 0.6666215658187866 0.0
0.78125 0.7004573345184326 0.0
0.796875 0.7621258497238159 0.0
0.5625 0.7669548392295837 0.0
0.359375 0.7281007170677185 0.0
0.19225375354290009 0.640625 0.0
0.265625 0.49635228514671326 0.0
0.46875 0.45010051131248474 0.0
0.671875 0.39649802446365356 0.0
0.6875 0.2789991497993469 0.0
0.484375 0.23206675052642822 0.0
0.3125 0.3003282845020294 0.0
0.16181401908397675 0.359375 0.0
0.2778261601924896 0.21875 0.0
0.453125 0.14849023520946503 0.0
22 0 1 2 3 4 5 6 7 8 9 10 11 12 13 14 15 16 17 18 19 20 21 255 0 0
22 22 43 42 41 40 39 38 37 36 35 34 33 32 31 30 29 28 27 26 25 24 23 0 0 255
4 1 0 22 23 128 0 128
4 2 1 23 24 0 255 0
4 3 2 24 25 0 255 0
4 4 3 25 26 0 255 0
4 5 4 26 27 0 255 0
4 6 5 27 28 0 255 0
4 7 6 28 29 0 255 0
4 8 7 29 30 0 255 0
4 9 8 30 31 0 255 0
4 10 9 31 32 0 255 0
4 11 10 32 33 0 255 0
4 12 11 33 34 0 255 0
4 13 12 34 35 0 255 0
4 14 13 35 36 0 255 0
4 15 14 36 37 0 255 0
4 16 15 37 38 0 255 0
4 17 16 38 39 0 255 0
4 18 17 39 40 0 255 0
4 19 18 40 41 0 255 0
4 20 19 41 42 0 255 0
4 21 20 42 43 0 255 0
4 0 21 43 22 128 0 128
