ply
format ascii 1.0
element vertex 42
property float x
property float y
property float z
element face 39
property list uchar int vertex_index
property uchar red
property uchar green
property uchar blue
end_header
0.21864934265613556 0.125 1.0
0.16236354410648346 0.328125 1.0
0.2283562272787094 0.515625 1.0
0.328125 0.6586161851882935 1.0
0.46875 0.7774074673652649 1.0
0.65625 0.8399861454963684 1.0
0.803489089012146 0.734375 1.0
0.8751032948493958 0.5625 1.0
0.8189354538917542 0.375 1.0
0.71875 0.23061443865299225 1.0
0.5625 0.1261526644229889 1.0
0.3125 0.12770940363407135 1.0
0.3125 0.19241613149642944 1.0
0.515625 0.20962417125701904 1.0
0.6590995192527771 0.3125 1.0
0.7383072972297668 0.484375 1.0
0.734375 0.6573446393013 1.0
0.59375 0.6851912140846252 1.0
0.4592205882072449 0.625 1.0
0.33948057889938354 0.5 1.0
0.27759599685668945 0.3125 1.0
0.21864934265613556 0.125 0.0
0.16236354410648346 0.328125 0.0
0.2283562272787094 0.515625 0.0
0.328125 0.6586161851882935 0.0
0.46875 0.7774074673652649 0.0
0.65625 0.8399861454963684 0.0
0.803489089012146 0.734375 0.0
0.8751032948493958 0.5625 0.0
0.8189354538917542 0.375 0.0
0.71875 0.23061443865299225 0.0
0.5625 0.1261526644229889 0.0
0.3125 0.12770940363407135 0.0
0.3125 0.19241613149642944 0.0
0.515625 0.20962417125701904 0.0
0.6590995192527771 0.3125 0.0
0.7383072972297668 0.484375 0.0
0.734375 0.6573446393013 0.0
0.59375 0.6851912140846252 0.0
0.4592205882072449 0.625 0.0
0.33948057889938354 0.5 0.0
0.27759599685668945 0.3125 0.0
5 4 17 16 6 5 255 0 0
4 10 13 12 11 255 0 0
5 6 16 15 8 7 255 0 0
4 3 18 17 4 255 0 0
4 9 14 13 10 255 0 0
4 8 15 14 9 255 0 0
4 2 19 18 3 255 0 0
5 11 12 20 1 0 255 0 0
4 1 20 19 2 255 0 0
5 25 26 27 37 38 0 0 255
4 31 32 33 34 0 0 255
5 27 28 29 36 37 0 0 255
4 24 25 38 39 0 0 255
4 30 31 34 35 0 0 255
4 29 30 35 36 0 0 255
4 23 24 39 40 0 0 255
5 32 21 22 41 33 0 0 255
4 22 23 40 41 0 0 255
4 0 1 22 21 128 0 128
4 1 2 23 22 0 255 0
4 2 3 24 23 0 255 0
4 3 4 25 24 0 255 0
4 4 5 26 25 0 255 0
4 5 6 27 26 0 255 0
4 6 7 28 27 0 255 0
4 7 8 29 28 0 255 0
4 8 9 30 29 0 255 0
4 9 10 31 30 0 255 0
4 10 11 32 31 0 255 0
4 11 0 21 32 128 0 128
4 12 13 34 33 0 255 0
4 13 14 35 34 0 255 0
4 14 15 36 35 0 255 0
4 15 16 37 36 0 255 0
4 16 17 38 37 0 255 0
4 17 18 39 38 0 255 0
4 18 19 40 39 0 255 0
4 19 20 41 40 0 255 0
4 20 12 33 41 0 255 0
