ply
format ascii 1.0
element vertex 46
property float x
property float y
property float z
element face 37
property list uchar int vertex_index
property uchar red
property uchar green
property uchar blue
end_header
0.34722721576690674 0.171875 1.0
0.20412176847457886 0.28125 1.0
0.25830745697021484 0.484375 1.0
0.36568060517311096 0.625 1.0
0.5 0.7349275946617126 1.0
0.65625 0.8304194808006287 1.0
0.8344506621360779 0.828125 1.0
0.6615878939628601 0.75 1.0
0.5146071314811707 0.65625 1.0
0.359375 0.5522623658180237 1.0
0.34038791060447693 0.4375 1.0
0.5 0.5188446640968323 1.0
0.71875 0.5277342200279236 1.0
0.7732343077659607 0.390625 1.0
0.640625 0.2726215124130249 1.0
0.46875 0.1944904923439026 1.0
0.34375 0.23953866958618164 1.0
0.40126970410346985 0.25 1.0
0.59375 0.31136319041252136 1.0
0.7173038125038147 0.4375 1.0
0.53125 0.4492737054824829 1.0
0.375 0.34597301483154297 1.0
0.2990345358848572 0.265625 1.0
0.34722721576690674 0.171875 0.0
0.20412176847457886 0.28125 0.0
0.25830745697021484 0.484375 0.0
0.36568060517311096 0.625 0.0
0.5 0.7349275946617126 0.0
0.65625 0.8304194808006287 0.0
0.8344506621360779 0.828125 0.0
0.6615878939628601 0.75 0.0
0.5146071314811707 0.65625 0.0
0.359375 0.5522623658180237 0.0
0.34038791060447693 0.4375 0.0
0.5 0.5188446640968323 0.0
0.71875 0.5277342200279236 0.0
0.7732343077659607 0.390625 0.0
0.640625 0.2726215124130249 0.0
0.46875 0.1944904923439026 0.0
0.34375 0.23953866958618164 0.0
0.40126970410346985 0.25 0.0
0.59375 0.31136319041252136 0.0
0.7173038125038147 0.4375 0.0
0.53125 0.4492737054824829 0.0
0.375 0.34597301483154297 0.0
0.2990345358848572 0.265625 0.0
4 14 18 17 15 255 0 0
12 1 22 21 10 9 8 7 6 5 4 3 2 255 0 0
4 0 16 22 1 255 0 0
4 13 19 18 14 255 0 0
4 10 21 20 11 255 0 0
4 15 17 16 0 255 0 0
5 11 20 19 13 12 255 0 0
4 37 38 40 41 0 0 255
12 24 25 26 27 28 29 30 31 32 33 44 45 0 0 255
4 23 24 45 39 0 0 255
4 36 37 41 42 0 0 255
4 33 34 43 44 0 0 255
4 38 23 39 40 0 0 255
5 34 35 36 42 43 0 0 255
4 0 1 24 23 128 0 128
4 1 2 25 24 0 255 0
4 2 3 26 25 0 255 0
4 3 4 27 26 0 255 0
4 4 5 28 27 0 255 0
4 5 6 29 28 0 255 0
4 6 7 30 29 0 255 0
4 7 8 31 30 0 255 0
4 8 9 32 31 0 255 0
4 9 10 33 32 0 255 0
4 10 11 34 33 0 255 0
4 11 12 35 34 0 255 0
4 12 13 36 35 0 255 0
4 13 14 37 36 0 255 0
4 14 15 38 37 0 255 0
4 15 0 23 38 128 0 128
4 16 17 40 39 0 255 0
4 17 18 41 40 0 255 0
4 18 19 42 41 0 255 0
4 19 20 43 42 0 255 0
4 20 21 44 43 0 255 0
4 21 22 45 44 0 255 0
4 22 16 39 45 0 255 0
