ply
format ascii 1.0
element vertex 36
property float x
property float y
property float z
element face 26
property list uchar int vertex_index
property uchar red
property uchar green
property uchar blue
end_header
0.3240217864513397 0.203125 1.0
0.24504727125167847 0.375 1.0
0.328125 0.5394024848937988 1.0
0.4375 0.6859931349754333 1.0
0.5780439972877502 0.796875 1.0
0.7502787113189697 0.84375 1.0
0.6225003004074097 0.734375 1.0
0.47855067253112793 0.625 1.0
0.359375 0.4895760416984558 1.0
0.453125 0.4397541582584381 1.0
0.671875 0.4453589618206024 1.0
0.7430334091186523 0.328125 1.0
0.578125 0.23637834191322327 1.0
0.39284470677375793 0.203125 1.0
0.390625 0.2618744969367981 1.0
0.59375 0.31092947721481323 1.0
0.59375 0.38117650151252747 1.0
0.375 0.34664982557296753 1.0
0.3240217864513397 0.203125 0.0
0.24504727125167847 0.375 0.0
0.328125 0.5394024848937988 0.0
0.4375 0.6859931349754333 0.0
0.5780439972877502 0.796875 0.0
0.7502787113189697 0.84375 0.0
0.6225003004074097 0.734375 0.0
0.47855067253112793 0.625 0.0
0.359375 0.4895760416984558 0.0
0.453125 0.4397541582584381 0.0
0.671875 0.4453589618206024 0.0
0.7430334091186523 0.328125 0.0
0.578125 0.23637834191322327 0.0
0.39284470677375793 0.203125 0.0
0.390625 0.2618744969367981 0.0
0.59375 0.31092947721481323 0.0
0.59375 0.38117650151252747 0.0
0.375 0.34664982557296753 0.0
4 9 17 16 10 255 0 0
5 10 16 15 12 11 255 0 0
13 13 14 17 9 8 7 6 5 4 3 2 1 0 255 0 0
4 12 15 14 13 255 0 0
4 27 28 34 35 0 0 255
5 28 29 30 33 34 0 0 255
13 31 18 19 20 21 22 23 24 25 26 27 35 32 0 0 255
4 30 31 32 33 0 0 255
4 0 1 19 18 0 255 0
4 1 2 20 19 0 255 0
4 2 3 21 20 0 255 0
4 3 4 22 21 0 255 0
4 4 5 23 22 0 255 0
4 5 6 24 23 0 255 0
4 6 7 25 24 0 255 0
4 7 8 26 25 0 255 0
4 8 9 27 26 0 255 0
4 9 10 28 27 0 255 0
4 10 11 29 28 0 255 0
4 11 12 30 29 0 255 0
4 12 13 31 30 0 255 0
4 13 0 18 31 128 0 128
4 14 15 33 32 0 255 0
4 15 16 34 33 0 255 0
4 16 17 35 34 0 255 0
4 17 14 32 35 0 255 0
