ply
format ascii 1.0
element vertex 36
property float x
property float y
property float z
element face 32
property list uchar int vertex_index
property uchar red
property uchar green
property uchar blue
end_header
0.3179191052913666 0.125 1.0
0.22654157876968384 0.28125 1.0
0.25 0.5116364359855652 1.0
0.37251558899879456 0.640625 1.0
0.484375 0.7739719748497009 1.0
0.671875 0.8358362317085266 1.0
0.7679846286773682 0.6875 1.0
0.7567489147186279 0.453125 1.0
0.671875 0.293641597032547 1.0
0.5290863513946533 0.1875 1.0
0.34375 0.12438486516475677 1.0
0.39287707209587097 0.28125 1.0
0.53125 0.3348771929740906 1.0
0.65625 0.4636218547821045 1.0
0.6601404547691345 0.640625 1.0
0.4959932565689087 0.578125 1.0
0.3760394752025604 0.4375 1.0
0.3781930208206177 0.28125 1.0
0.3179191052913666 0.125 0.0
0.22654157876968384 0.28125 0.0
0.25 0.5116364359855652 0.0
0.37251558899879456 0.640625 0.0
0.484375 0.7739719748497009 0.0
0.671875 0.8358362317085266 0.0
0.7679846286773682 0.6875 0.0
0.7567489147186279 0.453125 0.0
0.671875 0.293641597032547 0.0
0.5290863513946533 0.1875 0.0
0.34375 0.12438486516475677 0.0
0.39287707209587097 0.28125 0.0
0.53125 0.3348771929740906 0.0
0.65625 0.4636218547821045 0.0
0.6601404547691345 0.640625 0.0
0.4959932565689087 0.578125 0.0
0.3760394752025604 0.4375 0.0
0.3781930208206177 0.28125 0.0
5 8 12 11 10 9 255 0 0
4 1 17 16 2 255 0 0
5 10 11 17 1 0 255 0 0
4 7 13 12 8 255 0 0
6 3 15 14 6 5 4 255 0 0
4 6 14 13 7 255 0 0
4 2 16 15 3 255 0 0
5 26 27 28 29 30 0 0 255
4 19 20 34 35 0 0 255
5 28 18 19 35 29 0 0 255
4 25 26 30 31 0 0 255
6 21 22 23 24 32 33 0 0 255
4 24 25 31 32 0 0 255
4 20 21 33 34 0 0 255
4 0 1 19 18 0 255 0
4 1 2 20 19 0 255 0
4 2 3 21 20 0 255 0
4 3 4 22 21 0 255 0
4 4 5 23 22 0 255 0
4 5 6 24 23 0 255 0
4 6 7 25 24 0 255 0
4 7 8 26 25 0 255 0
4 8 9 27 26 0 255 0
4 9 10 28 27 128 0 128
4 10 0 18 28 128 0 128
4 11 12 30 29 0 255 0
4 12 13 31 30 0 255 0
4 13 14 32 31 0 255 0
4 14 15 33 32 0 255 0
4 15 16 34 33 0 255 0
4 16 17 35 34 0 255 0
4 17 11 29 35 0 255 0
