ply
format ascii 1.0
element vertex 40
property float x
property float y
property float z
element face 22
property list uchar int vertex_index
property uchar red
property uchar green
property uchar blue
end_header
0.484375 0.12482977658510208 1.0
0.6875 0.12946321070194244 1.0
0.7717909216880798 0.296875 1.0
0.703125 0.47069090604782104 1.0
0.53125 0.5606926679611206 1.0
0.3125 0.5472809076309204 1.0
0.29216504096984863 0.65625 1.0
0.484375 0.7066895961761475 1.0
0.703125 0.7406372427940369 1.0
0.71875 0.8363968133926392 1.0
0.5080017447471619 0.796875 1.0
0.2953459322452545 0.765625 1.0
0.16804282367229462 0.640625 1.0
0.24164560437202454 0.46875 1.0
0.4375 0.48000451922416687 1.0
0.6311535239219666 0.421875 1.0
0.65625 0.2469601035118103 1.0
0.46875 0.23538503050804138 1.0
0.29316651821136475 0.265625 1.0
0.40625 0.1562587320804596 1.0
0.484375 0.12482977658510208 0.0
0.6875 0.12946321070194244 0.0
0.7717909216880798 0.296875 0.0
0.703125 0.47069090604782104 0.0
0.53125 0.5606926679611206 0.0
0.3125 0.5472809076309204 0.0
0.29216504096984863 0.65625 0.0
0.484375 0.7066895961761475 0.0
0.703125 0.7406372427940369 0.0
0.71875 0.8363968133926392 0.0
0.5080017447471619 0.796875 0.0
0.2953459322452545 0.765625 0.0
0.16804282367229462 0.640625 0.0
0.24164560437202454 0.46875 0.0
0.4375 0.48000451922416687 0.0
0.6311535239219666 0.421875 0.0
0.65625 0.2469601035118103 0.0
0.46875 0.23538503050804138 0.0
0.29316651821136475 0.265625 0.0
0.40625 0.1562587320804596 0.0
20 0 1 2 3 4 5 6 7 8 9 10 11 12 13 14 15 16 17 18 19 255 0 0
20 20 39 38 37 36 35 34 33 32 31 30 29 28 27 26 25 24 23 22 21 0 0 255
4 1 0 20 21 128 0 128
4 2 1 21 22 0 255 0
4 3 2 22 23 0 255 0
4 4 3 23 24 0 255 0
4 5 4 24 25 0 255 0
4 6 5 25 26 0 255 0
4 7 6 26 27 0 255 0
4 8 7 27 28 0 255 0
4 9 8 28 29 0 255 0
4 10 9 29 30 0 255 0
4 11 10 30 31 0 255 0
4 12 11 31 32 0 255 0
4 13 12 32 33 0 255 0
4 14 13 33 34 0 255 0
4 15 14 34 35 0 255 0
4 16 15 35 36 0 255 0
4 17 16 36 37 0 255 0
4 18 17 37 38 0 255 0
4 19 18 38 39 0 255 0
4 0 19 39 20 128 0 128
