ply
format ascii 1.0
element vertex 38
property float x
property float y
property float z
element face 33
property list uchar int vertex_index
property uchar red
property uchar green
property uchar blue
end_header
0.3335825800895691 0.09375 1.0
0.2278876006603241 0.234375 1.0
0.2690460979938507 0.4375 1.0
0.2713373601436615 0.546875 1.0
0.30069994926452637 0.65625 1.0
0.453125 0.762765645980835 1.0
0.640625 0.7838186025619507 1.0
0.7472245693206787 0.640625 1.0
0.7979580163955688 0.484375 1.0
0.71875 0.3223603665828705 1.0
0.5908593535423279 0.203125 1.0
0.421875 0.1195576936006546 1.0
0.40625 0.18406860530376434 1.0
0.5625 0.24527806043624878 1.0
0.6731899380683899 0.375 1.0
0.65625 0.5708760023117065 1.0
0.515625 0.6821739077568054 1.0
0.42024925351142883 0.53125 1.0
0.3674001395702362 0.328125 1.0
0.3335825800895691 0.09375 0.0
0.2278876006603241 0.234375 0.0
0.2690460979938507 0.4375 0.0
0.2713373601436615 0.546875 0.0
0.30069994926452637 0.65625 0.0
0.453125 0.762765645980835 0.0
0.640625 0.7838186025619507 0.0
0.7472245693206787 0.640625 0.0
0.7979580163955688 0.484375 0.0
0.71875 0.3223603665828705 0.0
0.5908593535423279 0.203125 0.0
0.421875 0.1195576936006546 0.0
0.40625 0.18406860530376434 0.0
0.5625 0.24527806043624878 0.0
0.6731899380683899 0.375 0.0
0.65625 0.5708760023117065 0.0
0.515625 0.6821739077568054 0.0
0.42024925351142883 0.53125 0.0
0.3674001395702362 0.328125 0.0
5 7 15 14 9 8 255 0 0
4 10 13 12 11 255 0 0
5 3 17 16 5 4 255 0 0
4 9 14 13 10 255 0 0
5 5 16 15 7 6 255 0 0
4 2 18 17 3 255 0 0
6 11 12 18 2 1 0 255 0 0
5 26 27 28 33 34 0 0 255
4 29 30 31 32 0 0 255
5 22 23 24 35 36 0 0 255
4 28 29 32 33 0 0 255
5 24 25 26 34 35 0 0 255
4 21 22 36 37 0 0 255
6 30 19 20 21 37 31 0 0 255
4 0 1 20 19 128 0 128
4 1 2 21 20 0 255 0
4 2 3 22 21 0 255 0
4 3 4 23 22 0 255 0
4 4 5 24 23 0 255 0
4 5 6 25 24 0 255 0
4 6 7 26 25 0 255 0
4 7 8 27 26 0 255 0
4 8 9 28 27 0 255 0
4 9 10 29 28 0 255 0
4 10 11 30 29 0 255 0
4 11 0 19 30 128 0 128
4 12 13 32 31 0 255 0
4 13 14 33 32 0 255 0
4 14 15 34 33 0 255 0
4 15 16 35 34 0 255 0
4 16 17 36 35 0 255 0
4 17 18 37 36 0 255 0
4 18 12 31 37 0 255 0
