ply
format ascii 1.0
element vertex 34
property float x
property float y
property float z
element face 26
property list uchar int vertex_index
property uchar red
property uchar green
property uchar blue
end_header
0.46875 0.17271974682807922 1.0
0.359375 0.3195473551750183 1.0
0.34375 0.4798659086227417 1.0
0.40625 0.6668379306793213 1.0
0.4990486204624176 0.828125 1.0
0.6291472911834717 0.796875 1.0
0.515625 0.759521484375 1.0
0.44419288635253906 0.578125 1.0
0.5625 0.5097957849502563 1.0
0.7060222029685974 0.40625 1.0
0.65625 0.20326128602027893 1.0
0.53125 0.22206489741802216 1.0
0.609375 0.24293974041938782 1.0
0.6346503496170044 0.40625 1.0
0.4335436224937439 0.4375 1.0
0.455771803855896 0.25 1.0
0.5721463561058044 0.796875 1.0
0.46875 0.17271974682807922 0.0
0.359375 0.3195473551750183 0.0
0.34375 0.4798659086227417 0.0
0.40625 0.6668379306793213 0.0
0.4990486204624176 0.828125 0.0
0.6291472911834717 0.796875 0.0
0.515625 0.759521484375 0.0
0.44419288635253906 0.578125 0.0
0.5625 0.5097957849502563 0.0
0.7060222029685974 0.40625 0.0
0.65625 0.20326128602027893 0.0
0.53125 0.22206489741802216 0.0
0.609375 0.24293974041938782 0.0
0.6346503496170044 0.40625 0.0
0.4335436224937439 0.4375 0.0
0.455771803855896 0.25 0.0
0.5721463561058044 0.796875 0.0
5 0 15 14 2 1 255 0 0
3 0 11 15 255 0 0
4 10 12 11 0 255 0 0
4 9 13 12 10 255 0 0
10 2 14 13 9 8 7 6 5 4 3 255 0 0
5 17 18 19 31 32 0 0 255
3 17 32 28 0 0 255
4 27 17 28 29 0 0 255
4 26 27 29 30 0 0 255
10 19 20 21 22 23 24 25 26 30 31 0 0 255
4 0 1 18 17 128 0 128
4 1 2 19 18 0 255 0
4 2 3 20 19 0 255 0
4 3 4 21 20 0 255 0
4 4 5 22 21 0 255 0
4 5 6 23 22 0 255 0
4 6 7 24 23 0 255 0
4 7 8 25 24 0 255 0
4 8 9 26 25 0 255 0
4 9 10 27 26 0 255 0
4 10 0 17 27 128 0 128
4 11 12 29 28 0 255 0
4 12 13 30 29 0 255 0
4 13 14 31 30 0 255 0
4 14 15 32 31 0 255 0
4 15 11 28 32 0 255 0
