ply
format ascii 1.0
element vertex 42
property float x
property float y
property float z
element face 23
property list uchar int vertex_index
property uchar red
property uchar green
property uchar blue
end_header
0.390625 0.09140581637620926 1.0
0.5581163167953491 0.171875 1.0
0.6629003882408142 0.3125 1.0
0.6949530839920044 0.53125 1.0
0.546875 0.6301054954528809 1.0
0.41019725799560547 0.65625 1.0
0.578125 0.7054306268692017 1.0
0.796875 0.7346059679985046 1.0
0.734375 0.7934528589248657 1.0
0.501335859298706 0.78125 1.0
0.359375 0.6883323788642883 1.0
0.28125 0.5269583463668823 1.0
0.34980911016464233 0.4375 1.0
0.484375 0.5520716905593872 1.0
0.6266466379165649 0.453125 1.0
0.5480601787567139 0.28125 1.0
0.4143478572368622 0.171875 1.0
0.23896031081676483 0.234375 1.0
0.203125 0.3843684196472168 1.0
0.20874525606632233 0.1875 1.0
0.375 0.09434583783149719 1.0
0.390625 0.09140581637620926 0.0
0.5581163167953491 0.171875 0.0
0.6629003882408142 0.3125 0.0
0.6949530839920044 0.53125 0.0
0.546875 0.6301054954528809 0.0
0.41019725799560547 0.65625 0.0
0.578125 0.7054306268692017 0.0
0.796875 0.7346059679985046 0.0
0.734375 0.7934528589248657 0.0
0.501335859298706 0.78125 0.0
0.359375 0.6883323788642883 0.0
0.28125 0.5269583463668823 0.0
0.34980911016464233 0.4375 0.0
0.484375 0.5520716905593872 0.0
0.6266466379165649 0.453125 0.0
0.5480601787567139 0.28125 0.0
0.4143478572368622 0.171875 0.0
0.23896031081676483 0.234375 0.0
0.203125 0.3843684196472168 0.0
0.20874525606632233 0.1875 0.0
0.375 0.09434583783149719 0.0
21 0 1 2 3 4 5 6 7 8 9 10 11 12 13 14 15 16 17 18 19 20 255 0 0
21 21 41 40 39 38 37 36 35 34 33 32 31 30 29 28 27 26 25 24 23 22 0 0 255
4 1 0 21 22 128 0 128
4 2 1 22 23 0 255 0
4 3 2 23 24 0 255 0
4 4 3 24 25 0 255 0
4 5 4 25 26 0 255 0
4 6 5 26 27 0 255 0
4 7 6 27 28 0 255 0
4 8 7 28 29 0 255 0
4 9 8 29 30 0 255 0
4 10 9 30 31 0 255 0
4 11 10 31 32 0 255 0
4 12 11 32 33 0 255 0
4 13 12 33 34 0 255 0
4 14 13 34 35 0 255 0
4 15 14 35 36 0 255 0
4 16 15 36 37 0 255 0
4 17 16 37 38 0 255 0
4 18 17 38 39 0 255 0
4 19 18 39 40 0 255 0
4 20 19 40 41 0 255 0
4 0 20 41 21 128 0 128
