ply
format ascii 1.0
element vertex 40
property float x
property float y
property float z
element face 38
property list uchar int vertex_index
property uchar red
property uchar green
property uchar blue
end_header
0.35958337783813477 0.15625 1.0
0.20728470385074615 0.25 1.0
0.16157422959804535 0.453125 1.0
0.2312769889831543 0.640625 1.0
0.34375 0.7679169178009033 1.0
0.546875 0.8232619762420654 1.0
0.734375 0.7501611709594727 1.0
0.84375 0.6204999089241028 1.0
0.8366841077804565 0.421875 1.0
0.734375 0.26566237211227417 1.0
0.59375 0.1673327535390854 1.0
0.46875 0.2416771501302719 1.0
0.546875 0.2619742155075073 1.0
0.678737223148346 0.375 1.0
0.7245596051216125 0.578125 1.0
0.59375 0.7011398077011108 1.0
0.3890150189399719 0.71875 1.0
0.2974209487438202 0.546875 1.0
0.2914135754108429 0.34375 1.0
0.4378235340118408 0.25 1.0
0.35958337783813477 0.15625 0.0
0.20728470385074615 0.25 0.0
0.16157422959804535 0.453125 0.0
0.2312769889831543 0.640625 0.0
0.34375 0.7679169178009033 0.0
0.546875 0.8232619762420654 0.0
0.734375 0.7501611709594727 0.0
0.84375 0.6204999089241028 0.0
0.8366841077804565 0.421875 0.0
0.734375 0.26566237211227417 0.0
0.59375 0.1673327535390854 0.0
0.46875 0.2416771501302719 0.0
0.546875 0.2619742155075073 0.0
0.678737223148346 0.375 0.0
0.7245596051216125 0.578125 0.0
0.59375 0.7011398077011108 0.0
0.3890150189399719 0.71875 0.0
0.2974209487438202 0.546875 0.0
0.2914135754108429 0.34375 0.0
0.4378235340118408 0.25 0.0
5 1 18 17 3 2 255 0 0
3 0 11 19 255 0 0
4 10 12 11 0 255 0 0
5 7 14 13 9 8 255 0 0
4 3 17 16 4 255 0 0
4 0 19 18 1 255 0 0
4 9 13 12 10 255 0 0
5 5 15 14 7 6 255 0 0
4 4 16 15 5 255 0 0
5 21 22 23 37 38 0 0 255
3 20 39 31 0 0 255
4 30 20 31 32 0 0 255
5 27 28 29 33 34 0 0 255
4 23 24 36 37 0 0 255
4 20 21 38 39 0 0 255
4 29 30 32 33 0 0 255
5 25 26 27 34 35 0 0 255
4 24 25 35 36 0 0 255
4 0 1 21 20 128 0 128
4 1 2 22 21 0 255 0
4 2 3 23 22 0 255 0
4 3 4 24 23 0 255 0
4 4 5 25 24 0 255 0
4 5 6 26 25 0 255 0
4 6 7 27 26 0 255 0
4 7 8 28 27 0 255 0
4 8 9 29 28 0 255 0
4 9 10 30 29 0 255 0
4 10 0 20 30 128 0 128
4 11 12 32 31 0 255 0
4 12 13 33 32 0 255 0
4 13 14 34 33 0 255 0
4 14 15 35 34 0 255 0
4 15 16 36 35 0 255 0
4 16 17 37 36 0 255 0
4 17 18 38 37 0 255 0
4 18 19 39 38 0 255 0
4 19 11 31 39 0 255 0
