ply
format ascii 1.0
element vertex 26
property float x
property float y
property float z
element face 19
property list uchar int vertex_index
property uchar red
property uchar green
property uchar blue
end_header
0.4831724762916565 0.171875 1.0
0.3781346380710602 0.328125 1.0
0.37894168496131897 0.484375 1.0
0.45216104388237 0.671875 1.0
0.540022611618042 0.828125 1.0
0.609375 0.7776046991348267 1.0
0.5 0.6252430081367493 1.0
0.484375 0.4453185200691223 1.0
0.6247979402542114 0.328125 1.0
0.546875 0.1838863343000412 1.0
0.484375 0.22712185978889465 1.0
0.5502140522003174 0.34375 1.0
0.42540690302848816 0.296875 1.0
0.4831724762916565 0.171875 0.0
0.3781346380710602 0.328125 0.0
0.37894168496131897 0.484375 0.0
0.45216104388237 0.671875 0.0
0.540022611618042 0.828125 0.0
0.609375 0.7776046991348267 0.0
0.5 0.6252430081367493 0.0
0.484375 0.4453185200691223 0.0
0.6247979402542114 0.328125 0.0
0.546875 0.1838863343000412 0.0
0.484375 0.22712185978889465 0.0
0.5502140522003174 0.34375 0.0
0.42540690302848816 0.296875 0.0
5 8 11 10 0 9 255 0 0
10 1 12 11 8 7 6 5 4 3 2 255 0 0
4 0 10 12 1 255 0 0
5 21 22 13 23 24 0 0 255
10 14 15 16 17 18 19 20 21 24 25 0 0 255
4 13 14 25 23 0 0 255
4 0 1 14 13 128 0 128
4 1 2 15 14 0 255 0
4 2 3 16 15 0 255 0
4 3 4 17 16 0 255 0
4 4 5 18 17 0 255 0
4 5 6 19 18 0 255 0
4 6 7 20 19 0 255 0
4 7 8 21 20 0 255 0
4 8 9 22 21 0 255 0
4 9 0 13 22 128 0 128
4 10 11 24 23 0 255 0
4 11 12 25 24 0 255 0
4 12 10 23 25 0 255 0
