ply
format ascii 1.0
element vertex 36
property float x
property float y
property float z
element face 32
property list uchar int vertex_index
property uchar red
property uchar green
property uchar blue
end_header
0.296875 0.1507420688867569 1.0
0.3030329942703247 0.34375 1.0
0.3392476439476013 0.5 1.0
0.39904871582984924 0.65625 1.0
0.5341835021972656 0.765625 1.0
0.71875 0.8318877220153809 1.0
0.71875 0.6363420486450195 1.0
0.6061191558837891 0.5 1.0
0.515625 0.3493524491786957 1.0
0.5 0.13126367330551147 1.0
0.40625 0.17878252267837524 1.0
0.4471093714237213 0.265625 1.0
0.359375 0.1918203979730606 1.0
0.4772054851055145 0.46875 1.0
0.5625 0.5466171503067017 1.0
0.671875 0.6871288418769836 1.0
0.53125 0.6813258528709412 1.0
0.4126232862472534 0.546875 1.0
0.296875 0.1507420688867569 0.0
0.3030329942703247 0.34375 0.0
0.3392476439476013 0.5 0.0
0.39904871582984924 0.65625 0.0
0.5341835021972656 0.765625 0.0
0.71875 0.8318877220153809 0.0
0.71875 0.6363420486450195 0.0
0.6061191558837891 0.5 0.0
0.515625 0.3493524491786957 0.0
0.5 0.13126367330551147 0.0
0.40625 0.17878252267837524 0.0
0.4471093714237213 0.265625 0.0
0.359375 0.1918203979730606 0.0
0.4772054851055145 0.46875 0.0
0.5625 0.5466171503067017 0.0
0.671875 0.6871288418769836 0.0
0.53125 0.6813258528709412 0.0
0.4126232862472534 0.546875 0.0
4 7 14 13 8 255 0 0
5 4 16 15 6 5 255 0 0
8 8 13 17 2 1 0 12 11 255 0 0
4 9 10 12 0 255 0 0
4 6 15 14 7 255 0 0
5 2 17 16 4 3 255 0 0
4 8 11 10 9 255 0 0
4 25 26 31 32 0 0 255
5 22 23 24 33 34 0 0 255
8 26 29 30 18 19 20 35 31 0 0 255
4 27 18 30 28 0 0 255
4 24 25 32 33 0 0 255
5 20 21 22 34 35 0 0 255
4 26 27 28 29 0 0 255
4 0 1 19 18 0 255 0
4 1 2 20 19 0 255 0
4 2 3 21 20 0 255 0
4 3 4 22 21 0 255 0
4 4 5 23 22 0 255 0
4 5 6 24 23 0 255 0
4 6 7 25 24 0 255 0
4 7 8 26 25 0 255 0
4 8 9 27 26 128 0 128
4 9 0 18 27 128 0 128
4 10 11 29 28 0 255 0
4 11 12 30 29 0 255 0
4 12 10 28 30 0 255 0
4 13 14 32 31 0 255 0
4 14 15 33 32 0 255 0
4 15 16 34 33 0 255 0
4 16 17 35 34 0 255 0
4 17 13 31 35 0 255 0
