ply
format ascii 1.0
element vertex 38
property float x
property float y
property float z
element face 29
property list uchar int vertex_index
property uchar red
property uchar green
property uchar blue
end_header
0.359375 0.0650494247674942 1.0
0.3666298985481262 0.265625 1.0
0.4277254343032837 0.453125 1.0
0.33897361159324646 0.5625 1.0
0.26076820492744446 0.59375 1.0
0.40625 0.6991508603096008 1.0
0.59375 0.7563782930374146 1.0
0.7629702687263489 0.671875 1.0
0.6870527267456055 0.5 1.0
0.5547401905059814 0.375 1.0
0.5567730069160461 0.15625 1.0
0.40625 0.062291547656059265 1.0
0.453125 0.15263569355010986 1.0
0.453125 0.25938960909843445 1.0
0.53125 0.45357662439346313 1.0
0.5577260851860046 0.46875 1.0
0.671875 0.6014212965965271 1.0
0.53125 0.663745641708374 1.0
0.504141092300415 0.5 1.0
0.359375 0.0650494247674942 0.0
0.3666298985481262 0.265625 0.0
0.4277254343032837 0.453125 0.0
0.33897361159324646 0.5625 0.0
0.26076820492744446 0.59375 0.0
0.40625 0.6991508603096008 0.0
0.59375 0.7563782930374146 0.0
0.7629702687263489 0.671875 0.0
0.6870527267456055 0.5 0.0
0.5547401905059814 0.375 0.0
0.5567730069160461 0.15625 0.0
0.40625 0.062291547656059265 0.0
0.453125 0.15263569355010986 0.0
0.453125 0.25938960909843445 0.0
0.53125 0.45357662439346313 0.0
0.5577260851860046 0.46875 0.0
0.671875 0.6014212965965271 0.0
0.53125 0.663745641708374 0.0
0.504141092300415 0.5 0.0
9 1 13 12 11 10 9 14 18 2 255 0 0
3 9 15 14 255 0 0
5 6 17 16 8 7 255 0 0
7 2 18 17 6 5 4 3 255 0 0
5 11 12 13 1 0 255 0 0
4 8 16 15 9 255 0 0
9 20 21 37 33 28 29 30 31 32 0 0 255
3 28 33 34 0 0 255
5 25 26 27 35 36 0 0 255
7 21 22 23 24 25 36 37 0 0 255
5 30 19 20 32 31 0 0 255
4 27 28 34 35 0 0 255
4 0 1 20 19 0 255 0
4 1 2 21 20 0 255 0
4 2 3 22 21 0 255 0
4 3 4 23 22 0 255 0
4 4 5 24 23 0 255 0
4 5 6 25 24 0 255 0
4 6 7 26 25 0 255 0
4 7 8 27 26 0 255 0
4 8 9 28 27 0 255 0
4 9 10 29 28 0 255 0
4 10 11 30 29 128 0 128
4 11 0 19 30 128 0 128
4 14 15 34 33 0 255 0
4 15 16 35 34 0 255 0
4 16 17 36 35 0 255 0
4 17 18 37 36 0 255 0
4 18 14 33 37 0 255 0
