ply
format ascii 1.0
element vertex 42
property float x
property float y
property float z
element face 37
property list uchar int vertex_index
property uchar red
property uchar green
property uchar blue
end_header
0.328125 0.12523230910301208 1.0
0.2114359587430954 0.265625 1.0
0.28125 0.4403488039970398 1.0
0.3130955398082733 0.59375 1.0
0.390625 0.7660650014877319 1.0
0.578125 0.8377354145050049 1.0
0.7284156680107117 0.734375 1.0
0.71875 0.5179495811462402 1.0
0.715387225151062 0.375 1.0
0.671875 0.22296158969402313 1.0
0.515625 0.12576381862163544 1.0
0.359375 0.18131054937839508 1.0
0.484375 0.18391545116901398 1.0
0.6241459250450134 0.296875 1.0
0.5 0.3720877468585968 1.0
0.3378179371356964 0.375 1.0
0.3125 0.18833209574222565 1.0
0.46875 0.5160276889801025 1.0
0.59375 0.5553393363952637 1.0
0.625 0.7280691862106323 1.0
0.4383867681026459 0.65625 1.0
0.328125 0.12523230910301208 0.0
0.2114359587430954 0.265625 0.0
0.28125 0.4403488039970398 0.0
0.3130955398082733 0.59375 0.0
0.390625 0.7660650014877319 0.0
0.578125 0.8377354145050049 0.0
0.7284156680107117 0.734375 0.0
0.71875 0.5179495811462402 0.0
0.715387225151062 0.375 0.0
0.671875 0.22296158969402313 0.0
0.515625 0.12576381862163544 0.0
0.359375 0.18131054937839508 0.0
0.484375 0.18391545116901398 0.0
0.6241459250450134 0.296875 0.0
0.5 0.3720877468585968 0.0
0.3378179371356964 0.375 0.0
0.3125 0.18833209574222565 0.0
0.46875 0.5160276889801025 0.0
0.59375 0.5553393363952637 0.0
0.625 0.7280691862106323 0.0
0.4383867681026459 0.65625 0.0
5 0 16 15 2 1 255 0 0
3 0 11 16 255 0 0
4 10 12 11 0 255 0 0
7 7 18 17 14 13 9 8 255 0 0
4 6 19 18 7 255 0 0
5 4 20 19 6 5 255 0 0
7 2 15 14 17 20 4 3 255 0 0
4 9 13 12 10 255 0 0
5 21 22 23 36 37 0 0 255
3 21 37 32 0 0 255
4 31 21 32 33 0 0 255
7 28 29 30 34 35 38 39 0 0 255
4 27 28 39 40 0 0 255
5 25 26 27 40 41 0 0 255
7 23 24 25 41 38 35 36 0 0 255
4 30 31 33 34 0 0 255
4 0 1 22 21 128 0 128
4 1 2 23 22 0 255 0
4 2 3 24 23 0 255 0
4 3 4 25 24 0 255 0
4 4 5 26 25 0 255 0
4 5 6 27 26 0 255 0
4 6 7 28 27 0 255 0
4 7 8 29 28 0 255 0
4 8 9 30 29 0 255 0
4 9 10 31 30 0 255 0
4 10 0 21 31 128 0 128
4 11 12 33 32 0 255 0
4 12 13 34 33 0 255 0
4 13 14 35 34 0 255 0
4 14 15 36 35 0 255 0
4 15 16 37 36 0 255 0
4 16 11 32 37 0 255 0
4 17 18 39 38 0 255 0
4 18 19 40 39 0 255 0
4 19 20 41 40 0 255 0
4 20 17 38 41 0 255 0
