ply
format ascii 1.0
element vertex 46
property float x
property float y
property float z
element face 31
property list uchar int vertex_index
property uchar red
property uchar green
property uchar blue
end_header
0.27156397700309753 0.171875 1.0
0.19742245972156525 0.34375 1.0
0.328125 0.4603593349456787 1.0
0.5355076193809509 0.484375 1.0
0.6875 0.5081276297569275 1.0
0.7128292918205261 0.671875 1.0
0.5432224273681641 0.734375 1.0
0.359375 0.7005535960197449 1.0
0.20937280356884003 0.671875 1.0
0.359375 0.7748013734817505 1.0
0.5625 0.8257050514221191 1.0
0.7465349435806274 0.75 1.0
0.7871147990226746 0.578125 1.0
0.6928667426109314 0.421875 1.0
0.8125 0.2960195541381836 1.0
0.828125 0.23017948865890503 1.0
0.671875 0.31424200534820557 1.0
0.5 0.2669285833835602 1.0
0.359375 0.16800738871097565 1.0
0.328125 0.22846856713294983 1.0
0.484375 0.31660425662994385 1.0
0.40625 0.38181254267692566 1.0
0.2604706883430481 0.28125 1.0
0.27156397700309753 0.171875 0.0
0.19742245972156525 0.34375 0.0
0.328125 0.4603593349456787 0.0
0.5355076193809509 0.484375 0.0
0.6875 0.5081276297569275 0.0
0.7128292918205261 0.671875 0.0
0.5432224273681641 0.734375 0.0
0.359375 0.7005535960197449 0.0
0.20937280356884003 0.671875 0.0
0.359375 0.7748013734817505 0.0
0.5625 0.8257050514221191 0.0
0.7465349435806274 0.75 0.0
0.7871147990226746 0.578125 0.0
0.6928667426109314 0.421875 0.0
0.8125 0.2960195541381836 0.0
0.828125 0.23017948865890503 0.0
0.671875 0.31424200534820557 0.0
0.5 0.2669285833835602 0.0
0.359375 0.16800738871097565 0.0
0.328125 0.22846856713294983 0.0
0.484375 0.31660425662994385 0.0
0.40625 0.38181254267692566 0.0
0.2604706883430481 0.28125 0.0
4 1 22 21 2 255 0 0
18 2 21 20 17 16 15 14 13 12 11 10 9 8 7 6 5 4 3 255 0 0
5 18 19 22 1 0 255 0 0
4 17 20 19 18 255 0 0
4 24 25 44 45 0 0 255
18 25 26 27 28 29 30 31 32 33 34 35 36 37 38 39 40 43 44 0 0 255
5 41 23 24 45 42 0 0 255
4 40 41 42 43 0 0 255
4 0 1 24 23 0 255 0
4 1 2 25 24 0 255 0
4 2 3 26 25 0 255 0
4 3 4 27 26 0 255 0
4 4 5 28 27 0 255 0
4 5 6 29 28 0 255 0
4 6 7 30 29 0 255 0
4 7 8 31 30 0 255 0
4 8 9 32 31 0 255 0
4 9 10 33 32 0 255 0
4 10 11 34 33 0 255 0
4 11 12 35 34 0 255 0
4 12 13 36 35 0 255 0
4 13 14 37 36 0 255 0
4 14 15 38 37 0 255 0
4 15 16 39 38 0 255 0
4 16 17 40 39 0 255 0
4 17 18 41 40 128 0 128
4 18 0 23 41 128 0 128
4 19 20 43 42 0 255 0
4 20 21 44 43 0 255 0
4 21 22 45 44 0 255 0
4 22 19 42 45 0 255 0
