ply
format ascii 1.0
element vertex 32
property float x
property float y
property float z
element face 26
property list uchar int vertex_index
property uchar red
property uchar green
property uchar blue
end_header
0.5882905125617981 0.03125 1.0
0.5565201044082642 0.25 1.0
0.53125 0.4147762954235077 1.0
0.375 0.326000452041626 1.0
0.21502752602100372 0.40625 1.0
0.25 0.5798636078834534 1.0
0.390625 0.7013417482376099 1.0
0.5660398006439209 0.71875 1.0
0.679328441619873 0.578125 1.0
0.6318501234054565 0.375 1.0
0.6319989562034607 0.15625 1.0
0.296875 0.39937299489974976 1.0
0.390625 0.43665802478790283 1.0
0.5256285071372986 0.546875 1.0
0.453125 0.6332932710647583 1.0
0.30689236521720886 0.53125 1.0
0.5882905125617981 0.03125 0.0
0.5565201044082642 0.25 0.0
0.53125 0.4147762954235077 0.0
0.375 0.326000452041626 0.0
0.21502752602100372 0.40625 0.0
0.25 0.5798636078834534 0.0
0.390625 0.7013417482376099 0.0
0.5660398006439209 0.71875 0.0
0.679328441619873 0.578125 0.0
0.6318501234054565 0.375 0.0
0.6319989562034607 0.15625 0.0
0.296875 0.39937299489974976 0.0
0.390625 0.43665802478790283 0.0
0.5256285071372986 0.546875 0.0
0.453125 0.6332932710647583 0.0
0.30689236521720886 0.53125 0.0
4 4 11 15 5 255 0 0
4 3 12 11 4 255 0 0
10 6 14 13 2 1 0 10 9 8 7 255 0 0
4 5 15 14 6 255 0 0
4 2 13 12 3 255 0 0
4 20 21 31 27 0 0 255
4 19 20 27 28 0 0 255
10 22 23 24 25 26 16 17 18 29 30 0 0 255
4 21 22 30 31 0 0 255
4 18 19 28 29 0 0 255
4 0 1 17 16 128 0 128
4 1 2 18 17 0 255 0
4 2 3 19 18 0 255 0
4 3 4 20 19 0 255 0
4 4 5 21 20 0 255 0
4 5 6 22 21 0 255 0
4 6 7 23 22 0 255 0
4 7 8 24 23 0 255 0
4 8 9 25 24 0 255 0
4 9 10 26 25 0 255 0
4 10 0 16 26 128 0 128
4 11 12 28 27 0 255 0
4 12 13 29 28 0 255 0
4 13 14 30 29 0 255 0
4 14 15 31 30 0 255 0
4 15 11 27 31 0 255 0
