ply
format ascii 1.0
element vertex 34
property float x
property float y
property float z
element face 23
property list uchar int vertex_index
property uchar red
property uchar green
property uchar blue
end_header
0.3695846498012543 0.109375 1.0
0.21029967069625854 0.203125 1.0
0.296875 0.3038567006587982 1.0
0.453125 0.3170556128025055 1.0
0.340280681848526 0.453125 1.0
0.43698322772979736 0.609375 1.0
0.53125 0.7289445400238037 1.0
0.734375 0.7675114274024963 1.0
0.9088127613067627 0.734375 1.0
0.7298212051391602 0.671875 1.0
0.546875 0.6080657243728638 1.0
0.4375 0.48163965344429016 1.0
0.53125 0.33689653873443604 1.0
0.5078543424606323 0.140625 1.0
0.390625 0.18247652053833008 1.0
0.4062756597995758 0.1875 1.0
0.390625 0.2301911860704422 1.0
0.3695846498012543 0.109375 0.0
0.21029967069625854 0.203125 0.0
0.296875 0.3038567006587982 0.0
0.453125 0.3170556128025055 0.0
0.340280681848526 0.453125 0.0
0.43698322772979736 0.609375 0.0
0.53125 0.7289445400238037 0.0
0.734375 0.7675114274024963 0.0
0.9088127613067627 0.734375 0.0
0.7298212051391602 0.671875 0.0
0.546875 0.6080657243728638 0.0
0.4375 0.48163965344429016 0.0
0.53125 0.33689653873443604 0.0
0.5078543424606323 0.140625 0.0
0.390625 0.18247652053833008 0.0
0.4062756597995758 0.1875 0.0
0.390625 0.2301911860704422 0.0
6 0 14 16 3 2 1 255 0 0
14 3 16 15 0 13 12 11 10 9 8 7 6 5 4 255 0 0
3 0 15 14 255 0 0
6 17 18 19 20 33 31 0 0 255
14 20 21 22 23 24 25 26 27 28 29 30 17 32 33 0 0 255
3 17 31 32 0 0 255
4 0 1 18 17 128 0 128
4 1 2 19 18 0 255 0
4 2 3 20 19 0 255 0
4 3 4 21 20 0 255 0
4 4 5 22 21 0 255 0
4 5 6 23 22 0 255 0
4 6 7 24 23 0 255 0
4 7 8 25 24 0 255 0
4 8 9 26 25 0 255 0
4 9 10 27 26 0 255 0
4 10 11 28 27 0 255 0
4 11 12 29 28 0 255 0
4 12 13 30 29 0 255 0
4 13 0 17 30 128 0 128
4 14 15 32 31 0 255 0
4 15 16 33 32 0 255 0
4 16 14 31 33 0 255 0
