ply
format ascii 1.0
element vertex 40
property float x
property float y
property float z
element face 26
property list uchar int vertex_index
property uchar red
property uchar green
property uchar blue
end_header
0.3412961959838867 0.109375 1.0
0.3366599977016449 0.296875 1.0
0.4238545000553131 0.453125 1.0
0.2916361093521118 0.5625 1.0
0.34462782740592957 0.75 1.0
0.5021318197250366 0.796875 1.0
0.5 0.7118992805480957 1.0
0.3665584325790405 0.65625 1.0
0.46875 0.510230541229248 1.0
0.608941376209259 0.625 1.0
0.75 0.733173668384552 1.0
0.8873055577278137 0.765625 1.0
0.75 0.6463529467582703 1.0
0.6117834448814392 0.53125 1.0
0.5625 0.38967785239219666 1.0
0.5360691547393799 0.203125 1.0
0.390625 0.09526002407073975 1.0
0.40625 0.1900257021188736 1.0
0.4871903359889984 0.265625 1.0
0.42605769634246826 0.28125 1.0
0.3412961959838867 0.109375 0.0
0.3366599977016449 0.296875 0.0
0.4238545000553131 0.453125 0.0
0.2916361093521118 0.5625 0.0
0.34462782740592957 0.75 0.0
0.5021318197250366 0.796875 0.0
0.5 0.7118992805480957 0.0
0.3665584325790405 0.65625 0.0
0.46875 0.510230541229248 0.0
0.608941376209259 0.625 0.0
0.75 0.733173668384552 0.0
0.8873055577278137 0.765625 0.0
0.75 0.6463529467582703 0.0
0.6117834448814392 0.53125 0.0
0.5625 0.38967785239219666 0.0
0.5360691547393799 0.203125 0.0
0.390625 0.09526002407073975 0.0
0.40625 0.1900257021188736 0.0
0.4871903359889984 0.265625 0.0
0.42605769634246826 0.28125 0.0
17 1 19 18 15 14 13 12 11 10 9 8 7 6 5 4 3 2 255 0 0
5 16 17 19 1 0 255 0 0
4 15 18 17 16 255 0 0
17 21 22 23 24 25 26 27 28 29 30 31 32 33 34 35 38 39 0 0 255
5 36 20 21 39 37 0 0 255
4 35 36 37 38 0 0 255
4 0 1 21 20 0 255 0
4 1 2 22 21 0 255 0
4 2 3 23 22 0 255 0
4 3 4 24 23 0 255 0
4 4 5 25 24 0 255 0
4 5 6 26 25 0 255 0
4 6 7 27 26 0 255 0
4 7 8 28 27 0 255 0
4 8 9 29 28 0 255 0
4 9 10 30 29 0 255 0
4 10 11 31 30 0 255 0
4 11 12 32 31 0 255 0
4 12 13 33 32 0 255 0
4 13 14 34 33 0 255 0
4 14 15 35 34 0 255 0
4 15 16 36 35 128 0 128
4 16 0 20 36 128 0 128
4 17 18 38 37 0 255 0
4 18 19 39 38 0 255 0
4 19 17 37 39 0 255 0
