ply
format ascii 1.0
element vertex 38
property float x
property float y
property float z
element face 33
property list uchar int vertex_index
property uchar red
property uchar green
property uchar blue
end_header
0.515625 0.09637851268053055 1.0
0.3801966905593872 0.21875 1.0
0.42399290204048157 0.421875 1.0
0.3190630376338959 0.5625 1.0
0.359375 0.7470589876174927 1.0
0.546875 0.8047795295715332 1.0
0.65625 0.6871321797370911 1.0
0.6090336441993713 0.515625 1.0
0.6593926548957825 0.359375 1.0
0.7094659805297852 0.1875 1.0
0.5625 0.08820832520723343 1.0
0.578125 0.18673895299434662 1.0
0.6480390429496765 0.265625 1.0
0.5 0.36205366253852844 1.0
0.5061472654342651 0.203125 1.0
0.484375 0.506283164024353 1.0
0.6048604249954224 0.59375 1.0
0.546875 0.697077751159668 1.0
0.3791554570198059 0.609375 1.0
0.515625 0.09637851268053055 0.0
0.3801966905593872 0.21875 0.0
0.42399290204048157 0.421875 0.0
0.3190630376338959 0.5625 0.0
0.359375 0.7470589876174927 0.0
0.546875 0.8047795295715332 0.0
0.65625 0.6871321797370911 0.0
0.6090336441993713 0.515625 0.0
0.6593926548957825 0.359375 0.0
0.7094659805297852 0.1875 0.0
0.5625 0.08820832520723343 0.0
0.578125 0.18673895299434662 0.0
0.6480390429496765 0.265625 0.0
0.5 0.36205366253852844 0.0
0.5061472654342651 0.203125 0.0
0.484375 0.506283164024353 0.0
0.6048604249954224 0.59375 0.0
0.546875 0.697077751159668 0.0
0.3791554570198059 0.609375 0.0
5 8 12 11 10 9 255 0 0
7 7 16 15 2 13 12 8 255 0 0
4 10 11 14 0 255 0 0
5 0 14 13 2 1 255 0 0
4 2 15 18 3 255 0 0
5 3 18 17 5 4 255 0 0
5 5 17 16 7 6 255 0 0
5 27 28 29 30 31 0 0 255
7 26 27 31 32 21 34 35 0 0 255
4 29 19 33 30 0 0 255
5 19 20 21 32 33 0 0 255
4 21 22 37 34 0 0 255
5 22 23 24 36 37 0 0 255
5 24 25 26 35 36 0 0 255
4 0 1 20 19 0 255 0
4 1 2 21 20 0 255 0
4 2 3 22 21 0 255 0
4 3 4 23 22 0 255 0
4 4 5 24 23 0 255 0
4 5 6 25 24 0 255 0
4 6 7 26 25 0 255 0
4 7 8 27 26 0 255 0
4 8 9 28 27 0 255 0
4 9 10 29 28 128 0 128
4 10 0 19 29 128 0 128
4 11 12 31 30 0 255 0
4 12 13 32 31 0 255 0
4 13 14 33 32 0 255 0
4 14 11 30 33 0 255 0
4 15 16 35 34 0 255 0
4 16 17 36 35 0 255 0
4 17 18 37 36 0 255 0
4 18 15 34 37 0 255 0
