ply
format ascii 1.0
element vertex 40
property float x
property float y
property float z
element face 22
property list uchar int vertex_index
property uchar red
property uchar green
property uchar blue
end_header
0.390625 0.166726753115654 1.0
0.609375 0.19539999961853027 1.0
0.75 0.3056493401527405 1.0
0.703125 0.4629671573638916 1.0
0.53125 0.5420287251472473 1.0
0.35261738300323486 0.609375 1.0
0.53125 0.675701379776001 1.0
0.71875 0.7426691055297852 1.0
0.828125 0.8677862286567688 1.0
0.6450367569923401 0.796875 1.0
0.46875 0.7297287583351135 1.0
0.28125 0.7005121111869812 1.0
0.23574155569076538 0.578125 1.0
0.40625 0.49087539315223694 1.0
0.59375 0.43550875782966614 1.0
0.6074514985084534 0.3125 1.0
0.421875 0.2478821873664856 1.0
0.265625 0.34085196256637573 1.0
0.14986877143383026 0.296875 1.0
0.3122676610946655 0.203125 1.0
0.390625 0.166726753115654 0.0
0.609375 0.19539999961853027 0.0
0.75 0.3056493401527405 0.0
0.703125 0.4629671573638916 0.0
0.53125 0.5420287251472473 0.0
0.35261738300323486 0.609375 0.0
0.53125 0.675701379776001 0.0
0.71875 0.7426691055297852 0.0
0.828125 0.8677862286567688 0.0
0.6450367569923401 0.796875 0.0
0.46875 0.7297287583351135 0.0
0.28125 0.7005121111869812 0.0
0.23574155569076538 0.578125 0.0
0.40625 0.49087539315223694 0.0
0.59375 0.43550875782966614 0.0
0.6074514985084534 0.3125 0.0
0.421875 0.2478821873664856 0.0
0.265625 0.34085196256637573 0.0
0.14986877143383026 0.296875 0.0
0.3122676610946655 0.203125 0.0
20 0 1 2 3 4 5 6 7 8 9 10 11 12 13 14 15 16 17 18 19 255 0 0
20 20 39 38 37 36 35 34 33 32 31 30 29 28 27 26 25 24 23 22 21 0 0 255
4 1 0 20 21 128 0 128
4 2 1 21 22 0 255 0
4 3 2 22 23 0 255 0
4 4 3 23 24 0 255 0
4 5 4 24 25 0 255 0
4 6 5 25 26 0 255 0
4 7 6 26 27 0 255 0
4 8 7 27 28 0 255 0
4 9 8 28 29 0 255 0
4 10 9 29 30 0 255 0
4 11 10 30 31 0 255 0
4 12 11 31 32 0 255 0
4 13 12 32 33 0 255 0
4 14 13 33 34 0 255 0
4 15 14 34 35 0 255 0
4 16 15 35 36 0 255 0
4 17 16 36 37 0 255 0
4 18 17 37 38 0 255 0
4 19 18 38 39 0 255 0
4 0 19 39 20 128 0 128
