ply
format ascii 1.0
element vertex 38
property float x
property float y
property float z
element face 33
property list uchar int vertex_index
property uchar red
property uchar green
property uchar blue
end_header
0.4241566061973572 0.15625 1.0
0.265625 0.24137699604034424 1.0
0.12028835713863373 0.1875 1.0
0.21875 0.2979244887828827 1.0
0.28125 0.49294808506965637 1.0
0.3852884769439697 0.640625 1.0
0.546875 0.7226971387863159 1.0
0.75 0.7459303736686707 1.0
0.7347264885902405 0.578125 1.0
0.7083413004875183 0.390625 1.0
0.609375 0.24258680641651154 1.0
0.453125 0.1454506367444992 1.0
0.40625 0.25705888867378235 1.0
0.546875 0.3123319149017334 1.0
0.6482611894607544 0.453125 1.0
0.609375 0.6258883476257324 1.0
0.4375 0.5472661852836609 1.0
0.40625 0.41120433807373047 1.0
0.359375 0.3081158995628357 1.0
0.4241566061973572 0.15625 0.0
0.265625 0.24137699604034424 0.0
0.12028835713863373 0.1875 0.0
0.21875 0.2979244887828827 0.0
0.28125 0.49294808506965637 0.0
0.3852884769439697 0.640625 0.0
0.546875 0.7226971387863159 0.0
0.75 0.7459303736686707 0.0
0.7347264885902405 0.578125 0.0
0.7083413004875183 0.390625 0.0
0.609375 0.24258680641651154 0.0
0.453125 0.1454506367444992 0.0
0.40625 0.25705888867378235 0.0
0.546875 0.3123319149017334 0.0
0.6482611894607544 0.453125 0.0
0.609375 0.6258883476257324 0.0
0.4375 0.5472661852836609 0.0
0.40625 0.41120433807373047 0.0
0.359375 0.3081158995628357 0.0
4 4 17 16 5 255 0 0
6 1 18 17 4 3 2 255 0 0
4 0 12 18 1 255 0 0
6 6 15 14 9 8 7 255 0 0
5 10 13 12 0 11 255 0 0
4 9 14 13 10 255 0 0
4 5 16 15 6 255 0 0
4 23 24 35 36 0 0 255
6 20 21 22 23 36 37 0 0 255
4 19 20 37 31 0 0 255
6 25 26 27 28 33 34 0 0 255
5 29 30 19 31 32 0 0 255
4 28 29 32 33 0 0 255
4 24 25 34 35 0 0 255
4 0 1 20 19 0 255 0
4 1 2 21 20 0 255 0
4 2 3 22 21 0 255 0
4 3 4 23 22 0 255 0
4 4 5 24 23 0 255 0
4 5 6 25 24 0 255 0
4 6 7 26 25 0 255 0
4 7 8 27 26 0 255 0
4 8 9 28 27 0 255 0
4 9 10 29 28 0 255 0
4 10 11 30 29 128 0 128
4 11 0 19 30 128 0 128
4 12 13 32 31 0 255 0
4 13 14 33 32 0 255 0
4 14 15 34 33 0 255 0
4 15 16 35 34 0 255 0
4 16 17 36 35 0 255 0
4 17 18 37 36 0 255 0
4 18 12 31 37 0 255 0
