ply
format ascii 1.0
element vertex 34
property float x
property float y
property float z
element face 19
property list uchar int vertex_index
property uchar red
property uchar green
property uchar blue
end_header
0.3797972798347473 0.203125 1.0
0.3229147493839264 0.359375 1.0
0.4005553424358368 0.53125 1.0
0.5085083246231079 0.671875 1.0
0.6113548874855042 0.8125 1.0
0.703125 0.8634280562400818 1.0
0.5994262099266052 0.71875 1.0
0.5 0.5768612027168274 1.0
0.609375 0.4734785258769989 1.0
0.5625 0.2826920449733734 1.0
0.40625 0.19452309608459473 1.0
0.3797972798347473 0.203125 1.0
0.4258292615413666 0.25 1.0
0.5359702706336975 0.328125 1.0
0.46875 0.47840335965156555 1.0
0.36919811367988586 0.328125 1.0
0.4258292615413666 0.25 1.0
0.3797972798347473 0.203125 0.0
0.3229147493839264 0.359375 0.0
0.4005553424358368 0.53125 0.0
0.5085083246231079 0.671875 0.0
0.6113548874855042 0.8125 0.0
0.703125 0.8634280562400818 0.0
0.5994262099266052 0.71875 0.0
0.5 0.5768612027168274 0.0
0.609375 0.4734785258769989 0.0
0.5625 0.2826920449733734 0.0
0.40625 0.19452309608459473 0.0
0.3797972798347473 0.203125 0.0
0.4258292615413666 0.25 0.0
0.5359702706336975 0.328125 0.0
0.46875 0.47840335965156555 0.0
0.36919811367988586 0.328125 0.0
0.4258292615413666 0.25 0.0
4 13 9 10 12 255 0 0
12 15 1 2 3 4 5 6 7 8 9 13 14 255 0 0
4 30 29 27 26 0 0 255
12 32 31 30 26 25 24 23 22 21 20 19 18 0 0 255
4 1 0 17 18 0 255 0
4 2 1 18 19 0 255 0
4 3 2 19 20 0 255 0
4 4 3 20 21 0 255 0
4 5 4 21 22 0 255 0
4 6 5 22 23 0 255 0
4 7 6 23 24 0 255 0
4 8 7 24 25 0 255 0
4 9 8 25 26 0 255 0
4 10 9 26 27 128 0 128
4 11 10 27 28 128 0 128
4 13 12 29 30 0 255 0
4 14 13 30 31 0 255 0
4 15 14 31 32 0 255 0
4 16 15 32 33 0 255 0
