ply
format ascii 1.0
element vertex 44
property float x
property float y
property float z
element face 40
property list uchar int vertex_index
property uchar red
property uchar green
property uchar blue
end_header
0.421875 0.09624332934617996 1.0
0.35900551080703735 0.28125 1.0
0.389014333486557 0.5 1.0
0.2681806981563568 0.609375 1.0
0.359375 0.7704751491546631 1.0
0.5176198482513428 0.75 1.0
0.5 0.5996347069740295 1.0
0.703125 0.557523250579834 1.0
0.8224491477012634 0.421875 1.0
0.7576947808265686 0.265625 1.0
0.6223255395889282 0.15625 1.0
0.4375 0.08952069282531738 1.0
0.453125 0.14490710198879242 1.0
0.59375 0.1936667412519455 1.0
0.734375 0.30149954557418823 1.0
0.7424529194831848 0.453125 1.0
0.578125 0.5454675555229187 1.0
0.4375 0.4638673961162567 1.0
0.41215503215789795 0.234375 1.0
0.375 0.6026723980903625 1.0
0.41377630829811096 0.609375 1.0
0.390625 0.7444793581962585 1.0
0.421875 0.09624332934617996 0.0
0.35900551080703735 0.28125 0.0
0.389014333486557 0.5 0.0
0.2681806981563568 0.609375 0.0
0.359375 0.7704751491546631 0.0
0.5176198482513428 0.75 0.0
0.5 0.5996347069740295 0.0
0.703125 0.557523250579834 0.0
0.8224491477012634 0.421875 0.0
0.7576947808265686 0.265625 0.0
0.6223255395889282 0.15625 0.0
0.4375 0.08952069282531738 0.0
0.453125 0.14490710198879242 0.0
0.59375 0.1936667412519455 0.0
0.734375 0.30149954557418823 0.0
0.7424529194831848 0.453125 0.0
0.578125 0.5454675555229187 0.0
0.4375 0.4638673961162567 0.0
0.41215503215789795 0.234375 0.0
0.375 0.6026723980903625 0.0
0.41377630829811096 0.609375 0.0
0.390625 0.7444793581962585 0.0
5 4 21 20 6 5 255 0 0
4 1 18 17 2 255 0 0
4 10 13 12 11 255 0 0
5 2 19 21 4 3 255 0 0
5 6 16 15 8 7 255 0 0
6 2 17 16 6 20 19 255 0 0
4 9 14 13 10 255 0 0
4 8 15 14 9 255 0 0
5 11 12 18 1 0 255 0 0
5 26 27 28 42 43 0 0 255
4 23 24 39 40 0 0 255
4 32 33 34 35 0 0 255
5 24 25 26 43 41 0 0 255
5 28 29 30 37 38 0 0 255
6 24 41 42 28 38 39 0 0 255
4 31 32 35 36 0 0 255
4 30 31 36 37 0 0 255
5 33 22 23 40 34 0 0 255
4 0 1 23 22 0 255 0
4 1 2 24 23 0 255 0
4 2 3 25 24 0 255 0
4 3 4 26 25 0 255 0
4 4 5 27 26 0 255 0
4 5 6 28 27 0 255 0
4 6 7 29 28 0 255 0
4 7 8 30 29 0 255 0
4 8 9 31 30 0 255 0
4 9 10 32 31 0 255 0
4 10 11 33 32 128 0 128
4 11 0 22 33 128 0 128
4 12 13 35 34 0 255 0
4 13 14 36 35 0 255 0
4 14 15 37 36 0 255 0
4 15 16 38 37 0 255 0
4 16 17 39 38 0 255 0
4 17 18 40 39 0 255 0
4 18 12 34 40 0 255 0
4 19 20 42 41 0 255 0
4 20 21 43 42 0 255 0
4 21 19 41 43 0 255 0
