ply
format ascii 1.0
element vertex 36
property float x
property float y
property float z
element face 22
property list uchar int vertex_index
property uchar red
property uchar green
property uchar blue
end_header
0.27493953704833984 0.171875 1.0
0.28125 0.34805771708488464 1.0
0.3932313024997711 0.484375 1.0
0.515625 0.6132670044898987 1.0
0.640625 0.7374057769775391 1.0
0.78125 0.8521713614463806 1.0
0.80629563331604 0.78125 1.0
0.6754212379455566 0.65625 1.0
0.578125 0.5254986882209778 1.0
0.6527249217033386 0.375 1.0
0.5324451327323914 0.234375 1.0
0.359375 0.1616063117980957 1.0
0.27493953704833984 0.171875 1.0
0.359375 0.24732863903045654 1.0
0.5219376087188721 0.296875 1.0
0.46875 0.4019761383533478 1.0
0.3485017418861389 0.296875 1.0
0.359375 0.24732863903045654 1.0
0.27493953704833984 0.171875 0.0
0.28125 0.34805771708488464 0.0
0.3932313024997711 0.484375 0.0
0.515625 0.6132670044898987 0.0
0.640625 0.7374057769775391 0.0
0.78125 0.8521713614463806 0.0
0.80629563331604 0.78125 0.0
0.6754212379455566 0.65625 0.0
0.578125 0.5254986882209778 0.0
0.6527249217033386 0.375 0.0
0.5324451327323914 0.234375 0.0
0.359375 0.1616063117980957 0.0
0.27493953704833984 0.171875 0.0
0.359375 0.24732863903045654 0.0
0.5219376087188721 0.296875 0.0
0.46875 0.4019761383533478 0.0
0.3485017418861389 0.296875 0.0
0.359375 0.24732863903045654 0.0
4 1 16 15 2 255 0 0
4 10 14 13 11 255 0 0
11 2 15 14 10 9 8 7 6 5 4 3 255 0 0
4 19 20 33 34 0 0 255
4 28 29 31 32 0 0 255
11 20 21 22 23 24 25 26 27 28 32 33 0 0 255
4 0 1 19 18 0 255 0
4 1 2 20 19 0 255 0
4 2 3 21 20 0 255 0
4 3 4 22 21 0 255 0
4 4 5 23 22 0 255 0
4 5 6 24 23 0 255 0
4 6 7 25 24 0 255 0
4 7 8 26 25 0 255 0
4 8 9 27 26 0 255 0
4 9 10 28 27 0 255 0
4 10 11 29 28 128 0 128
4 11 12 30 29 128 0 128
4 13 14 32 31 0 255 0
4 14 15 33 32 0 255 0
4 15 16 34 33 0 255 0
4 16 17 35 34 0 255 0
