ply
format ascii 1.0
element vertex 42
property float x
property float y
property float z
element face 31
property list uchar int vertex_index
property uchar red
property uchar green
property uchar blue
end_header
0.38894450664520264 0.140625 1.0
0.203125 0.21791447699069977 1.0
0.2546793222427368 0.359375 1.0
0.42923033237457275 0.4375 1.0
0.3626704216003418 0.59375 1.0
0.421875 0.7609225511550903 1.0
0.59375 0.8381944894790649 1.0
0.640625 0.7790327072143555 1.0
0.49074700474739075 0.703125 1.0
0.4828559160232544 0.53125 1.0
0.6367886066436768 0.546875 1.0
0.7791748046875 0.65625 1.0
0.828125 0.5936797261238098 1.0
0.671875 0.4911577105522156 1.0
0.578125 0.38980767130851746 1.0
0.5767308473587036 0.1875 1.0
0.4720858931541443 0.1875 1.0
0.5214500427246094 0.234375 1.0
0.46875 0.3942074775695801 1.0
0.296875 0.3153073787689209 1.0
0.390625 0.207781121134758 1.0
0.38894450664520264 0.140625 0.0
0.203125 0.21791447699069977 0.0
0.2546793222427368 0.359375 0.0
0.42923033237457275 0.4375 0.0
0.3626704216003418 0.59375 0.0
0.421875 0.7609225511550903 0.0
0.59375 0.8381944894790649 0.0
0.640625 0.7790327072143555 0.0
0.49074700474739075 0.703125 0.0
0.4828559160232544 0.53125 0.0
0.6367886066436768 0.546875 0.0
0.7791748046875 0.65625 0.0
0.828125 0.5936797261238098 0.0
0.671875 0.4911577105522156 0.0
0.578125 0.38980767130851746 0.0
0.5767308473587036 0.1875 0.0
0.4720858931541443 0.1875 0.0
0.5214500427246094 0.234375 0.0
0.46875 0.3942074775695801 0.0
0.296875 0.3153073787689209 0.0
0.390625 0.207781121134758 0.0
5 0 20 19 2 1 255 0 0
3 0 16 20 255 0 0
15 3 18 17 15 14 13 12 11 10 9 8 7 6 5 4 255 0 0
4 15 17 16 0 255 0 0
4 2 19 18 3 255 0 0
5 21 22 23 40 41 0 0 255
3 21 41 37 0 0 255
15 24 25 26 27 28 29 30 31 32 33 34 35 36 38 39 0 0 255
4 36 21 37 38 0 0 255
4 23 24 39 40 0 0 255
4 0 1 22 21 128 0 128
4 1 2 23 22 0 255 0
4 2 3 24 23 0 255 0
4 3 4 25 24 0 255 0
4 4 5 26 25 0 255 0
4 5 6 27 26 0 255 0
4 6 7 28 27 0 255 0
4 7 8 29 28 0 255 0
4 8 9 30 29 0 255 0
4 9 10 31 30 0 255 0
4 10 11 32 31 0 255 0
4 11 12 33 32 0 255 0
4 12 13 34 33 0 255 0
4 13 14 35 34 0 255 0
4 14 15 36 35 0 255 0
4 15 0 21 36 128 0 128
4 16 17 38 37 0 255 0
4 17 18 39 38 0 255 0
4 18 19 40 39 0 255 0
4 19 20 41 40 0 255 0
4 20 16 37 41 0 255 0
