ply
format ascii 1.0
element vertex 42
property float x
property float y
property float z
element face 23
property list uchar int vertex_index
property uchar red
property uchar green
property uchar blue
end_header
0.265625 0.13832104206085205 1.0
0.4923518896102905 0.15625 1.0
0.65625 0.2480449080467224 1.0
0.7660806179046631 0.375 1.0
0.8295921683311462 0.5625 1.0
0.7685906291007996 0.75 1.0
0.6266177296638489 0.8125 1.0
0.71875 0.7127998471260071 1.0
0.7302966713905334 0.5 1.0
0.6332736015319824 0.34375 1.0
0.484375 0.24072696268558502 1.0
0.296875 0.2046627700328827 1.0
0.20433394610881805 0.375 1.0
0.265625 0.5686265826225281 1.0
0.375 0.7041769027709961 1.0
0.578125 0.6958205103874207 1.0
0.4375 0.7929894328117371 1.0
0.2688157856464386 0.703125 1.0
0.17567293345928192 0.546875 1.0
0.14136378467082977 0.359375 1.0
0.1920059621334076 0.1875 1.0
0.265625 0.13832104206085205 0.0
0.4923518896102905 0.15625 0.0
0.65625 0.2480449080467224 0.0
0.7660806179046631 0.375 0.0
0.8295921683311462 0.5625 0.0
0.7685906291007996 0.75 0.0
0.6266177296638489 0.8125 0.0
0.71875 0.7127998471260071 0.0
0.7302966713905334 0.5 0.0
0.6332736015319824 0.34375 0.0
0.484375 0.24072696268558502 0.0
0.296875 0.2046627700328827 0.0
0.20433394610881805 0.375 0.0
0.265625 0.5686265826225281 0.0
0.375 0.7041769027709961 0.0
0.578125 0.6958205103874207 0.0
0.4375 0.7929894328117371 0.0
0.2688157856464386 0.703125 0.0
0.17567293345928192 0.546875 0.0
0.14136378467082977 0.359375 0.0
0.1920059621334076 0.1875 0.0
21 0 1 2 3 4 5 6 7 8 9 10 11 12 13 14 15 16 17 18 19 20 255 0 0
21 21 41 40 39 38 37 36 35 34 33 32 31 30 29 28 27 26 25 24 23 22 0 0 255
4 1 0 21 22 128 0 128
4 2 1 22 23 0 255 0
4 3 2 23 24 0 255 0
4 4 3 24 25 0 255 0
4 5 4 25 26 0 255 0
4 6 5 26 27 0 255 0
4 7 6 27 28 0 255 0
4 8 7 28 29 0 255 0
4 9 8 29 30 0 255 0
4 10 9 30 31 0 255 0
4 11 10 31 32 0 255 0
4 12 11 32 33 0 255 0
4 13 12 33 34 0 255 0
4 14 13 34 35 0 255 0
4 15 14 35 36 0 255 0
4 16 15 36 37 0 255 0
4 17 16 37 38 0 255 0
4 18 17 38 39 0 255 0
4 19 18 39 40 0 255 0
4 20 19 40 41 0 255 0
4 0 20 41 21 128 0 128
