ply
format ascii 1.0
element vertex 42
property float x
property float y
property float z
element face 37
property list uchar int vertex_index
property uchar red
property uchar green
property uchar blue
end_header
0.3125 0.10929807275533676 1.0
0.33683472871780396 0.28125 1.0
0.3870413303375244 0.421875 1.0
0.28125 0.5641402006149292 1.0
0.359375 0.7338312268257141 1.0
0.53125 0.8029537796974182 1.0
0.7261279225349426 0.75 1.0
0.78125 0.634748637676239 1.0
0.640625 0.5170087218284607 1.0
0.5625 0.3958606421947479 1.0
0.585483968257904 0.203125 1.0
0.453125 0.08815617859363556 1.0
0.390625 0.15681575238704681 1.0
0.4375 0.1807452291250229 1.0
0.4932018518447876 0.3125 1.0
0.38303354382514954 0.21875 1.0
0.484375 0.47960299253463745 1.0
0.5937685966491699 0.5625 1.0
0.640625 0.726854145526886 1.0
0.4375 0.6784054040908813 1.0
0.421875 0.5199929475784302 1.0
0.3125 0.10929807275533676 0.0
0.33683472871780396 0.28125 0.0
0.3870413303375244 0.421875 0.0
0.28125 0.5641402006149292 0.0
0.359375 0.7338312268257141 0.0
0.53125 0.8029537796974182 0.0
0.7261279225349426 0.75 0.0
0.78125 0.634748637676239 0.0
0.640625 0.5170087218284607 0.0
0.5625 0.3958606421947479 0.0
0.585483968257904 0.203125 0.0
0.453125 0.08815617859363556 0.0
0.390625 0.15681575238704681 0.0
0.4375 0.1807452291250229 0.0
0.4932018518447876 0.3125 0.0
0.38303354382514954 0.21875 0.0
0.484375 0.47960299253463745 0.0
0.5937685966491699 0.5625 0.0
0.640625 0.726854145526886 0.0
0.4375 0.6784054040908813 0.0
0.421875 0.5199929475784302 0.0
8 8 17 16 2 1 15 14 9 255 0 0
5 2 20 19 4 3 255 0 0
4 11 13 12 0 255 0 0
4 0 12 15 1 255 0 0
5 6 18 17 8 7 255 0 0
3 2 16 20 255 0 0
5 9 14 13 11 10 255 0 0
5 4 19 18 6 5 255 0 0
8 29 30 35 36 22 23 37 38 0 0 255
5 23 24 25 40 41 0 0 255
4 32 21 33 34 0 0 255
4 21 22 36 33 0 0 255
5 27 28 29 38 39 0 0 255
3 23 41 37 0 0 255
5 30 31 32 34 35 0 0 255
5 25 26 27 39 40 0 0 255
4 0 1 22 21 0 255 0
4 1 2 23 22 0 255 0
4 2 3 24 23 0 255 0
4 3 4 25 24 0 255 0
4 4 5 26 25 0 255 0
4 5 6 27 26 0 255 0
4 6 7 28 27 0 255 0
4 7 8 29 28 0 255 0
4 8 9 30 29 0 255 0
4 9 10 31 30 0 255 0
4 10 11 32 31 128 0 128
4 11 0 21 32 128 0 128
4 12 13 34 33 0 255 0
4 13 14 35 34 0 255 0
4 14 15 36 35 0 255 0
4 15 12 33 36 0 255 0
4 16 17 38 37 0 255 0
4 17 18 39 38 0 255 0
4 18 19 40 39 0 255 0
4 19 20 41 40 0 255 0
4 20 16 37 41 0 255 0
