ply
format ascii 1.0
element vertex 42
property float x
property float y
property float z
element face 27
property list uchar int vertex_index
property uchar red
property uchar green
property uchar blue
end_header
0.5853781700134277 0.125 1.0
0.4365473985671997 0.171875 1.0
0.203125 0.18267162144184113 1.0
0.203125 0.34853604435920715 1.0
0.34375 0.45440873503685 1.0
0.53125 0.40224939584732056 1.0
0.6683474183082581 0.484375 1.0
0.671875 0.679981529712677 1.0
0.515625 0.7394599318504333 1.0
0.34375 0.7289218306541443 1.0
0.25 0.6287018656730652 1.0
0.26693418622016907 0.78125 1.0
0.46875 0.8413103818893433 1.0
0.6875 0.8080469965934753 1.0
0.7759813666343689 0.640625 1.0
0.7714589238166809 0.453125 1.0
0.6536460518836975 0.328125 1.0
0.6541152000427246 0.171875 1.0
0.296875 0.26661840081214905 1.0
0.4595373272895813 0.328125 1.0
0.28125 0.2982097268104553 1.0
0.5853781700134277 0.125 0.0
0.4365473985671997 0.171875 0.0
0.203125 0.18267162144184113 0.0
0.203125 0.34853604435920715 0.0
0.34375 0.45440873503685 0.0
0.53125 0.40224939584732056 0.0
0.6683474183082581 0.484375 0.0
0.671875 0.679981529712677 0.0
0.515625 0.7394599318504333 0.0
0.34375 0.7289218306541443 0.0
0.25 0.6287018656730652 0.0
0.26693418622016907 0.78125 0.0
0.46875 0.8413103818893433 0.0
0.6875 0.8080469965934753 0.0
0.7759813666343689 0.640625 0.0
0.7714589238166809 0.453125 0.0
0.6536460518836975 0.328125 0.0
0.6541152000427246 0.171875 0.0
0.296875 0.26661840081214905 0.0
0.4595373272895813 0.328125 0.0
0.28125 0.2982097268104553 0.0
19 5 19 18 3 2 1 0 17 16 15 14 13 12 11 10 9 8 7 6 255 0 0
5 3 20 19 5 4 255 0 0
3 3 18 20 255 0 0
19 26 27 28 29 30 31 32 33 34 35 36 37 38 21 22 23 24 39 40 0 0 255
5 24 25 26 40 41 0 0 255
3 24 41 39 0 0 255
4 0 1 22 21 128 0 128
4 1 2 23 22 0 255 0
4 2 3 24 23 0 255 0
4 3 4 25 24 0 255 0
4 4 5 26 25 0 255 0
4 5 6 27 26 0 255 0
4 6 7 28 27 0 255 0
4 7 8 29 28 0 255 0
4 8 9 30 29 0 255 0
4 9 10 31 30 0 255 0
4 10 11 32 31 0 255 0
4 11 12 33 32 0 255 0
4 12 13 34 33 0 255 0
4 13 14 35 34 0 255 0
4 14 15 36 35 0 255 0
4 15 16 37 36 0 255 0
4 16 17 38 37 0 255 0
4 17 0 21 38 128 0 128
4 18 19 40 39 0 255 0
4 19 20 41 40 0 255 0
4 20 18 39 41 0 255 0
