ply
format ascii 1.0
element vertex 38
property float x
property float y
property float z
element face 29
property list uchar int vertex_index
property uchar red
property uchar green
property uchar blue
end_header
0.4405018389225006 0.171875 1.0
0.3125 0.2929913401603699 1.0
0.2616622745990753 0.484375 1.0
0.2733919620513916 0.71875 1.0
0.3633667528629303 0.859375 1.0
0.35468509793281555 0.625 1.0
0.3691938519477844 0.390625 1.0
0.47557029128074646 0.390625 1.0
0.578125 0.5334880948066711 1.0
0.71875 0.6523494124412537 1.0
0.8193417191505432 0.53125 1.0
0.78125 0.3560897409915924 1.0
0.671875 0.20390361547470093 1.0
0.46875 0.1613783836364746 1.0
0.5625 0.23351489007472992 1.0
0.65625 0.3144623935222626 1.0
0.7326180338859558 0.46875 1.0
0.6720350980758667 0.5 1.0
0.5476059317588806 0.375 1.0
0.4405018389225006 0.171875 0.0
0.3125 0.2929913401603699 0.0
0.2616622745990753 0.484375 0.0
0.2733919620513916 0.71875 0.0
0.3633667528629303 0.859375 0.0
0.35468509793281555 0.625 0.0
0.3691938519477844 0.390625 0.0
0.47557029128074646 0.390625 0.0
0.578125 0.5334880948066711 0.0
0.71875 0.6523494124412537 0.0
0.8193417191505432 0.53125 0.0
0.78125 0.3560897409915924 0.0
0.671875 0.20390361547470093 0.0
0.46875 0.1613783836364746 0.0
0.5625 0.23351489007472992 0.0
0.65625 0.3144623935222626 0.0
0.7326180338859558 0.46875 0.0
0.6720350980758667 0.5 0.0
0.5476059317588806 0.375 0.0
5 10 16 15 12 11 255 0 0
4 7 18 17 8 255 0 0
3 12 15 14 255 0 0
12 12 14 18 7 6 5 4 3 2 1 0 13 255 0 0
5 8 17 16 10 9 255 0 0
5 29 30 31 34 35 0 0 255
4 26 27 36 37 0 0 255
3 31 33 34 0 0 255
12 31 32 19 20 21 22 23 24 25 26 37 33 0 0 255
5 27 28 29 35 36 0 0 255
4 0 1 20 19 0 255 0
4 1 2 21 20 0 255 0
4 2 3 22 21 0 255 0
4 3 4 23 22 0 255 0
4 4 5 24 23 0 255 0
4 5 6 25 24 0 255 0
4 6 7 26 25 0 255 0
4 7 8 27 26 0 255 0
4 8 9 28 27 0 255 0
4 9 10 29 28 0 255 0
4 10 11 30 29 0 255 0
4 11 12 31 30 0 255 0
4 12 13 32 31 128 0 128
4 13 0 19 32 128 0 128
4 14 15 34 33 0 255 0
4 15 16 35 34 0 255 0
4 16 17 36 35 0 255 0
4 17 18 37 36 0 255 0
4 18 14 33 37 0 255 0
