ply
format ascii 1.0
element vertex 28
property float x
property float y
property float z
element face 20
property list uchar int vertex_index
property uchar red
property uchar green
property uchar blue
end_header
0.538027286529541 0.234375 1.0
0.375 0.31352943181991577 1.0
0.3064442574977875 0.5 1.0
0.3078916370868683 0.75 1.0
0.359375 0.9455819725990295 1.0
0.375 0.7713972926139832 1.0
0.37422236800193787 0.546875 1.0
0.578125 0.5466009378433228 1.0
0.7695444226264954 0.484375 1.0
0.7804420590400696 0.296875 1.0
0.5998206734657288 0.234375 1.0
0.640625 0.36646974086761475 1.0
0.5992717742919922 0.4375 1.0
0.59375 0.38489723205566406 1.0
0.538027286529541 0.234375 0.0
0.375 0.31352943181991577 0.0
0.3064442574977875 0.5 0.0
0.3078916370868683 0.75 0.0
0.359375 0.9455819725990295 0.0
0.375 0.7713972926139832 0.0
0.37422236800193787 0.546875 0.0
0.578125 0.5466009378433228 0.0
0.7695444226264954 0.484375 0.0
0.7804420590400696 0.296875 0.0
0.5998206734657288 0.234375 0.0
0.640625 0.36646974086761475 0.0
0.5992717742919922 0.4375 0.0
0.59375 0.38489723205566406 0.0
3 10 11 13 255 0 0
11 10 13 12 7 6 5 4 3 2 1 0 255 0 0
6 7 12 11 10 9 8 255 0 0
3 24 27 25 0 0 255
11 24 14 15 16 17 18 19 20 21 26 27 0 0 255
6 21 22 23 24 25 26 0 0 255
4 0 1 15 14 0 255 0
4 1 2 16 15 0 255 0
4 2 3 17 16 0 255 0
4 3 4 18 17 0 255 0
4 4 5 19 18 0 255 0
4 5 6 20 19 0 255 0
4 6 7 21 20 0 255 0
4 7 8 22 21 0 255 0
4 8 9 23 22 0 255 0
4 9 10 24 23 0 255 0
4 10 0 14 24 128 0 128
4 11 12 26 25 0 255 0
4 12 13 27 26 0 255 0
4 13 11 25 27 0 255 0
