ply
format ascii 1.0
element vertex 42
property float x
property float y
property float z
element face 23
property list uchar int vertex_index
property uchar red
property uchar green
property uchar blue
end_header
0.1875 0.17130234837532043 1.0
0.40625 0.20272846519947052 1.0
0.578125 0.26996830105781555 1.0
0.7250155806541443 0.375 1.0
0.8293586373329163 0.515625 1.0
0.828125 0.7556172609329224 1.0
0.6815705299377441 0.75 1.0
0.7777608036994934 0.6875 1.0
0.71875 0.4915526211261749 1.0
0.59375 0.37180379033088684 1.0
0.4375 0.27378666400909424 1.0
0.265625 0.2339973747730255 1.0
0.265625 0.3965454399585724 1.0
0.375 0.5378867983818054 1.0
0.5244600772857666 0.640625 1.0
0.6031138300895691 0.5625 1.0
0.578125 0.7310402393341064 1.0
0.40625 0.6521322131156921 1.0
0.27275216579437256 0.53125 1.0
0.15625 0.3976857364177704 1.0
0.140625 0.21123006939888 1.0
0.1875 0.17130234837532043 0.0
0.40625 0.20272846519947052 0.0
0.578125 0.26996830105781555 0.0
0.7250155806541443 0.375 0.0
0.8293586373329163 0.515625 0.0
0.828125 0.7556172609329224 0.0
0.6815705299377441 0.75 0.0
0.7777608036994934 0.6875 0.0
0.71875 0.4915526211261749 0.0
0.59375 0.37180379033088684 0.0
0.4375 0.27378666400909424 0.0
0.265625 0.2339973747730255 0.0
0.265625 0.3965454399585724 0.0
0.375 0.5378867983818054 0.0
0.5244600772857666 0.640625 0.0
0.6031138300895691 0.5625 0.0
0.578125 0.7310402393341064 0.0
0.40625 0.6521322131156921 0.0
0.27275216579437256 0.53125 0.0
0.15625 0.3976857364177704 0.0
0.140625 0.21123006939888 0.0
21 0 1 2 3 4 5 6 7 8 9 10 11 12 13 14 15 16 17 18 19 20 255 0 0
21 21 41 40 39 38 37 36 35 34 33 32 31 30 29 28 27 26 25 24 23 22 0 0 255
4 1 0 21 22 128 0 128
4 2 1 22 23 0 255 0
4 3 2 23 24 0 255 0
4 4 3 24 25 0 255 0
4 5 4 25 26 0 255 0
4 6 5 26 27 0 255 0
4 7 6 27 28 0 255 0
4 8 7 28 29 0 255 0
4 9 8 29 30 0 255 0
4 10 9 30 31 0 255 0
4 11 10 31 32 0 255 0
4 12 11 32 33 0 255 0
4 13 12 33 34 0 255 0
4 14 13 34 35 0 255 0
4 15 14 35 36 0 255 0
4 16 15 36 37 0 255 0
4 17 16 37 38 0 255 0
4 18 17 38 39 0 255 0
4 19 18 39 40 0 255 0
4 20 19 40 41 0 255 0
4 0 20 41 21 128 0 128
