ply
format ascii 1.0
element vertex 40
property float x
property float y
property float z
element face 36
property list uchar int vertex_index
property uchar red
property uchar green
property uchar blue
end_header
0.2536790668964386 0.09375 1.0
0.15845292806625366 0.25 1.0
0.23088675737380981 0.4375 1.0
0.328125 0.5880875587463379 1.0
0.4375 0.7331120371818542 1.0
0.6165633201599121 0.796875 1.0
0.8027297258377075 0.75 1.0
0.8707298040390015 0.5625 1.0
0.7992822527885437 0.375 1.0
0.6565383076667786 0.265625 1.0
0.5 0.1804080605506897 1.0
0.328125 0.09475406259298325 1.0
0.3125 0.21817897260189056 1.0
0.5 0.2716754674911499 1.0
0.6540197730064392 0.375 1.0
0.7567377686500549 0.515625 1.0
0.7099026441574097 0.6875 1.0
0.5378391742706299 0.625 1.0
0.4375 0.47270286083221436 1.0
0.328125 0.3623388409614563 1.0
0.2536790668964386 0.09375 0.0
0.15845292806625366 0.25 0.0
0.23088675737380981 0.4375 0.0
0.328125 0.5880875587463379 0.0
0.4375 0.7331120371818542 0.0
0.6165633201599121 0.796875 0.0
0.8027297258377075 0.75 0.0
0.8707298040390015 0.5625 0.0
0.7992822527885437 0.375 0.0
0.6565383076667786 0.265625 0.0
0.5 0.1804080605506897 0.0
0.328125 0.09475406259298325 0.0
0.3125 0.21817897260189056 0.0
0.5 0.2716754674911499 0.0
0.6540197730064392 0.375 0.0
0.7567377686500549 0.515625 0.0
0.7099026441574097 0.6875 0.0
0.5378391742706299 0.625 0.0
0.4375 0.47270286083221436 0.0
0.328125 0.3623388409614563 0.0
5 7 15 14 9 8 255 0 0
5 4 17 16 6 5 255 0 0
4 10 13 12 11 255 0 0
4 6 16 15 7 255 0 0
4 3 18 17 4 255 0 0
4 9 14 13 10 255 0 0
4 2 19 18 3 255 0 0
6 11 12 19 2 1 0 255 0 0
5 27 28 29 34 35 0 0 255
5 24 25 26 36 37 0 0 255
4 30 31 32 33 0 0 255
4 26 27 35 36 0 0 255
4 23 24 37 38 0 0 255
4 29 30 33 34 0 0 255
4 22 23 38 39 0 0 255
6 31 20 21 22 39 32 0 0 255
4 0 1 21 20 128 0 128
4 1 2 22 21 0 255 0
4 2 3 23 22 0 255 0
4 3 4 24 23 0 255 0
4 4 5 25 24 0 255 0
4 5 6 26 25 0 255 0
4 6 7 27 26 0 255 0
4 7 8 28 27 0 255 0
4 8 9 29 28 0 255 0
4 9 10 30 29 0 255 0
4 10 11 31 30 0 255 0
4 11 0 20 31 128 0 128
4 12 13 33 32 0 255 0
4 13 14 34 33 0 255 0
4 14 15 35 34 0 255 0
4 15 16 36 35 0 255 0
4 16 17 37 36 0 255 0
4 17 18 38 37 0 255 0
4 18 19 39 38 0 255 0
4 19 12 32 39 0 255 0
