ply
format ascii 1.0
element vertex 38
property float x
property float y
property float z
element face 35
property list uchar int vertex_index
property uchar red
property uchar green
property uchar blue
end_header
0.4109020233154297 0.109375 1.0
0.28125 0.22243764996528625 1.0
0.2633042335510254 0.421875 1.0
0.3125 0.6124118566513062 1.0
0.370594322681427 0.78125 1.0
0.5625 0.766245424747467 1.0
0.6799474358558655 0.640625 1.0
0.734375 0.47603005170822144 1.0
0.765625 0.2685324549674988 1.0
0.65625 0.13903944194316864 1.0
0.4375 0.10308282822370529 1.0
0.453125 0.16544701159000397 1.0
0.609375 0.1879061907529831 1.0
0.7136607766151428 0.34375 1.0
0.6366038918495178 0.515625 1.0
0.5054484009742737 0.640625 1.0
0.375 0.5776898860931396 1.0
0.317085325717926 0.375 1.0
0.3700474500656128 0.203125 1.0
0.4109020233154297 0.109375 0.0
0.28125 0.22243764996528625 0.0
0.2633042335510254 0.421875 0.0
0.3125 0.6124118566513062 0.0
0.370594322681427 0.78125 0.0
0.5625 0.766245424747467 0.0
0.6799474358558655 0.640625 0.0
0.734375 0.47603005170822144 0.0
0.765625 0.2685324549674988 0.0
0.65625 0.13903944194316864 0.0
0.4375 0.10308282822370529 0.0
0.453125 0.16544701159000397 0.0
0.609375 0.1879061907529831 0.0
0.7136607766151428 0.34375 0.0
0.6366038918495178 0.515625 0.0
0.5054484009742737 0.640625 0.0
0.375 0.5776898860931396 0.0
0.317085325717926 0.375 0.0
0.3700474500656128 0.203125 0.0
4 8 13 12 9 255 0 0
4 1 18 17 2 255 0 0
5 10 11 18 1 0 255 0 0
4 7 14 13 8 255 0 0
5 3 16 15 5 4 255 0 0
4 9 12 11 10 255 0 0
5 5 15 14 7 6 255 0 0
4 2 17 16 3 255 0 0
4 27 28 31 32 0 0 255
4 20 21 36 37 0 0 255
5 29 19 20 37 30 0 0 255
4 26 27 32 33 0 0 255
5 22 23 24 34 35 0 0 255
4 28 29 30 31 0 0 255
5 24 25 26 33 34 0 0 255
4 21 22 35 36 0 0 255
4 0 1 20 19 0 255 0
4 1 2 21 20 0 255 0
4 2 3 22 21 0 255 0
4 3 4 23 22 0 255 0
4 4 5 24 23 0 255 0
4 5 6 25 24 0 255 0
4 6 7 26 25 0 255 0
4 7 8 27 26 0 255 0
4 8 9 28 27 0 255 0
4 9 10 29 28 128 0 128
4 10 0 19 29 128 0 128
4 11 12 31 30 0 255 0
4 12 13 32 31 0 255 0
4 13 14 33 32 0 255 0
4 14 15 34 33 0 255 0
4 15 16 35 34 0 255 0
4 16 17 36 35 0 255 0
4 17 18 37 36 0 255 0
4 18 11 30 37 0 255 0
