ply
format ascii 1.0
element vertex 36
property float x
property float y
property float z
element face 32
property list uchar int vertex_index
property uchar red
property uchar green
property uchar blue
end_header
0.46731624007225037 0.125 1.0
0.30789369344711304 0.21875 1.0
0.23477277159690857 0.40625 1.0
0.28669294714927673 0.609375 1.0
0.41234347224235535 0.734375 1.0
0.5625 0.8381861448287964 1.0
0.7245354652404785 0.75 1.0
0.8007439970970154 0.578125 1.0
0.765625 0.3675379157066345 1.0
0.671875 0.208411306142807 1.0
0.5 0.1255635768175125 1.0
0.484375 0.2582349479198456 1.0
0.5917946696281433 0.3125 1.0
0.671875 0.4822826385498047 1.0
0.6531975865364075 0.65625 1.0
0.5260705351829529 0.671875 1.0
0.40719473361968994 0.53125 1.0
0.375 0.3641468286514282 1.0
0.46731624007225037 0.125 0.0
0.30789369344711304 0.21875 0.0
0.23477277159690857 0.40625 0.0
0.28669294714927673 0.609375 0.0
0.41234347224235535 0.734375 0.0
0.5625 0.8381861448287964 0.0
0.7245354652404785 0.75 0.0
0.8007439970970154 0.578125 0.0
0.765625 0.3675379157066345 0.0
0.671875 0.208411306142807 0.0
0.5 0.1255635768175125 0.0
0.484375 0.2582349479198456 0.0
0.5917946696281433 0.3125 0.0
0.671875 0.4822826385498047 0.0
0.6531975865364075 0.65625 0.0
0.5260705351829529 0.671875 0.0
0.40719473361968994 0.53125 0.0
0.375 0.3641468286514282 0.0
4 8 13 12 9 255 0 0
6 10 11 17 2 1 0 255 0 0
4 3 16 15 4 255 0 0
4 9 12 11 10 255 0 0
5 6 14 13 8 7 255 0 0
4 2 17 16 3 255 0 0
5 4 15 14 6 5 255 0 0
4 26 27 30 31 0 0 255
6 28 18 19 20 35 29 0 0 255
4 21 22 33 34 0 0 255
4 27 28 29 30 0 0 255
5 24 25 26 31 32 0 0 255
4 20 21 34 35 0 0 255
5 22 23 24 32 33 0 0 255
4 0 1 19 18 128 0 128
4 1 2 20 19 0 255 0
4 2 3 21 20 0 255 0
4 3 4 22 21 0 255 0
4 4 5 23 22 0 255 0
4 5 6 24 23 0 255 0
4 6 7 25 24 0 255 0
4 7 8 26 25 0 255 0
4 8 9 27 26 0 255 0
4 9 10 28 27 0 255 0
4 10 0 18 28 128 0 128
4 11 12 30 29 0 255 0
4 12 13 31 30 0 255 0
4 13 14 32 31 0 255 0
4 14 15 33 32 0 255 0
4 15 16 34 33 0 255 0
4 16 17 35 34 0 255 0
4 17 11 29 35 0 255 0
