ply
format ascii 1.0
element vertex 42
property float x
property float y
property float z
element face 23
property list uchar int vertex_index
property uchar red
property uchar green
property uchar blue
end_header
0.5033264756202698 0.171875 1.0
0.35267844796180725 0.265625 1.0
0.2607673108577728 0.421875 1.0
0.3197370171546936 0.609375 1.0
0.4318006634712219 0.75 1.0
0.578125 0.8546701073646545 1.0
0.640625 0.811652421951294 1.0
0.47928622364997864 0.71875 1.0
0.3683120608329773 0.578125 1.0
0.328125 0.3753798007965088 1.0
0.4435591697692871 0.296875 1.0
0.5625 0.4351493716239929 1.0
0.75 0.42694181203842163 1.0
0.6945534348487854 0.25 1.0
0.53125 0.16578927636146545 1.0
0.5033264756202698 0.171875 1.0
0.546875 0.2201910763978958 1.0
0.6656138896942139 0.296875 1.0
0.59375 0.38936394453048706 1.0
0.5219898819923401 0.234375 1.0
0.546875 0.2201910763978958 1.0
0.5033264756202698 0.171875 0.0
0.35267844796180725 0.265625 0.0
0.2607673108577728 0.421875 0.0
0.3197370171546936 0.609375 0.0
0.4318006634712219 0.75 0.0
0.578125 0.8546701073646545 0.0
0.640625 0.811652421951294 0.0
0.47928622364997864 0.71875 0.0
0.3683120608329773 0.578125 0.0
0.328125 0.3753798007965088 0.0
0.4435591697692871 0.296875 0.0
0.5625 0.4351493716239929 0.0
0.75 0.42694181203842163 0.0
0.6945534348487854 0.25 0.0
0.53125 0.16578927636146545 0.0
0.5033264756202698 0.171875 0.0
0.546875 0.2201910763978958 0.0
0.6656138896942139 0.296875 0.0
0.59375 0.38936394453048706 0.0
0.5219898819923401 0.234375 0.0
0.546875 0.2201910763978958 0.0
4 17 13 14 16 255 0 0
17 19 0 1 2 3 4 5 6 7 8 9 10 11 12 13 17 18 255 0 0
4 38 37 35 34 0 0 255
17 40 39 38 34 33 32 31 30 29 28 27 26 25 24 23 22 21 0 0 255
4 1 0 21 22 0 255 0
4 2 1 22 23 0 255 0
4 3 2 23 24 0 255 0
4 4 3 24 25 0 255 0
4 5 4 25 26 0 255 0
4 6 5 26 27 0 255 0
4 7 6 27 28 0 255 0
4 8 7 28 29 0 255 0
4 9 8 29 30 0 255 0
4 10 9 30 31 0 255 0
4 11 10 31 32 0 255 0
4 12 11 32 33 0 255 0
4 13 12 33 34 0 255 0
4 14 13 34 35 128 0 128
4 15 14 35 36 128 0 128
4 17 16 37 38 0 255 0
4 18 17 38 39 0 255 0
4 19 18 39 40 0 255 0
4 20 19 40 41 0 255 0
