ply
format ascii 1.0
element vertex 46
property float x
property float y
property float z
element face 41
property list uchar int vertex_index
property uchar red
property uchar green
property uchar blue
end_header
0.203125 0.14642171561717987 1.0
0.20801615715026855 0.3125 1.0
0.34375 0.43024277687072754 1.0
0.34276464581489563 0.625 1.0
0.46409016847610474 0.75 1.0
0.625 0.8380494713783264 1.0
0.7902746796607971 0.75 1.0
0.7530533671379089 0.59375 1.0
0.7378736734390259 0.453125 1.0
0.6875 0.28278809785842896 1.0
0.53125 0.1947895735502243 1.0
0.34375 0.12797151505947113 1.0
0.328125 0.2105754315853119 1.0
0.390625 0.21835647523403168 1.0
0.5625 0.28897911310195923 1.0
0.6691882610321045 0.4375 1.0
0.5026460289955139 0.421875 1.0
0.3478400707244873 0.328125 1.0
0.46875 0.527405858039856 1.0
0.53125 0.5493375062942505 1.0
0.671875 0.6607635021209717 1.0
0.5667271018028259 0.6875 1.0
0.4375 0.5765188932418823 1.0
0.203125 0.14642171561717987 0.0
0.20801615715026855 0.3125 0.0
0.34375 0.43024277687072754 0.0
0.34276464581489563 0.625 0.0
0.46409016847610474 0.75 0.0
0.625 0.8380494713783264 0.0
0.7902746796607971 0.75 0.0
0.7530533671379089 0.59375 0.0
0.7378736734390259 0.453125 0.0
0.6875 0.28278809785842896 0.0
0.53125 0.1947895735502243 0.0
0.34375 0.12797151505947113 0.0
0.328125 0.2105754315853119 0.0
0.390625 0.21835647523403168 0.0
0.5625 0.28897911310195923 0.0
0.6691882610321045 0.4375 0.0
0.5026460289955139 0.421875 0.0
0.3478400707244873 0.328125 0.0
0.46875 0.527405858039856 0.0
0.53125 0.5493375062942505 0.0
0.671875 0.6607635021209717 0.0
0.5667271018028259 0.6875 0.0
0.4375 0.5765188932418823 0.0
6 4 21 20 7 6 5 255 0 0
3 18 16 19 255 0 0
6 16 18 22 3 2 17 255 0 0
4 10 14 13 11 255 0 0
6 7 20 19 16 15 8 255 0 0
4 3 22 21 4 255 0 0
5 8 15 14 10 9 255 0 0
6 11 12 17 2 1 0 255 0 0
3 11 13 12 255 0 0
6 27 28 29 30 43 44 0 0 255
3 41 42 39 0 0 255
6 39 40 25 26 45 41 0 0 255
4 33 34 36 37 0 0 255
6 30 31 38 39 42 43 0 0 255
4 26 27 44 45 0 0 255
5 31 32 33 37 38 0 0 255
6 34 23 24 25 40 35 0 0 255
3 34 35 36 0 0 255
4 0 1 24 23 0 255 0
4 1 2 25 24 0 255 0
4 2 3 26 25 0 255 0
4 3 4 27 26 0 255 0
4 4 5 28 27 0 255 0
4 5 6 29 28 0 255 0
4 6 7 30 29 0 255 0
4 7 8 31 30 0 255 0
4 8 9 32 31 0 255 0
4 9 10 33 32 0 255 0
4 10 11 34 33 128 0 128
4 11 0 23 34 128 0 128
4 12 13 36 35 0 255 0
4 13 14 37 36 0 255 0
4 14 15 38 37 0 255 0
4 15 16 39 38 0 255 0
4 16 17 40 39 0 255 0
4 17 12 35 40 0 255 0
4 18 19 42 41 0 255 0
4 19 20 43 42 0 255 0
4 20 21 44 43 0 255 0
4 21 22 45 44 0 255 0
4 22 18 41 45 0 255 0
