ply
format ascii 1.0
element vertex 50
property float x
property float y
property float z
element face 47
property list uchar int vertex_index
property uchar red
property uchar green
property uchar blue
end_header
0.5625 0.1567637324333191 1.0
0.359375 0.21238864958286285 1.0
0.328125 0.3899300694465637 1.0
0.22090616822242737 0.515625 1.0
0.22985012829303741 0.703125 1.0
0.375 0.8068088293075562 1.0
0.5753278732299805 0.8125 1.0
0.6475049257278442 0.640625 1.0
0.78125 0.5163507461547852 1.0
0.890625 0.37995588779449463 1.0
0.84375 0.2242121696472168 1.0
0.65625 0.16006875038146973 1.0
0.53125 0.22650858759880066 1.0
0.734375 0.24865862727165222 1.0
0.8145277500152588 0.375 1.0
0.703125 0.5036548376083374 1.0
0.546875 0.44676685333251953 1.0
0.40202274918556213 0.34375 1.0
0.515625 0.23231902718544006 1.0
0.40625 0.4906983971595764 1.0
0.53125 0.5380545854568481 1.0
0.5989871621131897 0.6875 1.0
0.46875 0.7686166763305664 1.0
0.33154362440109253 0.65625 1.0
0.375 0.505540132522583 1.0
0.5625 0.1567637324333191 0.0
0.359375 0.21238864958286285 0.0
0.328125 0.3899300694465637 0.0
0.22090616822242737 0.515625 0.0
0.22985012829303741 0.703125 0.0
0.375 0.8068088293075562 0.0
0.5753278732299805 0.8125 0.0
0.6475049257278442 0.640625 0.0
0.78125 0.5163507461547852 0.0
0.890625 0.37995588779449463 0.0
0.84375 0.2242121696472168 0.0
0.65625 0.16006875038146973 0.0
0.53125 0.22650858759880066 0.0
0.734375 0.24865862727165222 0.0
0.8145277500152588 0.375 0.0
0.703125 0.5036548376083374 0.0
0.546875 0.44676685333251953 0.0
0.40202274918556213 0.34375 0.0
0.515625 0.23231902718544006 0.0
0.40625 0.4906983971595764 0.0
0.53125 0.5380545854568481 0.0
0.5989871621131897 0.6875 0.0
0.46875 0.7686166763305664 0.0
0.33154362440109253 0.65625 0.0
0.375 0.505540132522583 0.0
6 7 21 20 16 15 8 255 0 0
3 0 12 18 255 0 0
5 10 13 12 0 11 255 0 0
5 0 18 17 2 1 255 0 0
3 2 19 24 255 0 0
5 16 20 19 2 17 255 0 0
4 9 14 13 10 255 0 0
4 8 15 14 9 255 0 0
5 5 22 21 7 6 255 0 0
5 2 24 23 4 3 255 0 0
4 4 23 22 5 255 0 0
6 32 33 40 41 45 46 0 0 255
3 25 43 37 0 0 255
5 35 36 25 37 38 0 0 255
5 25 26 27 42 43 0 0 255
3 27 49 44 0 0 255
5 41 42 27 44 45 0 0 255
4 34 35 38 39 0 0 255
4 33 34 39 40 0 0 255
5 30 31 32 46 47 0 0 255
5 27 28 29 48 49 0 0 255
4 29 30 47 48 0 0 255
4 0 1 26 25 128 0 128
4 1 2 27 26 0 255 0
4 2 3 28 27 0 255 0
4 3 4 29 28 0 255 0
4 4 5 30 29 0 255 0
4 5 6 31 30 0 255 0
4 6 7 32 31 0 255 0
4 7 8 33 32 0 255 0
4 8 9 34 33 0 255 0
4 9 10 35 34 0 255 0
4 10 11 36 35 0 255 0
4 11 0 25 36 128 0 128
4 12 13 38 37 0 255 0
4 13 14 39 38 0 255 0
4 14 15 40 39 0 255 0
4 15 16 41 40 0 255 0
4 16 17 42 41 0 255 0
4 17 18 43 42 0 255 0
4 18 12 37 43 0 255 0
4 19 20 45 44 0 255 0
4 20 21 46 45 0 255 0
4 21 22 47 46 0 255 0
4 22 23 48 47 0 255 0
4 23 24 49 48 0 255 0
4 24 19 44 49 0 255 0
