ply
format ascii 1.0
element vertex 40
property float x
property float y
property float z
element face 26
property list uchar int vertex_index
property uchar red
property uchar green
property uchar blue
end_header
0.3901391625404358 0.09375 1.0
0.3163290023803711 0.28125 1.0
0.25 0.4329281747341156 1.0
0.3061164915561676 0.609375 1.0
0.46291202306747437 0.703125 1.0
0.65625 0.7275068759918213 1.0
0.546875 0.6280906200408936 1.0
0.375 0.5623816847801208 1.0
0.375 0.41391026973724365 1.0
0.53125 0.5149654746055603 1.0
0.6875 0.600217878818512 1.0
0.8582231402397156 0.6875 1.0
0.9059742093086243 0.59375 1.0
0.703125 0.5418826341629028 1.0
0.546875 0.4499850273132324 1.0
0.484375 0.3044114410877228 1.0
0.4868840277194977 0.125 1.0
0.421875 0.17979535460472107 1.0
0.45531418919563293 0.203125 1.0
0.402719646692276 0.1875 1.0
0.3901391625404358 0.09375 0.0
0.3163290023803711 0.28125 0.0
0.25 0.4329281747341156 0.0
0.3061164915561676 0.609375 0.0
0.46291202306747437 0.703125 0.0
0.65625 0.7275068759918213 0.0
0.546875 0.6280906200408936 0.0
0.375 0.5623816847801208 0.0
0.375 0.41391026973724365 0.0
0.53125 0.5149654746055603 0.0
0.6875 0.600217878818512 0.0
0.8582231402397156 0.6875 0.0
0.9059742093086243 0.59375 0.0
0.703125 0.5418826341629028 0.0
0.546875 0.4499850273132324 0.0
0.484375 0.3044114410877228 0.0
0.4868840277194977 0.125 0.0
0.421875 0.17979535460472107 0.0
0.45531418919563293 0.203125 0.0
0.402719646692276 0.1875 0.0
19 0 19 18 16 15 14 13 12 11 10 9 8 7 6 5 4 3 2 1 255 0 0
4 16 17 19 0 255 0 0
3 16 18 17 255 0 0
19 20 21 22 23 24 25 26 27 28 29 30 31 32 33 34 35 36 38 39 0 0 255
4 36 20 39 37 0 0 255
3 36 37 38 0 0 255
4 0 1 21 20 128 0 128
4 1 2 22 21 0 255 0
4 2 3 23 22 0 255 0
4 3 4 24 23 0 255 0
4 4 5 25 24 0 255 0
4 5 6 26 25 0 255 0
4 6 7 27 26 0 255 0
4 7 8 28 27 0 255 0
4 8 9 29 28 0 255 0
4 9 10 30 29 0 255 0
4 10 11 31 30 0 255 0
4 11 12 32 31 0 255 0
4 12 13 33 32 0 255 0
4 13 14 34 33 0 255 0
4 14 15 35 34 0 255 0
4 15 16 36 35 0 255 0
4 16 0 20 36 128 0 128
4 17 18 38 37 0 255 0
4 18 19 39 38 0 255 0
4 19 17 37 39 0 255 0
