ply
format ascii 1.0
element vertex 24
property float x
property float y
property float z
element face 14
property list uchar int vertex_index
property uchar red
property uchar green
property uchar blue
end_header
0.390625 0.05539437010884285 1.0
0.5232888460159302 0.171875 1.0
0.6136244535446167 0.328125 1.0
0.6750466823577881 0.515625 1.0
0.6813101768493652 0.734375 1.0
0.5 0.7448686361312866 1.0
0.28125 0.711949348449707 1.0
0.234375 0.622894823551178 1.0
0.453125 0.620257556438446 1.0
0.5397576689720154 0.515625 1.0
0.46440717577934265 0.34375 1.0
0.3765202760696411 0.171875 1.0
0.390625 0.05539437010884285 0.0
0.5232888460159302 0.171875 0.0
0.6136244535446167 0.328125 0.0
0.6750466823577881 0.515625 0.0
0.6813101768493652 0.734375 0.0
0.5 0.7448686361312866 0.0
0.28125 0.711949348449707 0.0
0.234375 0.622894823551178 0.0
0.453125 0.620257556438446 0.0
0.5397576689720154 0.515625 0.0
0.46440717577934265 0.34375 0.0
0.3765202760696411 0.171875 0.0
12 0 1 2 3 4 5 6 7 8 9 10 11 255 0 0
12 12 23 22 21 20 19 18 17 16 15 14 13 0 0 255
4 1 0 12 13 128 0 128
4 2 1 13 14 0 255 0
4 3 2 14 15 0 255 0
4 4 3 15 16 0 255 0
4 5 4 16 17 0 255 0
4 6 5 17 18 0 255 0
4 7 6 18 19 0 255 0
4 8 7 19 20 0 255 0
4 9 8 20 21 0 255 0
4 10 9 21 22 0 255 0
4 11 10 22 23 0 255 0
4 0 11 23 12 128 0 128
