ply
format ascii 1.0
element vertex 34
property float x
property float y
property float z
element face 25
property list uchar int vertex_index
property uchar red
property uchar green
property uchar blue
end_header
0.3405087888240814 0.03125 1.0
0.41841262578964233 0.203125 1.0
0.517644464969635 0.34375 1.0
0.34375 0.375299870967865 1.0
0.20235596597194672 0.453125 1.0
0.296875 0.5945912003517151 1.0
0.4659430682659149 0.6875 1.0
0.671875 0.7302861213684082 1.0
0.7847355008125305 0.625 1.0
0.765625 0.46652060747146606 1.0
0.640625 0.33004307746887207 1.0
0.546875 0.17774635553359985 1.0
0.443040668964386 0.03125 1.0
0.40625 0.4899568259716034 1.0
0.59375 0.524456799030304 1.0
0.5895776748657227 0.609375 1.0
0.421875 0.5483876466751099 1.0
0.3405087888240814 0.03125 0.0
0.41841262578964233 0.203125 0.0
0.517644464969635 0.34375 0.0
0.34375 0.375299870967865 0.0
0.20235596597194672 0.453125 0.0
0.296875 0.5945912003517151 0.0
0.4659430682659149 0.6875 0.0
0.671875 0.7302861213684082 0.0
0.7847355008125305 0.625 0.0
0.765625 0.46652060747146606 0.0
0.640625 0.33004307746887207 0.0
0.546875 0.17774635553359985 0.0
0.443040668964386 0.03125 0.0
0.40625 0.4899568259716034 0.0
0.59375 0.524456799030304 0.0
0.5895776748657227 0.609375 0.0
0.421875 0.5483876466751099 0.0
4 5 16 15 6 255 0 0
5 3 13 16 5 4 255 0 0
6 6 15 14 9 8 7 255 0 0
10 9 14 13 3 2 1 0 12 11 10 255 0 0
4 22 23 32 33 0 0 255
5 20 21 22 33 30 0 0 255
6 23 24 25 26 31 32 0 0 255
10 26 27 28 29 17 18 19 20 30 31 0 0 255
4 0 1 18 17 0 255 0
4 1 2 19 18 0 255 0
4 2 3 20 19 0 255 0
4 3 4 21 20 0 255 0
4 4 5 22 21 0 255 0
4 5 6 23 22 0 255 0
4 6 7 24 23 0 255 0
4 7 8 25 24 0 255 0
4 8 9 26 25 0 255 0
4 9 10 27 26 0 255 0
4 10 11 28 27 0 255 0
4 11 12 29 28 0 255 0
4 12 0 17 29 128 0 128
4 13 14 31 30 0 255 0
4 14 15 32 31 0 255 0
4 15 16 33 32 0 255 0
4 16 13 30 33 0 255 0
