ply
format ascii 1.0
element vertex 40
property float x
property float y
property float z
element face 22
property list uchar int vertex_index
property uchar red
property uchar green
property uchar blue
end_header
0.5625 0.14467750489711761 1.0
0.7614955306053162 0.171875 1.0
0.859375 0.28449341654777527 1.0
0.78125 0.4448172152042389 1.0
0.625 0.5429239869117737 1.0
0.53125 0.6902683973312378 1.0
0.38663020730018616 0.796875 1.0
0.203125 0.7742656469345093 1.0
0.17674978077411652 0.578125 1.0
0.2326103150844574 0.609375 1.0
0.359375 0.7196224331855774 1.0
0.484375 0.6003650426864624 1.0
0.34136417508125305 0.578125 1.0
0.3948670029640198 0.453125 1.0
0.6310045123100281 0.4375 1.0
0.765625 0.3136950135231018 1.0
0.625 0.2286287248134613 1.0
0.4200763702392578 0.265625 1.0
0.30320265889167786 0.359375 1.0
0.375 0.21826589107513428 1.0
0.5625 0.14467750489711761 0.0
0.7614955306053162 0.171875 0.0
0.859375 0.28449341654777527 0.0
0.78125 0.4448172152042389 0.0
0.625 0.5429239869117737 0.0
0.53125 0.6902683973312378 0.0
0.38663020730018616 0.796875 0.0
0.203125 0.7742656469345093 0.0
0.17674978077411652 0.578125 0.0
0.2326103150844574 0.609375 0.0
0.359375 0.7196224331855774 0.0
0.484375 0.6003650426864624 0.0
0.34136417508125305 0.578125 0.0
0.3948670029640198 0.453125 0.0
0.6310045123100281 0.4375 0.0
0.765625 0.3136950135231018 0.0
0.625 0.2286287248134613 0.0
0.4200763702392578 0.265625 0.0
0.30320265889167786 0.359375 0.0
0.375 0.21826589107513428 0.0
20 0 1 2 3 4 5 6 7 8 9 10 11 12 13 14 15 16 17 18 19 255 0 0
20 20 39 38 37 36 35 34 33 32 31 30 29 28 27 26 25 24 23 22 21 0 0 255
4 1 0 20 21 128 0 128
4 2 1 21 22 0 255 0
4 3 2 22 23 0 255 0
4 4 3 23 24 0 255 0
4 5 4 24 25 0 255 0
4 6 5 25 26 0 255 0
4 7 6 26 27 0 255 0
4 8 7 27 28 0 255 0
4 9 8 28 29 0 255 0
4 10 9 29 30 0 255 0
4 11 10 30 31 0 255 0
4 12 11 31 32 0 255 0
4 13 12 32 33 0 255 0
4 14 13 33 34 0 255 0
4 15 14 34 35 0 255 0
4 16 15 35 36 0 255 0
4 17 16 36 37 0 255 0
4 18 17 37 38 0 255 0
4 19 18 38 39 0 255 0
4 0 19 39 20 128 0 128
