ply
format ascii 1.0
element vertex 42
property float x
property float y
property float z
element face 35
property list uchar int vertex_index
property uchar red
property uchar green
property uchar blue
end_header
0.359375 0.09500500559806824 1.0
0.359375 0.2710152864456177 1.0
0.443260133266449 0.4375 1.0
0.2913345396518707 0.53125 1.0
0.3157844543457031 0.6875 1.0
0.5 0.7506433129310608 1.0
0.71875 0.7909910678863525 1.0
0.8125 0.7441467642784119 1.0
0.72161865234375 0.640625 1.0
0.625 0.4905701279640198 1.0
0.6664816737174988 0.328125 1.0
0.625 0.18732133507728577 1.0
0.453125 0.09782266616821289 1.0
0.46875 0.20834535360336304 1.0
0.603305459022522 0.296875 1.0
0.48380130529403687 0.3125 1.0
0.5 0.5031068325042725 1.0
0.5299237966537476 0.515625 1.0
0.6303727030754089 0.65625 1.0
0.46839866042137146 0.625 1.0
0.45888811349868774 0.53125 1.0
0.359375 0.09500500559806824 0.0
0.359375 0.2710152864456177 0.0
0.443260133266449 0.4375 0.0
0.2913345396518707 0.53125 0.0
0.3157844543457031 0.6875 0.0
0.5 0.7506433129310608 0.0
0.71875 0.7909910678863525 0.0
0.8125 0.7441467642784119 0.0
0.72161865234375 0.640625 0.0
0.625 0.4905701279640198 0.0
0.6664816737174988 0.328125 0.0
0.625 0.18732133507728577 0.0
0.453125 0.09782266616821289 0.0
0.46875 0.20834535360336304 0.0
0.603305459022522 0.296875 0.0
0.48380130529403687 0.3125 0.0
0.5 0.5031068325042725 0.0
0.5299237966537476 0.515625 0.0
0.6303727030754089 0.65625 0.0
0.46839866042137146 0.625 0.0
0.45888811349868774 0.53125 0.0
6 2 20 19 5 4 3 255 0 0
4 8 18 17 9 255 0 0
5 10 14 13 12 11 255 0 0
8 9 17 16 2 1 15 14 10 255 0 0
6 5 19 18 8 7 6 255 0 0
3 2 16 20 255 0 0
5 12 13 15 1 0 255 0 0
6 23 24 25 26 40 41 0 0 255
4 29 30 38 39 0 0 255
5 31 32 33 34 35 0 0 255
8 30 31 35 36 22 23 37 38 0 0 255
6 26 27 28 29 39 40 0 0 255
3 23 41 37 0 0 255
5 33 21 22 36 34 0 0 255
4 0 1 22 21 128 0 128
4 1 2 23 22 0 255 0
4 2 3 24 23 0 255 0
4 3 4 25 24 0 255 0
4 4 5 26 25 0 255 0
4 5 6 27 26 0 255 0
4 6 7 28 27 0 255 0
4 7 8 29 28 0 255 0
4 8 9 30 29 0 255 0
4 9 10 31 30 0 255 0
4 10 11 32 31 0 255 0
4 11 12 33 32 0 255 0
4 12 0 21 33 128 0 128
4 13 14 35 34 0 255 0
4 14 15 36 35 0 255 0
4 15 13 34 36 0 255 0
4 16 17 38 37 0 255 0
4 17 18 39 38 0 255 0
4 18 19 40 39 0 255 0
4 19 20 41 40 0 255 0
4 20 16 37 41 0 255 0
