ply
format ascii 1.0
element vertex 44
property float x
property float y
property float z
element face 40
property list uchar int vertex_index
property uchar red
property uchar green
property uchar blue
end_header
0.640625 0.14167475700378418 1.0
0.41698259115219116 0.171875 1.0
0.265625 0.26760923862457275 1.0
0.17564547061920166 0.4375 1.0
0.21498548984527588 0.625 1.0
0.335592120885849 0.75 1.0
0.5 0.8315303921699524 1.0
0.6442577838897705 0.734375 1.0
0.703125 0.5334649085998535 1.0
0.8435924649238586 0.421875 1.0
0.8359090089797974 0.265625 1.0
0.703125 0.14904291927814484 1.0
0.59375 0.27019718289375305 1.0
0.7687586545944214 0.34375 1.0
0.625 0.43866950273513794 1.0
0.5390300750732422 0.3125 1.0
0.390625 0.31311649084091187 1.0
0.453125 0.4760116934776306 1.0
0.6049103140830994 0.578125 1.0
0.4891533851623535 0.703125 1.0
0.34125205874443054 0.609375 1.0
0.296875 0.41068628430366516 1.0
0.640625 0.14167475700378418 0.0
0.41698259115219116 0.171875 0.0
0.265625 0.26760923862457275 0.0
0.17564547061920166 0.4375 0.0
0.21498548984527588 0.625 0.0
0.335592120885849 0.75 0.0
0.5 0.8315303921699524 0.0
0.6442577838897705 0.734375 0.0
0.703125 0.5334649085998535 0.0
0.8435924649238586 0.421875 0.0
0.8359090089797974 0.265625 0.0
0.703125 0.14904291927814484 0.0
0.59375 0.27019718289375305 0.0
0.7687586545944214 0.34375 0.0
0.625 0.43866950273513794 0.0
0.5390300750732422 0.3125 0.0
0.390625 0.31311649084091187 0.0
0.453125 0.4760116934776306 0.0
0.6049103140830994 0.578125 0.0
0.4891533851623535 0.703125 0.0
0.34125205874443054 0.609375 0.0
0.296875 0.41068628430366516 0.0
4 8 18 17 14 255 0 0
5 8 14 13 10 9 255 0 0
5 4 20 19 6 5 255 0 0
6 0 12 15 16 2 1 255 0 0
5 10 13 12 0 11 255 0 0
5 6 19 18 8 7 255 0 0
4 3 21 20 4 255 0 0
4 2 16 21 3 255 0 0
4 16 15 14 17 255 0 0
4 30 36 39 40 0 0 255
5 30 31 32 35 36 0 0 255
5 26 27 28 41 42 0 0 255
6 22 23 24 38 37 34 0 0 255
5 32 33 22 34 35 0 0 255
5 28 29 30 40 41 0 0 255
4 25 26 42 43 0 0 255
4 24 25 43 38 0 0 255
4 38 39 36 37 0 0 255
4 0 1 23 22 128 0 128
4 1 2 24 23 0 255 0
4 2 3 25 24 0 255 0
4 3 4 26 25 0 255 0
4 4 5 27 26 0 255 0
4 5 6 28 27 0 255 0
4 6 7 29 28 0 255 0
4 7 8 30 29 0 255 0
4 8 9 31 30 0 255 0
4 9 10 32 31 0 255 0
4 10 11 33 32 0 255 0
4 11 0 22 33 128 0 128
4 12 13 35 34 0 255 0
4 13 14 36 35 0 255 0
4 14 15 37 36 0 255 0
4 15 12 34 37 0 255 0
4 16 17 39 38 0 255 0
4 17 18 40 39 0 255 0
4 18 19 41 40 0 255 0
4 19 20 42 41 0 255 0
4 20 21 43 42 0 255 0
4 21 16 38 43 0 255 0
