ply
format ascii 1.0
element vertex 38
property float x
property float y
property float z
element face 35
property list uchar int vertex_index
property uchar red
property uchar green
property uchar blue
end_header
0.34375 0.1511133909225464 1.0
0.28125 0.32641366124153137 1.0
0.3555126190185547 0.5 1.0
0.4600509703159332 0.640625 1.0
0.578125 0.7706543803215027 1.0
0.734375 0.8086129426956177 1.0
0.726742684841156 0.640625 1.0
0.671875 0.4828462302684784 1.0
0.5956400036811829 0.296875 1.0
0.47327473759651184 0.171875 1.0
0.390625 0.24277330935001373 1.0
0.41051170229911804 0.25 1.0
0.546875 0.3688680827617645 1.0
0.6205809712409973 0.546875 1.0
0.546875 0.6086945533752441 1.0
0.421875 0.47660303115844727 1.0
0.36691367626190186 0.28125 1.0
0.671875 0.6606957912445068 1.0
0.65625 0.6715460419654846 1.0
0.34375 0.1511133909225464 0.0
0.28125 0.32641366124153137 0.0
0.3555126190185547 0.5 0.0
0.4600509703159332 0.640625 0.0
0.578125 0.7706543803215027 0.0
0.734375 0.8086129426956177 0.0
0.726742684841156 0.640625 0.0
0.671875 0.4828462302684784 0.0
0.5956400036811829 0.296875 0.0
0.47327473759651184 0.171875 0.0
0.390625 0.24277330935001373 0.0
0.41051170229911804 0.25 0.0
0.546875 0.3688680827617645 0.0
0.6205809712409973 0.546875 0.0
0.546875 0.6086945533752441 0.0
0.421875 0.47660303115844727 0.0
0.36691367626190186 0.28125 0.0
0.671875 0.6606957912445068 0.0
0.65625 0.6715460419654846 0.0
4 8 12 11 9 255 0 0
4 1 16 15 2 255 0 0
4 0 10 16 1 255 0 0
4 7 13 12 8 255 0 0
4 9 11 10 0 255 0 0
3 6 17 18 255 0 0
4 2 15 14 3 255 0 0
3 6 18 17 255 0 0
7 3 14 13 7 6 5 4 255 0 0
4 27 28 30 31 0 0 255
4 20 21 34 35 0 0 255
4 19 20 35 29 0 0 255
4 26 27 31 32 0 0 255
4 28 19 29 30 0 0 255
3 25 37 36 0 0 255
4 21 22 33 34 0 0 255
3 25 36 37 0 0 255
7 22 23 24 25 26 32 33 0 0 255
4 0 1 20 19 128 0 128
4 1 2 21 20 0 255 0
4 2 3 22 21 0 255 0
4 3 4 23 22 0 255 0
4 4 5 24 23 0 255 0
4 5 6 25 24 0 255 0
4 6 7 26 25 0 255 0
4 7 8 27 26 0 255 0
4 8 9 28 27 0 255 0
4 9 0 19 28 128 0 128
4 10 11 30 29 0 255 0
4 11 12 31 30 0 255 0
4 12 13 32 31 0 255 0
4 13 14 33 32 0 255 0
4 14 15 34 33 0 255 0
4 15 16 35 34 0 255 0
4 16 10 29 35 0 255 0
