ply
format ascii 1.0
element vertex 40
property float x
property float y
property float z
element face 36
property list uchar int vertex_index
property uchar red
property uchar green
property uchar blue
end_header
0.25 0.16294758021831512 1.0
0.265625 0.3156118094921112 1.0
0.40625 0.4314762353897095 1.0
0.46504759788513184 0.625 1.0
0.609375 0.733189046382904 1.0
0.765625 0.6967179179191589 1.0
0.828125 0.6114931106567383 1.0
0.6875 0.5041049718856812 1.0
0.5214077830314636 0.421875 1.0
0.5497453808784485 0.234375 1.0
0.390625 0.15120141208171844 1.0
0.3125 0.19831407070159912 1.0
0.375 0.20105363428592682 1.0
0.5069195628166199 0.3125 1.0
0.372530996799469 0.34375 1.0
0.2875883877277374 0.203125 1.0
0.515625 0.48613694310188293 1.0
0.609375 0.5351653695106506 1.0
0.71875 0.6627644300460815 1.0
0.5607261657714844 0.640625 1.0
0.25 0.16294758021831512 0.0
0.265625 0.3156118094921112 0.0
0.40625 0.4314762353897095 0.0
0.46504759788513184 0.625 0.0
0.609375 0.733189046382904 0.0
0.765625 0.6967179179191589 0.0
0.828125 0.6114931106567383 0.0
0.6875 0.5041049718856812 0.0
0.5214077830314636 0.421875 0.0
0.5497453808784485 0.234375 0.0
0.390625 0.15120141208171844 0.0
0.3125 0.19831407070159912 0.0
0.375 0.20105363428592682 0.0
0.5069195628166199 0.3125 0.0
0.372530996799469 0.34375 0.0
0.2875883877277374 0.203125 0.0
0.515625 0.48613694310188293 0.0
0.609375 0.5351653695106506 0.0
0.71875 0.6627644300460815 0.0
0.5607261657714844 0.640625 0.0
5 5 18 17 7 6 255 0 0
5 0 15 14 2 1 255 0 0
4 7 17 16 8 255 0 0
5 3 19 18 5 4 255 0 0
3 0 11 15 255 0 0
4 10 12 11 0 255 0 0
4 9 13 12 10 255 0 0
8 2 14 13 9 8 16 19 3 255 0 0
5 25 26 27 37 38 0 0 255
5 20 21 22 34 35 0 0 255
4 27 28 36 37 0 0 255
5 23 24 25 38 39 0 0 255
3 20 35 31 0 0 255
4 30 20 31 32 0 0 255
4 29 30 32 33 0 0 255
8 22 23 39 36 28 29 33 34 0 0 255
4 0 1 21 20 0 255 0
4 1 2 22 21 0 255 0
4 2 3 23 22 0 255 0
4 3 4 24 23 0 255 0
4 4 5 25 24 0 255 0
4 5 6 26 25 0 255 0
4 6 7 27 26 0 255 0
4 7 8 28 27 0 255 0
4 8 9 29 28 0 255 0
4 9 10 30 29 128 0 128
4 10 0 20 30 128 0 128
4 11 12 32 31 0 255 0
4 12 13 33 32 0 255 0
4 13 14 34 33 0 255 0
4 14 15 35 34 0 255 0
4 15 11 31 35 0 255 0
4 16 17 37 36 0 255 0
4 17 18 38 37 0 255 0
4 18 19 39 38 0 255 0
4 19 16 36 39 0 255 0
