ply
format ascii 1.0
element vertex 44
property float x
property float y
property float z
element face 30
property list uchar int vertex_index
property uchar red
property uchar green
property uchar blue
end_header
0.1470472365617752 0.171875 1.0
0.13314302265644073 0.34375 1.0
0.28125 0.4483042359352112 1.0
0.484375 0.4874506890773773 1.0
0.625 0.5715914368629456 1.0
0.6875 0.7415001392364502 1.0
0.515625 0.7224910259246826 1.0
0.390625 0.7347344160079956 1.0
0.546875 0.842837393283844 1.0
0.718497097492218 0.84375 1.0
0.765625 0.6566633582115173 1.0
0.6875 0.49145984649658203 1.0
0.640625 0.33282721042633057 1.0
0.7862234115600586 0.234375 1.0
0.640625 0.19846577942371368 1.0
0.515625 0.3154868185520172 1.0
0.3718404173851013 0.21875 1.0
0.171875 0.16203010082244873 1.0
0.234375 0.24133914709091187 1.0
0.359375 0.29992979764938354 1.0
0.421875 0.41492536664009094 1.0
0.25 0.3345404267311096 1.0
0.1470472365617752 0.171875 0.0
0.13314302265644073 0.34375 0.0
0.28125 0.4483042359352112 0.0
0.484375 0.4874506890773773 0.0
0.625 0.5715914368629456 0.0
0.6875 0.7415001392364502 0.0
0.515625 0.7224910259246826 0.0
0.390625 0.7347344160079956 0.0
0.546875 0.842837393283844 0.0
0.718497097492218 0.84375 0.0
0.765625 0.6566633582115173 0.0
0.6875 0.49145984649658203 0.0
0.640625 0.33282721042633057 0.0
0.7862234115600586 0.234375 0.0
0.640625 0.19846577942371368 0.0
0.515625 0.3154868185520172 0.0
0.3718404173851013 0.21875 0.0
0.171875 0.16203010082244873 0.0
0.234375 0.24133914709091187 0.0
0.359375 0.29992979764938354 0.0
0.421875 0.41492536664009094 0.0
0.25 0.3345404267311096 0.0
4 16 19 18 17 255 0 0
16 3 20 19 16 15 14 13 12 11 10 9 8 7 6 5 4 255 0 0
5 1 21 20 3 2 255 0 0
5 17 18 21 1 0 255 0 0
4 38 39 40 41 0 0 255
16 25 26 27 28 29 30 31 32 33 34 35 36 37 38 41 42 0 0 255
5 23 24 25 42 43 0 0 255
5 39 22 23 43 40 0 0 255
4 0 1 23 22 0 255 0
4 1 2 24 23 0 255 0
4 2 3 25 24 0 255 0
4 3 4 26 25 0 255 0
4 4 5 27 26 0 255 0
4 5 6 28 27 0 255 0
4 6 7 29 28 0 255 0
4 7 8 30 29 0 255 0
4 8 9 31 30 0 255 0
4 9 10 32 31 0 255 0
4 10 11 33 32 0 255 0
4 11 12 34 33 0 255 0
4 12 13 35 34 0 255 0
4 13 14 36 35 0 255 0
4 14 15 37 36 0 255 0
4 15 16 38 37 0 255 0
4 16 17 39 38 128 0 128
4 17 0 22 39 128 0 128
4 18 19 41 40 0 255 0
4 19 20 42 41 0 255 0
4 20 21 43 42 0 255 0
4 21 18 40 43 0 255 0
