ply
format ascii 1.0
element vertex 46
property float x
property float y
property float z
element face 43
property list uchar int vertex_index
property uchar red
property uchar green
property uchar blue
end_header
0.390625 0.09937616437673569 1.0
0.3137800693511963 0.25 1.0
0.4187955856323242 0.40625 1.0
0.296875 0.4774779677391052 1.0
0.21875 0.595858633518219 1.0
0.34489890933036804 0.71875 1.0
0.515625 0.8012533187866211 1.0
0.730833888053894 0.765625 1.0
0.6875 0.6178485155105591 1.0
0.6218839883804321 0.46875 1.0
0.6706727147102356 0.296875 1.0
0.578125 0.13574407994747162 1.0
0.453125 0.17978538572788239 1.0
0.5162922143936157 0.203125 1.0
0.59375 0.36703574657440186 1.0
0.46875 0.34258198738098145 1.0
0.421875 0.1846054643392563 1.0
0.486651211977005 0.515625 1.0
0.59375 0.597987949848175 1.0
0.625 0.7475476264953613 1.0
0.453125 0.6905492544174194 1.0
0.3158801794052124 0.578125 1.0
0.4825732111930847 0.515625 1.0
0.390625 0.09937616437673569 0.0
0.3137800693511963 0.25 0.0
0.4187955856323242 0.40625 0.0
0.296875 0.4774779677391052 0.0
0.21875 0.595858633518219 0.0
0.34489890933036804 0.71875 0.0
0.515625 0.8012533187866211 0.0
0.730833888053894 0.765625 0.0
0.6875 0.6178485155105591 0.0
0.6218839883804321 0.46875 0.0
0.6706727147102356 0.296875 0.0
0.578125 0.13574407994747162 0.0
0.453125 0.17978538572788239 0.0
0.5162922143936157 0.203125 0.0
0.59375 0.36703574657440186 0.0
0.46875 0.34258198738098145 0.0
0.421875 0.1846054643392563 0.0
0.486651211977005 0.515625 0.0
0.59375 0.597987949848175 0.0
0.625 0.7475476264953613 0.0
0.453125 0.6905492544174194 0.0
0.3158801794052124 0.578125 0.0
0.4825732111930847 0.515625 0.0
4 4 21 20 5 255 0 0
8 8 18 17 2 15 14 10 9 255 0 0
5 5 20 19 7 6 255 0 0
5 0 16 15 2 1 255 0 0
4 7 19 18 8 255 0 0
3 0 12 16 255 0 0
4 10 14 13 11 255 0 0
5 2 22 21 4 3 255 0 0
3 2 17 22 255 0 0
4 11 13 12 0 255 0 0
4 27 28 43 44 0 0 255
8 31 32 33 37 38 25 40 41 0 0 255
5 28 29 30 42 43 0 0 255
5 23 24 25 38 39 0 0 255
4 30 31 41 42 0 0 255
3 23 39 35 0 0 255
4 33 34 36 37 0 0 255
5 25 26 27 44 45 0 0 255
3 25 45 40 0 0 255
4 34 23 35 36 0 0 255
4 0 1 24 23 128 0 128
4 1 2 25 24 0 255 0
4 2 3 26 25 0 255 0
4 3 4 27 26 0 255 0
4 4 5 28 27 0 255 0
4 5 6 29 28 0 255 0
4 6 7 30 29 0 255 0
4 7 8 31 30 0 255 0
4 8 9 32 31 0 255 0
4 9 10 33 32 0 255 0
4 10 11 34 33 0 255 0
4 11 0 23 34 128 0 128
4 12 13 36 35 0 255 0
4 13 14 37 36 0 255 0
4 14 15 38 37 0 255 0
4 15 16 39 38 0 255 0
4 16 12 35 39 0 255 0
4 17 18 41 40 0 255 0
4 18 19 42 41 0 255 0
4 19 20 43 42 0 255 0
4 20 21 44 43 0 255 0
4 21 22 45 44 0 255 0
4 22 17 40 45 0 255 0
