ply
format ascii 1.0
element vertex 40
property float x
property float y
property float z
element face 24
property list uchar int vertex_index
property uchar red
property uchar green
property uchar blue
end_header
0.37447232007980347 0.171875 1.0
0.21875 0.26841267943382263 1.0
0.19983702898025513 0.5 1.0
0.3249642550945282 0.625 1.0
0.4690425395965576 0.71875 1.0
0.6220486164093018 0.828125 1.0
0.8172149658203125 0.859375 1.0
0.6893150210380554 0.734375 1.0
0.5554620027542114 0.625 1.0
0.640625 0.5552719831466675 1.0
0.78125 0.44986218214035034 1.0
0.7691749334335327 0.28125 1.0
0.609375 0.1921282559633255 1.0
0.390625 0.16235464811325073 1.0
0.37447232007980347 0.171875 1.0
0.484375 0.2923005521297455 1.0
0.6311971545219421 0.328125 1.0
0.546875 0.42847731709480286 1.0
0.34375 0.38522204756736755 1.0
0.484375 0.2923005521297455 1.0
0.37447232007980347 0.171875 0.0
0.21875 0.26841267943382263 0.0
0.19983702898025513 0.5 0.0
0.3249642550945282 0.625 0.0
0.4690425395965576 0.71875 0.0
0.6220486164093018 0.828125 0.0
0.8172149658203125 0.859375 0.0
0.6893150210380554 0.734375 0.0
0.5554620027542114 0.625 0.0
0.640625 0.5552719831466675 0.0
0.78125 0.44986218214035034 0.0
0.7691749334335327 0.28125 0.0
0.609375 0.1921282559633255 0.0
0.390625 0.16235464811325073 0.0
0.37447232007980347 0.171875 0.0
0.484375 0.2923005521297455 0.0
0.6311971545219421 0.328125 0.0
0.546875 0.42847731709480286 0.0
0.34375 0.38522204756736755 0.0
0.484375 0.2923005521297455 0.0
11 1 18 17 9 8 7 6 5 4 3 2 255 0 0
6 9 17 16 12 11 10 255 0 0
3 12 16 15 255 0 0
11 21 22 23 24 25 26 27 28 29 37 38 0 0 255
6 29 30 31 32 36 37 0 0 255
3 32 35 36 0 0 255
4 0 1 21 20 0 255 0
4 1 2 22 21 0 255 0
4 2 3 23 22 0 255 0
4 3 4 24 23 0 255 0
4 4 5 25 24 0 255 0
4 5 6 26 25 0 255 0
4 6 7 27 26 0 255 0
4 7 8 28 27 0 255 0
4 8 9 29 28 0 255 0
4 9 10 30 29 0 255 0
4 10 11 31 30 0 255 0
4 11 12 32 31 0 255 0
4 12 13 33 32 128 0 128
4 13 14 34 33 128 0 128
4 15 16 36 35 0 255 0
4 16 17 37 36 0 255 0
4 17 18 38 37 0 255 0
4 18 19 39 38 0 255 0
