ply
format ascii 1.0
element vertex 42
property float x
property float y
property float z
element face 31
property list uchar int vertex_index
property uchar red
property uchar green
property uchar blue
end_header
0.5236455202102661 0.171875 1.0
0.359375 0.25052013993263245 1.0
0.2398945540189743 0.390625 1.0
0.21967114508152008 0.59375 1.0
0.30512478947639465 0.765625 1.0
0.45322468876838684 0.859375 1.0
0.5180030465126038 0.8125 1.0
0.359375 0.7296927571296692 1.0
0.27100569009780884 0.5625 1.0
0.3269801735877991 0.359375 1.0
0.46875 0.2606790363788605 1.0
0.47960421442985535 0.4375 1.0
0.59375 0.5654844641685486 1.0
0.7732280492782593 0.53125 1.0
0.8315779566764832 0.34375 1.0
0.734375 0.19638757407665253 1.0
0.671875 0.24446555972099304 1.0
0.7248735427856445 0.28125 1.0
0.734375 0.5036592483520508 1.0
0.578125 0.4840385913848877 1.0
0.5698708891868591 0.296875 1.0
0.5236455202102661 0.171875 0.0
0.359375 0.25052013993263245 0.0
0.2398945540189743 0.390625 0.0
0.21967114508152008 0.59375 0.0
0.30512478947639465 0.765625 0.0
0.45322468876838684 0.859375 0.0
0.5180030465126038 0.8125 0.0
0.359375 0.7296927571296692 0.0
0.27100569009780884 0.5625 0.0
0.3269801735877991 0.359375 0.0
0.46875 0.2606790363788605 0.0
0.47960421442985535 0.4375 0.0
0.59375 0.5654844641685486 0.0
0.7732280492782593 0.53125 0.0
0.8315779566764832 0.34375 0.0
0.734375 0.19638757407665253 0.0
0.671875 0.24446555972099304 0.0
0.7248735427856445 0.28125 0.0
0.734375 0.5036592483520508 0.0
0.578125 0.4840385913848877 0.0
0.5698708891868591 0.296875 0.0
5 10 20 19 12 11 255 0 0
5 13 18 17 15 14 255 0 0
14 15 16 20 10 9 8 7 6 5 4 3 2 1 0 255 0 0
3 15 17 16 255 0 0
4 12 19 18 13 255 0 0
5 31 32 33 40 41 0 0 255
5 34 35 36 38 39 0 0 255
14 36 21 22 23 24 25 26 27 28 29 30 31 41 37 0 0 255
3 36 37 38 0 0 255
4 33 34 39 40 0 0 255
4 0 1 22 21 128 0 128
4 1 2 23 22 0 255 0
4 2 3 24 23 0 255 0
4 3 4 25 24 0 255 0
4 4 5 26 25 0 255 0
4 5 6 27 26 0 255 0
4 6 7 28 27 0 255 0
4 7 8 29 28 0 255 0
4 8 9 30 29 0 255 0
4 9 10 31 30 0 255 0
4 10 11 32 31 0 255 0
4 11 12 33 32 0 255 0
4 12 13 34 33 0 255 0
4 13 14 35 34 0 255 0
4 14 15 36 35 0 255 0
4 15 0 21 36 128 0 128
4 16 17 38 37 0 255 0
4 17 18 39 38 0 255 0
4 18 19 40 39 0 255 0
4 19 20 41 40 0 255 0
4 20 16 37 41 0 255 0
