ply
format ascii 1.0
element vertex 36
property float x
property float y
property float z
element face 24
property list uchar int vertex_index
property uchar red
property uchar green
property uchar blue
end_header
0.26386192440986633 0.125 1.0
0.25 0.3439848721027374 1.0
0.2951130270957947 0.5 1.0
0.375 0.6691417098045349 1.0
0.5625 0.7228701114654541 1.0
0.59375 0.6461837887763977 1.0
0.421875 0.5750535726547241 1.0
0.515625 0.5587511658668518 1.0
0.6875 0.6280853748321533 1.0
0.8775060772895813 0.6875 1.0
0.875 0.5805013179779053 1.0
0.703125 0.5120470523834229 1.0
0.515625 0.44394567608833313 1.0
0.5731808543205261 0.296875 1.0
0.46875 0.15532919764518738 1.0
0.375 0.22806723415851593 1.0
0.4375 0.26122090220451355 1.0
0.34577280282974243 0.265625 1.0
0.26386192440986633 0.125 0.0
0.25 0.3439848721027374 0.0
0.2951130270957947 0.5 0.0
0.375 0.6691417098045349 0.0
0.5625 0.7228701114654541 0.0
0.59375 0.6461837887763977 0.0
0.421875 0.5750535726547241 0.0
0.515625 0.5587511658668518 0.0
0.6875 0.6280853748321533 0.0
0.8775060772895813 0.6875 0.0
0.875 0.5805013179779053 0.0
0.703125 0.5120470523834229 0.0
0.515625 0.44394567608833313 0.0
0.5731808543205261 0.296875 0.0
0.46875 0.15532919764518738 0.0
0.375 0.22806723415851593 0.0
0.4375 0.26122090220451355 0.0
0.34577280282974243 0.265625 0.0
5 14 15 17 1 0 255 0 0
16 1 17 16 14 13 12 11 10 9 8 7 6 5 4 3 2 255 0 0
3 14 16 15 255 0 0
5 32 18 19 35 33 0 0 255
16 19 20 21 22 23 24 25 26 27 28 29 30 31 32 34 35 0 0 255
3 32 33 34 0 0 255
4 0 1 19 18 128 0 128
4 1 2 20 19 0 255 0
4 2 3 21 20 0 255 0
4 3 4 22 21 0 255 0
4 4 5 23 22 0 255 0
4 5 6 24 23 0 255 0
4 6 7 25 24 0 255 0
4 7 8 26 25 0 255 0
4 8 9 27 26 0 255 0
4 9 10 28 27 0 255 0
4 10 11 29 28 0 255 0
4 11 12 30 29 0 255 0
4 12 13 31 30 0 255 0
4 13 14 32 31 0 255 0
4 14 0 18 32 128 0 128
4 15 16 34 33 0 255 0
4 16 17 35 34 0 255 0
4 17 15 33 35 0 255 0
