ply
format ascii 1.0
element vertex 42
property float x
property float y
property float z
element face 39
property list uchar int vertex_index
property uchar red
property uchar green
property uchar blue
end_header
0.453125 0.09768901020288467 1.0
0.3125 0.2175682634115219 1.0
0.3147595524787903 0.40625 1.0
0.33716025948524475 0.546875 1.0
0.421875 0.7123022675514221 1.0
0.484375 0.8062389492988586 1.0
0.6877615451812744 0.765625 1.0
0.6637107133865356 0.609375 1.0
0.53125 0.49393993616104126 1.0
0.609375 0.33958321809768677 1.0
0.5868576169013977 0.15625 1.0
0.4864919185638428 0.171875 1.0
0.555565357208252 0.234375 1.0
0.5310869812965393 0.390625 1.0
0.390625 0.3804352283477783 1.0
0.36612382531166077 0.21875 1.0
0.453125 0.5246849060058594 1.0
0.4721297323703766 0.53125 1.0
0.6143288612365723 0.640625 1.0
0.6163359880447388 0.6875 1.0
0.4375 0.6561617851257324 1.0
0.453125 0.09768901020288467 0.0
0.3125 0.2175682634115219 0.0
0.3147595524787903 0.40625 0.0
0.33716025948524475 0.546875 0.0
0.421875 0.7123022675514221 0.0
0.484375 0.8062389492988586 0.0
0.6877615451812744 0.765625 0.0
0.6637107133865356 0.609375 0.0
0.53125 0.49393993616104126 0.0
0.609375 0.33958321809768677 0.0
0.5868576169013977 0.15625 0.0
0.4864919185638428 0.171875 0.0
0.555565357208252 0.234375 0.0
0.5310869812965393 0.390625 0.0
0.390625 0.3804352283477783 0.0
0.36612382531166077 0.21875 0.0
0.453125 0.5246849060058594 0.0
0.4721297323703766 0.53125 0.0
0.6143288612365723 0.640625 0.0
0.6163359880447388 0.6875 0.0
0.4375 0.6561617851257324 0.0
3 8 17 16 255 0 0
4 0 11 15 1 255 0 0
4 10 12 11 0 255 0 0
4 7 18 17 8 255 0 0
3 7 19 18 255 0 0
6 4 20 19 7 6 5 255 0 0
4 9 13 12 10 255 0 0
9 2 14 13 9 8 16 20 4 3 255 0 0
4 1 15 14 2 255 0 0
3 29 37 38 0 0 255
4 21 22 36 32 0 0 255
4 31 21 32 33 0 0 255
4 28 29 38 39 0 0 255
3 28 39 40 0 0 255
6 25 26 27 28 40 41 0 0 255
4 30 31 33 34 0 0 255
9 23 24 25 41 37 29 30 34 35 0 0 255
4 22 23 35 36 0 0 255
4 0 1 22 21 128 0 128
4 1 2 23 22 0 255 0
4 2 3 24 23 0 255 0
4 3 4 25 24 0 255 0
4 4 5 26 25 0 255 0
4 5 6 27 26 0 255 0
4 6 7 28 27 0 255 0
4 7 8 29 28 0 255 0
4 8 9 30 29 0 255 0
4 9 10 31 30 0 255 0
4 10 0 21 31 128 0 128
4 11 12 33 32 0 255 0
4 12 13 34 33 0 255 0
4 13 14 35 34 0 255 0
4 14 15 36 35 0 255 0
4 15 11 32 36 0 255 0
4 16 17 38 37 0 255 0
4 17 18 39 38 0 255 0
4 18 19 40 39 0 255 0
4 19 20 41 40 0 255 0
4 20 16 37 41 0 255 0
