ply
format ascii 1.0
element vertex 38
property float x
property float y
property float z
element face 35
property list uchar int vertex_index
property uchar red
property uchar green
property uchar blue
end_header
0.4272111654281616 0.09375 1.0
0.28125 0.2013970911502838 1.0
0.265625 0.40944546461105347 1.0
0.28125 0.6265212297439575 1.0
0.34219613671302795 0.78125 1.0
0.5488172769546509 0.796875 1.0
0.703125 0.6899942755699158 1.0
0.8082589507102966 0.546875 1.0
0.8666902184486389 0.359375 1.0
0.7645779252052307 0.21875 1.0
0.609375 0.12362037599086761 1.0
0.484375 0.20078667998313904 1.0
0.578125 0.22699609398841858 1.0
0.734375 0.3188219666481018 1.0
0.7320467233657837 0.484375 1.0
0.625 0.6342406272888184 1.0
0.453125 0.6733005046844482 1.0
0.3754355311393738 0.53125 1.0
0.3741169571876526 0.296875 1.0
0.4272111654281616 0.09375 0.0
0.28125 0.2013970911502838 0.0
0.265625 0.40944546461105347 0.0
0.28125 0.6265212297439575 0.0
0.34219613671302795 0.78125 0.0
0.5488172769546509 0.796875 0.0
0.703125 0.6899942755699158 0.0
0.8082589507102966 0.546875 0.0
0.8666902184486389 0.359375 0.0
0.7645779252052307 0.21875 0.0
0.609375 0.12362037599086761 0.0
0.484375 0.20078667998313904 0.0
0.578125 0.22699609398841858 0.0
0.734375 0.3188219666481018 0.0
0.7320467233657837 0.484375 0.0
0.625 0.6342406272888184 0.0
0.453125 0.6733005046844482 0.0
0.3754355311393738 0.53125 0.0
0.3741169571876526 0.296875 0.0
5 1 18 17 3 2 255 0 0
4 0 11 18 1 255 0 0
4 10 12 11 0 255 0 0
5 7 14 13 9 8 255 0 0
4 6 15 14 7 255 0 0
4 3 17 16 4 255 0 0
4 9 13 12 10 255 0 0
5 4 16 15 6 5 255 0 0
5 20 21 22 36 37 0 0 255
4 19 20 37 30 0 0 255
4 29 19 30 31 0 0 255
5 26 27 28 32 33 0 0 255
4 25 26 33 34 0 0 255
4 22 23 35 36 0 0 255
4 28 29 31 32 0 0 255
5 23 24 25 34 35 0 0 255
4 0 1 20 19 128 0 128
4 1 2 21 20 0 255 0
4 2 3 22 21 0 255 0
4 3 4 23 22 0 255 0
4 4 5 24 23 0 255 0
4 5 6 25 24 0 255 0
4 6 7 26 25 0 255 0
4 7 8 27 26 0 255 0
4 8 9 28 27 0 255 0
4 9 10 29 28 0 255 0
4 10 0 19 29 128 0 128
4 11 12 31 30 0 255 0
4 12 13 32 31 0 255 0
4 13 14 33 32 0 255 0
4 14 15 34 33 0 255 0
4 15 16 35 34 0 255 0
4 16 17 36 35 0 255 0
4 17 18 37 36 0 255 0
4 18 11 30 37 0 255 0
