ply
format ascii 1.0
element vertex 46
property float x
property float y
property float z
element face 25
property list uchar int vertex_index
property uchar red
property uchar green
property uchar blue
end_header
0.31137514114379883 0.21875 1.0
0.16223669052124023 0.328125 1.0
0.3125 0.4296174943447113 1.0
0.515625 0.38540637493133545 1.0
0.6276496648788452 0.484375 1.0
0.578125 0.6768733859062195 1.0
0.4375 0.7932178974151611 1.0
0.2698839604854584 0.828125 1.0
0.265625 0.9071407318115234 1.0
0.453125 0.855248212814331 1.0
0.609375 0.755293071269989 1.0
0.7054747343063354 0.609375 1.0
0.6875 0.37890657782554626 1.0
0.78125 0.2720014154911041 1.0
0.78125 0.22496865689754486 1.0
0.59375 0.25669658184051514 1.0
0.390625 0.21295802295207977 1.0
0.31137514114379883 0.21875 1.0
0.375 0.2641935646533966 1.0
0.453125 0.3235622048377991 1.0
0.28125 0.3610938787460327 1.0
0.35164228081703186 0.265625 1.0
0.375 0.2641935646533966 1.0
0.31137514114379883 0.21875 0.0
0.16223669052124023 0.328125 0.0
0.3125 0.4296174943447113 0.0
0.515625 0.38540637493133545 0.0
0.6276496648788452 0.484375 0.0
0.578125 0.6768733859062195 0.0
0.4375 0.7932178974151611 0.0
0.2698839604854584 0.828125 0.0
0.265625 0.9071407318115234 0.0
0.453125 0.855248212814331 0.0
0.609375 0.755293071269989 0.0
0.7054747343063354 0.609375 0.0
0.6875 0.37890657782554626 0.0
0.78125 0.2720014154911041 0.0
0.78125 0.22496865689754486 0.0
0.59375 0.25669658184051514 0.0
0.390625 0.21295802295207977 0.0
0.31137514114379883 0.21875 0.0
0.375 0.2641935646533966 0.0
0.453125 0.3235622048377991 0.0
0.28125 0.3610938787460327 0.0
0.35164228081703186 0.265625 0.0
0.375 0.2641935646533966 0.0
18 20 2 3 4 5 6 7 8 9 10 11 12 13 14 15 16 18 19 255 0 0
5 21 0 1 2 20 255 0 0
18 43 42 41 39 38 37 36 35 34 33 32 31 30 29 28 27 26 25 0 0 255
5 44 43 25 24 23 0 0 255
4 1 0 23 24 0 255 0
4 2 1 24 25 0 255 0
4 3 2 25 26 0 255 0
4 4 3 26 27 0 255 0
4 5 4 27 28 0 255 0
4 6 5 28 29 0 255 0
4 7 6 29 30 0 255 0
4 8 7 30 31 0 255 0
4 9 8 31 32 0 255 0
4 10 9 32 33 0 255 0
4 11 10 33 34 0 255 0
4 12 11 34 35 0 255 0
4 13 12 35 36 0 255 0
4 14 13 36 37 0 255 0
4 15 14 37 38 0 255 0
4 16 15 38 39 128 0 128
4 17 16 39 40 128 0 128
4 19 18 41 42 0 255 0
4 20 19 42 43 0 255 0
4 21 20 43 44 0 255 0
4 22 21 44 45 0 255 0
