ply
format ascii 1.0
element vertex 38
property float x
property float y
property float z
element face 33
property list uchar int vertex_index
property uchar red
property uchar green
property uchar blue
end_header
0.453125 0.09927648305892944 1.0
0.3863091766834259 0.28125 1.0
0.44014260172843933 0.46875 1.0
0.3125 0.5795632004737854 1.0
0.2923390865325928 0.75 1.0
0.484375 0.8009774088859558 1.0
0.65625 0.7337052822113037 1.0
0.6269817352294922 0.578125 1.0
0.5910824537277222 0.40625 1.0
0.6575780510902405 0.234375 1.0
0.5625 0.09131515771150589 1.0
0.5 0.16240109503269196 1.0
0.5459599494934082 0.3125 1.0
0.441927969455719 0.296875 1.0
0.484375 0.5500431060791016 1.0
0.5117375254631042 0.609375 1.0
0.53125 0.7281565070152283 1.0
0.352998822927475 0.6875 1.0
0.46875 0.5565637350082397 1.0
0.453125 0.09927648305892944 0.0
0.3863091766834259 0.28125 0.0
0.44014260172843933 0.46875 0.0
0.3125 0.5795632004737854 0.0
0.2923390865325928 0.75 0.0
0.484375 0.8009774088859558 0.0
0.65625 0.7337052822113037 0.0
0.6269817352294922 0.578125 0.0
0.5910824537277222 0.40625 0.0
0.6575780510902405 0.234375 0.0
0.5625 0.09131515771150589 0.0
0.5 0.16240109503269196 0.0
0.5459599494934082 0.3125 0.0
0.441927969455719 0.296875 0.0
0.484375 0.5500431060791016 0.0
0.5117375254631042 0.609375 0.0
0.53125 0.7281565070152283 0.0
0.352998822927475 0.6875 0.0
0.46875 0.5565637350082397 0.0
6 8 12 11 0 10 9 255 0 0
8 7 15 14 2 1 13 12 8 255 0 0
4 4 17 16 5 255 0 0
4 0 11 13 1 255 0 0
3 2 14 18 255 0 0
5 5 16 15 7 6 255 0 0
5 2 18 17 4 3 255 0 0
6 27 28 29 19 30 31 0 0 255
8 26 27 31 32 20 21 33 34 0 0 255
4 23 24 35 36 0 0 255
4 19 20 32 30 0 0 255
3 21 37 33 0 0 255
5 24 25 26 34 35 0 0 255
5 21 22 23 36 37 0 0 255
4 0 1 20 19 0 255 0
4 1 2 21 20 0 255 0
4 2 3 22 21 0 255 0
4 3 4 23 22 0 255 0
4 4 5 24 23 0 255 0
4 5 6 25 24 0 255 0
4 6 7 26 25 0 255 0
4 7 8 27 26 0 255 0
4 8 9 28 27 0 255 0
4 9 10 29 28 128 0 128
4 10 0 19 29 128 0 128
4 11 12 31 30 0 255 0
4 12 13 32 31 0 255 0
4 13 11 30 32 0 255 0
4 14 15 34 33 0 255 0
4 15 16 35 34 0 255 0
4 16 17 36 35 0 255 0
4 17 18 37 36 0 255 0
4 18 14 33 37 0 255 0
