ply
format ascii 1.0
element vertex 42
property float x
property float y
property float z
element face 35
property list uchar int vertex_index
property uchar red
property uchar green
property uchar blue
end_header
0.31945574283599854 0.03125 1.0
0.3764372169971466 0.1875 1.0
0.48140835762023926 0.34375 1.0
0.453125 0.4179733991622925 1.0
0.234375 0.37886691093444824 1.0
0.1585148423910141 0.5 1.0
0.296875 0.6150880455970764 1.0
0.46875 0.7018662095069885 1.0
0.6875 0.7295553684234619 1.0
0.828125 0.6311149597167969 1.0
0.703125 0.5140972137451172 1.0
0.578125 0.37745875120162964 1.0
0.48270031809806824 0.234375 1.0
0.38211193680763245 0.078125 1.0
0.265625 0.4373249411582947 1.0
0.42222434282302856 0.453125 1.0
0.59375 0.5448113679885864 1.0
0.7221837639808655 0.65625 1.0
0.5297994613647461 0.65625 1.0
0.35197335481643677 0.578125 1.0
0.21616430580615997 0.46875 1.0
0.31945574283599854 0.03125 0.0
0.3764372169971466 0.1875 0.0
0.48140835762023926 0.34375 0.0
0.453125 0.4179733991622925 0.0
0.234375 0.37886691093444824 0.0
0.1585148423910141 0.5 0.0
0.296875 0.6150880455970764 0.0
0.46875 0.7018662095069885 0.0
0.6875 0.7295553684234619 0.0
0.828125 0.6311149597167969 0.0
0.703125 0.5140972137451172 0.0
0.578125 0.37745875120162964 0.0
0.48270031809806824 0.234375 0.0
0.38211193680763245 0.078125 0.0
0.265625 0.4373249411582947 0.0
0.42222434282302856 0.453125 0.0
0.59375 0.5448113679885864 0.0
0.7221837639808655 0.65625 0.0
0.5297994613647461 0.65625 0.0
0.35197335481643677 0.578125 0.0
0.21616430580615997 0.46875 0.0
10 10 16 15 3 2 1 0 13 12 11 255 0 0
4 4 14 20 5 255 0 0
4 7 18 17 8 255 0 0
4 3 15 14 4 255 0 0
4 6 19 18 7 255 0 0
4 5 20 19 6 255 0 0
5 8 17 16 10 9 255 0 0
10 31 32 33 34 21 22 23 24 36 37 0 0 255
4 25 26 41 35 0 0 255
4 28 29 38 39 0 0 255
4 24 25 35 36 0 0 255
4 27 28 39 40 0 0 255
4 26 27 40 41 0 0 255
5 29 30 31 37 38 0 0 255
4 0 1 22 21 128 0 128
4 1 2 23 22 0 255 0
4 2 3 24 23 0 255 0
4 3 4 25 24 0 255 0
4 4 5 26 25 0 255 0
4 5 6 27 26 0 255 0
4 6 7 28 27 0 255 0
4 7 8 29 28 0 255 0
4 8 9 30 29 0 255 0
4 9 10 31 30 0 255 0
4 10 11 32 31 0 255 0
4 11 12 33 32 0 255 0
4 12 13 34 33 0 255 0
4 13 0 21 34 128 0 128
4 14 15 36 35 0 255 0
4 15 16 37 36 0 255 0
4 16 17 38 37 0 255 0
4 17 18 39 38 0 255 0
4 18 19 40 39 0 255 0
4 19 20 41 40 0 255 0
4 20 14 35 41 0 255 0
