ply
format ascii 1.0
element vertex 34
property float x
property float y
property float z
element face 29
property list uchar int vertex_index
property uchar red
property uchar green
property uchar blue
end_header
0.5896533131599426 0.0625 1.0
0.5823488235473633 0.28125 1.0
0.5386747121810913 0.375 1.0
0.39014294743537903 0.296875 1.0
0.27212169766426086 0.4375 1.0
0.3183490037918091 0.640625 1.0
0.453125 0.7561603784561157 1.0
0.6238024830818176 0.703125 1.0
0.6897926330566406 0.53125 1.0
0.6515222191810608 0.328125 1.0
0.625 0.12446919083595276 1.0
0.390625 0.35054928064346313 1.0
0.53125 0.427190363407135 1.0
0.5876210927963257 0.625 1.0
0.46875 0.6970075964927673 1.0
0.3438410758972168 0.5625 1.0
0.3561917543411255 0.375 1.0
0.5896533131599426 0.0625 0.0
0.5823488235473633 0.28125 0.0
0.5386747121810913 0.375 0.0
0.39014294743537903 0.296875 0.0
0.27212169766426086 0.4375 0.0
0.3183490037918091 0.640625 0.0
0.453125 0.7561603784561157 0.0
0.6238024830818176 0.703125 0.0
0.6897926330566406 0.53125 0.0
0.6515222191810608 0.328125 0.0
0.625 0.12446919083595276 0.0
0.390625 0.35054928064346313 0.0
0.53125 0.427190363407135 0.0
0.5876210927963257 0.625 0.0
0.46875 0.6970075964927673 0.0
0.3438410758972168 0.5625 0.0
0.3561917543411255 0.375 0.0
9 7 13 12 2 1 0 10 9 8 255 0 0
5 3 16 15 5 4 255 0 0
3 3 11 16 255 0 0
4 6 14 13 7 255 0 0
4 5 15 14 6 255 0 0
4 2 12 11 3 255 0 0
9 24 25 26 27 17 18 19 29 30 0 0 255
5 20 21 22 32 33 0 0 255
3 20 33 28 0 0 255
4 23 24 30 31 0 0 255
4 22 23 31 32 0 0 255
4 19 20 28 29 0 0 255
4 0 1 18 17 128 0 128
4 1 2 19 18 0 255 0
4 2 3 20 19 0 255 0
4 3 4 21 20 0 255 0
4 4 5 22 21 0 255 0
4 5 6 23 22 0 255 0
4 6 7 24 23 0 255 0
4 7 8 25 24 0 255 0
4 8 9 26 25 0 255 0
4 9 10 27 26 0 255 0
4 10 0 17 27 128 0 128
4 11 12 29 28 0 255 0
4 12 13 30 29 0 255 0
4 13 14 31 30 0 255 0
4 14 15 32 31 0 255 0
4 15 16 33 32 0 255 0
4 16 11 28 33 0 255 0
