ply
format ascii 1.0
element vertex 28
property float x
property float y
property float z
element face 16
property list uchar int vertex_index
property uchar red
property uchar green
property uchar blue
end_header
0.46875 0.09148233383893967 1.0
0.658430814743042 0.140625 1.0
0.621992290019989 0.3125 1.0
0.6197432279586792 0.5 1.0
0.7174267172813416 0.65625 1.0
0.6696966886520386 0.78125 1.0
0.578125 0.623472273349762 1.0
0.4375 0.5467377305030823 1.0
0.4375 0.6743087768554688 1.0
0.5 0.7875676155090332 1.0
0.33353281021118164 0.734375 1.0
0.28862956166267395 0.5625 1.0
0.39239999651908875 0.421875 1.0
0.37386950850486755 0.234375 1.0
0.46875 0.09148233383893967 0.0
0.658430814743042 0.140625 0.0
0.621992290019989 0.3125 0.0
0.6197432279586792 0.5 0.0
0.7174267172813416 0.65625 0.0
0.6696966886520386 0.78125 0.0
0.578125 0.623472273349762 0.0
0.4375 0.5467377305030823 0.0
0.4375 0.6743087768554688 0.0
0.5 0.7875676155090332 0.0
0.33353281021118164 0.734375 0.0
0.28862956166267395 0.5625 0.0
0.39239999651908875 0.421875 0.0
0.37386950850486755 0.234375 0.0
14 0 1 2 3 4 5 6 7 8 9 10 11 12 13 255 0 0
14 14 27 26 25 24 23 22 21 20 19 18 17 16 15 0 0 255
4 1 0 14 15 128 0 128
4 2 1 15 16 0 255 0
4 3 2 16 17 0 255 0
4 4 3 17 18 0 255 0
4 5 4 18 19 0 255 0
4 6 5 19 20 0 255 0
4 7 6 20 21 0 255 0
4 8 7 21 22 0 255 0
4 9 8 22 23 0 255 0
4 10 9 23 24 0 255 0
4 11 10 24 25 0 255 0
4 12 11 25 26 0 255 0
4 13 12 26 27 0 255 0
4 0 13 27 14 128 0 128
