ply
format ascii 1.0
element vertex 38
property float x
property float y
property float z
element face 29
property list uchar int vertex_index
property uchar red
property uchar green
property uchar blue
end_header
0.6567785143852234 0.09375 1.0
0.5990058779716492 0.28125 1.0
0.515625 0.3844023644924164 1.0
0.3166101574897766 0.328125 1.0
0.140625 0.3224424421787262 1.0
0.2333938181400299 0.46875 1.0
0.359375 0.5832914113998413 1.0
0.484375 0.7061486840248108 1.0
0.63434237241745 0.78125 1.0
0.6975844502449036 0.703125 1.0
0.6875 0.47795239090919495 1.0
0.8194848895072937 0.390625 1.0
0.7041937112808228 0.25 1.0
0.6835123300552368 0.09375 1.0
0.40625 0.4478802978992462 1.0
0.5779862403869629 0.46875 1.0
0.609375 0.6847432255744934 1.0
0.5438357591629028 0.640625 1.0
0.421875 0.5096133351325989 1.0
0.6567785143852234 0.09375 0.0
0.5990058779716492 0.28125 0.0
0.515625 0.3844023644924164 0.0
0.3166101574897766 0.328125 0.0
0.140625 0.3224424421787262 0.0
0.2333938181400299 0.46875 0.0
0.359375 0.5832914113998413 0.0
0.484375 0.7061486840248108 0.0
0.63434237241745 0.78125 0.0
0.6975844502449036 0.703125 0.0
0.6875 0.47795239090919495 0.0
0.8194848895072937 0.390625 0.0
0.7041937112808228 0.25 0.0
0.6835123300552368 0.09375 0.0
0.40625 0.4478802978992462 0.0
0.5779862403869629 0.46875 0.0
0.609375 0.6847432255744934 0.0
0.5438357591629028 0.640625 0.0
0.421875 0.5096133351325989 0.0
5 7 17 16 9 8 255 0 0
10 9 16 15 2 1 0 13 12 11 10 255 0 0
4 6 18 17 7 255 0 0
3 2 15 14 255 0 0
7 2 14 18 6 5 4 3 255 0 0
5 26 27 28 35 36 0 0 255
10 28 29 30 31 32 19 20 21 34 35 0 0 255
4 25 26 36 37 0 0 255
3 21 33 34 0 0 255
7 21 22 23 24 25 37 33 0 0 255
4 0 1 20 19 0 255 0
4 1 2 21 20 0 255 0
4 2 3 22 21 0 255 0
4 3 4 23 22 0 255 0
4 4 5 24 23 0 255 0
4 5 6 25 24 0 255 0
4 6 7 26 25 0 255 0
4 7 8 27 26 0 255 0
4 8 9 28 27 0 255 0
4 9 10 29 28 0 255 0
4 10 11 30 29 0 255 0
4 11 12 31 30 0 255 0
4 12 13 32 31 0 255 0
4 13 0 19 32 128 0 128
4 14 15 34 33 0 255 0
4 15 16 35 34 0 255 0
4 16 17 36 35 0 255 0
4 17 18 37 36 0 255 0
4 18 14 33 37 0 255 0
