ply
format ascii 1.0
element vertex 30
property float x
property float y
property float z
element face 21
property list uchar int vertex_index
property uchar red
property uchar green
property uchar blue
end_header
0.6130661964416504 0.125 1.0
0.46462881565093994 0.1875 1.0
0.3469413220882416 0.328125 1.0
0.3125 0.5114328861236572 1.0
0.31930744647979736 0.703125 1.0
0.4375 0.8382627367973328 1.0
0.625 0.7810581922531128 1.0
0.5 0.7335357069969177 1.0
0.421875 0.573392391204834 1.0
0.578125 0.5114076137542725 1.0
0.6875 0.37429606914520264 1.0
0.71875 0.19680462777614594 1.0
0.578125 0.2886170446872711 1.0
0.5890402793884277 0.3125 1.0
0.481577068567276 0.375 1.0
0.6130661964416504 0.125 0.0
0.46462881565093994 0.1875 0.0
0.3469413220882416 0.328125 0.0
0.3125 0.5114328861236572 0.0
0.31930744647979736 0.703125 0.0
0.4375 0.8382627367973328 0.0
0.625 0.7810581922531128 0.0
0.5 0.7335357069969177 0.0
0.421875 0.573392391204834 0.0
0.578125 0.5114076137542725 0.0
0.6875 0.37429606914520264 0.0
0.71875 0.19680462777614594 0.0
0.578125 0.2886170446872711 0.0
0.5890402793884277 0.3125 0.0
0.481577068567276 0.375 0.0
7 10 12 14 2 1 0 11 255 0 0
3 10 13 12 255 0 0
11 2 14 13 10 9 8 7 6 5 4 3 255 0 0
7 25 26 15 16 17 29 27 0 0 255
3 25 27 28 0 0 255
11 17 18 19 20 21 22 23 24 25 28 29 0 0 255
4 0 1 16 15 128 0 128
4 1 2 17 16 0 255 0
4 2 3 18 17 0 255 0
4 3 4 19 18 0 255 0
4 4 5 20 19 0 255 0
4 5 6 21 20 0 255 0
4 6 7 22 21 0 255 0
4 7 8 23 22 0 255 0
4 8 9 24 23 0 255 0
4 9 10 25 24 0 255 0
4 10 11 26 25 0 255 0
4 11 0 15 26 128 0 128
4 12 13 28 27 0 255 0
4 13 14 29 28 0 255 0
4 14 12 27 29 0 255 0
