ply
format ascii 1.0
element vertex 40
property float x
property float y
property float z
element face 28
property list uchar int vertex_index
property uchar red
property uchar green
property uchar blue
end_header
0.3554370403289795 0.09375 1.0
0.328125 0.2755753993988037 1.0
0.43881794810295105 0.40625 1.0
0.31231969594955444 0.515625 1.0
0.33871328830718994 0.703125 1.0
0.5 0.7854897975921631 1.0
0.703125 0.7774785161018372 1.0
0.671875 0.6250045895576477 1.0
0.609375 0.7285456657409668 1.0
0.421875 0.6662772297859192 1.0
0.467677503824234 0.53125 1.0
0.59375 0.5403666496276855 1.0
0.7314403653144836 0.578125 1.0
0.609375 0.44653090834617615 1.0
0.5859882235527039 0.25 1.0
0.484375 0.09864050149917603 1.0
0.40625 0.15581528842449188 1.0
0.453125 0.16381113231182098 1.0
0.484375 0.33047807216644287 1.0
0.359375 0.2042279690504074 1.0
0.3554370403289795 0.09375 0.0
0.328125 0.2755753993988037 0.0
0.43881794810295105 0.40625 0.0
0.31231969594955444 0.515625 0.0
0.33871328830718994 0.703125 0.0
0.5 0.7854897975921631 0.0
0.703125 0.7774785161018372 0.0
0.671875 0.6250045895576477 0.0
0.609375 0.7285456657409668 0.0
0.421875 0.6662772297859192 0.0
0.467677503824234 0.53125 0.0
0.59375 0.5403666496276855 0.0
0.7314403653144836 0.578125 0.0
0.609375 0.44653090834617615 0.0
0.5859882235527039 0.25 0.0
0.484375 0.09864050149917603 0.0
0.40625 0.15581528842449188 0.0
0.453125 0.16381113231182098 0.0
0.484375 0.33047807216644287 0.0
0.359375 0.2042279690504074 0.0
4 15 17 16 0 255 0 0
4 0 16 19 1 255 0 0
4 1 19 18 2 255 0 0
16 2 18 17 15 14 13 12 11 10 9 8 7 6 5 4 3 255 0 0
4 35 20 36 37 0 0 255
4 20 21 39 36 0 0 255
4 21 22 38 39 0 0 255
16 22 23 24 25 26 27 28 29 30 31 32 33 34 35 37 38 0 0 255
4 0 1 21 20 128 0 128
4 1 2 22 21 0 255 0
4 2 3 23 22 0 255 0
4 3 4 24 23 0 255 0
4 4 5 25 24 0 255 0
4 5 6 26 25 0 255 0
4 6 7 27 26 0 255 0
4 7 8 28 27 0 255 0
4 8 9 29 28 0 255 0
4 9 10 30 29 0 255 0
4 10 11 31 30 0 255 0
4 11 12 32 31 0 255 0
4 12 13 33 32 0 255 0
4 13 14 34 33 0 255 0
4 14 15 35 34 0 255 0
4 15 0 20 35 128 0 128
4 16 17 37 36 0 255 0
4 17 18 38 37 0 255 0
4 18 19 39 38 0 255 0
4 19 16 36 39 0 255 0
