ply
format ascii 1.0
element vertex 20
property float x
property float y
property float z
element face 12
property list uchar int vertex_index
property uchar red
property uchar green
property uchar blue
end_header
0.453125 0.08930749446153641 1.0
0.558436393737793 0.234375 1.0
0.6035641431808472 0.4375 1.0
0.5583358407020569 0.640625 1.0
0.4375 0.7690446972846985 1.0
0.27753350138664246 0.75 1.0
0.40625 0.6703431010246277 1.0
0.5224142074584961 0.53125 1.0
0.48153769969940186 0.328125 1.0
0.4375 0.14790304005146027 1.0
0.453125 0.08930749446153641 0.0
0.558436393737793 0.234375 0.0
0.6035641431808472 0.4375 0.0
0.5583358407020569 0.640625 0.0
0.4375 0.7690446972846985 0.0
0.27753350138664246 0.75 0.0
0.40625 0.6703431010246277 0.0
0.5224142074584961 0.53125 0.0
0.48153769969940186 0.328125 0.0
0.4375 0.14790304005146027 0.0
10 0 1 2 3 4 5 6 7 8 9 255 0 0
10 10 19 18 17 16 15 14 13 12 11 0 0 255
4 1 0 10 11 128 0 128
4 2 1 11 12 0 255 0
4 3 2 12 13 0 255 0
4 4 3 13 14 0 255 0
4 5 4 14 15 0 255 0
4 6 5 15 16 0 255 0
4 7 6 16 17 0 255 0
4 8 7 17 18 0 255 0
4 9 8 18 19 0 255 0
4 0 9 19 10 128 0 128
