ply
format ascii 1.0
element vertex 34
property float x
property float y
property float z
element face 19
property list uchar int vertex_index
property uchar red
property uchar green
property uchar blue
end_header
0.39630550146102905 0.171875 1.0
0.36022838950157166 0.328125 1.0
0.515625 0.42983829975128174 1.0
0.6057890057563782 0.53125 1.0
0.53125 0.7084999084472656 1.0
0.34375 0.7745876312255859 1.0
0.18427333235740662 0.734375 1.0
0.296875 0.8696123957633972 1.0
0.49852415919303894 0.84375 1.0
0.6113239526748657 0.71875 1.0
0.6607763767242432 0.515625 1.0
0.703125 0.31010687351226807 1.0
0.8125 0.20762063562870026 1.0
0.65625 0.21767033636569977 1.0
0.515625 0.17040859162807465 1.0
0.46875 0.25352951884269714 1.0
0.5291662812232971 0.328125 1.0
0.39630550146102905 0.171875 0.0
0.36022838950157166 0.328125 0.0
0.515625 0.42983829975128174 0.0
0.6057890057563782 0.53125 0.0
0.53125 0.7084999084472656 0.0
0.34375 0.7745876312255859 0.0
0.18427333235740662 0.734375 0.0
0.296875 0.8696123957633972 0.0
0.49852415919303894 0.84375 0.0
0.6113239526748657 0.71875 0.0
0.6607763767242432 0.515625 0.0
0.703125 0.31010687351226807 0.0
0.8125 0.20762063562870026 0.0
0.65625 0.21767033636569977 0.0
0.515625 0.17040859162807465 0.0
0.46875 0.25352951884269714 0.0
0.5291662812232971 0.328125 0.0
6 14 15 16 2 1 0 255 0 0
15 2 16 15 14 13 12 11 10 9 8 7 6 5 4 3 255 0 0
6 31 17 18 19 33 32 0 0 255
15 19 20 21 22 23 24 25 26 27 28 29 30 31 32 33 0 0 255
4 0 1 18 17 0 255 0
4 1 2 19 18 0 255 0
4 2 3 20 19 0 255 0
4 3 4 21 20 0 255 0
4 4 5 22 21 0 255 0
4 5 6 23 22 0 255 0
4 6 7 24 23 0 255 0
4 7 8 25 24 0 255 0
4 8 9 26 25 0 255 0
4 9 10 27 26 0 255 0
4 10 11 28 27 0 255 0
4 11 12 29 28 0 255 0
4 12 13 30 29 0 255 0
4 13 14 31 30 128 0 128
4 14 0 17 31 128 0 128
