ply
format ascii 1.0
element vertex 38
property float x
property float y
property float z
element face 31
property list uchar int vertex_index
property uchar red
property uchar green
property uchar blue
end_header
0.31225162744522095 0.03125 1.0
0.4086836576461792 0.171875 1.0
0.515625 0.3241461515426636 1.0
0.390625 0.34231024980545044 1.0
0.22845380008220673 0.421875 1.0
0.2737780213356018 0.59375 1.0
0.421875 0.6983540654182434 1.0
0.640625 0.7300378084182739 1.0
0.7090563774108887 0.609375 1.0
0.6618125438690186 0.4375 1.0
0.578125 0.2758510410785675 1.0
0.4760778546333313 0.125 1.0
0.328125 0.020327888429164886 1.0
0.328125 0.3904191553592682 1.0
0.4814751446247101 0.421875 1.0
0.5940051078796387 0.546875 1.0
0.515625 0.6560866832733154 1.0
0.359375 0.5601027607917786 1.0
0.3125 0.3964567482471466 1.0
0.31225162744522095 0.03125 0.0
0.4086836576461792 0.171875 0.0
0.515625 0.3241461515426636 0.0
0.390625 0.34231024980545044 0.0
0.22845380008220673 0.421875 0.0
0.2737780213356018 0.59375 0.0
0.421875 0.6983540654182434 0.0
0.640625 0.7300378084182739 0.0
0.7090563774108887 0.609375 0.0
0.6618125438690186 0.4375 0.0
0.578125 0.2758510410785675 0.0
0.4760778546333313 0.125 0.0
0.328125 0.020327888429164886 0.0
0.328125 0.3904191553592682 0.0
0.4814751446247101 0.421875 0.0
0.5940051078796387 0.546875 0.0
0.515625 0.6560866832733154 0.0
0.359375 0.5601027607917786 0.0
0.3125 0.3964567482471466 0.0
4 4 18 17 5 255 0 0
9 9 15 14 2 1 0 12 11 10 255 0 0
6 6 16 15 9 8 7 255 0 0
4 3 13 18 4 255 0 0
4 5 17 16 6 255 0 0
4 2 14 13 3 255 0 0
4 23 24 36 37 0 0 255
9 28 29 30 31 19 20 21 33 34 0 0 255
6 25 26 27 28 34 35 0 0 255
4 22 23 37 32 0 0 255
4 24 25 35 36 0 0 255
4 21 22 32 33 0 0 255
4 0 1 20 19 0 255 0
4 1 2 21 20 0 255 0
4 2 3 22 21 0 255 0
4 3 4 23 22 0 255 0
4 4 5 24 23 0 255 0
4 5 6 25 24 0 255 0
4 6 7 26 25 0 255 0
4 7 8 27 26 0 255 0
4 8 9 28 27 0 255 0
4 9 10 29 28 0 255 0
4 10 11 30 29 0 255 0
4 11 12 31 30 128 0 128
4 12 0 19 31 128 0 128
4 13 14 33 32 0 255 0
4 14 15 34 33 0 255 0
4 15 16 35 34 0 255 0
4 16 17 36 35 0 255 0
4 17 18 37 36 0 255 0
4 18 13 32 37 0 255 0
