ply
format ascii 1.0
element vertex 46
property float x
property float y
property float z
element face 39
property list uchar int vertex_index
property uchar red
property uchar green
property uchar blue
end_header
0.328125 0.12801387906074524 1.0
0.24401475489139557 0.296875 1.0
0.28125 0.38516953587532043 1.0
0.3125 0.49291956424713135 1.0
0.2756309509277344 0.546875 1.0
0.3678336441516876 0.703125 1.0
0.5255560278892517 0.796875 1.0
0.703125 0.8026467561721802 1.0
0.7645851373672485 0.640625 1.0
0.765625 0.496498703956604 1.0
0.7356326580047607 0.3125 1.0
0.609375 0.1952819973230362 1.0
0.421875 0.1326880007982254 1.0
0.390625 0.22785784304141998 1.0
0.5711826682090759 0.265625 1.0
0.6640730500221252 0.421875 1.0
0.5180042386054993 0.453125 1.0
0.37727051973342896 0.34375 1.0
0.421875 0.5613239407539368 1.0
0.5 0.5560480356216431 1.0
0.6662670373916626 0.640625 1.0
0.5633325576782227 0.71875 1.0
0.4173404276371002 0.625 1.0
0.328125 0.12801387906074524 0.0
0.24401475489139557 0.296875 0.0
0.28125 0.38516953587532043 0.0
0.3125 0.49291956424713135 0.0
0.2756309509277344 0.546875 0.0
0.3678336441516876 0.703125 0.0
0.5255560278892517 0.796875 0.0
0.703125 0.8026467561721802 0.0
0.7645851373672485 0.640625 0.0
0.765625 0.496498703956604 0.0
0.7356326580047607 0.3125 0.0
0.609375 0.1952819973230362 0.0
0.421875 0.1326880007982254 0.0
0.390625 0.22785784304141998 0.0
0.5711826682090759 0.265625 0.0
0.6640730500221252 0.421875 0.0
0.5180042386054993 0.453125 0.0
0.37727051973342896 0.34375 0.0
0.421875 0.5613239407539368 0.0
0.5 0.5560480356216431 0.0
0.6662670373916626 0.640625 0.0
0.5633325576782227 0.71875 0.0
0.4173404276371002 0.625 0.0
4 11 14 13 12 255 0 0
6 8 20 19 16 15 9 255 0 0
5 9 15 14 11 10 255 0 0
5 6 21 20 8 7 255 0 0
5 3 18 22 5 4 255 0 0
6 2 17 16 19 18 3 255 0 0
6 12 13 17 2 1 0 255 0 0
4 5 22 21 6 255 0 0
4 34 35 36 37 0 0 255
6 31 32 38 39 42 43 0 0 255
5 32 33 34 37 38 0 0 255
5 29 30 31 43 44 0 0 255
5 26 27 28 45 41 0 0 255
6 25 26 41 42 39 40 0 0 255
6 35 23 24 25 40 36 0 0 255
4 28 29 44 45 0 0 255
4 0 1 24 23 128 0 128
4 1 2 25 24 0 255 0
4 2 3 26 25 0 255 0
4 3 4 27 26 0 255 0
4 4 5 28 27 0 255 0
4 5 6 29 28 0 255 0
4 6 7 30 29 0 255 0
4 7 8 31 30 0 255 0
4 8 9 32 31 0 255 0
4 9 10 33 32 0 255 0
4 10 11 34 33 0 255 0
4 11 12 35 34 0 255 0
4 12 0 23 35 128 0 128
4 13 14 37 36 0 255 0
4 14 15 38 37 0 255 0
4 15 16 39 38 0 255 0
4 16 17 40 39 0 255 0
4 17 13 36 40 0 255 0
4 18 19 42 41 0 255 0
4 19 20 43 42 0 255 0
4 20 21 44 43 0 255 0
4 21 22 45 44 0 255 0
4 22 18 41 45 0 255 0
