ply
format ascii 1.0
element vertex 18
property float x
property float y
property float z
element face 11
property list uchar int vertex_index
property uchar red
property uchar green
property uchar blue
end_header
0.328125 0.13686180114746094 1.0
0.4607267677783966 0.25 1.0
0.5403500199317932 0.421875 1.0
0.6239044070243835 0.59375 1.0
0.6577332019805908 0.796875 1.0
0.5490891933441162 0.734375 1.0
0.4547676742076874 0.578125 1.0
0.390625 0.40377357602119446 1.0
0.32010161876678467 0.21875 1.0
0.328125 0.13686180114746094 0.0
0.4607267677783966 0.25 0.0
0.5403500199317932 0.421875 0.0
0.6239044070243835 0.59375 0.0
0.6577332019805908 0.796875 0.0
0.5490891933441162 0.734375 0.0
0.4547676742076874 0.578125 0.0
0.390625 0.40377357602119446 0.0
0.32010161876678467 0.21875 0.0
9 0 1 2 3 4 5 6 7 8 255 0 0
9 9 17 16 15 14 13 12 11 10 0 0 255
4 1 0 9 10 128 0 128
4 2 1 10 11 0 255 0
4 3 2 11 12 0 255 0
4 4 3 12 13 0 255 0
4 5 4 13 14 0 255 0
4 6 5 14 15 0 255 0
4 7 6 15 16 0 255 0
4 8 7 16 17 0 255 0
4 0 8 17 9 128 0 128
