ply
format ascii 1.0
element vertex 36
property float x
property float y
property float z
element face 32
property list uchar int vertex_index
property uchar red
property uchar green
property uchar blue
end_header
0.356437087059021 0.140625 1.0
0.2459065020084381 0.28125 1.0
0.265625 0.476065069437027 1.0
0.3432789146900177 0.65625 1.0
0.4375 0.8036601543426514 1.0
0.625 0.8049054145812988 1.0
0.75 0.6783635020256042 1.0
0.78125 0.4797181189060211 1.0
0.6932839751243591 0.3125 1.0
0.578125 0.18442387878894806 1.0
0.375 0.13856133818626404 1.0
0.421875 0.2655462324619293 1.0
0.546875 0.3160065710544586 1.0
0.669050395488739 0.453125 1.0
0.6296729445457458 0.640625 1.0
0.484375 0.6868346929550171 1.0
0.390625 0.5294137597084045 1.0
0.359375 0.3263997733592987 1.0
0.356437087059021 0.140625 0.0
0.2459065020084381 0.28125 0.0
0.265625 0.476065069437027 0.0
0.3432789146900177 0.65625 0.0
0.4375 0.8036601543426514 0.0
0.625 0.8049054145812988 0.0
0.75 0.6783635020256042 0.0
0.78125 0.4797181189060211 0.0
0.6932839751243591 0.3125 0.0
0.578125 0.18442387878894806 0.0
0.375 0.13856133818626404 0.0
0.421875 0.2655462324619293 0.0
0.546875 0.3160065710544586 0.0
0.669050395488739 0.453125 0.0
0.6296729445457458 0.640625 0.0
0.484375 0.6868346929550171 0.0
0.390625 0.5294137597084045 0.0
0.359375 0.3263997733592987 0.0
5 1 17 16 3 2 255 0 0
5 10 11 17 1 0 255 0 0
5 7 13 12 9 8 255 0 0
4 3 16 15 4 255 0 0
4 9 12 11 10 255 0 0
4 6 14 13 7 255 0 0
5 4 15 14 6 5 255 0 0
5 19 20 21 34 35 0 0 255
5 28 18 19 35 29 0 0 255
5 25 26 27 30 31 0 0 255
4 21 22 33 34 0 0 255
4 27 28 29 30 0 0 255
4 24 25 31 32 0 0 255
5 22 23 24 32 33 0 0 255
4 0 1 19 18 0 255 0
4 1 2 20 19 0 255 0
4 2 3 21 20 0 255 0
4 3 4 22 21 0 255 0
4 4 5 23 22 0 255 0
4 5 6 24 23 0 255 0
4 6 7 25 24 0 255 0
4 7 8 26 25 0 255 0
4 8 9 27 26 0 255 0
4 9 10 28 27 128 0 128
4 10 0 18 28 128 0 128
4 11 12 30 29 0 255 0
4 12 13 31 30 0 255 0
4 13 14 32 31 0 255 0
4 14 15 33 32 0 255 0
4 15 16 34 33 0 255 0
4 16 17 35 34 0 255 0
4 17 11 29 35 0 255 0
