ply
format ascii 1.0
element vertex 36
property float x
property float y
property float z
element face 32
property list uchar int vertex_index
property uchar red
property uchar green
property uchar blue
end_header
0.4946608245372772 0.125 1.0
0.328125 0.18466009199619293 1.0
0.27399584650993347 0.375 1.0
0.3429916203022003 0.5625 1.0
0.37727105617523193 0.734375 1.0
0.484375 0.8160064220428467 1.0
0.640625 0.7335093021392822 1.0
0.745834469795227 0.578125 1.0
0.7728091478347778 0.359375 1.0
0.6845003366470337 0.203125 1.0
0.515625 0.12395671755075455 1.0
0.421875 0.2280820906162262 1.0
0.5939929485321045 0.234375 1.0
0.7066324949264526 0.375 1.0
0.6652801036834717 0.578125 1.0
0.5454926490783691 0.703125 1.0
0.45846521854400635 0.578125 1.0
0.38210922479629517 0.40625 1.0
0.4946608245372772 0.125 0.0
0.328125 0.18466009199619293 0.0
0.27399584650993347 0.375 0.0
0.3429916203022003 0.5625 0.0
0.37727105617523193 0.734375 0.0
0.484375 0.8160064220428467 0.0
0.640625 0.7335093021392822 0.0
0.745834469795227 0.578125 0.0
0.7728091478347778 0.359375 0.0
0.6845003366470337 0.203125 0.0
0.515625 0.12395671755075455 0.0
0.421875 0.2280820906162262 0.0
0.5939929485321045 0.234375 0.0
0.7066324949264526 0.375 0.0
0.6652801036834717 0.578125 0.0
0.5454926490783691 0.703125 0.0
0.45846521854400635 0.578125 0.0
0.38210922479629517 0.40625 0.0
4 8 13 12 9 255 0 0
4 1 11 17 2 255 0 0
4 7 14 13 8 255 0 0
6 3 16 15 6 5 4 255 0 0
4 6 15 14 7 255 0 0
6 9 12 11 1 0 10 255 0 0
4 2 17 16 3 255 0 0
4 26 27 30 31 0 0 255
4 19 20 35 29 0 0 255
4 25 26 31 32 0 0 255
6 21 22 23 24 33 34 0 0 255
4 24 25 32 33 0 0 255
6 27 28 18 19 29 30 0 0 255
4 20 21 34 35 0 0 255
4 0 1 19 18 0 255 0
4 1 2 20 19 0 255 0
4 2 3 21 20 0 255 0
4 3 4 22 21 0 255 0
4 4 5 23 22 0 255 0
4 5 6 24 23 0 255 0
4 6 7 25 24 0 255 0
4 7 8 26 25 0 255 0
4 8 9 27 26 0 255 0
4 9 10 28 27 128 0 128
4 10 0 18 28 128 0 128
4 11 12 30 29 0 255 0
4 12 13 31 30 0 255 0
4 13 14 32 31 0 255 0
4 14 15 33 32 0 255 0
4 15 16 34 33 0 255 0
4 16 17 35 34 0 255 0
4 17 11 29 35 0 255 0
