ply
format ascii 1.0
element vertex 38
property float x
property float y
property float z
element face 33
property list uchar int vertex_index
property uchar red
property uchar green
property uchar blue
end_header
0.359375 0.14928258955478668 1.0
0.260971337556839 0.296875 1.0
0.33739298582077026 0.46875 1.0
0.31736648082733154 0.671875 1.0
0.4375 0.807894229888916 1.0
0.6273778080940247 0.8125 1.0
0.765625 0.6897182464599609 1.0
0.738129198551178 0.515625 1.0
0.7633745074272156 0.34375 1.0
0.65625 0.18774406611919403 1.0
0.46875 0.12659132480621338 1.0
0.46875 0.26248088479042053 1.0
0.6266416907310486 0.3125 1.0
0.578125 0.3767871558666229 1.0
0.41471588611602783 0.296875 1.0
0.515625 0.5549739599227905 1.0
0.6858928799629211 0.640625 1.0
0.546875 0.700131356716156 1.0
0.46875 0.5757607221603394 1.0
0.359375 0.14928258955478668 0.0
0.260971337556839 0.296875 0.0
0.33739298582077026 0.46875 0.0
0.31736648082733154 0.671875 0.0
0.4375 0.807894229888916 0.0
0.6273778080940247 0.8125 0.0
0.765625 0.6897182464599609 0.0
0.738129198551178 0.515625 0.0
0.7633745074272156 0.34375 0.0
0.65625 0.18774406611919403 0.0
0.46875 0.12659132480621338 0.0
0.46875 0.26248088479042053 0.0
0.6266416907310486 0.3125 0.0
0.578125 0.3767871558666229 0.0
0.41471588611602783 0.296875 0.0
0.515625 0.5549739599227905 0.0
0.6858928799629211 0.640625 0.0
0.546875 0.700131356716156 0.0
0.46875 0.5757607221603394 0.0
4 8 13 12 9 255 0 0
5 10 11 14 1 0 255 0 0
6 1 14 13 15 18 2 255 0 0
4 5 17 16 6 255 0 0
4 9 12 11 10 255 0 0
6 6 16 15 13 8 7 255 0 0
6 2 18 17 5 4 3 255 0 0
4 27 28 31 32 0 0 255
5 29 19 20 33 30 0 0 255
6 20 21 37 34 32 33 0 0 255
4 24 25 35 36 0 0 255
4 28 29 30 31 0 0 255
6 25 26 27 32 34 35 0 0 255
6 21 22 23 24 36 37 0 0 255
4 0 1 20 19 0 255 0
4 1 2 21 20 0 255 0
4 2 3 22 21 0 255 0
4 3 4 23 22 0 255 0
4 4 5 24 23 0 255 0
4 5 6 25 24 0 255 0
4 6 7 26 25 0 255 0
4 7 8 27 26 0 255 0
4 8 9 28 27 0 255 0
4 9 10 29 28 128 0 128
4 10 0 19 29 128 0 128
4 11 12 31 30 0 255 0
4 12 13 32 31 0 255 0
4 13 14 33 32 0 255 0
4 14 11 30 33 0 255 0
4 15 16 35 34 0 255 0
4 16 17 36 35 0 255 0
4 17 18 37 36 0 255 0
4 18 15 34 37 0 255 0
