ply
format ascii 1.0
element vertex 38
property float x
property float y
property float z
element face 33
property list uchar int vertex_index
property uchar red
property uchar green
property uchar blue
end_header
0.390625 0.09394671767950058 1.0
0.3118715286254883 0.265625 1.0
0.40068501234054565 0.421875 1.0
0.359375 0.5684032440185547 1.0
0.390625 0.7455994486808777 1.0
0.59375 0.784005880355835 1.0
0.7836668491363525 0.765625 1.0
0.6994884014129639 0.609375 1.0
0.578125 0.4792066216468811 1.0
0.5870455503463745 0.3125 1.0
0.5723599195480347 0.140625 1.0
0.453125 0.20289519429206848 1.0
0.515625 0.23371684551239014 1.0
0.453125 0.36263221502304077 1.0
0.40625 0.2086491882801056 1.0
0.484375 0.5546340942382812 1.0
0.578125 0.6185703277587891 1.0
0.550385057926178 0.6875 1.0
0.46875 0.5715948343276978 1.0
0.390625 0.09394671767950058 0.0
0.3118715286254883 0.265625 0.0
0.40068501234054565 0.421875 0.0
0.359375 0.5684032440185547 0.0
0.390625 0.7455994486808777 0.0
0.59375 0.784005880355835 0.0
0.7836668491363525 0.765625 0.0
0.6994884014129639 0.609375 0.0
0.578125 0.4792066216468811 0.0
0.5870455503463745 0.3125 0.0
0.5723599195480347 0.140625 0.0
0.453125 0.20289519429206848 0.0
0.515625 0.23371684551239014 0.0
0.453125 0.36263221502304077 0.0
0.40625 0.2086491882801056 0.0
0.484375 0.5546340942382812 0.0
0.578125 0.6185703277587891 0.0
0.550385057926178 0.6875 0.0
0.46875 0.5715948343276978 0.0
4 7 16 15 8 255 0 0
4 0 11 14 1 255 0 0
4 1 14 13 2 255 0 0
5 9 12 11 0 10 255 0 0
5 3 18 17 5 4 255 0 0
8 2 13 12 9 8 15 18 3 255 0 0
5 5 17 16 7 6 255 0 0
4 26 27 34 35 0 0 255
4 19 20 33 30 0 0 255
4 20 21 32 33 0 0 255
5 28 29 19 30 31 0 0 255
5 22 23 24 36 37 0 0 255
8 21 22 37 34 27 28 31 32 0 0 255
5 24 25 26 35 36 0 0 255
4 0 1 20 19 128 0 128
4 1 2 21 20 0 255 0
4 2 3 22 21 0 255 0
4 3 4 23 22 0 255 0
4 4 5 24 23 0 255 0
4 5 6 25 24 0 255 0
4 6 7 26 25 0 255 0
4 7 8 27 26 0 255 0
4 8 9 28 27 0 255 0
4 9 10 29 28 0 255 0
4 10 0 19 29 128 0 128
4 11 12 31 30 0 255 0
4 12 13 32 31 0 255 0
4 13 14 33 32 0 255 0
4 14 11 30 33 0 255 0
4 15 16 35 34 0 255 0
4 16 17 36 35 0 255 0
4 17 18 37 36 0 255 0
4 18 15 34 37 0 255 0
