ply
format ascii 1.0
element vertex 32
property float x
property float y
property float z
element face 24
property list uchar int vertex_index
property uchar red
property uchar green
property uchar blue
end_header
0.484375 0.1281910240650177 1.0
0.34375 0.23934140801429749 1.0
0.359375 0.4624210596084595 1.0
0.3769111931324005 0.65625 1.0
0.453125 0.8348904252052307 1.0
0.5799688696861267 0.71875 1.0
0.5199539065361023 0.5625 1.0
0.578125 0.3906641900539398 1.0
0.6818565130233765 0.25 1.0
0.546875 0.12586450576782227 1.0
0.53125 0.18195821344852448 1.0
0.5629175305366516 0.328125 1.0
0.438877671957016 0.4375 1.0
0.3900688588619232 0.28125 1.0
0.46875 0.6333157420158386 1.0
0.512753963470459 0.6875 1.0
0.484375 0.1281910240650177 0.0
0.34375 0.23934140801429749 0.0
0.359375 0.4624210596084595 0.0
0.3769111931324005 0.65625 0.0
0.453125 0.8348904252052307 0.0
0.5799688696861267 0.71875 0.0
0.5199539065361023 0.5625 0.0
0.578125 0.3906641900539398 0.0
0.6818565130233765 0.25 0.0
0.546875 0.12586450576782227 0.0
0.53125 0.18195821344852448 0.0
0.5629175305366516 0.328125 0.0
0.438877671957016 0.4375 0.0
0.3900688588619232 0.28125 0.0
0.46875 0.6333157420158386 0.0
0.512753963470459 0.6875 0.0
5 7 11 10 9 8 255 0 0
4 1 13 12 2 255 0 0
4 5 15 14 6 255 0 0
5 9 10 13 1 0 255 0 0
10 6 14 15 5 4 3 2 12 11 7 255 0 0
5 23 24 25 26 27 0 0 255
4 17 18 28 29 0 0 255
4 21 22 30 31 0 0 255
5 25 16 17 29 26 0 0 255
10 22 23 27 28 18 19 20 21 31 30 0 0 255
4 0 1 17 16 0 255 0
4 1 2 18 17 0 255 0
4 2 3 19 18 0 255 0
4 3 4 20 19 0 255 0
4 4 5 21 20 0 255 0
4 5 6 22 21 0 255 0
4 6 7 23 22 0 255 0
4 7 8 24 23 0 255 0
4 8 9 25 24 128 0 128
4 9 0 16 25 128 0 128
4 10 11 27 26 0 255 0
4 11 12 28 27 0 255 0
4 12 13 29 28 0 255 0
4 13 10 26 29 0 255 0
