ply
format ascii 1.0
element vertex 44
property float x
property float y
property float z
element face 24
property list uchar int vertex_index
property uchar red
property uchar green
property uchar blue
end_header
0.28835147619247437 0.1875 1.0
0.24470564723014832 0.359375 1.0
0.421875 0.4342084228992462 1.0
0.583511471748352 0.515625 1.0
0.546875 0.6894770264625549 1.0
0.42935892939567566 0.5625 1.0
0.3163340091705322 0.59375 1.0
0.4186110198497772 0.75 1.0
0.5625 0.7924833297729492 1.0
0.67116779088974 0.640625 1.0
0.6371170878410339 0.453125 1.0
0.734375 0.3322674036026001 1.0
0.8917158246040344 0.25 1.0
0.8125 0.21872414648532867 1.0
0.65625 0.3014211058616638 1.0
0.5132924318313599 0.265625 1.0
0.34375 0.17720438539981842 1.0
0.28835147619247437 0.1875 1.0
0.34375 0.2642180919647217 1.0
0.4375 0.3263551890850067 1.0
0.3088076412677765 0.28125 1.0
0.34375 0.2642180919647217 1.0
0.28835147619247437 0.1875 0.0
0.24470564723014832 0.359375 0.0
0.421875 0.4342084228992462 0.0
0.583511471748352 0.515625 0.0
0.546875 0.6894770264625549 0.0
0.42935892939567566 0.5625 0.0
0.3163340091705322 0.59375 0.0
0.4186110198497772 0.75 0.0
0.5625 0.7924833297729492 0.0
0.67116779088974 0.640625 0.0
0.6371170878410339 0.453125 0.0
0.734375 0.3322674036026001 0.0
0.8917158246040344 0.25 0.0
0.8125 0.21872414648532867 0.0
0.65625 0.3014211058616638 0.0
0.5132924318313599 0.265625 0.0
0.34375 0.17720438539981842 0.0
0.28835147619247437 0.1875 0.0
0.34375 0.2642180919647217 0.0
0.4375 0.3263551890850067 0.0
0.3088076412677765 0.28125 0.0
0.34375 0.2642180919647217 0.0
18 0 20 19 15 14 13 12 11 10 9 8 7 6 5 4 3 2 1 255 0 0
4 15 19 18 16 255 0 0
18 22 23 24 25 26 27 28 29 30 31 32 33 34 35 36 37 41 42 0 0 255
4 37 38 40 41 0 0 255
4 0 1 23 22 0 255 0
4 1 2 24 23 0 255 0
4 2 3 25 24 0 255 0
4 3 4 26 25 0 255 0
4 4 5 27 26 0 255 0
4 5 6 28 27 0 255 0
4 6 7 29 28 0 255 0
4 7 8 30 29 0 255 0
4 8 9 31 30 0 255 0
4 9 10 32 31 0 255 0
4 10 11 33 32 0 255 0
4 11 12 34 33 0 255 0
4 12 13 35 34 0 255 0
4 13 14 36 35 0 255 0
4 14 15 37 36 0 255 0
4 15 16 38 37 128 0 128
4 16 17 39 38 128 0 128
4 18 19 41 40 0 255 0
4 19 20 42 41 0 255 0
4 20 21 43 42 0 255 0
