ply
format ascii 1.0
element vertex 50
property float x
property float y
property float z
element face 45
property list uchar int vertex_index
property uchar red
property uchar green
property uchar blue
end_header
0.40625 0.1107945442199707 1.0
0.24234625697135925 0.203125 1.0
0.359375 0.3330931067466736 1.0
0.34375 0.461837500333786 1.0
0.203125 0.5770566463470459 1.0
0.28125 0.7328380942344666 1.0
0.5 0.7511597275733948 1.0
0.671875 0.6833239197731018 1.0
0.671875 0.8055380582809448 1.0
0.764870285987854 0.671875 1.0
0.671875 0.5107251405715942 1.0
0.609375 0.3649166226387024 1.0
0.6957314014434814 0.203125 1.0
0.546875 0.1049814522266388 1.0
0.546875 0.1630609929561615 1.0
0.59375 0.1802663654088974 1.0
0.5625 0.31951677799224854 1.0
0.40625 0.29022103548049927 1.0
0.375 0.17582577466964722 1.0
0.48641088604927063 0.453125 1.0
0.511879563331604 0.46875 1.0
0.6141175031661987 0.609375 1.0
0.453125 0.692575991153717 1.0
0.28125 0.6187406182289124 1.0
0.40625 0.5013353228569031 1.0
0.40625 0.1107945442199707 0.0
0.24234625697135925 0.203125 0.0
0.359375 0.3330931067466736 0.0
0.34375 0.461837500333786 0.0
0.203125 0.5770566463470459 0.0
0.28125 0.7328380942344666 0.0
0.5 0.7511597275733948 0.0
0.671875 0.6833239197731018 0.0
0.671875 0.8055380582809448 0.0
0.764870285987854 0.671875 0.0
0.671875 0.5107251405715942 0.0
0.609375 0.3649166226387024 0.0
0.6957314014434814 0.203125 0.0
0.546875 0.1049814522266388 0.0
0.546875 0.1630609929561615 0.0
0.59375 0.1802663654088974 0.0
0.5625 0.31951677799224854 0.0
0.40625 0.29022103548049927 0.0
0.375 0.17582577466964722 0.0
0.48641088604927063 0.453125 0.0
0.511879563331604 0.46875 0.0
0.6141175031661987 0.609375 0.0
0.453125 0.692575991153717 0.0
0.28125 0.6187406182289124 0.0
0.40625 0.5013353228569031 0.0
7 7 21 20 11 10 9 8 255 0 0
7 11 20 19 3 2 17 16 255 0 0
3 13 15 14 255 0 0
3 3 19 24 255 0 0
4 13 14 18 0 255 0 0
5 0 18 17 2 1 255 0 0
4 6 22 21 7 255 0 0
4 3 24 23 4 255 0 0
5 11 16 15 13 12 255 0 0
5 4 23 22 6 5 255 0 0
7 32 33 34 35 36 45 46 0 0 255
7 36 41 42 27 28 44 45 0 0 255
3 38 39 40 0 0 255
3 28 49 44 0 0 255
4 38 25 43 39 0 0 255
5 25 26 27 42 43 0 0 255
4 31 32 46 47 0 0 255
4 28 29 48 49 0 0 255
5 36 37 38 40 41 0 0 255
5 29 30 31 47 48 0 0 255
4 0 1 26 25 0 255 0
4 1 2 27 26 0 255 0
4 2 3 28 27 0 255 0
4 3 4 29 28 0 255 0
4 4 5 30 29 0 255 0
4 5 6 31 30 0 255 0
4 6 7 32 31 0 255 0
4 7 8 33 32 0 255 0
4 8 9 34 33 0 255 0
4 9 10 35 34 0 255 0
4 10 11 36 35 0 255 0
4 11 12 37 36 0 255 0
4 12 13 38 37 128 0 128
4 13 0 25 38 128 0 128
4 14 15 40 39 0 255 0
4 15 16 41 40 0 255 0
4 16 17 42 41 0 255 0
4 17 18 43 42 0 255 0
4 18 14 39 43 0 255 0
4 19 20 45 44 0 255 0
4 20 21 46 45 0 255 0
4 21 22 47 46 0 255 0
4 22 23 48 47 0 255 0
4 23 24 49 48 0 255 0
4 24 19 44 49 0 255 0
