ply
format ascii 1.0
element vertex 36
property float x
property float y
property float z
element face 34
property list uchar int vertex_index
property uchar red
property uchar green
property uchar blue
end_header
0.2969319522380829 0.140625 1.0
0.2763962149620056 0.328125 1.0
0.328125 0.5288964509963989 1.0
0.421875 0.675770103931427 1.0
0.5146608948707581 0.8125 1.0
0.6586102843284607 0.765625 1.0
0.7603804469108582 0.609375 1.0
0.75 0.40050503611564636 1.0
0.640625 0.25400272011756897 1.0
0.5 0.14175289869308472 1.0
0.375 0.1945054680109024 1.0
0.46875 0.22839587926864624 1.0
0.6139793992042542 0.328125 1.0
0.7020183801651001 0.5 1.0
0.640625 0.6584182977676392 1.0
0.499484121799469 0.625 1.0
0.4105636477470398 0.484375 1.0
0.33530062437057495 0.3125 1.0
0.2969319522380829 0.140625 0.0
0.2763962149620056 0.328125 0.0
0.328125 0.5288964509963989 0.0
0.421875 0.675770103931427 0.0
0.5146608948707581 0.8125 0.0
0.6586102843284607 0.765625 0.0
0.7603804469108582 0.609375 0.0
0.75 0.40050503611564636 0.0
0.640625 0.25400272011756897 0.0
0.5 0.14175289869308472 0.0
0.375 0.1945054680109024 0.0
0.46875 0.22839587926864624 0.0
0.6139793992042542 0.328125 0.0
0.7020183801651001 0.5 0.0
0.640625 0.6584182977676392 0.0
0.499484121799469 0.625 0.0
0.4105636477470398 0.484375 0.0
0.33530062437057495 0.3125 0.0
4 8 12 11 9 255 0 0
5 5 14 13 7 6 255 0 0
4 1 17 16 2 255 0 0
4 0 10 17 1 255 0 0
4 7 13 12 8 255 0 0
5 3 15 14 5 4 255 0 0
4 9 11 10 0 255 0 0
4 2 16 15 3 255 0 0
4 26 27 29 30 0 0 255
5 23 24 25 31 32 0 0 255
4 19 20 34 35 0 0 255
4 18 19 35 28 0 0 255
4 25 26 30 31 0 0 255
5 21 22 23 32 33 0 0 255
4 27 18 28 29 0 0 255
4 20 21 33 34 0 0 255
4 0 1 19 18 128 0 128
4 1 2 20 19 0 255 0
4 2 3 21 20 0 255 0
4 3 4 22 21 0 255 0
4 4 5 23 22 0 255 0
4 5 6 24 23 0 255 0
4 6 7 25 24 0 255 0
4 7 8 26 25 0 255 0
4 8 9 27 26 0 255 0
4 9 0 18 27 128 0 128
4 10 11 29 28 0 255 0
4 11 12 30 29 0 255 0
4 12 13 31 30 0 255 0
4 13 14 32 31 0 255 0
4 14 15 33 32 0 255 0
4 15 16 34 33 0 255 0
4 16 17 35 34 0 255 0
4 17 10 28 35 0 255 0
