ply
format ascii 1.0
element vertex 38
property float x
property float y
property float z
element face 33
property list uchar int vertex_index
property uchar red
property uchar green
property uchar blue
end_header
0.7786562442779541 0.078125 1.0
0.699972927570343 0.25 1.0
0.5346835255622864 0.3125 1.0
0.375 0.3310135304927826 1.0
0.20015127956867218 0.375 1.0
0.18738919496536255 0.546875 1.0
0.296875 0.6755288243293762 1.0
0.46875 0.7578034996986389 1.0
0.6387643218040466 0.703125 1.0
0.625 0.492347776889801 1.0
0.71875 0.3530026376247406 1.0
0.757046103477478 0.203125 1.0
0.46875 0.37441277503967285 1.0
0.53125 0.41210639476776123 1.0
0.59375 0.5802174210548401 1.0
0.5 0.7013113498687744 1.0
0.32933124899864197 0.609375 1.0
0.23213014006614685 0.46875 1.0
0.3610903024673462 0.390625 1.0
0.7786562442779541 0.078125 0.0
0.699972927570343 0.25 0.0
0.5346835255622864 0.3125 0.0
0.375 0.3310135304927826 0.0
0.20015127956867218 0.375 0.0
0.18738919496536255 0.546875 0.0
0.296875 0.6755288243293762 0.0
0.46875 0.7578034996986389 0.0
0.6387643218040466 0.703125 0.0
0.625 0.492347776889801 0.0
0.71875 0.3530026376247406 0.0
0.757046103477478 0.203125 0.0
0.46875 0.37441277503967285 0.0
0.53125 0.41210639476776123 0.0
0.59375 0.5802174210548401 0.0
0.5 0.7013113498687744 0.0
0.32933124899864197 0.609375 0.0
0.23213014006614685 0.46875 0.0
0.3610903024673462 0.390625 0.0
5 7 15 14 9 8 255 0 0
4 5 17 16 6 255 0 0
4 6 16 15 7 255 0 0
5 3 18 17 5 4 255 0 0
8 9 14 13 2 1 0 11 10 255 0 0
4 2 12 18 3 255 0 0
3 2 13 12 255 0 0
5 26 27 28 33 34 0 0 255
4 24 25 35 36 0 0 255
4 25 26 34 35 0 0 255
5 22 23 24 36 37 0 0 255
8 28 29 30 19 20 21 32 33 0 0 255
4 21 22 37 31 0 0 255
3 21 31 32 0 0 255
4 0 1 20 19 128 0 128
4 1 2 21 20 0 255 0
4 2 3 22 21 0 255 0
4 3 4 23 22 0 255 0
4 4 5 24 23 0 255 0
4 5 6 25 24 0 255 0
4 6 7 26 25 0 255 0
4 7 8 27 26 0 255 0
4 8 9 28 27 0 255 0
4 9 10 29 28 0 255 0
4 10 11 30 29 0 255 0
4 11 0 19 30 128 0 128
4 12 13 32 31 0 255 0
4 13 14 33 32 0 255 0
4 14 15 34 33 0 255 0
4 15 16 35 34 0 255 0
4 16 17 36 35 0 255 0
4 17 18 37 36 0 255 0
4 18 12 31 37 0 255 0
