ply
format ascii 1.0
element vertex 38
property float x
property float y
property float z
element face 35
property list uchar int vertex_index
property uchar red
property uchar green
property uchar blue
end_header
0.2739882469177246 0.140625 1.0
0.230392187833786 0.3125 1.0
0.3023146092891693 0.484375 1.0
0.39218607544898987 0.640625 1.0
0.4986526072025299 0.796875 1.0
0.640625 0.834265947341919 1.0
0.7392547130584717 0.6875 1.0
0.7520239949226379 0.453125 1.0
0.671875 0.29018306732177734 1.0
0.515625 0.1961286962032318 1.0
0.328125 0.1263991892337799 1.0
0.3618279695510864 0.25 1.0
0.484375 0.2951183319091797 1.0
0.625 0.3951371908187866 1.0
0.671875 0.59342360496521 1.0
0.5875180959701538 0.75 1.0
0.5 0.6284534931182861 1.0
0.40625 0.4757572412490845 1.0
0.3246830105781555 0.3125 1.0
0.2739882469177246 0.140625 0.0
0.230392187833786 0.3125 0.0
0.3023146092891693 0.484375 0.0
0.39218607544898987 0.640625 0.0
0.4986526072025299 0.796875 0.0
0.640625 0.834265947341919 0.0
0.7392547130584717 0.6875 0.0
0.7520239949226379 0.453125 0.0
0.671875 0.29018306732177734 0.0
0.515625 0.1961286962032318 0.0
0.328125 0.1263991892337799 0.0
0.3618279695510864 0.25 0.0
0.484375 0.2951183319091797 0.0
0.625 0.3951371908187866 0.0
0.671875 0.59342360496521 0.0
0.5875180959701538 0.75 0.0
0.5 0.6284534931182861 0.0
0.40625 0.4757572412490845 0.0
0.3246830105781555 0.3125 0.0
4 8 13 12 9 255 0 0
4 1 18 17 2 255 0 0
5 10 11 18 1 0 255 0 0
5 3 16 15 5 4 255 0 0
4 9 12 11 10 255 0 0
5 6 14 13 8 7 255 0 0
4 5 15 14 6 255 0 0
4 2 17 16 3 255 0 0
4 27 28 31 32 0 0 255
4 20 21 36 37 0 0 255
5 29 19 20 37 30 0 0 255
5 22 23 24 34 35 0 0 255
4 28 29 30 31 0 0 255
5 25 26 27 32 33 0 0 255
4 24 25 33 34 0 0 255
4 21 22 35 36 0 0 255
4 0 1 20 19 0 255 0
4 1 2 21 20 0 255 0
4 2 3 22 21 0 255 0
4 3 4 23 22 0 255 0
4 4 5 24 23 0 255 0
4 5 6 25 24 0 255 0
4 6 7 26 25 0 255 0
4 7 8 27 26 0 255 0
4 8 9 28 27 0 255 0
4 9 10 29 28 128 0 128
4 10 0 19 29 128 0 128
4 11 12 31 30 0 255 0
4 12 13 32 31 0 255 0
4 13 14 33 32 0 255 0
4 14 15 34 33 0 255 0
4 15 16 35 34 0 255 0
4 16 17 36 35 0 255 0
4 17 18 37 36 0 255 0
4 18 11 30 37 0 255 0
