ply
format ascii 1.0
element vertex 30
property float x
property float y
property float z
element face 21
property list uchar int vertex_index
property uchar red
property uchar green
property uchar blue
end_header
0.33950260281562805 0.0625 1.0
0.375 0.20991258323192596 1.0
0.47540298104286194 0.359375 1.0
0.5043967962265015 0.46875 1.0
0.3258311152458191 0.484375 1.0
0.4044780433177948 0.65625 1.0
0.546875 0.7589744329452515 1.0
0.671875 0.668910801410675 1.0
0.6553418636322021 0.515625 1.0
0.5625746846199036 0.34375 1.0
0.46943217515945435 0.1875 1.0
0.359375 0.054524317383766174 1.0
0.4375 0.5071321725845337 1.0
0.5234993100166321 0.609375 1.0
0.46875 0.6230385899543762 1.0
0.33950260281562805 0.0625 0.0
0.375 0.20991258323192596 0.0
0.47540298104286194 0.359375 0.0
0.5043967962265015 0.46875 0.0
0.3258311152458191 0.484375 0.0
0.4044780433177948 0.65625 0.0
0.546875 0.7589744329452515 0.0
0.671875 0.668910801410675 0.0
0.6553418636322021 0.515625 0.0
0.5625746846199036 0.34375 0.0
0.46943217515945435 0.1875 0.0
0.359375 0.054524317383766174 0.0
0.4375 0.5071321725845337 0.0
0.5234993100166321 0.609375 0.0
0.46875 0.6230385899543762 0.0
5 3 12 14 5 4 255 0 0
13 5 13 12 3 2 1 0 11 10 9 8 7 6 255 0 0
3 5 14 13 255 0 0
5 18 19 20 29 27 0 0 255
13 20 21 22 23 24 25 26 15 16 17 18 27 28 0 0 255
3 20 28 29 0 0 255
4 0 1 16 15 0 255 0
4 1 2 17 16 0 255 0
4 2 3 18 17 0 255 0
4 3 4 19 18 0 255 0
4 4 5 20 19 0 255 0
4 5 6 21 20 0 255 0
4 6 7 22 21 0 255 0
4 7 8 23 22 0 255 0
4 8 9 24 23 0 255 0
4 9 10 25 24 0 255 0
4 10 11 26 25 128 0 128
4 11 0 15 26 128 0 128
4 12 13 28 27 0 255 0
4 13 14 29 28 0 255 0
4 14 12 27 29 0 255 0
