ply
format ascii 1.0
element vertex 42
property float x
property float y
property float z
element face 25
property list uchar int vertex_index
property uchar red
property uchar green
property uchar blue
end_header
0.36205509305000305 0.171875 1.0
0.23238539695739746 0.28125 1.0
0.2804946303367615 0.453125 1.0
0.390625 0.592553973197937 1.0
0.515625 0.7091768980026245 1.0
0.640625 0.8408424854278564 1.0
0.7641305327415466 0.828125 1.0
0.640625 0.6967832446098328 1.0
0.515625 0.5738945603370667 1.0
0.5694443583488464 0.53125 1.0
0.765625 0.4924057424068451 1.0
0.765625 0.3132565915584564 1.0
0.609375 0.22945305705070496 1.0
0.421875 0.1659417748451233 1.0
0.36205509305000305 0.171875 1.0
0.40625 0.2725104093551636 1.0
0.5625 0.27819451689720154 1.0
0.7031902074813843 0.375 1.0
0.53125 0.441633403301239 1.0
0.38937973976135254 0.34375 1.0
0.40625 0.2725104093551636 1.0
0.36205509305000305 0.171875 0.0
0.23238539695739746 0.28125 0.0
0.2804946303367615 0.453125 0.0
0.390625 0.592553973197937 0.0
0.515625 0.7091768980026245 0.0
0.640625 0.8408424854278564 0.0
0.7641305327415466 0.828125 0.0
0.640625 0.6967832446098328 0.0
0.515625 0.5738945603370667 0.0
0.5694443583488464 0.53125 0.0
0.765625 0.4924057424068451 0.0
0.765625 0.3132565915584564 0.0
0.609375 0.22945305705070496 0.0
0.421875 0.1659417748451233 0.0
0.36205509305000305 0.171875 0.0
0.40625 0.2725104093551636 0.0
0.5625 0.27819451689720154 0.0
0.7031902074813843 0.375 0.0
0.53125 0.441633403301239 0.0
0.38937973976135254 0.34375 0.0
0.40625 0.2725104093551636 0.0
4 16 12 13 15 255 0 0
7 18 9 10 11 12 16 17 255 0 0
10 19 2 3 4 5 6 7 8 9 18 255 0 0
4 37 36 34 33 0 0 255
7 39 38 37 33 32 31 30 0 0 255
10 40 39 30 29 28 27 26 25 24 23 0 0 255
4 1 0 21 22 0 255 0
4 2 1 22 23 0 255 0
4 3 2 23 24 0 255 0
4 4 3 24 25 0 255 0
4 5 4 25 26 0 255 0
4 6 5 26 27 0 255 0
4 7 6 27 28 0 255 0
4 8 7 28 29 0 255 0
4 9 8 29 30 0 255 0
4 10 9 30 31 0 255 0
4 11 10 31 32 0 255 0
4 12 11 32 33 0 255 0
4 13 12 33 34 128 0 128
4 14 13 34 35 128 0 128
4 16 15 36 37 0 255 0
4 17 16 37 38 0 255 0
4 18 17 38 39 0 255 0
4 19 18 39 40 0 255 0
4 20 19 40 41 0 255 0
