ply
format ascii 1.0
element vertex 38
property float x
property float y
property float z
element face 33
property list uchar int vertex_index
property uchar red
property uchar green
property uchar blue
end_header
0.2632299065589905 0.125 1.0
0.16162721812725067 0.28125 1.0
0.203125 0.4905121326446533 1.0
0.3125 0.6289914846420288 1.0
0.453125 0.74513179063797 1.0
0.609375 0.8386017680168152 1.0
0.7738022208213806 0.75 1.0
0.8500779271125793 0.578125 1.0
0.7906109094619751 0.390625 1.0
0.65625 0.2749190032482147 1.0
0.515625 0.162835031747818 1.0
0.296875 0.12699104845523834 1.0
0.328125 0.26891961693763733 1.0
0.453125 0.3091302514076233 1.0
0.59375 0.4217948913574219 1.0
0.703125 0.5571993589401245 1.0
0.59375 0.5933593511581421 1.0
0.453125 0.4699571132659912 1.0
0.31694668531417847 0.359375 1.0
0.2632299065589905 0.125 0.0
0.16162721812725067 0.28125 0.0
0.203125 0.4905121326446533 0.0
0.3125 0.6289914846420288 0.0
0.453125 0.74513179063797 0.0
0.609375 0.8386017680168152 0.0
0.7738022208213806 0.75 0.0
0.8500779271125793 0.578125 0.0
0.7906109094619751 0.390625 0.0
0.65625 0.2749190032482147 0.0
0.515625 0.162835031747818 0.0
0.296875 0.12699104845523834 0.0
0.328125 0.26891961693763733 0.0
0.453125 0.3091302514076233 0.0
0.59375 0.4217948913574219 0.0
0.703125 0.5571993589401245 0.0
0.59375 0.5933593511581421 0.0
0.453125 0.4699571132659912 0.0
0.31694668531417847 0.359375 0.0
5 7 15 14 9 8 255 0 0
4 10 13 12 11 255 0 0
4 3 17 16 4 255 0 0
4 9 14 13 10 255 0 0
4 2 18 17 3 255 0 0
6 11 12 18 2 1 0 255 0 0
6 4 16 15 7 6 5 255 0 0
5 26 27 28 33 34 0 0 255
4 29 30 31 32 0 0 255
4 22 23 35 36 0 0 255
4 28 29 32 33 0 0 255
4 21 22 36 37 0 0 255
6 30 19 20 21 37 31 0 0 255
6 23 24 25 26 34 35 0 0 255
4 0 1 20 19 128 0 128
4 1 2 21 20 0 255 0
4 2 3 22 21 0 255 0
4 3 4 23 22 0 255 0
4 4 5 24 23 0 255 0
4 5 6 25 24 0 255 0
4 6 7 26 25 0 255 0
4 7 8 27 26 0 255 0
4 8 9 28 27 0 255 0
4 9 10 29 28 0 255 0
4 10 11 30 29 0 255 0
4 11 0 19 30 128 0 128
4 12 13 32 31 0 255 0
4 13 14 33 32 0 255 0
4 14 15 34 33 0 255 0
4 15 16 35 34 0 255 0
4 16 17 36 35 0 255 0
4 17 18 37 36 0 255 0
4 18 12 31 37 0 255 0
