ply
format ascii 1.0
element vertex 44
property float x
property float y
property float z
element face 38
property list uchar int vertex_index
property uchar red
property uchar green
property uchar blue
end_header
0.40625 0.07393059879541397 1.0
0.379027783870697 0.234375 1.0
0.45969703793525696 0.40625 1.0
0.359375 0.5298586487770081 1.0
0.2448839247226715 0.65625 1.0
0.34375 0.7673271298408508 1.0
0.5625 0.7354274392127991 1.0
0.765625 0.7189528942108154 1.0
0.6925697922706604 0.59375 1.0
0.5975419282913208 0.4375 1.0
0.6936652064323425 0.28125 1.0
0.640625 0.12154143303632736 1.0
0.453125 0.05296055227518082 1.0
0.484375 0.1624646633863449 1.0
0.6075705289840698 0.203125 1.0
0.5672998428344727 0.359375 1.0
0.453125 0.24210116267204285 1.0
0.5 0.4897645115852356 1.0
0.5420976877212524 0.515625 1.0
0.59375 0.663695216178894 1.0
0.390625 0.6490896344184875 1.0
0.46629297733306885 0.515625 1.0
0.40625 0.07393059879541397 0.0
0.379027783870697 0.234375 0.0
0.45969703793525696 0.40625 0.0
0.359375 0.5298586487770081 0.0
0.2448839247226715 0.65625 0.0
0.34375 0.7673271298408508 0.0
0.5625 0.7354274392127991 0.0
0.765625 0.7189528942108154 0.0
0.6925697922706604 0.59375 0.0
0.5975419282913208 0.4375 0.0
0.6936652064323425 0.28125 0.0
0.640625 0.12154143303632736 0.0
0.453125 0.05296055227518082 0.0
0.484375 0.1624646633863449 0.0
0.6075705289840698 0.203125 0.0
0.5672998428344727 0.359375 0.0
0.453125 0.24210116267204285 0.0
0.5 0.4897645115852356 0.0
0.5420976877212524 0.515625 0.0
0.59375 0.663695216178894 0.0
0.390625 0.6490896344184875 0.0
0.46629297733306885 0.515625 0.0
7 1 16 15 9 18 17 2 255 0 0
4 11 14 13 12 255 0 0
5 9 15 14 11 10 255 0 0
6 6 19 18 9 8 7 255 0 0
3 3 21 20 255 0 0
5 12 13 16 1 0 255 0 0
4 2 17 21 3 255 0 0
6 3 20 19 6 5 4 255 0 0
7 23 24 39 40 31 37 38 0 0 255
4 33 34 35 36 0 0 255
5 31 32 33 36 37 0 0 255
6 28 29 30 31 40 41 0 0 255
3 25 42 43 0 0 255
5 34 22 23 38 35 0 0 255
4 24 25 43 39 0 0 255
6 25 26 27 28 41 42 0 0 255
4 0 1 23 22 0 255 0
4 1 2 24 23 0 255 0
4 2 3 25 24 0 255 0
4 3 4 26 25 0 255 0
4 4 5 27 26 0 255 0
4 5 6 28 27 0 255 0
4 6 7 29 28 0 255 0
4 7 8 30 29 0 255 0
4 8 9 31 30 0 255 0
4 9 10 32 31 0 255 0
4 10 11 33 32 0 255 0
4 11 12 34 33 128 0 128
4 12 0 22 34 128 0 128
4 13 14 36 35 0 255 0
4 14 15 37 36 0 255 0
4 15 16 38 37 0 255 0
4 16 13 35 38 0 255 0
4 17 18 40 39 0 255 0
4 18 19 41 40 0 255 0
4 19 20 42 41 0 255 0
4 20 21 43 42 0 255 0
4 21 17 39 43 0 255 0
