ply
format ascii 1.0
element vertex 38
property float x
property float y
property float z
element face 33
property list uchar int vertex_index
property uchar red
property uchar green
property uchar blue
end_header
0.6099767088890076 0.0625 1.0
0.5582193732261658 0.25 1.0
0.484375 0.33560070395469666 1.0
0.3125 0.28930017352104187 1.0
0.1918138861656189 0.421875 1.0
0.25 0.6118535399436951 1.0
0.390625 0.7221131920814514 1.0
0.59375 0.749980628490448 1.0
0.7742162942886353 0.671875 1.0
0.6914697885513306 0.5 1.0
0.6402137279510498 0.3125 1.0
0.6373505592346191 0.125 1.0
0.34375 0.35401836037635803 1.0
0.359375 0.3620786964893341 1.0
0.53125 0.43786969780921936 1.0
0.6523715853691101 0.578125 1.0
0.546875 0.6955209970474243 1.0
0.38214531540870667 0.609375 1.0
0.27229583263397217 0.46875 1.0
0.6099767088890076 0.0625 0.0
0.5582193732261658 0.25 0.0
0.484375 0.33560070395469666 0.0
0.3125 0.28930017352104187 0.0
0.1918138861656189 0.421875 0.0
0.25 0.6118535399436951 0.0
0.390625 0.7221131920814514 0.0
0.59375 0.749980628490448 0.0
0.7742162942886353 0.671875 0.0
0.6914697885513306 0.5 0.0
0.6402137279510498 0.3125 0.0
0.6373505592346191 0.125 0.0
0.34375 0.35401836037635803 0.0
0.359375 0.3620786964893341 0.0
0.53125 0.43786969780921936 0.0
0.6523715853691101 0.578125 0.0
0.546875 0.6955209970474243 0.0
0.38214531540870667 0.609375 0.0
0.27229583263397217 0.46875 0.0
5 7 16 15 9 8 255 0 0
5 4 18 17 6 5 255 0 0
8 9 15 14 2 1 0 11 10 255 0 0
4 3 12 18 4 255 0 0
3 3 13 12 255 0 0
4 6 17 16 7 255 0 0
4 2 14 13 3 255 0 0
5 26 27 28 34 35 0 0 255
5 23 24 25 36 37 0 0 255
8 28 29 30 19 20 21 33 34 0 0 255
4 22 23 37 31 0 0 255
3 22 31 32 0 0 255
4 25 26 35 36 0 0 255
4 21 22 32 33 0 0 255
4 0 1 20 19 128 0 128
4 1 2 21 20 0 255 0
4 2 3 22 21 0 255 0
4 3 4 23 22 0 255 0
4 4 5 24 23 0 255 0
4 5 6 25 24 0 255 0
4 6 7 26 25 0 255 0
4 7 8 27 26 0 255 0
4 8 9 28 27 0 255 0
4 9 10 29 28 0 255 0
4 10 11 30 29 0 255 0
4 11 0 19 30 128 0 128
4 12 13 32 31 0 255 0
4 13 14 33 32 0 255 0
4 14 15 34 33 0 255 0
4 15 16 35 34 0 255 0
4 16 17 36 35 0 255 0
4 17 18 37 36 0 255 0
4 18 12 31 37 0 255 0
