ply
format ascii 1.0
element vertex 44
property float x
property float y
property float z
element face 26
property list uchar int vertex_index
property uchar red
property uchar green
property uchar blue
end_header
0.20579372346401215 0.171875 1.0
0.21609386801719666 0.328125 1.0
0.3618355989456177 0.421875 1.0
0.5625 0.41205495595932007 1.0
0.6714082360267639 0.5625 1.0
0.7276964783668518 0.75 1.0
0.5674223899841309 0.703125 1.0
0.421875 0.5991673469543457 1.0
0.46875 0.7233275771141052 1.0
0.59375 0.8441473245620728 1.0
0.765625 0.8044728636741638 1.0
0.7785854935646057 0.59375 1.0
0.693149745464325 0.421875 1.0
0.6361995935440063 0.265625 1.0
0.5 0.238395556807518 1.0
0.328125 0.16189062595367432 1.0
0.20579372346401215 0.171875 1.0
0.28125 0.23914466798305511 1.0
0.4375 0.2969990074634552 1.0
0.421875 0.3730205297470093 1.0
0.26234668493270874 0.28125 1.0
0.28125 0.23914466798305511 1.0
0.20579372346401215 0.171875 0.0
0.21609386801719666 0.328125 0.0
0.3618355989456177 0.421875 0.0
0.5625 0.41205495595932007 0.0
0.6714082360267639 0.5625 0.0
0.7276964783668518 0.75 0.0
0.5674223899841309 0.703125 0.0
0.421875 0.5991673469543457 0.0
0.46875 0.7233275771141052 0.0
0.59375 0.8441473245620728 0.0
0.765625 0.8044728636741638 0.0
0.7785854935646057 0.59375 0.0
0.693149745464325 0.421875 0.0
0.6361995935440063 0.265625 0.0
0.5 0.238395556807518 0.0
0.328125 0.16189062595367432 0.0
0.20579372346401215 0.171875 0.0
0.28125 0.23914466798305511 0.0
0.4375 0.2969990074634552 0.0
0.421875 0.3730205297470093 0.0
0.26234668493270874 0.28125 0.0
0.28125 0.23914466798305511 0.0
15 2 19 18 14 13 12 11 10 9 8 7 6 5 4 3 255 0 0
4 1 20 19 2 255 0 0
4 14 18 17 15 255 0 0
15 24 25 26 27 28 29 30 31 32 33 34 35 36 40 41 0 0 255
4 23 24 41 42 0 0 255
4 36 37 39 40 0 0 255
4 0 1 23 22 0 255 0
4 1 2 24 23 0 255 0
4 2 3 25 24 0 255 0
4 3 4 26 25 0 255 0
4 4 5 27 26 0 255 0
4 5 6 28 27 0 255 0
4 6 7 29 28 0 255 0
4 7 8 30 29 0 255 0
4 8 9 31 30 0 255 0
4 9 10 32 31 0 255 0
4 10 11 33 32 0 255 0
4 11 12 34 33 0 255 0
4 12 13 35 34 0 255 0
4 13 14 36 35 0 255 0
4 14 15 37 36 128 0 128
4 15 16 38 37 128 0 128
4 17 18 40 39 0 255 0
4 18 19 41 40 0 255 0
4 19 20 42 41 0 255 0
4 20 21 43 42 0 255 0
