ply
format ascii 1.0
element vertex 42
property float x
property float y
property float z
element face 25
property list uchar int vertex_index
property uchar red
property uchar green
property uchar blue
end_header
0.3435150980949402 0.171875 1.0
0.28125 0.35528862476348877 1.0
0.4375 0.44456347823143005 1.0
0.5870112776756287 0.546875 1.0
0.5028954744338989 0.71875 1.0
0.359375 0.822075366973877 1.0
0.203125 0.8102472424507141 1.0
0.375 0.8761111497879028 1.0
0.5237633585929871 0.78125 1.0
0.6116186380386353 0.625 1.0
0.6403028964996338 0.421875 1.0
0.7801252007484436 0.3125 1.0
0.703125 0.31348171830177307 1.0
0.578125 0.2535446584224701 1.0
0.421875 0.16674041748046875 1.0
0.3435150980949402 0.171875 1.0
0.40625 0.21024645864963531 1.0
0.5476953983306885 0.3125 1.0
0.390625 0.3727123439311981 1.0
0.359375 0.22848071157932281 1.0
0.40625 0.21024645864963531 1.0
0.3435150980949402 0.171875 0.0
0.28125 0.35528862476348877 0.0
0.4375 0.44456347823143005 0.0
0.5870112776756287 0.546875 0.0
0.5028954744338989 0.71875 0.0
0.359375 0.822075366973877 0.0
0.203125 0.8102472424507141 0.0
0.375 0.8761111497879028 0.0
0.5237633585929871 0.78125 0.0
0.6116186380386353 0.625 0.0
0.6403028964996338 0.421875 0.0
0.7801252007484436 0.3125 0.0
0.703125 0.31348171830177307 0.0
0.578125 0.2535446584224701 0.0
0.421875 0.16674041748046875 0.0
0.3435150980949402 0.171875 0.0
0.40625 0.21024645864963531 0.0
0.5476953983306885 0.3125 0.0
0.390625 0.3727123439311981 0.0
0.359375 0.22848071157932281 0.0
0.40625 0.21024645864963531 0.0
4 17 13 14 16 255 0 0
14 18 2 3 4 5 6 7 8 9 10 11 12 13 17 255 0 0
5 19 0 1 2 18 255 0 0
4 38 37 35 34 0 0 255
14 39 38 34 33 32 31 30 29 28 27 26 25 24 23 0 0 255
5 40 39 23 22 21 0 0 255
4 1 0 21 22 0 255 0
4 2 1 22 23 0 255 0
4 3 2 23 24 0 255 0
4 4 3 24 25 0 255 0
4 5 4 25 26 0 255 0
4 6 5 26 27 0 255 0
4 7 6 27 28 0 255 0
4 8 7 28 29 0 255 0
4 9 8 29 30 0 255 0
4 10 9 30 31 0 255 0
4 11 10 31 32 0 255 0
4 12 11 32 33 0 255 0
4 13 12 33 34 0 255 0
4 14 13 34 35 128 0 128
4 15 14 35 36 128 0 128
4 17 16 37 38 0 255 0
4 18 17 38 39 0 255 0
4 19 18 39 40 0 255 0
4 20 19 40 41 0 255 0
