ply
format ascii 1.0
element vertex 38
property float x
property float y
property float z
element face 35
property list uchar int vertex_index
property uchar red
property uchar green
property uchar blue
end_header
0.2790692150592804 0.125 1.0
0.17824731767177582 0.28125 1.0
0.234375 0.4700632095336914 1.0
0.34375 0.615783154964447 1.0
0.46875 0.7363492846488953 1.0
0.6119735240936279 0.828125 1.0
0.7245852947235107 0.6875 1.0
0.7738528847694397 0.484375 1.0
0.719009518623352 0.3125 1.0
0.59375 0.19295474886894226 1.0
0.421875 0.12490952759981155 1.0
0.328125 0.21221105754375458 1.0
0.4375 0.23043279349803925 1.0
0.59375 0.31895312666893005 1.0
0.6600902676582336 0.5 1.0
0.609375 0.7024351358413696 1.0
0.5 0.5828229188919067 1.0
0.375 0.4580319821834564 1.0
0.2828761041164398 0.296875 1.0
0.2790692150592804 0.125 0.0
0.17824731767177582 0.28125 0.0
0.234375 0.4700632095336914 0.0
0.34375 0.615783154964447 0.0
0.46875 0.7363492846488953 0.0
0.6119735240936279 0.828125 0.0
0.7245852947235107 0.6875 0.0
0.7738528847694397 0.484375 0.0
0.719009518623352 0.3125 0.0
0.59375 0.19295474886894226 0.0
0.421875 0.12490952759981155 0.0
0.328125 0.21221105754375458 0.0
0.4375 0.23043279349803925 0.0
0.59375 0.31895312666893005 0.0
0.6600902676582336 0.5 0.0
0.609375 0.7024351358413696 0.0
0.5 0.5828229188919067 0.0
0.375 0.4580319821834564 0.0
0.2828761041164398 0.296875 0.0
5 8 13 12 10 9 255 0 0
4 1 18 17 2 255 0 0
4 0 11 18 1 255 0 0
4 10 12 11 0 255 0 0
4 7 14 13 8 255 0 0
4 6 15 14 7 255 0 0
5 2 17 16 4 3 255 0 0
5 4 16 15 6 5 255 0 0
5 27 28 29 31 32 0 0 255
4 20 21 36 37 0 0 255
4 19 20 37 30 0 0 255
4 29 19 30 31 0 0 255
4 26 27 32 33 0 0 255
4 25 26 33 34 0 0 255
5 21 22 23 35 36 0 0 255
5 23 24 25 34 35 0 0 255
4 0 1 20 19 0 255 0
4 1 2 21 20 0 255 0
4 2 3 22 21 0 255 0
4 3 4 23 22 0 255 0
4 4 5 24 23 0 255 0
4 5 6 25 24 0 255 0
4 6 7 26 25 0 255 0
4 7 8 27 26 0 255 0
4 8 9 28 27 0 255 0
4 9 10 29 28 128 0 128
4 10 0 19 29 128 0 128
4 11 12 31 30 0 255 0
4 12 13 32 31 0 255 0
4 13 14 33 32 0 255 0
4 14 15 34 33 0 255 0
4 15 16 35 34 0 255 0
4 16 17 36 35 0 255 0
4 17 18 37 36 0 255 0
4 18 11 30 37 0 255 0
