ply
format ascii 1.0
element vertex 44
property float x
property float y
property float z
element face 36
property list uchar int vertex_index
property uchar red
property uchar green
property uchar blue
end_header
0.2659054696559906 0.140625 1.0
0.18969416618347168 0.28125 1.0
0.296875 0.43645206093788147 1.0
0.46589425206184387 0.515625 1.0
0.671875 0.525807797908783 1.0
0.671875 0.6885411143302917 1.0
0.5 0.7734676599502563 1.0
0.35624128580093384 0.671875 1.0
0.359375 0.7478516101837158 1.0
0.515625 0.8365066647529602 1.0
0.6875 0.763630211353302 1.0
0.7709004282951355 0.59375 1.0
0.7339138984680176 0.390625 1.0
0.6253170371055603 0.234375 1.0
0.46875 0.1559525728225708 1.0
0.296875 0.19699473679065704 1.0
0.41476887464523315 0.203125 1.0
0.5793957710266113 0.28125 1.0
0.6859334111213684 0.4375 1.0
0.484375 0.45993489027023315 1.0
0.3152034878730774 0.375 1.0
0.25787654519081116 0.21875 1.0
0.2659054696559906 0.140625 0.0
0.18969416618347168 0.28125 0.0
0.296875 0.43645206093788147 0.0
0.46589425206184387 0.515625 0.0
0.671875 0.525807797908783 0.0
0.671875 0.6885411143302917 0.0
0.5 0.7734676599502563 0.0
0.35624128580093384 0.671875 0.0
0.359375 0.7478516101837158 0.0
0.515625 0.8365066647529602 0.0
0.6875 0.763630211353302 0.0
0.7709004282951355 0.59375 0.0
0.7339138984680176 0.390625 0.0
0.6253170371055603 0.234375 0.0
0.46875 0.1559525728225708 0.0
0.296875 0.19699473679065704 0.0
0.41476887464523315 0.203125 0.0
0.5793957710266113 0.28125 0.0
0.6859334111213684 0.4375 0.0
0.484375 0.45993489027023315 0.0
0.3152034878730774 0.375 0.0
0.25787654519081116 0.21875 0.0
3 0 15 21 255 0 0
4 13 17 16 14 255 0 0
4 2 20 19 3 255 0 0
12 3 19 18 12 11 10 9 8 7 6 5 4 255 0 0
5 0 21 20 2 1 255 0 0
4 12 18 17 13 255 0 0
4 14 16 15 0 255 0 0
3 22 43 37 0 0 255
4 35 36 38 39 0 0 255
4 24 25 41 42 0 0 255
12 25 26 27 28 29 30 31 32 33 34 40 41 0 0 255
5 22 23 24 42 43 0 0 255
4 34 35 39 40 0 0 255
4 36 22 37 38 0 0 255
4 0 1 23 22 128 0 128
4 1 2 24 23 0 255 0
4 2 3 25 24 0 255 0
4 3 4 26 25 0 255 0
4 4 5 27 26 0 255 0
4 5 6 28 27 0 255 0
4 6 7 29 28 0 255 0
4 7 8 30 29 0 255 0
4 8 9 31 30 0 255 0
4 9 10 32 31 0 255 0
4 10 11 33 32 0 255 0
4 11 12 34 33 0 255 0
4 12 13 35 34 0 255 0
4 13 14 36 35 0 255 0
4 14 0 22 36 128 0 128
4 15 16 38 37 0 255 0
4 16 17 39 38 0 255 0
4 17 18 40 39 0 255 0
4 18 19 41 40 0 255 0
4 19 20 42 41 0 255 0
4 20 21 43 42 0 255 0
4 21 15 37 43 0 255 0
