ply
format ascii 1.0
element vertex 42
property float x
property float y
property float z
element face 23
property list uchar int vertex_index
property uchar red
property uchar green
property uchar blue
end_header
0.359375 0.17085640132427216 1.0
0.5505508780479431 0.21875 1.0
0.4675128161907196 0.28125 1.0
0.579513430595398 0.40625 1.0
0.7489279508590698 0.453125 1.0
0.6465286612510681 0.296875 1.0
0.71875 0.3063139021396637 1.0
0.8242986798286438 0.453125 1.0
0.6875 0.5342357158660889 1.0
0.546875 0.4296804666519165 1.0
0.4167932868003845 0.3125 1.0
0.27831384539604187 0.28125 1.0
0.32090821862220764 0.484375 1.0
0.421875 0.6319286227226257 1.0
0.546875 0.7579877376556396 1.0
0.7214303016662598 0.828125 1.0
0.542256236076355 0.84375 1.0
0.41709163784980774 0.71875 1.0
0.3043546974658966 0.578125 1.0
0.21768541634082794 0.421875 1.0
0.25285521149635315 0.21875 1.0
0.359375 0.17085640132427216 0.0
0.5505508780479431 0.21875 0.0
0.4675128161907196 0.28125 0.0
0.579513430595398 0.40625 0.0
0.7489279508590698 0.453125 0.0
0.6465286612510681 0.296875 0.0
0.71875 0.3063139021396637 0.0
0.8242986798286438 0.453125 0.0
0.6875 0.5342357158660889 0.0
0.546875 0.4296804666519165 0.0
0.4167932868003845 0.3125 0.0
0.27831384539604187 0.28125 0.0
0.32090821862220764 0.484375 0.0
0.421875 0.6319286227226257 0.0
0.546875 0.7579877376556396 0.0
0.7214303016662598 0.828125 0.0
0.542256236076355 0.84375 0.0
0.41709163784980774 0.71875 0.0
0.3043546974658966 0.578125 0.0
0.21768541634082794 0.421875 0.0
0.25285521149635315 0.21875 0.0
21 0 1 2 3 4 5 6 7 8 9 10 11 12 13 14 15 16 17 18 19 20 255 0 0
21 21 41 40 39 38 37 36 35 34 33 32 31 30 29 28 27 26 25 24 23 22 0 0 255
4 1 0 21 22 128 0 128
4 2 1 22 23 0 255 0
4 3 2 23 24 0 255 0
4 4 3 24 25 0 255 0
4 5 4 25 26 0 255 0
4 6 5 26 27 0 255 0
4 7 6 27 28 0 255 0
4 8 7 28 29 0 255 0
4 9 8 29 30 0 255 0
4 10 9 30 31 0 255 0
4 11 10 31 32 0 255 0
4 12 11 32 33 0 255 0
4 13 12 33 34 0 255 0
4 14 13 34 35 0 255 0
4 15 14 35 36 0 255 0
4 16 15 36 37 0 255 0
4 17 16 37 38 0 255 0
4 18 17 38 39 0 255 0
4 19 18 39 40 0 255 0
4 20 19 40 41 0 255 0
4 0 20 41 21 128 0 128
