ply
format ascii 1.0
element vertex 42
property float x
property float y
property float z
element face 27
property list uchar int vertex_index
property uchar red
property uchar green
property uchar blue
end_header
0.3936581313610077 0.203125 1.0
0.28125 0.3384309411048889 1.0
0.28125 0.5410712361335754 1.0
0.3726296126842499 0.703125 1.0
0.4816921055316925 0.84375 1.0
0.6541349291801453 0.90625 1.0
0.546875 0.7958393692970276 1.0
0.4375 0.6552674770355225 1.0
0.37079983949661255 0.46875 1.0
0.53125 0.4809574782848358 1.0
0.75 0.5134482383728027 1.0
0.838340163230896 0.375 1.0
0.71875 0.2458432912826538 1.0
0.515625 0.19892089068889618 1.0
0.3936581313610077 0.203125 1.0
0.46875 0.2648041546344757 1.0
0.65625 0.29406777024269104 1.0
0.7570654153823853 0.4375 1.0
0.546875 0.41670557856559753 1.0
0.421875 0.30715805292129517 1.0
0.46875 0.2648041546344757 1.0
0.3936581313610077 0.203125 0.0
0.28125 0.3384309411048889 0.0
0.28125 0.5410712361335754 0.0
0.3726296126842499 0.703125 0.0
0.4816921055316925 0.84375 0.0
0.6541349291801453 0.90625 0.0
0.546875 0.7958393692970276 0.0
0.4375 0.6552674770355225 0.0
0.37079983949661255 0.46875 0.0
0.53125 0.4809574782848358 0.0
0.75 0.5134482383728027 0.0
0.838340163230896 0.375 0.0
0.71875 0.2458432912826538 0.0
0.515625 0.19892089068889618 0.0
0.3936581313610077 0.203125 0.0
0.46875 0.2648041546344757 0.0
0.65625 0.29406777024269104 0.0
0.7570654153823853 0.4375 0.0
0.546875 0.41670557856559753 0.0
0.421875 0.30715805292129517 0.0
0.46875 0.2648041546344757 0.0
5 10 17 16 12 11 255 0 0
12 0 19 18 9 8 7 6 5 4 3 2 1 255 0 0
4 12 16 15 13 255 0 0
4 9 18 17 10 255 0 0
5 31 32 33 37 38 0 0 255
12 21 22 23 24 25 26 27 28 29 30 39 40 0 0 255
4 33 34 36 37 0 0 255
4 30 31 38 39 0 0 255
4 0 1 22 21 0 255 0
4 1 2 23 22 0 255 0
4 2 3 24 23 0 255 0
4 3 4 25 24 0 255 0
4 4 5 26 25 0 255 0
4 5 6 27 26 0 255 0
4 6 7 28 27 0 255 0
4 7 8 29 28 0 255 0
4 8 9 30 29 0 255 0
4 9 10 31 30 0 255 0
4 10 11 32 31 0 255 0
4 11 12 33 32 0 255 0
4 12 13 34 33 128 0 128
4 13 14 35 34 128 0 128
4 15 16 37 36 0 255 0
4 16 17 38 37 0 255 0
4 17 18 39 38 0 255 0
4 18 19 40 39 0 255 0
4 19 20 41 40 0 255 0
