ply
format ascii 1.0
element vertex 40
property float x
property float y
property float z
element face 26
property list uchar int vertex_index
property uchar red
property uchar green
property uchar blue
end_header
0.4159896969795227 0.203125 1.0
0.3125 0.3532344400882721 1.0
0.3648851215839386 0.53125 1.0
0.4439108073711395 0.703125 1.0
0.546875 0.8500732779502869 1.0
0.71875 0.8947089910507202 1.0
0.5819469690322876 0.796875 1.0
0.484375 0.6527650356292725 1.0
0.40625 0.4727805256843567 1.0
0.578125 0.4491371214389801 1.0
0.765625 0.41066667437553406 1.0
0.6875 0.26466912031173706 1.0
0.5 0.19678793847560883 1.0
0.4159896969795227 0.203125 1.0
0.484375 0.2608908414840698 1.0
0.6822047829627991 0.3125 1.0
0.640625 0.4024393558502197 1.0
0.4777538478374481 0.375 1.0
0.4375 0.2708604335784912 1.0
0.484375 0.2608908414840698 1.0
0.4159896969795227 0.203125 0.0
0.3125 0.3532344400882721 0.0
0.3648851215839386 0.53125 0.0
0.4439108073711395 0.703125 0.0
0.546875 0.8500732779502869 0.0
0.71875 0.8947089910507202 0.0
0.5819469690322876 0.796875 0.0
0.484375 0.6527650356292725 0.0
0.40625 0.4727805256843567 0.0
0.578125 0.4491371214389801 0.0
0.765625 0.41066667437553406 0.0
0.6875 0.26466912031173706 0.0
0.5 0.19678793847560883 0.0
0.4159896969795227 0.203125 0.0
0.484375 0.2608908414840698 0.0
0.6822047829627991 0.3125 0.0
0.640625 0.4024393558502197 0.0
0.4777538478374481 0.375 0.0
0.4375 0.2708604335784912 0.0
0.484375 0.2608908414840698 0.0
4 11 15 14 12 255 0 0
5 9 16 15 11 10 255 0 0
11 0 18 17 8 7 6 5 4 3 2 1 255 0 0
4 8 17 16 9 255 0 0
4 31 32 34 35 0 0 255
5 29 30 31 35 36 0 0 255
11 20 21 22 23 24 25 26 27 28 37 38 0 0 255
4 28 29 36 37 0 0 255
4 0 1 21 20 0 255 0
4 1 2 22 21 0 255 0
4 2 3 23 22 0 255 0
4 3 4 24 23 0 255 0
4 4 5 25 24 0 255 0
4 5 6 26 25 0 255 0
4 6 7 27 26 0 255 0
4 7 8 28 27 0 255 0
4 8 9 29 28 0 255 0
4 9 10 30 29 0 255 0
4 10 11 31 30 0 255 0
4 11 12 32 31 128 0 128
4 12 13 33 32 128 0 128
4 14 15 35 34 0 255 0
4 15 16 36 35 0 255 0
4 16 17 37 36 0 255 0
4 17 18 38 37 0 255 0
4 18 19 39 38 0 255 0
