ply
format ascii 1.0
element vertex 40
property float x
property float y
property float z
element face 36
property list uchar int vertex_index
property uchar red
property uchar green
property uchar blue
end_header
0.3415987193584442 0.125 1.0
0.1875 0.2212800234556198 1.0
0.12527653574943542 0.390625 1.0
0.21875 0.5527904033660889 1.0
0.3590979278087616 0.671875 1.0
0.48652005195617676 0.78125 1.0
0.6875 0.8315111994743347 1.0
0.765625 0.691395103931427 1.0
0.8404362797737122 0.515625 1.0
0.78125 0.3127991557121277 1.0
0.6480531692504883 0.203125 1.0
0.46875 0.13202576339244843 1.0
0.359375 0.23414993286132812 1.0
0.4172079563140869 0.234375 1.0
0.609375 0.29423218965530396 1.0
0.7099605202674866 0.4375 1.0
0.65625 0.639500081539154 1.0
0.46875 0.6273212432861328 1.0
0.3279293179512024 0.53125 1.0
0.25531697273254395 0.34375 1.0
0.3415987193584442 0.125 0.0
0.1875 0.2212800234556198 0.0
0.12527653574943542 0.390625 0.0
0.21875 0.5527904033660889 0.0
0.3590979278087616 0.671875 0.0
0.48652005195617676 0.78125 0.0
0.6875 0.8315111994743347 0.0
0.765625 0.691395103931427 0.0
0.8404362797737122 0.515625 0.0
0.78125 0.3127991557121277 0.0
0.6480531692504883 0.203125 0.0
0.46875 0.13202576339244843 0.0
0.359375 0.23414993286132812 0.0
0.4172079563140869 0.234375 0.0
0.609375 0.29423218965530396 0.0
0.7099605202674866 0.4375 0.0
0.65625 0.639500081539154 0.0
0.46875 0.6273212432861328 0.0
0.3279293179512024 0.53125 0.0
0.25531697273254395 0.34375 0.0
6 4 17 16 7 6 5 255 0 0
5 7 16 15 9 8 255 0 0
4 9 15 14 10 255 0 0
5 0 12 19 2 1 255 0 0
4 10 14 13 11 255 0 0
4 3 18 17 4 255 0 0
4 2 19 18 3 255 0 0
4 11 13 12 0 255 0 0
6 24 25 26 27 36 37 0 0 255
5 27 28 29 35 36 0 0 255
4 29 30 34 35 0 0 255
5 20 21 22 39 32 0 0 255
4 30 31 33 34 0 0 255
4 23 24 37 38 0 0 255
4 22 23 38 39 0 0 255
4 31 20 32 33 0 0 255
4 0 1 21 20 128 0 128
4 1 2 22 21 0 255 0
4 2 3 23 22 0 255 0
4 3 4 24 23 0 255 0
4 4 5 25 24 0 255 0
4 5 6 26 25 0 255 0
4 6 7 27 26 0 255 0
4 7 8 28 27 0 255 0
4 8 9 29 28 0 255 0
4 9 10 30 29 0 255 0
4 10 11 31 30 0 255 0
4 11 0 20 31 128 0 128
4 12 13 33 32 0 255 0
4 13 14 34 33 0 255 0
4 14 15 35 34 0 255 0
4 15 16 36 35 0 255 0
4 16 17 37 36 0 255 0
4 17 18 38 37 0 255 0
4 18 19 39 38 0 255 0
4 19 12 32 39 0 255 0
