ply
format ascii 1.0
element vertex 36
property float x
property float y
property float z
element face 28
property list uchar int vertex_index
property uchar red
property uchar green
property uchar blue
end_header
0.3425830602645874 0.125 1.0
0.32964247465133667 0.3125 1.0
0.44065332412719727 0.453125 1.0
0.36753296852111816 0.625 1.0
0.5 0.741574764251709 1.0
0.65625 0.8287935256958008 1.0
0.65625 0.7531309127807617 1.0
0.5 0.6629214286804199 1.0
0.46875 0.5300533771514893 1.0
0.6504693627357483 0.578125 1.0
0.5774850249290466 0.4375 1.0
0.59375 0.2533680498600006 1.0
0.46875 0.13207536935806274 1.0
0.390625 0.16877572238445282 1.0
0.4375 0.18112321197986603 1.0
0.562163770198822 0.3125 1.0
0.4565916061401367 0.390625 1.0
0.36611121892929077 0.234375 1.0
0.3425830602645874 0.125 0.0
0.32964247465133667 0.3125 0.0
0.44065332412719727 0.453125 0.0
0.36753296852111816 0.625 0.0
0.5 0.741574764251709 0.0
0.65625 0.8287935256958008 0.0
0.65625 0.7531309127807617 0.0
0.5 0.6629214286804199 0.0
0.46875 0.5300533771514893 0.0
0.6504693627357483 0.578125 0.0
0.5774850249290466 0.4375 0.0
0.59375 0.2533680498600006 0.0
0.46875 0.13207536935806274 0.0
0.390625 0.16877572238445282 0.0
0.4375 0.18112321197986603 0.0
0.562163770198822 0.3125 0.0
0.4565916061401367 0.390625 0.0
0.36611121892929077 0.234375 0.0
4 1 17 16 2 255 0 0
4 0 13 17 1 255 0 0
12 2 16 15 11 10 9 8 7 6 5 4 3 255 0 0
4 12 14 13 0 255 0 0
4 11 15 14 12 255 0 0
4 19 20 34 35 0 0 255
4 18 19 35 31 0 0 255
12 20 21 22 23 24 25 26 27 28 29 33 34 0 0 255
4 30 18 31 32 0 0 255
4 29 30 32 33 0 0 255
4 0 1 19 18 128 0 128
4 1 2 20 19 0 255 0
4 2 3 21 20 0 255 0
4 3 4 22 21 0 255 0
4 4 5 23 22 0 255 0
4 5 6 24 23 0 255 0
4 6 7 25 24 0 255 0
4 7 8 26 25 0 255 0
4 8 9 27 26 0 255 0
4 9 10 28 27 0 255 0
4 10 11 29 28 0 255 0
4 11 12 30 29 0 255 0
4 12 0 18 30 128 0 128
4 13 14 32 31 0 255 0
4 14 15 33 32 0 255 0
4 15 16 34 33 0 255 0
4 16 17 35 34 0 255 0
4 17 13 31 35 0 255 0
