ply
format ascii 1.0
element vertex 30
property float x
property float y
property float z
element face 21
property list uchar int vertex_index
property uchar red
property uchar green
property uchar blue
end_header
0.43040475249290466 0.171875 1.0
0.30003273487091064 0.296875 1.0
0.28125 0.47693297266960144 1.0
0.375 0.6312853097915649 1.0
0.484375 0.7772592306137085 1.0
0.609375 0.8689430356025696 1.0
0.5933078527450562 0.71875 1.0
0.484375 0.5661972761154175 1.0
0.65625 0.5459311604499817 1.0
0.7635331749916077 0.390625 1.0
0.6875 0.21090573072433472 1.0
0.484375 0.1601468324661255 1.0
0.515625 0.2938265800476074 1.0
0.6332147717475891 0.328125 1.0
0.5333699584007263 0.40625 1.0
0.43040475249290466 0.171875 0.0
0.30003273487091064 0.296875 0.0
0.28125 0.47693297266960144 0.0
0.375 0.6312853097915649 0.0
0.484375 0.7772592306137085 0.0
0.609375 0.8689430356025696 0.0
0.5933078527450562 0.71875 0.0
0.484375 0.5661972761154175 0.0
0.65625 0.5459311604499817 0.0
0.7635331749916077 0.390625 0.0
0.6875 0.21090573072433472 0.0
0.484375 0.1601468324661255 0.0
0.515625 0.2938265800476074 0.0
0.6332147717475891 0.328125 0.0
0.5333699584007263 0.40625 0.0
6 7 14 13 10 9 8 255 0 0
11 11 12 14 7 6 5 4 3 2 1 0 255 0 0
4 10 13 12 11 255 0 0
6 22 23 24 25 28 29 0 0 255
11 26 15 16 17 18 19 20 21 22 29 27 0 0 255
4 25 26 27 28 0 0 255
4 0 1 16 15 0 255 0
4 1 2 17 16 0 255 0
4 2 3 18 17 0 255 0
4 3 4 19 18 0 255 0
4 4 5 20 19 0 255 0
4 5 6 21 20 0 255 0
4 6 7 22 21 0 255 0
4 7 8 23 22 0 255 0
4 8 9 24 23 0 255 0
4 9 10 25 24 0 255 0
4 10 11 26 25 128 0 128
4 11 0 15 26 128 0 128
4 12 13 28 27 0 255 0
4 13 14 29 28 0 255 0
4 14 12 27 29 0 255 0
