ply
format ascii 1.0
element vertex 42
property float x
property float y
property float z
element face 39
property list uchar int vertex_index
property uchar red
property uchar green
property uchar blue
end_header
0.390625 0.09534307569265366 1.0
0.29056882858276367 0.25 1.0
0.390625 0.3971233367919922 1.0
0.375 0.5258923172950745 1.0
0.40625 0.6713722348213196 1.0
0.515625 0.7976476550102234 1.0
0.6946969032287598 0.734375 1.0
0.703125 0.5701005458831787 1.0
0.6137502789497375 0.4375 1.0
0.6867069602012634 0.25 1.0
0.5625 0.11761036515235901 1.0
0.421875 0.15651343762874603 1.0
0.53125 0.18097148835659027 1.0
0.6265726685523987 0.328125 1.0
0.484375 0.39459794759750366 1.0
0.3561064302921295 0.28125 1.0
0.515625 0.520542323589325 1.0
0.609375 0.5537081956863403 1.0
0.640625 0.6993860006332397 1.0
0.4665928781032562 0.6875 1.0
0.41648057103157043 0.578125 1.0
0.390625 0.09534307569265366 0.0
0.29056882858276367 0.25 0.0
0.390625 0.3971233367919922 0.0
0.375 0.5258923172950745 0.0
0.40625 0.6713722348213196 0.0
0.515625 0.7976476550102234 0.0
0.6946969032287598 0.734375 0.0
0.703125 0.5701005458831787 0.0
0.6137502789497375 0.4375 0.0
0.6867069602012634 0.25 0.0
0.5625 0.11761036515235901 0.0
0.421875 0.15651343762874603 0.0
0.53125 0.18097148835659027 0.0
0.6265726685523987 0.328125 0.0
0.484375 0.39459794759750366 0.0
0.3561064302921295 0.28125 0.0
0.515625 0.520542323589325 0.0
0.609375 0.5537081956863403 0.0
0.640625 0.6993860006332397 0.0
0.4665928781032562 0.6875 0.0
0.41648057103157043 0.578125 0.0
4 7 17 16 8 255 0 0
4 0 11 15 1 255 0 0
4 10 12 11 0 255 0 0
4 6 18 17 7 255 0 0
4 9 13 12 10 255 0 0
4 3 20 19 4 255 0 0
5 4 19 18 6 5 255 0 0
8 2 14 13 9 8 16 20 3 255 0 0
4 1 15 14 2 255 0 0
4 28 29 37 38 0 0 255
4 21 22 36 32 0 0 255
4 31 21 32 33 0 0 255
4 27 28 38 39 0 0 255
4 30 31 33 34 0 0 255
4 24 25 40 41 0 0 255
5 25 26 27 39 40 0 0 255
8 23 24 41 37 29 30 34 35 0 0 255
4 22 23 35 36 0 0 255
4 0 1 22 21 128 0 128
4 1 2 23 22 0 255 0
4 2 3 24 23 0 255 0
4 3 4 25 24 0 255 0
4 4 5 26 25 0 255 0
4 5 6 27 26 0 255 0
4 6 7 28 27 0 255 0
4 7 8 29 28 0 255 0
4 8 9 30 29 0 255 0
4 9 10 31 30 0 255 0
4 10 0 21 31 128 0 128
4 11 12 33 32 0 255 0
4 12 13 34 33 0 255 0
4 13 14 35 34 0 255 0
4 14 15 36 35 0 255 0
4 15 11 32 36 0 255 0
4 16 17 38 37 0 255 0
4 17 18 39 38 0 255 0
4 18 19 40 39 0 255 0
4 19 20 41 40 0 255 0
4 20 16 37 41 0 255 0
