ply
format ascii 1.0
element vertex 44
property float x
property float y
property float z
element face 34
property list uchar int vertex_index
property uchar red
property uchar green
property uchar blue
end_header
0.22387954592704773 0.203125 1.0
0.12406358867883682 0.34375 1.0
0.165656179189682 0.515625 1.0
0.28125 0.6490638256072998 1.0
0.453125 0.7253592014312744 1.0
0.6366755962371826 0.75 1.0
0.7152758836746216 0.609375 1.0
0.8341519236564636 0.546875 1.0
0.7719094753265381 0.359375 1.0
0.6875 0.19418296217918396 1.0
0.609375 0.30586645007133484 1.0
0.4375 0.22874245047569275 1.0
0.22387954592704773 0.203125 1.0
0.328125 0.29506877064704895 1.0
0.40625 0.31054097414016724 1.0
0.578125 0.3851950764656067 1.0
0.71875 0.4940035343170166 1.0
0.6136627197265625 0.625 1.0
0.421875 0.6229762434959412 1.0
0.2775956690311432 0.515625 1.0
0.2443966120481491 0.328125 1.0
0.328125 0.29506877064704895 1.0
0.22387954592704773 0.203125 0.0
0.12406358867883682 0.34375 0.0
0.165656179189682 0.515625 0.0
0.28125 0.6490638256072998 0.0
0.453125 0.7253592014312744 0.0
0.6366755962371826 0.75 0.0
0.7152758836746216 0.609375 0.0
0.8341519236564636 0.546875 0.0
0.7719094753265381 0.359375 0.0
0.6875 0.19418296217918396 0.0
0.609375 0.30586645007133484 0.0
0.4375 0.22874245047569275 0.0
0.22387954592704773 0.203125 0.0
0.328125 0.29506877064704895 0.0
0.40625 0.31054097414016724 0.0
0.578125 0.3851950764656067 0.0
0.71875 0.4940035343170166 0.0
0.6136627197265625 0.625 0.0
0.421875 0.6229762434959412 0.0
0.2775956690311432 0.515625 0.0
0.2443966120481491 0.328125 0.0
0.328125 0.29506877064704895 0.0
5 4 18 17 6 5 255 0 0
4 1 20 19 2 255 0 0
7 6 16 15 10 9 8 7 255 0 0
4 10 15 14 11 255 0 0
3 6 17 16 255 0 0
5 2 19 18 4 3 255 0 0
3 11 14 13 255 0 0
5 26 27 28 39 40 0 0 255
4 23 24 41 42 0 0 255
7 28 29 30 31 32 37 38 0 0 255
4 32 33 36 37 0 0 255
3 28 38 39 0 0 255
5 24 25 26 40 41 0 0 255
3 33 35 36 0 0 255
4 0 1 23 22 0 255 0
4 1 2 24 23 0 255 0
4 2 3 25 24 0 255 0
4 3 4 26 25 0 255 0
4 4 5 27 26 0 255 0
4 5 6 28 27 0 255 0
4 6 7 29 28 0 255 0
4 7 8 30 29 0 255 0
4 8 9 31 30 128 0 128
4 9 10 32 31 128 0 128
4 10 11 33 32 0 255 0
4 11 12 34 33 0 255 0
4 13 14 36 35 0 255 0
4 14 15 37 36 0 255 0
4 15 16 38 37 0 255 0
4 16 17 39 38 0 255 0
4 17 18 40 39 0 255 0
4 18 19 41 40 0 255 0
4 19 20 42 41 0 255 0
4 20 21 43 42 0 255 0
