ply
format ascii 1.0
element vertex 42
property float x
property float y
property float z
element face 39
property list uchar int vertex_index
property uchar red
property uchar green
property uchar blue
end_header
0.40622034668922424 0.125 1.0
0.21875 0.19575883448123932 1.0
0.12752336263656616 0.359375 1.0
0.203733891248703 0.53125 1.0
0.328125 0.6664559245109558 1.0
0.4675494432449341 0.78125 1.0
0.653504490852356 0.828125 1.0
0.640625 0.6982012391090393 1.0
0.7980219125747681 0.609375 1.0
0.8348977565765381 0.390625 1.0
0.734375 0.24849273264408112 1.0
0.578125 0.14938686788082123 1.0
0.296875 0.2319488376379013 1.0
0.390625 0.22566281259059906 1.0
0.59375 0.2658534646034241 1.0
0.7148587703704834 0.40625 1.0
0.6916429996490479 0.578125 1.0
0.515625 0.6541860103607178 1.0
0.359375 0.5586728453636169 1.0
0.25 0.40908747911453247 1.0
0.28125 0.24654069542884827 1.0
0.40622034668922424 0.125 0.0
0.21875 0.19575883448123932 0.0
0.12752336263656616 0.359375 0.0
0.203733891248703 0.53125 0.0
0.328125 0.6664559245109558 0.0
0.4675494432449341 0.78125 0.0
0.653504490852356 0.828125 0.0
0.640625 0.6982012391090393 0.0
0.7980219125747681 0.609375 0.0
0.8348977565765381 0.390625 0.0
0.734375 0.24849273264408112 0.0
0.578125 0.14938686788082123 0.0
0.296875 0.2319488376379013 0.0
0.390625 0.22566281259059906 0.0
0.59375 0.2658534646034241 0.0
0.7148587703704834 0.40625 0.0
0.6916429996490479 0.578125 0.0
0.515625 0.6541860103607178 0.0
0.359375 0.5586728453636169 0.0
0.25 0.40908747911453247 0.0
0.28125 0.24654069542884827 0.0
4 11 14 13 0 255 0 0
6 4 18 17 7 6 5 255 0 0
4 7 17 16 8 255 0 0
3 1 12 20 255 0 0
5 9 15 14 11 10 255 0 0
4 0 13 12 1 255 0 0
4 3 19 18 4 255 0 0
4 8 16 15 9 255 0 0
5 1 20 19 3 2 255 0 0
4 32 21 34 35 0 0 255
6 25 26 27 28 38 39 0 0 255
4 28 29 37 38 0 0 255
3 22 41 33 0 0 255
5 30 31 32 35 36 0 0 255
4 21 22 33 34 0 0 255
4 24 25 39 40 0 0 255
4 29 30 36 37 0 0 255
5 22 23 24 40 41 0 0 255
4 0 1 22 21 128 0 128
4 1 2 23 22 0 255 0
4 2 3 24 23 0 255 0
4 3 4 25 24 0 255 0
4 4 5 26 25 0 255 0
4 5 6 27 26 0 255 0
4 6 7 28 27 0 255 0
4 7 8 29 28 0 255 0
4 8 9 30 29 0 255 0
4 9 10 31 30 0 255 0
4 10 11 32 31 0 255 0
4 11 0 21 32 128 0 128
4 12 13 34 33 0 255 0
4 13 14 35 34 0 255 0
4 14 15 36 35 0 255 0
4 15 16 37 36 0 255 0
4 16 17 38 37 0 255 0
4 17 18 39 38 0 255 0
4 18 19 40 39 0 255 0
4 19 20 41 40 0 255 0
4 20 12 33 41 0 255 0
