ply
format ascii 1.0
element vertex 16
property float x
property float y
property float z
element face 10
property list uchar int vertex_index
property uchar red
property uchar green
property uchar blue
end_header
0.4375 0.13055060803890228 1.0
0.5175279378890991 0.296875 1.0
0.5665700435638428 0.5 1.0
0.6226561069488525 0.703125 1.0
0.546875 0.7916013598442078 1.0
0.484375 0.6064820885658264 1.0
0.44142940640449524 0.421875 1.0
0.4122801423072815 0.203125 1.0
0.4375 0.13055060803890228 0.0
0.5175279378890991 0.296875 0.0
0.5665700435638428 0.5 0.0
0.6226561069488525 0.703125 0.0
0.546875 0.7916013598442078 0.0
0.484375 0.6064820885658264 0.0
0.44142940640449524 0.421875 0.0
0.4122801423072815 0.203125 0.0
8 0 1 2 3 4 5 6 7 255 0 0
8 8 15 14 13 12 11 10 9 0 0 255
4 1 0 8 9 128 0 128
4 2 1 9 10 0 255 0
4 3 2 10 11 0 255 0
4 4 3 11 12 0 255 0
4 5 4 12 13 0 255 0
4 6 5 13 14 0 255 0
4 7 6 14 15 0 255 0
4 0 7 15 8 128 0 128
