ply
format ascii 1.0
element vertex 38
property float x
property float y
property float z
element face 33
property list uchar int vertex_index
property uchar red
property uchar green
property uchar blue
end_header
0.27951863408088684 0.125 1.0
0.16049925982952118 0.265625 1.0
0.18887245655059814 0.421875 1.0
0.296875 0.5728645920753479 1.0
0.40625 0.7177912592887878 1.0
0.53125 0.8373579978942871 1.0
0.734375 0.791262686252594 1.0
0.805297315120697 0.609375 1.0
0.7513452768325806 0.40625 1.0
0.640625 0.2719908356666565 1.0
0.5 0.16080328822135925 1.0
0.3201960027217865 0.125 1.0
0.359375 0.25915634632110596 1.0
0.484375 0.28773075342178345 1.0
0.6225284337997437 0.40625 1.0
0.6875 0.5934967398643494 1.0
0.578125 0.6181961894035339 1.0
0.4297148883342743 0.546875 1.0
0.31483614444732666 0.40625 1.0
0.27951863408088684 0.125 0.0
0.16049925982952118 0.265625 0.0
0.18887245655059814 0.421875 0.0
0.296875 0.5728645920753479 0.0
0.40625 0.7177912592887878 0.0
0.53125 0.8373579978942871 0.0
0.734375 0.791262686252594 0.0
0.805297315120697 0.609375 0.0
0.7513452768325806 0.40625 0.0
0.640625 0.2719908356666565 0.0
0.5 0.16080328822135925 0.0
0.3201960027217865 0.125 0.0
0.359375 0.25915634632110596 0.0
0.484375 0.28773075342178345 0.0
0.6225284337997437 0.40625 0.0
0.6875 0.5934967398643494 0.0
0.578125 0.6181961894035339 0.0
0.4297148883342743 0.546875 0.0
0.31483614444732666 0.40625 0.0
4 7 15 14 8 255 0 0
5 8 14 13 10 9 255 0 0
4 10 13 12 11 255 0 0
4 3 17 16 4 255 0 0
4 2 18 17 3 255 0 0
6 11 12 18 2 1 0 255 0 0
6 4 16 15 7 6 5 255 0 0
4 26 27 33 34 0 0 255
5 27 28 29 32 33 0 0 255
4 29 30 31 32 0 0 255
4 22 23 35 36 0 0 255
4 21 22 36 37 0 0 255
6 30 19 20 21 37 31 0 0 255
6 23 24 25 26 34 35 0 0 255
4 0 1 20 19 0 255 0
4 1 2 21 20 0 255 0
4 2 3 22 21 0 255 0
4 3 4 23 22 0 255 0
4 4 5 24 23 0 255 0
4 5 6 25 24 0 255 0
4 6 7 26 25 0 255 0
4 7 8 27 26 0 255 0
4 8 9 28 27 0 255 0
4 9 10 29 28 0 255 0
4 10 11 30 29 0 255 0
4 11 0 19 30 128 0 128
4 12 13 32 31 0 255 0
4 13 14 33 32 0 255 0
4 14 15 34 33 0 255 0
4 15 16 35 34 0 255 0
4 16 17 36 35 0 255 0
4 17 18 37 36 0 255 0
4 18 12 31 37 0 255 0
