ply
format ascii 1.0
element vertex 36
property float x
property float y
property float z
element face 26
property list uchar int vertex_index
property uchar red
property uchar green
property uchar blue
end_header
0.421875 0.09790622442960739 1.0
0.32215118408203125 0.25 1.0
0.36582517623901367 0.421875 1.0
0.2769155502319336 0.546875 1.0
0.3125 0.6907997131347656 1.0
0.5 0.7603238821029663 1.0
0.6604225635528564 0.75 1.0
0.765625 0.7249141335487366 1.0
0.6445753574371338 0.59375 1.0
0.6041597723960876 0.453125 1.0
0.6490828394889832 0.25 1.0
0.5355398058891296 0.109375 1.0
0.484375 0.20720157027244568 1.0
0.521676778793335 0.234375 1.0
0.484375 0.4201584756374359 1.0
0.421875 0.2476673275232315 1.0
0.421875 0.5886294841766357 1.0
0.48779141902923584 0.65625 1.0
0.421875 0.09790622442960739 0.0
0.32215118408203125 0.25 0.0
0.36582517623901367 0.421875 0.0
0.2769155502319336 0.546875 0.0
0.3125 0.6907997131347656 0.0
0.5 0.7603238821029663 0.0
0.6604225635528564 0.75 0.0
0.765625 0.7249141335487366 0.0
0.6445753574371338 0.59375 0.0
0.6041597723960876 0.453125 0.0
0.6490828394889832 0.25 0.0
0.5355398058891296 0.109375 0.0
0.484375 0.20720157027244568 0.0
0.521676778793335 0.234375 0.0
0.484375 0.4201584756374359 0.0
0.421875 0.2476673275232315 0.0
0.421875 0.5886294841766357 0.0
0.48779141902923584 0.65625 0.0
4 4 16 17 5 255 0 0
3 11 13 12 255 0 0
14 5 17 16 4 3 2 14 13 11 10 9 8 7 6 255 0 0
5 11 12 15 1 0 255 0 0
4 1 15 14 2 255 0 0
4 22 23 35 34 0 0 255
3 29 30 31 0 0 255
14 23 24 25 26 27 28 29 31 32 20 21 22 34 35 0 0 255
5 29 18 19 33 30 0 0 255
4 19 20 32 33 0 0 255
4 0 1 19 18 128 0 128
4 1 2 20 19 0 255 0
4 2 3 21 20 0 255 0
4 3 4 22 21 0 255 0
4 4 5 23 22 0 255 0
4 5 6 24 23 0 255 0
4 6 7 25 24 0 255 0
4 7 8 26 25 0 255 0
4 8 9 27 26 0 255 0
4 9 10 28 27 0 255 0
4 10 11 29 28 0 255 0
4 11 0 18 29 128 0 128
4 12 13 31 30 0 255 0
4 13 14 32 31 0 255 0
4 14 15 33 32 0 255 0
4 15 12 30 33 0 255 0
