ply
format ascii 1.0
element vertex 42
property float x
property float y
property float z
element face 23
property list uchar int vertex_index
property uchar red
property uchar green
property uchar blue
end_header
0.1905045360326767 0.203125 1.0
0.1466192603111267 0.375 1.0
0.328125 0.44793879985809326 1.0
0.5054169297218323 0.390625 1.0
0.6263947486877441 0.515625 1.0
0.6662101745605469 0.734375 1.0
0.53125 0.812869668006897 1.0
0.45492416620254517 0.84375 1.0
0.6356568336486816 0.90625 1.0
0.734375 0.7572740316390991 1.0
0.721836268901825 0.53125 1.0
0.625 0.38862675428390503 1.0
0.640625 0.29304689168930054 1.0
0.578125 0.21506786346435547 1.0
0.4135129451751709 0.25 1.0
0.21875 0.19707083702087402 1.0
0.1905045360326767 0.203125 1.0
0.234375 0.28156915307044983 1.0
0.390625 0.3191334009170532 1.0
0.23782967031002045 0.359375 1.0
0.234375 0.28156915307044983 1.0
0.1905045360326767 0.203125 0.0
0.1466192603111267 0.375 0.0
0.328125 0.44793879985809326 0.0
0.5054169297218323 0.390625 0.0
0.6263947486877441 0.515625 0.0
0.6662101745605469 0.734375 0.0
0.53125 0.812869668006897 0.0
0.45492416620254517 0.84375 0.0
0.6356568336486816 0.90625 0.0
0.734375 0.7572740316390991 0.0
0.721836268901825 0.53125 0.0
0.625 0.38862675428390503 0.0
0.640625 0.29304689168930054 0.0
0.578125 0.21506786346435547 0.0
0.4135129451751709 0.25 0.0
0.21875 0.19707083702087402 0.0
0.1905045360326767 0.203125 0.0
0.234375 0.28156915307044983 0.0
0.390625 0.3191334009170532 0.0
0.23782967031002045 0.359375 0.0
0.234375 0.28156915307044983 0.0
16 1 19 18 14 13 12 11 10 9 8 7 6 5 4 3 2 255 0 0
4 14 18 17 15 255 0 0
16 22 23 24 25 26 27 28 29 30 31 32 33 34 35 39 40 0 0 255
4 35 36 38 39 0 0 255
4 0 1 22 21 0 255 0
4 1 2 23 22 0 255 0
4 2 3 24 23 0 255 0
4 3 4 25 24 0 255 0
4 4 5 26 25 0 255 0
4 5 6 27 26 0 255 0
4 6 7 28 27 0 255 0
4 7 8 29 28 0 255 0
4 8 9 30 29 0 255 0
4 9 10 31 30 0 255 0
4 10 11 32 31 0 255 0
4 11 12 33 32 0 255 0
4 12 13 34 33 0 255 0
4 13 14 35 34 0 255 0
4 14 15 36 35 128 0 128
4 15 16 37 36 128 0 128
4 17 18 39 38 0 255 0
4 18 19 40 39 0 255 0
4 19 20 41 40 0 255 0
