ply
format ascii 1.0
element vertex 44
property float x
property float y
property float z
element face 26
property list uchar int vertex_index
property uchar red
property uchar green
property uchar blue
end_header
0.28585535287857056 0.171875 1.0
0.234375 0.3498706817626953 1.0
0.390625 0.4446128308773041 1.0
0.625 0.43443891406059265 1.0
0.6449273228645325 0.625 1.0
0.53125 0.759106457233429 1.0
0.328125 0.7759580016136169 1.0
0.2490708827972412 0.65625 1.0
0.25 0.8111783266067505 1.0
0.421875 0.8762578964233398 1.0
0.59375 0.8103519678115845 1.0
0.703125 0.6659496426582336 1.0
0.7316670417785645 0.4375 1.0
0.6665538549423218 0.28125 1.0
0.515625 0.17987284064292908 1.0
0.3125 0.16091245412826538 1.0
0.28585535287857056 0.171875 1.0
0.40625 0.26323845982551575 1.0
0.5625 0.2874966859817505 1.0
0.5 0.36723631620407104 1.0
0.328125 0.32518523931503296 1.0
0.40625 0.26323845982551575 1.0
0.28585535287857056 0.171875 0.0
0.234375 0.3498706817626953 0.0
0.390625 0.4446128308773041 0.0
0.625 0.43443891406059265 0.0
0.6449273228645325 0.625 0.0
0.53125 0.759106457233429 0.0
0.328125 0.7759580016136169 0.0
0.2490708827972412 0.65625 0.0
0.25 0.8111783266067505 0.0
0.421875 0.8762578964233398 0.0
0.59375 0.8103519678115845 0.0
0.703125 0.6659496426582336 0.0
0.7316670417785645 0.4375 0.0
0.6665538549423218 0.28125 0.0
0.515625 0.17987284064292908 0.0
0.3125 0.16091245412826538 0.0
0.28585535287857056 0.171875 0.0
0.40625 0.26323845982551575 0.0
0.5625 0.2874966859817505 0.0
0.5 0.36723631620407104 0.0
0.328125 0.32518523931503296 0.0
0.40625 0.26323845982551575 0.0
14 2 19 18 13 12 11 10 9 8 7 6 5 4 3 255 0 0
4 1 20 19 2 255 0 0
4 13 18 17 14 255 0 0
14 24 25 26 27 28 29 30 31 32 33 34 35 40 41 0 0 255
4 23 24 41 42 0 0 255
4 35 36 39 40 0 0 255
4 0 1 23 22 0 255 0
4 1 2 24 23 0 255 0
4 2 3 25 24 0 255 0
4 3 4 26 25 0 255 0
4 4 5 27 26 0 255 0
4 5 6 28 27 0 255 0
4 6 7 29 28 0 255 0
4 7 8 30 29 0 255 0
4 8 9 31 30 0 255 0
4 9 10 32 31 0 255 0
4 10 11 33 32 0 255 0
4 11 12 34 33 0 255 0
4 12 13 35 34 0 255 0
4 13 14 36 35 0 255 0
4 14 15 37 36 128 0 128
4 15 16 38 37 128 0 128
4 17 18 40 39 0 255 0
4 18 19 41 40 0 255 0
4 19 20 42 41 0 255 0
4 20 21 43 42 0 255 0
