ply
format ascii 1.0
element vertex 34
property float x
property float y
property float z
element face 27
property list uchar int vertex_index
property uchar red
property uchar green
property uchar blue
end_header
0.39718198776245117 0.171875 1.0
0.2572251260280609 0.28125 1.0
0.27009883522987366 0.484375 1.0
0.34375 0.6678441166877747 1.0
0.4375 0.8152817487716675 1.0
0.573941707611084 0.828125 1.0
0.5 0.6798588037490845 1.0
0.421875 0.5181955695152283 1.0
0.609375 0.5516977906227112 1.0
0.75 0.45105013251304626 1.0
0.7409262657165527 0.28125 1.0
0.578125 0.1939438283443451 1.0
0.40625 0.28398242592811584 1.0
0.515625 0.3031485676765442 1.0
0.65625 0.4031127393245697 1.0
0.46875 0.42867645621299744 1.0
0.38601651787757874 0.296875 1.0
0.39718198776245117 0.171875 0.0
0.2572251260280609 0.28125 0.0
0.27009883522987366 0.484375 0.0
0.34375 0.6678441166877747 0.0
0.4375 0.8152817487716675 0.0
0.573941707611084 0.828125 0.0
0.5 0.6798588037490845 0.0
0.421875 0.5181955695152283 0.0
0.609375 0.5516977906227112 0.0
0.75 0.45105013251304626 0.0
0.7409262657165527 0.28125 0.0
0.578125 0.1939438283443451 0.0
0.40625 0.28398242592811584 0.0
0.515625 0.3031485676765442 0.0
0.65625 0.4031127393245697 0.0
0.46875 0.42867645621299744 0.0
0.38601651787757874 0.296875 0.0
5 7 15 14 9 8 255 0 0
10 0 16 15 7 6 5 4 3 2 1 255 0 0
3 0 12 16 255 0 0
5 9 14 13 11 10 255 0 0
4 11 13 12 0 255 0 0
5 24 25 26 31 32 0 0 255
10 17 18 19 20 21 22 23 24 32 33 0 0 255
3 17 33 29 0 0 255
5 26 27 28 30 31 0 0 255
4 28 17 29 30 0 0 255
4 0 1 18 17 128 0 128
4 1 2 19 18 0 255 0
4 2 3 20 19 0 255 0
4 3 4 21 20 0 255 0
4 4 5 22 21 0 255 0
4 5 6 23 22 0 255 0
4 6 7 24 23 0 255 0
4 7 8 25 24 0 255 0
4 8 9 26 25 0 255 0
4 9 10 27 26 0 255 0
4 10 11 28 27 0 255 0
4 11 0 17 28 128 0 128
4 12 13 30 29 0 255 0
4 13 14 31 30 0 255 0
4 14 15 32 31 0 255 0
4 15 16 33 32 0 255 0
4 16 12 29 33 0 255 0
