ply
format ascii 1.0
element vertex 40
property float x
property float y
property float z
element face 28
property list uchar int vertex_index
property uchar red
property uchar green
property uchar blue
end_header
0.6199604868888855 0.140625 1.0
0.5485997200012207 0.28125 1.0
0.39922767877578735 0.1875 1.0
0.24313756823539734 0.265625 1.0
0.34375 0.4148889482021332 1.0
0.5625 0.43779388070106506 1.0
0.6406046748161316 0.625 1.0
0.59375 0.7676923871040344 1.0
0.4390442967414856 0.671875 1.0
0.3161872327327728 0.5625 1.0
0.375 0.6920278668403625 1.0
0.515625 0.8083558678627014 1.0
0.6966298222541809 0.796875 1.0
0.7157083749771118 0.59375 1.0
0.6369343996047974 0.421875 1.0
0.6798400282859802 0.21875 1.0
0.359375 0.2462840974330902 1.0
0.40625 0.2637576460838318 1.0
0.5099560618400574 0.375 1.0
0.34375 0.32943445444107056 1.0
0.6199604868888855 0.140625 0.0
0.5485997200012207 0.28125 0.0
0.39922767877578735 0.1875 0.0
0.24313756823539734 0.265625 0.0
0.34375 0.4148889482021332 0.0
0.5625 0.43779388070106506 0.0
0.6406046748161316 0.625 0.0
0.59375 0.7676923871040344 0.0
0.4390442967414856 0.671875 0.0
0.3161872327327728 0.5625 0.0
0.375 0.6920278668403625 0.0
0.515625 0.8083558678627014 0.0
0.6966298222541809 0.796875 0.0
0.7157083749771118 0.59375 0.0
0.6369343996047974 0.421875 0.0
0.6798400282859802 0.21875 0.0
0.359375 0.2462840974330902 0.0
0.40625 0.2637576460838318 0.0
0.5099560618400574 0.375 0.0
0.34375 0.32943445444107056 0.0
5 2 16 19 4 3 255 0 0
16 5 18 17 2 1 0 15 14 13 12 11 10 9 8 7 6 255 0 0
3 2 17 16 255 0 0
4 4 19 18 5 255 0 0
5 22 23 24 39 36 0 0 255
16 25 26 27 28 29 30 31 32 33 34 35 20 21 22 37 38 0 0 255
3 22 36 37 0 0 255
4 24 25 38 39 0 0 255
4 0 1 21 20 128 0 128
4 1 2 22 21 0 255 0
4 2 3 23 22 0 255 0
4 3 4 24 23 0 255 0
4 4 5 25 24 0 255 0
4 5 6 26 25 0 255 0
4 6 7 27 26 0 255 0
4 7 8 28 27 0 255 0
4 8 9 29 28 0 255 0
4 9 10 30 29 0 255 0
4 10 11 31 30 0 255 0
4 11 12 32 31 0 255 0
4 12 13 33 32 0 255 0
4 13 14 34 33 0 255 0
4 14 15 35 34 0 255 0
4 15 0 20 35 128 0 128
4 16 17 37 36 0 255 0
4 17 18 38 37 0 255 0
4 18 19 39 38 0 255 0
4 19 16 36 39 0 255 0
