ply
format ascii 1.0
element vertex 46
property float x
property float y
property float z
element face 35
property list uchar int vertex_index
property uchar red
property uchar green
property uchar blue
end_header
0.30270662903785706 0.171875 1.0
0.19950687885284424 0.3125 1.0
0.265625 0.49513742327690125 1.0
0.3600461483001709 0.640625 1.0
0.5 0.7623517513275146 1.0
0.65625 0.8510969281196594 1.0
0.765625 0.7924712896347046 1.0
0.596275269985199 0.734375 1.0
0.46784642338752747 0.625 1.0
0.340860515832901 0.5 1.0
0.2900125980377197 0.34375 1.0
0.4375 0.43903079628944397 1.0
0.625 0.5076563358306885 1.0
0.828125 0.4845511019229889 1.0
0.7514487504959106 0.328125 1.0
0.59375 0.24445109069347382 1.0
0.40625 0.17314910888671875 1.0
0.375 0.23405307531356812 1.0
0.5423538088798523 0.28125 1.0
0.7016515135765076 0.375 1.0
0.671875 0.4471263289451599 1.0
0.484375 0.38028112053871155 1.0
0.34626588225364685 0.265625 1.0
0.30270662903785706 0.171875 0.0
0.19950687885284424 0.3125 0.0
0.265625 0.49513742327690125 0.0
0.3600461483001709 0.640625 0.0
0.5 0.7623517513275146 0.0
0.65625 0.8510969281196594 0.0
0.765625 0.7924712896347046 0.0
0.596275269985199 0.734375 0.0
0.46784642338752747 0.625 0.0
0.340860515832901 0.5 0.0
0.2900125980377197 0.34375 0.0
0.4375 0.43903079628944397 0.0
0.625 0.5076563358306885 0.0
0.828125 0.4845511019229889 0.0
0.7514487504959106 0.328125 0.0
0.59375 0.24445109069347382 0.0
0.40625 0.17314910888671875 0.0
0.375 0.23405307531356812 0.0
0.5423538088798523 0.28125 0.0
0.7016515135765076 0.375 0.0
0.671875 0.4471263289451599 0.0
0.484375 0.38028112053871155 0.0
0.34626588225364685 0.265625 0.0
4 14 19 18 15 255 0 0
4 11 21 20 12 255 0 0
4 10 22 21 11 255 0 0
14 16 17 22 10 9 8 7 6 5 4 3 2 1 0 255 0 0
5 12 20 19 14 13 255 0 0
4 15 18 17 16 255 0 0
4 37 38 41 42 0 0 255
4 34 35 43 44 0 0 255
4 33 34 44 45 0 0 255
14 39 23 24 25 26 27 28 29 30 31 32 33 45 40 0 0 255
5 35 36 37 42 43 0 0 255
4 38 39 40 41 0 0 255
4 0 1 24 23 128 0 128
4 1 2 25 24 0 255 0
4 2 3 26 25 0 255 0
4 3 4 27 26 0 255 0
4 4 5 28 27 0 255 0
4 5 6 29 28 0 255 0
4 6 7 30 29 0 255 0
4 7 8 31 30 0 255 0
4 8 9 32 31 0 255 0
4 9 10 33 32 0 255 0
4 10 11 34 33 0 255 0
4 11 12 35 34 0 255 0
4 12 13 36 35 0 255 0
4 13 14 37 36 0 255 0
4 14 15 38 37 0 255 0
4 15 16 39 38 0 255 0
4 16 0 23 39 128 0 128
4 17 18 41 40 0 255 0
4 18 19 42 41 0 255 0
4 19 20 43 42 0 255 0
4 20 21 44 43 0 255 0
4 21 22 45 44 0 255 0
4 22 17 40 45 0 255 0
