ply
format ascii 1.0
element vertex 32
property float x
property float y
property float z
element face 22
property list uchar int vertex_index
property uchar red
property uchar green
property uchar blue
end_header
0.38236406445503235 0.140625 1.0
0.30770444869995117 0.3125 1.0
0.453125 0.41855189204216003 1.0
0.5420011281967163 0.546875 1.0
0.46875 0.7317417860031128 1.0
0.3125 0.7019475102424622 1.0
0.3691776692867279 0.8125 1.0
0.554368257522583 0.796875 1.0
0.6164143085479736 0.609375 1.0
0.640625 0.3900200426578522 1.0
0.7695953845977783 0.390625 1.0
0.671875 0.31004798412323 1.0
0.515625 0.21818850934505463 1.0
0.421875 0.2489841878414154 1.0
0.4904852509498596 0.296875 1.0
0.40625 0.25645580887794495 1.0
0.38236406445503235 0.140625 0.0
0.30770444869995117 0.3125 0.0
0.453125 0.41855189204216003 0.0
0.5420011281967163 0.546875 0.0
0.46875 0.7317417860031128 0.0
0.3125 0.7019475102424622 0.0
0.3691776692867279 0.8125 0.0
0.554368257522583 0.796875 0.0
0.6164143085479736 0.609375 0.0
0.640625 0.3900200426578522 0.0
0.7695953845977783 0.390625 0.0
0.671875 0.31004798412323 0.0
0.515625 0.21818850934505463 0.0
0.421875 0.2489841878414154 0.0
0.4904852509498596 0.296875 0.0
0.40625 0.25645580887794495 0.0
5 12 13 15 1 0 255 0 0
3 12 14 13 255 0 0
14 1 15 14 12 11 10 9 8 7 6 5 4 3 2 255 0 0
5 28 16 17 31 29 0 0 255
3 28 29 30 0 0 255
14 17 18 19 20 21 22 23 24 25 26 27 28 30 31 0 0 255
4 0 1 17 16 128 0 128
4 1 2 18 17 0 255 0
4 2 3 19 18 0 255 0
4 3 4 20 19 0 255 0
4 4 5 21 20 0 255 0
4 5 6 22 21 0 255 0
4 6 7 23 22 0 255 0
4 7 8 24 23 0 255 0
4 8 9 25 24 0 255 0
4 9 10 26 25 0 255 0
4 10 11 27 26 0 255 0
4 11 12 28 27 0 255 0
4 12 0 16 28 128 0 128
4 13 14 30 29 0 255 0
4 14 15 31 30 0 255 0
4 15 13 29 31 0 255 0
