ply
format ascii 1.0
element vertex 42
property float x
property float y
property float z
element face 39
property list uchar int vertex_index
property uchar red
property uchar green
property uchar blue
end_header
0.296875 0.10356536507606506 1.0
0.296875 0.2802148759365082 1.0
0.40382203459739685 0.421875 1.0
0.34375 0.5284373760223389 1.0
0.34402722120285034 0.6875 1.0
0.48972630500793457 0.796875 1.0
0.6875 0.7535684108734131 1.0
0.640625 0.563399612903595 1.0
0.640625 0.4311855435371399 1.0
0.621207594871521 0.25 1.0
0.484375 0.12603002786636353 1.0
0.3962517976760864 0.140625 1.0
0.46562460064888 0.171875 1.0
0.578125 0.3033914566040039 1.0
0.49751895666122437 0.4375 1.0
0.37299180030822754 0.3125 1.0
0.359375 0.14280548691749573 1.0
0.515625 0.5442884564399719 1.0
0.5987497568130493 0.609375 1.0
0.5082055330276489 0.734375 1.0
0.375 0.6365376710891724 1.0
0.296875 0.10356536507606506 0.0
0.296875 0.2802148759365082 0.0
0.40382203459739685 0.421875 0.0
0.34375 0.5284373760223389 0.0
0.34402722120285034 0.6875 0.0
0.48972630500793457 0.796875 0.0
0.6875 0.7535684108734131 0.0
0.640625 0.563399612903595 0.0
0.640625 0.4311855435371399 0.0
0.621207594871521 0.25 0.0
0.484375 0.12603002786636353 0.0
0.3962517976760864 0.140625 0.0
0.46562460064888 0.171875 0.0
0.578125 0.3033914566040039 0.0
0.49751895666122437 0.4375 0.0
0.37299180030822754 0.3125 0.0
0.359375 0.14280548691749573 0.0
0.515625 0.5442884564399719 0.0
0.5987497568130493 0.609375 0.0
0.5082055330276489 0.734375 0.0
0.375 0.6365376710891724 0.0
4 10 11 16 0 255 0 0
4 0 16 15 1 255 0 0
3 10 12 11 255 0 0
7 7 18 17 14 13 9 8 255 0 0
4 4 20 19 5 255 0 0
4 9 13 12 10 255 0 0
5 5 19 18 7 6 255 0 0
6 14 17 20 4 3 2 255 0 0
4 1 15 14 2 255 0 0
4 31 21 37 32 0 0 255
4 21 22 36 37 0 0 255
3 31 32 33 0 0 255
7 28 29 30 34 35 38 39 0 0 255
4 25 26 40 41 0 0 255
4 30 31 33 34 0 0 255
5 26 27 28 39 40 0 0 255
6 35 23 24 25 41 38 0 0 255
4 22 23 35 36 0 0 255
4 0 1 22 21 128 0 128
4 1 2 23 22 0 255 0
4 2 3 24 23 0 255 0
4 3 4 25 24 0 255 0
4 4 5 26 25 0 255 0
4 5 6 27 26 0 255 0
4 6 7 28 27 0 255 0
4 7 8 29 28 0 255 0
4 8 9 30 29 0 255 0
4 9 10 31 30 0 255 0
4 10 0 21 31 128 0 128
4 11 12 33 32 0 255 0
4 12 13 34 33 0 255 0
4 13 14 35 34 0 255 0
4 14 15 36 35 0 255 0
4 15 16 37 36 0 255 0
4 16 11 32 37 0 255 0
4 17 18 39 38 0 255 0
4 18 19 40 39 0 255 0
4 19 20 41 40 0 255 0
4 20 17 38 41 0 255 0
