ply
format ascii 1.0
element vertex 38
property float x
property float y
property float z
element face 27
property list uchar int vertex_index
property uchar red
property uchar green
property uchar blue
end_header
0.4746226370334625 0.203125 1.0
0.28125 0.2605212330818176 1.0
0.2296006679534912 0.453125 1.0
0.28721630573272705 0.640625 1.0
0.390625 0.7951716780662537 1.0
0.515625 0.9104509949684143 1.0
0.49149876832962036 0.765625 1.0
0.390625 0.6169870495796204 1.0
0.34050947427749634 0.421875 1.0
0.4375 0.3421815037727356 1.0
0.53125 0.4897747039794922 1.0
0.6729481816291809 0.59375 1.0
0.8047144412994385 0.515625 1.0
0.75 0.3151196539402008 1.0
0.6028631329536438 0.21875 1.0
0.5625 0.3179132640361786 1.0
0.611505925655365 0.328125 1.0
0.7210167646408081 0.46875 1.0
0.578125 0.4138696491718292 1.0
0.4746226370334625 0.203125 0.0
0.28125 0.2605212330818176 0.0
0.2296006679534912 0.453125 0.0
0.28721630573272705 0.640625 0.0
0.390625 0.7951716780662537 0.0
0.515625 0.9104509949684143 0.0
0.49149876832962036 0.765625 0.0
0.390625 0.6169870495796204 0.0
0.34050947427749634 0.421875 0.0
0.4375 0.3421815037727356 0.0
0.53125 0.4897747039794922 0.0
0.6729481816291809 0.59375 0.0
0.8047144412994385 0.515625 0.0
0.75 0.3151196539402008 0.0
0.6028631329536438 0.21875 0.0
0.5625 0.3179132640361786 0.0
0.611505925655365 0.328125 0.0
0.7210167646408081 0.46875 0.0
0.578125 0.4138696491718292 0.0
5 10 18 17 12 11 255 0 0
14 14 15 18 10 9 8 7 6 5 4 3 2 1 0 255 0 0
5 12 17 16 14 13 255 0 0
3 14 16 15 255 0 0
5 29 30 31 36 37 0 0 255
14 33 19 20 21 22 23 24 25 26 27 28 29 37 34 0 0 255
5 31 32 33 35 36 0 0 255
3 33 34 35 0 0 255
4 0 1 20 19 128 0 128
4 1 2 21 20 0 255 0
4 2 3 22 21 0 255 0
4 3 4 23 22 0 255 0
4 4 5 24 23 0 255 0
4 5 6 25 24 0 255 0
4 6 7 26 25 0 255 0
4 7 8 27 26 0 255 0
4 8 9 28 27 0 255 0
4 9 10 29 28 0 255 0
4 10 11 30 29 0 255 0
4 11 12 31 30 0 255 0
4 12 13 32 31 0 255 0
4 13 14 33 32 0 255 0
4 14 0 19 33 128 0 128
4 15 16 35 34 0 255 0
4 16 17 36 35 0 255 0
4 17 18 37 36 0 255 0
4 18 15 34 37 0 255 0
