ply
format ascii 1.0
element vertex 36
property float x
property float y
property float z
element face 20
property list uchar int vertex_index
property uchar red
property uchar green
property uchar blue
end_header
0.28125 0.10373827815055847 1.0
0.5 0.1310785412788391 1.0
0.640625 0.2344302386045456 1.0
0.6892693638801575 0.4375 1.0
0.6225254535675049 0.578125 1.0
0.640625 0.7634874582290649 1.0
0.4375 0.8059805035591125 1.0
0.25 0.744223415851593 1.0
0.27522388100624084 0.703125 1.0
0.46875 0.7613300085067749 1.0
0.59375 0.6490834951400757 1.0
0.453125 0.5395660400390625 1.0
0.4375 0.47726306319236755 1.0
0.6246311068534851 0.4375 1.0
0.578125 0.25421202182769775 1.0
0.421875 0.1588030308485031 1.0
0.27122196555137634 0.265625 1.0
0.2150997817516327 0.15625 1.0
0.28125 0.10373827815055847 0.0
0.5 0.1310785412788391 0.0
0.640625 0.2344302386045456 0.0
0.6892693638801575 0.4375 0.0
0.6225254535675049 0.578125 0.0
0.640625 0.7634874582290649 0.0
0.4375 0.8059805035591125 0.0
0.25 0.744223415851593 0.0
0.27522388100624084 0.703125 0.0
0.46875 0.7613300085067749 0.0
0.59375 0.6490834951400757 0.0
0.453125 0.5395660400390625 0.0
0.4375 0.47726306319236755 0.0
0.6246311068534851 0.4375 0.0
0.578125 0.25421202182769775 0.0
0.421875 0.1588030308485031 0.0
0.27122196555137634 0.265625 0.0
0.2150997817516327 0.15625 0.0
18 0 1 2 3 4 5 6 7 8 9 10 11 12 13 14 15 16 17 255 0 0
18 18 35 34 33 32 31 30 29 28 27 26 25 24 23 22 21 20 19 0 0 255
4 1 0 18 19 128 0 128
4 2 1 19 20 0 255 0
4 3 2 20 21 0 255 0
4 4 3 21 22 0 255 0
4 5 4 22 23 0 255 0
4 6 5 23 24 0 255 0
4 7 6 24 25 0 255 0
4 8 7 25 26 0 255 0
4 9 8 26 27 0 255 0
4 10 9 27 28 0 255 0
4 11 10 28 29 0 255 0
4 12 11 29 30 0 255 0
4 13 12 30 31 0 255 0
4 14 13 31 32 0 255 0
4 15 14 32 33 0 255 0
4 16 15 33 34 0 255 0
4 17 16 34 35 0 255 0
4 0 17 35 18 128 0 128
