ply
format ascii 1.0
element vertex 40
property float x
property float y
property float z
element face 38
property list uchar int vertex_index
property uchar red
property uchar green
property uchar blue
end_header
0.28889036178588867 0.09375 1.0
0.18205250799655914 0.234375 1.0
0.233500137925148 0.4375 1.0
0.3181600868701935 0.59375 1.0
0.4417603015899658 0.71875 1.0
0.609375 0.7969195246696472 1.0
0.7748578786849976 0.71875 1.0
0.7537515759468079 0.515625 1.0
0.7078850865364075 0.34375 1.0
0.5827845335006714 0.21875 1.0
0.4248697757720947 0.125 1.0
0.265625 0.2011539340019226 1.0
0.29602646827697754 0.203125 1.0
0.45883265137672424 0.25 1.0
0.59375 0.36931541562080383 1.0
0.6611322164535522 0.546875 1.0
0.578125 0.6464473605155945 1.0
0.4375 0.5367492437362671 1.0
0.3180556893348694 0.40625 1.0
0.2484976053237915 0.234375 1.0
0.28889036178588867 0.09375 0.0
0.18205250799655914 0.234375 0.0
0.233500137925148 0.4375 0.0
0.3181600868701935 0.59375 0.0
0.4417603015899658 0.71875 0.0
0.609375 0.7969195246696472 0.0
0.7748578786849976 0.71875 0.0
0.7537515759468079 0.515625 0.0
0.7078850865364075 0.34375 0.0
0.5827845335006714 0.21875 0.0
0.4248697757720947 0.125 0.0
0.265625 0.2011539340019226 0.0
0.29602646827697754 0.203125 0.0
0.45883265137672424 0.25 0.0
0.59375 0.36931541562080383 0.0
0.6611322164535522 0.546875 0.0
0.578125 0.6464473605155945 0.0
0.4375 0.5367492437362671 0.0
0.3180556893348694 0.40625 0.0
0.2484976053237915 0.234375 0.0
4 7 15 14 8 255 0 0
3 1 11 19 255 0 0
4 8 14 13 9 255 0 0
4 1 19 18 2 255 0 0
4 0 12 11 1 255 0 0
5 3 17 16 5 4 255 0 0
5 9 13 12 0 10 255 0 0
5 5 16 15 7 6 255 0 0
4 2 18 17 3 255 0 0
4 27 28 34 35 0 0 255
3 21 39 31 0 0 255
4 28 29 33 34 0 0 255
4 21 22 38 39 0 0 255
4 20 21 31 32 0 0 255
5 23 24 25 36 37 0 0 255
5 29 30 20 32 33 0 0 255
5 25 26 27 35 36 0 0 255
4 22 23 37 38 0 0 255
4 0 1 21 20 128 0 128
4 1 2 22 21 0 255 0
4 2 3 23 22 0 255 0
4 3 4 24 23 0 255 0
4 4 5 25 24 0 255 0
4 5 6 26 25 0 255 0
4 6 7 27 26 0 255 0
4 7 8 28 27 0 255 0
4 8 9 29 28 0 255 0
4 9 10 30 29 0 255 0
4 10 0 20 30 128 0 128
4 11 12 32 31 0 255 0
4 12 13 33 32 0 255 0
4 13 14 34 33 0 255 0
4 14 15 35 34 0 255 0
4 15 16 36 35 0 255 0
4 16 17 37 36 0 255 0
4 17 18 38 37 0 255 0
4 18 19 39 38 0 255 0
4 19 11 31 39 0 255 0
