ply
format ascii 1.0
element vertex 42
property float x
property float y
property float z
element face 41
property list uchar int vertex_index
property uchar red
property uchar green
property uchar blue
end_header
0.4391830265522003 0.125 1.0
0.3089819848537445 0.234375 1.0
0.2340690791606903 0.40625 1.0
0.2317361980676651 0.59375 1.0
0.34375 0.7275152206420898 1.0
0.484375 0.8309503793716431 1.0
0.65625 0.7589149475097656 1.0
0.75 0.6035383939743042 1.0
0.8336081504821777 0.4375 1.0
0.78125 0.23488777875900269 1.0
0.640625 0.12674030661582947 1.0
0.46875 0.16486838459968567 1.0
0.578125 0.17544183135032654 1.0
0.703125 0.2739516794681549 1.0
0.7695493698120117 0.453125 1.0
0.6759366393089294 0.609375 1.0
0.5870980620384216 0.671875 1.0
0.49525830149650574 0.75 1.0
0.359375 0.634159505367279 1.0
0.2988550364971161 0.46875 1.0
0.34375 0.28769850730895996 1.0
0.4391830265522003 0.125 0.0
0.3089819848537445 0.234375 0.0
0.2340690791606903 0.40625 0.0
0.2317361980676651 0.59375 0.0
0.34375 0.7275152206420898 0.0
0.484375 0.8309503793716431 0.0
0.65625 0.7589149475097656 0.0
0.75 0.6035383939743042 0.0
0.8336081504821777 0.4375 0.0
0.78125 0.23488777875900269 0.0
0.640625 0.12674030661582947 0.0
0.46875 0.16486838459968567 0.0
0.578125 0.17544183135032654 0.0
0.703125 0.2739516794681549 0.0
0.7695493698120117 0.453125 0.0
0.6759366393089294 0.609375 0.0
0.5870980620384216 0.671875 0.0
0.49525830149650574 0.75 0.0
0.359375 0.634159505367279 0.0
0.2988550364971161 0.46875 0.0
0.34375 0.28769850730895996 0.0
4 7 15 14 8 255 0 0
4 4 18 17 5 255 0 0
4 8 14 13 9 255 0 0
4 0 11 20 1 255 0 0
4 10 12 11 0 255 0 0
4 6 16 15 7 255 0 0
4 9 13 12 10 255 0 0
4 5 17 16 6 255 0 0
5 2 19 18 4 3 255 0 0
4 1 20 19 2 255 0 0
4 28 29 35 36 0 0 255
4 25 26 38 39 0 0 255
4 29 30 34 35 0 0 255
4 21 22 41 32 0 0 255
4 31 21 32 33 0 0 255
4 27 28 36 37 0 0 255
4 30 31 33 34 0 0 255
4 26 27 37 38 0 0 255
5 23 24 25 39 40 0 0 255
4 22 23 40 41 0 0 255
4 0 1 22 21 128 0 128
4 1 2 23 22 0 255 0
4 2 3 24 23 0 255 0
4 3 4 25 24 0 255 0
4 4 5 26 25 0 255 0
4 5 6 27 26 0 255 0
4 6 7 28 27 0 255 0
4 7 8 29 28 0 255 0
4 8 9 30 29 0 255 0
4 9 10 31 30 0 255 0
4 10 0 21 31 128 0 128
4 11 12 33 32 0 255 0
4 12 13 34 33 0 255 0
4 13 14 35 34 0 255 0
4 14 15 36 35 0 255 0
4 15 16 37 36 0 255 0
4 16 17 38 37 0 255 0
4 17 18 39 38 0 255 0
4 18 19 40 39 0 255 0
4 19 20 41 40 0 255 0
4 20 11 32 41 0 255 0
