ply
format ascii 1.0
element vertex 38
property float x
property float y
property float z
element face 33
property list uchar int vertex_index
property uchar red
property uchar green
property uchar blue
end_header
0.3060606122016907 0.09375 1.0
0.171875 0.2089979648590088 1.0
0.15201306343078613 0.40625 1.0
0.25 0.5586152672767639 1.0
0.3867502212524414 0.671875 1.0
0.53125 0.779191255569458 1.0
0.7415661811828613 0.796875 1.0
0.7942222952842712 0.625 1.0
0.7522190809249878 0.4375 1.0
0.671875 0.27107515931129456 1.0
0.53125 0.16013500094413757 1.0
0.359375 0.08940083533525467 1.0
0.328125 0.23124560713768005 1.0
0.453125 0.26367026567459106 1.0
0.578125 0.35436171293258667 1.0
0.6507135629653931 0.53125 1.0
0.5186232924461365 0.609375 1.0
0.3805452585220337 0.5 1.0
0.29509246349334717 0.34375 1.0
0.3060606122016907 0.09375 0.0
0.171875 0.2089979648590088 0.0
0.15201306343078613 0.40625 0.0
0.25 0.5586152672767639 0.0
0.3867502212524414 0.671875 0.0
0.53125 0.779191255569458 0.0
0.7415661811828613 0.796875 0.0
0.7942222952842712 0.625 0.0
0.7522190809249878 0.4375 0.0
0.671875 0.27107515931129456 0.0
0.53125 0.16013500094413757 0.0
0.359375 0.08940083533525467 0.0
0.328125 0.23124560713768005 0.0
0.453125 0.26367026567459106 0.0
0.578125 0.35436171293258667 0.0
0.6507135629653931 0.53125 0.0
0.5186232924461365 0.609375 0.0
0.3805452585220337 0.5 0.0
0.29509246349334717 0.34375 0.0
4 2 18 17 3 255 0 0
5 0 12 18 2 1 255 0 0
5 10 13 12 0 11 255 0 0
4 3 17 16 4 255 0 0
4 9 14 13 10 255 0 0
4 8 15 14 9 255 0 0
7 4 16 15 8 7 6 5 255 0 0
4 21 22 36 37 0 0 255
5 19 20 21 37 31 0 0 255
5 29 30 19 31 32 0 0 255
4 22 23 35 36 0 0 255
4 28 29 32 33 0 0 255
4 27 28 33 34 0 0 255
7 23 24 25 26 27 34 35 0 0 255
4 0 1 20 19 0 255 0
4 1 2 21 20 0 255 0
4 2 3 22 21 0 255 0
4 3 4 23 22 0 255 0
4 4 5 24 23 0 255 0
4 5 6 25 24 0 255 0
4 6 7 26 25 0 255 0
4 7 8 27 26 0 255 0
4 8 9 28 27 0 255 0
4 9 10 29 28 0 255 0
4 10 11 30 29 128 0 128
4 11 0 19 30 128 0 128
4 12 13 32 31 0 255 0
4 13 14 33 32 0 255 0
4 14 15 34 33 0 255 0
4 15 16 35 34 0 255 0
4 16 17 36 35 0 255 0
4 17 18 37 36 0 255 0
4 18 12 31 37 0 255 0
