ply
format ascii 1.0
element vertex 26
property float x
property float y
property float z
element face 19
property list uchar int vertex_index
property uchar red
property uchar green
property uchar blue
end_header
0.6175488233566284 0.109375 1.0
0.578125 0.3229198157787323 1.0
0.37915387749671936 0.359375 1.0
0.22903726994991302 0.4375 1.0
0.36154064536094666 0.546875 1.0
0.484375 0.6768948435783386 1.0
0.609375 0.8024189472198486 1.0
0.6253802180290222 0.609375 1.0
0.6674165725708008 0.421875 1.0
0.6845110058784485 0.1875 1.0
0.4375 0.45243534445762634 1.0
0.5 0.4402780830860138 1.0
0.49210530519485474 0.53125 1.0
0.6175488233566284 0.109375 0.0
0.578125 0.3229198157787323 0.0
0.37915387749671936 0.359375 0.0
0.22903726994991302 0.4375 0.0
0.36154064536094666 0.546875 0.0
0.484375 0.6768948435783386 0.0
0.609375 0.8024189472198486 0.0
0.6253802180290222 0.609375 0.0
0.6674165725708008 0.421875 0.0
0.6845110058784485 0.1875 0.0
0.4375 0.45243534445762634 0.0
0.5 0.4402780830860138 0.0
0.49210530519485474 0.53125 0.0
5 2 10 12 4 3 255 0 0
4 1 11 10 2 255 0 0
10 4 12 11 1 0 9 8 7 6 5 255 0 0
5 15 16 17 25 23 0 0 255
4 14 15 23 24 0 0 255
10 17 18 19 20 21 22 13 14 24 25 0 0 255
4 0 1 14 13 128 0 128
4 1 2 15 14 0 255 0
4 2 3 16 15 0 255 0
4 3 4 17 16 0 255 0
4 4 5 18 17 0 255 0
4 5 6 19 18 0 255 0
4 6 7 20 19 0 255 0
4 7 8 21 20 0 255 0
4 8 9 22 21 0 255 0
4 9 0 13 22 128 0 128
4 10 11 24 23 0 255 0
4 11 12 25 24 0 255 0
4 12 10 23 25 0 255 0
