ply
format ascii 1.0
element vertex 50
property float x
property float y
property float z
element face 47
property list uchar int vertex_index
property uchar red
property uchar green
property uchar blue
end_header
0.40625 0.09490916877985 1.0
0.26306861639022827 0.203125 1.0
0.30474188923835754 0.40625 1.0
0.265625 0.5533027648925781 1.0
0.3125 0.7499290108680725 1.0
0.4735320508480072 0.78125 1.0
0.6696295738220215 0.75 1.0
0.7096821069717407 0.578125 1.0
0.8266124725341797 0.4375 1.0
0.7686042785644531 0.234375 1.0
0.6197738647460938 0.140625 1.0
0.421875 0.09261122345924377 1.0
0.40625 0.15388861298561096 1.0
0.5625 0.17789386212825775 1.0
0.7236403822898865 0.265625 1.0
0.765625 0.4586767256259918 1.0
0.6202735900878906 0.546875 1.0
0.453125 0.46126991510391235 1.0
0.33489498496055603 0.328125 1.0
0.38804665207862854 0.15625 1.0
0.390625 0.525079071521759 1.0
0.515625 0.5374176502227783 1.0
0.6324179172515869 0.671875 1.0
0.495720237493515 0.734375 1.0
0.34602493047714233 0.6875 1.0
0.40625 0.09490916877985 0.0
0.26306861639022827 0.203125 0.0
0.30474188923835754 0.40625 0.0
0.265625 0.5533027648925781 0.0
0.3125 0.7499290108680725 0.0
0.4735320508480072 0.78125 0.0
0.6696295738220215 0.75 0.0
0.7096821069717407 0.578125 0.0
0.8266124725341797 0.4375 0.0
0.7686042785644531 0.234375 0.0
0.6197738647460938 0.140625 0.0
0.421875 0.09261122345924377 0.0
0.40625 0.15388861298561096 0.0
0.5625 0.17789386212825775 0.0
0.7236403822898865 0.265625 0.0
0.765625 0.4586767256259918 0.0
0.6202735900878906 0.546875 0.0
0.453125 0.46126991510391235 0.0
0.33489498496055603 0.328125 0.0
0.38804665207862854 0.15625 0.0
0.390625 0.525079071521759 0.0
0.515625 0.5374176502227783 0.0
0.6324179172515869 0.671875 0.0
0.495720237493515 0.734375 0.0
0.34602493047714233 0.6875 0.0
7 17 20 24 4 3 2 18 255 0 0
4 7 16 15 8 255 0 0
4 4 24 23 5 255 0 0
3 0 12 19 255 0 0
5 10 13 12 0 11 255 0 0
6 6 22 21 17 16 7 255 0 0
4 5 23 22 6 255 0 0
5 0 19 18 2 1 255 0 0
3 20 17 21 255 0 0
4 9 14 13 10 255 0 0
4 8 15 14 9 255 0 0
7 42 43 27 28 29 49 45 0 0 255
4 32 33 40 41 0 0 255
4 29 30 48 49 0 0 255
3 25 44 37 0 0 255
5 35 36 25 37 38 0 0 255
6 31 32 41 42 46 47 0 0 255
4 30 31 47 48 0 0 255
5 25 26 27 43 44 0 0 255
3 45 46 42 0 0 255
4 34 35 38 39 0 0 255
4 33 34 39 40 0 0 255
4 0 1 26 25 0 255 0
4 1 2 27 26 0 255 0
4 2 3 28 27 0 255 0
4 3 4 29 28 0 255 0
4 4 5 30 29 0 255 0
4 5 6 31 30 0 255 0
4 6 7 32 31 0 255 0
4 7 8 33 32 0 255 0
4 8 9 34 33 0 255 0
4 9 10 35 34 0 255 0
4 10 11 36 35 128 0 128
4 11 0 25 36 128 0 128
4 12 13 38 37 0 255 0
4 13 14 39 38 0 255 0
4 14 15 40 39 0 255 0
4 15 16 41 40 0 255 0
4 16 17 42 41 0 255 0
4 17 18 43 42 0 255 0
4 18 19 44 43 0 255 0
4 19 12 37 44 0 255 0
4 20 21 46 45 0 255 0
4 21 22 47 46 0 255 0
4 22 23 48 47 0 255 0
4 23 24 49 48 0 255 0
4 24 20 45 49 0 255 0
