ply
format ascii 1.0
element vertex 44
property float x
property float y
property float z
element face 22
property list uchar int vertex_index
property uchar red
property uchar green
property uchar blue
end_header
0.1630442887544632 0.171875 1.0
0.2772134244441986 0.3125 1.0
0.4554142951965332 0.375 1.0
0.5570346713066101 0.53125 1.0
0.634181559085846 0.703125 1.0
0.5663608312606812 0.78125 1.0
0.4375 0.6638167500495911 1.0
0.375 0.5333243608474731 1.0
0.390625 0.6925327181816101 1.0
0.515625 0.8253551721572876 1.0
0.6836514472961426 0.828125 1.0
0.671875 0.6423262357711792 1.0
0.59375 0.48060163855552673 1.0
0.578125 0.3514387607574463 1.0
0.7879643440246582 0.34375 1.0
0.59375 0.2959252595901489 1.0
0.4009096920490265 0.234375 1.0
0.21875 0.16119232773780823 1.0
0.1630442887544632 0.171875 1.0
0.25 0.2130143791437149 1.0
0.28125 0.2619134485721588 1.0
0.25 0.2130143791437149 1.0
0.1630442887544632 0.171875 0.0
0.2772134244441986 0.3125 0.0
0.4554142951965332 0.375 0.0
0.5570346713066101 0.53125 0.0
0.634181559085846 0.703125 0.0
0.5663608312606812 0.78125 0.0
0.4375 0.6638167500495911 0.0
0.375 0.5333243608474731 0.0
0.390625 0.6925327181816101 0.0
0.515625 0.8253551721572876 0.0
0.6836514472961426 0.828125 0.0
0.671875 0.6423262357711792 0.0
0.59375 0.48060163855552673 0.0
0.578125 0.3514387607574463 0.0
0.7879643440246582 0.34375 0.0
0.59375 0.2959252595901489 0.0
0.4009096920490265 0.234375 0.0
0.21875 0.16119232773780823 0.0
0.1630442887544632 0.171875 0.0
0.25 0.2130143791437149 0.0
0.28125 0.2619134485721588 0.0
0.25 0.2130143791437149 0.0
19 1 20 19 17 16 15 14 13 12 11 10 9 8 7 6 5 4 3 2 255 0 0
19 23 24 25 26 27 28 29 30 31 32 33 34 35 36 37 38 39 41 42 0 0 255
4 0 1 23 22 0 255 0
4 1 2 24 23 0 255 0
4 2 3 25 24 0 255 0
4 3 4 26 25 0 255 0
4 4 5 27 26 0 255 0
4 5 6 28 27 0 255 0
4 6 7 29 28 0 255 0
4 7 8 30 29 0 255 0
4 8 9 31 30 0 255 0
4 9 10 32 31 0 255 0
4 10 11 33 32 0 255 0
4 11 12 34 33 0 255 0
4 12 13 35 34 0 255 0
4 13 14 36 35 0 255 0
4 14 15 37 36 0 255 0
4 15 16 38 37 0 255 0
4 16 17 39 38 128 0 128
4 17 18 40 39 128 0 128
4 19 20 42 41 0 255 0
4 20 21 43 42 0 255 0
