ply
format ascii 1.0
element vertex 38
property float x
property float y
property float z
element face 31
property list uchar int vertex_index
property uchar red
property uchar green
property uchar blue
end_header
0.234375 0.10289985686540604 1.0
0.22813621163368225 0.28125 1.0
0.3337341248989105 0.421875 1.0
0.41378137469291687 0.59375 1.0
0.515625 0.7359601855278015 1.0
0.703125 0.8028770685195923 1.0
0.78125 0.6629378795623779 1.0
0.75 0.5577302575111389 1.0
0.5777562260627747 0.484375 1.0
0.515625 0.3494892716407776 1.0
0.43842676281929016 0.171875 1.0
0.28125 0.08977659046649933 1.0
0.328125 0.19767864048480988 1.0
0.40708237886428833 0.265625 1.0
0.3343340754508972 0.296875 1.0
0.5 0.548132598400116 1.0
0.5857692360877991 0.578125 1.0
0.6523938775062561 0.703125 1.0
0.5032469630241394 0.609375 1.0
0.234375 0.10289985686540604 0.0
0.22813621163368225 0.28125 0.0
0.3337341248989105 0.421875 0.0
0.41378137469291687 0.59375 0.0
0.515625 0.7359601855278015 0.0
0.703125 0.8028770685195923 0.0
0.78125 0.6629378795623779 0.0
0.75 0.5577302575111389 0.0
0.5777562260627747 0.484375 0.0
0.515625 0.3494892716407776 0.0
0.43842676281929016 0.171875 0.0
0.28125 0.08977659046649933 0.0
0.328125 0.19767864048480988 0.0
0.40708237886428833 0.265625 0.0
0.3343340754508972 0.296875 0.0
0.5 0.548132598400116 0.0
0.5857692360877991 0.578125 0.0
0.6523938775062561 0.703125 0.0
0.5032469630241394 0.609375 0.0
6 10 12 14 1 0 11 255 0 0
10 1 14 13 10 9 8 16 15 3 2 255 0 0
3 3 15 18 255 0 0
3 10 13 12 255 0 0
5 3 18 17 5 4 255 0 0
6 5 17 16 8 7 6 255 0 0
6 29 30 19 20 33 31 0 0 255
10 20 21 22 34 35 27 28 29 32 33 0 0 255
3 22 37 34 0 0 255
3 29 31 32 0 0 255
5 22 23 24 36 37 0 0 255
6 24 25 26 27 35 36 0 0 255
4 0 1 20 19 0 255 0
4 1 2 21 20 0 255 0
4 2 3 22 21 0 255 0
4 3 4 23 22 0 255 0
4 4 5 24 23 0 255 0
4 5 6 25 24 0 255 0
4 6 7 26 25 0 255 0
4 7 8 27 26 0 255 0
4 8 9 28 27 0 255 0
4 9 10 29 28 0 255 0
4 10 11 30 29 128 0 128
4 11 0 19 30 128 0 128
4 12 13 32 31 0 255 0
4 13 14 33 32 0 255 0
4 14 12 31 33 0 255 0
4 15 16 35 34 0 255 0
4 16 17 36 35 0 255 0
4 17 18 37 36 0 255 0
4 18 15 34 37 0 255 0
