ply
format ascii 1.0
element vertex 36
property float x
property float y
property float z
element face 20
property list uchar int vertex_index
property uchar red
property uchar green
property uchar blue
end_header
0.23543691635131836 0.203125 1.0
0.2399735301733017 0.359375 1.0
0.40625 0.45239514112472534 1.0
0.578125 0.4568288326263428 1.0
0.5625 0.5914587378501892 1.0
0.34375 0.5524600744247437 1.0
0.38945093750953674 0.6875 1.0
0.578125 0.707810640335083 1.0
0.703125 0.6105779409408569 1.0
0.6783682107925415 0.4375 1.0
0.65625 0.3087506592273712 1.0
0.5016640424728394 0.265625 1.0
0.328125 0.19479681551456451 1.0
0.23543691635131836 0.203125 1.0
0.3125 0.26389816403388977 1.0
0.484375 0.3317503333091736 1.0
0.34375 0.36722928285598755 1.0
0.3125 0.26389816403388977 1.0
0.23543691635131836 0.203125 0.0
0.2399735301733017 0.359375 0.0
0.40625 0.45239514112472534 0.0
0.578125 0.4568288326263428 0.0
0.5625 0.5914587378501892 0.0
0.34375 0.5524600744247437 0.0
0.38945093750953674 0.6875 0.0
0.578125 0.707810640335083 0.0
0.703125 0.6105779409408569 0.0
0.6783682107925415 0.4375 0.0
0.65625 0.3087506592273712 0.0
0.5016640424728394 0.265625 0.0
0.328125 0.19479681551456451 0.0
0.23543691635131836 0.203125 0.0
0.3125 0.26389816403388977 0.0
0.484375 0.3317503333091736 0.0
0.34375 0.36722928285598755 0.0
0.3125 0.26389816403388977 0.0
4 15 11 12 14 255 0 0
13 16 1 2 3 4 5 6 7 8 9 10 11 15 255 0 0
4 33 32 30 29 0 0 255
13 34 33 29 28 27 26 25 24 23 22 21 20 19 0 0 255
4 1 0 18 19 0 255 0
4 2 1 19 20 0 255 0
4 3 2 20 21 0 255 0
4 4 3 21 22 0 255 0
4 5 4 22 23 0 255 0
4 6 5 23 24 0 255 0
4 7 6 24 25 0 255 0
4 8 7 25 26 0 255 0
4 9 8 26 27 0 255 0
4 10 9 27 28 0 255 0
4 11 10 28 29 0 255 0
4 12 11 29 30 128 0 128
4 13 12 30 31 128 0 128
4 15 14 32 33 0 255 0
4 16 15 33 34 0 255 0
4 17 16 34 35 0 255 0
