ply
format ascii 1.0
element vertex 42
property float x
property float y
property float z
element face 37
property list uchar int vertex_index
property uchar red
property uchar green
property uchar blue
end_header
0.34375 0.09584590047597885 1.0
0.2803322374820709 0.28125 1.0
0.375 0.4270331859588623 1.0
0.34375 0.5766862630844116 1.0
0.390625 0.7528745532035828 1.0
0.59375 0.8008080720901489 1.0
0.765625 0.7395399212837219 1.0
0.65625 0.5957139730453491 1.0
0.5689339637756348 0.46875 1.0
0.6490491032600403 0.296875 1.0
0.5577369332313538 0.140625 1.0
0.359375 0.0906311571598053 1.0
0.40625 0.16393548250198364 1.0
0.5342540740966797 0.21875 1.0
0.5 0.40605539083480835 1.0
0.375 0.27926695346832275 1.0
0.484375 0.5616564154624939 1.0
0.4860694408416748 0.5625 1.0
0.625 0.6722859740257263 1.0
0.484375 0.7043637037277222 1.0
0.453125 0.5626763105392456 1.0
0.34375 0.09584590047597885 0.0
0.2803322374820709 0.28125 0.0
0.375 0.4270331859588623 0.0
0.34375 0.5766862630844116 0.0
0.390625 0.7528745532035828 0.0
0.59375 0.8008080720901489 0.0
0.765625 0.7395399212837219 0.0
0.65625 0.5957139730453491 0.0
0.5689339637756348 0.46875 0.0
0.6490491032600403 0.296875 0.0
0.5577369332313538 0.140625 0.0
0.359375 0.0906311571598053 0.0
0.40625 0.16393548250198364 0.0
0.5342540740966797 0.21875 0.0
0.5 0.40605539083480835 0.0
0.375 0.27926695346832275 0.0
0.484375 0.5616564154624939 0.0
0.4860694408416748 0.5625 0.0
0.625 0.6722859740257263 0.0
0.484375 0.7043637037277222 0.0
0.453125 0.5626763105392456 0.0
3 8 17 16 255 0 0
5 8 14 13 10 9 255 0 0
4 7 18 17 8 255 0 0
4 10 13 12 11 255 0 0
4 3 20 19 4 255 0 0
6 4 19 18 7 6 5 255 0 0
5 11 12 15 1 0 255 0 0
8 8 16 20 3 2 1 15 14 255 0 0
3 29 37 38 0 0 255
5 29 30 31 34 35 0 0 255
4 28 29 38 39 0 0 255
4 31 32 33 34 0 0 255
4 24 25 40 41 0 0 255
6 25 26 27 28 39 40 0 0 255
5 32 21 22 36 33 0 0 255
8 29 35 36 22 23 24 41 37 0 0 255
4 0 1 22 21 0 255 0
4 1 2 23 22 0 255 0
4 2 3 24 23 0 255 0
4 3 4 25 24 0 255 0
4 4 5 26 25 0 255 0
4 5 6 27 26 0 255 0
4 6 7 28 27 0 255 0
4 7 8 29 28 0 255 0
4 8 9 30 29 0 255 0
4 9 10 31 30 0 255 0
4 10 11 32 31 128 0 128
4 11 0 21 32 128 0 128
4 12 13 34 33 0 255 0
4 13 14 35 34 0 255 0
4 14 15 36 35 0 255 0
4 15 12 33 36 0 255 0
4 16 17 38 37 0 255 0
4 17 18 39 38 0 255 0
4 18 19 40 39 0 255 0
4 19 20 41 40 0 255 0
4 20 16 37 41 0 255 0
