ply
format ascii 1.0
element vertex 44
property float x
property float y
property float z
element face 40
property list uchar int vertex_index
property uchar red
property uchar green
property uchar blue
end_header
0.328125 0.15062178671360016 1.0
0.28125 0.3006850481033325 1.0
0.39761635661125183 0.4375 1.0
0.453125 0.5531614422798157 1.0
0.296875 0.645680844783783 1.0
0.3302968144416809 0.8125 1.0
0.5625 0.8396760821342468 1.0
0.7154346108436584 0.734375 1.0
0.6875 0.5662944316864014 1.0
0.734375 0.4065417945384979 1.0
0.671875 0.2370021492242813 1.0
0.5 0.16763772070407867 1.0
0.46875 0.22330158948898315 1.0
0.5625 0.26485082507133484 1.0
0.63551926612854 0.40625 1.0
0.5012496113777161 0.421875 1.0
0.390625 0.2950022220611572 1.0
0.5625 0.5879120230674744 1.0
0.6334627270698547 0.640625 1.0
0.546875 0.7717828154563904 1.0
0.34375 0.7516787648200989 1.0
0.4667518436908722 0.640625 1.0
0.328125 0.15062178671360016 0.0
0.28125 0.3006850481033325 0.0
0.39761635661125183 0.4375 0.0
0.453125 0.5531614422798157 0.0
0.296875 0.645680844783783 0.0
0.3302968144416809 0.8125 0.0
0.5625 0.8396760821342468 0.0
0.7154346108436584 0.734375 0.0
0.6875 0.5662944316864014 0.0
0.734375 0.4065417945384979 0.0
0.671875 0.2370021492242813 0.0
0.5 0.16763772070407867 0.0
0.46875 0.22330158948898315 0.0
0.5625 0.26485082507133484 0.0
0.63551926612854 0.40625 0.0
0.5012496113777161 0.421875 0.0
0.390625 0.2950022220611572 0.0
0.5625 0.5879120230674744 0.0
0.6334627270698547 0.640625 0.0
0.546875 0.7717828154563904 0.0
0.34375 0.7516787648200989 0.0
0.4667518436908722 0.640625 0.0
4 1 16 15 2 255 0 0
8 8 18 17 3 2 15 14 9 255 0 0
4 5 20 19 6 255 0 0
4 10 13 12 11 255 0 0
5 6 19 18 8 7 255 0 0
5 3 21 20 5 4 255 0 0
3 3 17 21 255 0 0
4 9 14 13 10 255 0 0
5 11 12 16 1 0 255 0 0
4 23 24 37 38 0 0 255
8 30 31 36 37 24 25 39 40 0 0 255
4 27 28 41 42 0 0 255
4 32 33 34 35 0 0 255
5 28 29 30 40 41 0 0 255
5 25 26 27 42 43 0 0 255
3 25 43 39 0 0 255
4 31 32 35 36 0 0 255
5 33 22 23 38 34 0 0 255
4 0 1 23 22 128 0 128
4 1 2 24 23 0 255 0
4 2 3 25 24 0 255 0
4 3 4 26 25 0 255 0
4 4 5 27 26 0 255 0
4 5 6 28 27 0 255 0
4 6 7 29 28 0 255 0
4 7 8 30 29 0 255 0
4 8 9 31 30 0 255 0
4 9 10 32 31 0 255 0
4 10 11 33 32 0 255 0
4 11 0 22 33 128 0 128
4 12 13 35 34 0 255 0
4 13 14 36 35 0 255 0
4 14 15 37 36 0 255 0
4 15 16 38 37 0 255 0
4 16 12 34 38 0 255 0
4 17 18 40 39 0 255 0
4 18 19 41 40 0 255 0
4 19 20 42 41 0 255 0
4 20 21 43 42 0 255 0
4 21 17 39 43 0 255 0
