ply
format ascii 1.0
element vertex 36
property float x
property float y
property float z
element face 32
property list uchar int vertex_index
property uchar red
property uchar green
property uchar blue
end_header
0.34619244933128357 0.125 1.0
0.23111557960510254 0.25 1.0
0.2350703328847885 0.453125 1.0
0.328125 0.6108594536781311 1.0
0.453125 0.7484579086303711 1.0
0.609375 0.8395360112190247 1.0
0.7540584802627563 0.734375 1.0
0.734375 0.5075889229774475 1.0
0.66881263256073 0.359375 1.0
0.5706619024276733 0.203125 1.0
0.421875 0.12576283514499664 1.0
0.359375 0.23030011355876923 1.0
0.5351915955543518 0.296875 1.0
0.625 0.4618692100048065 1.0
0.6703647375106812 0.671875 1.0
0.5 0.7018442749977112 1.0
0.390625 0.5504680871963501 1.0
0.30994561314582825 0.390625 1.0
0.34619244933128357 0.125 0.0
0.23111557960510254 0.25 0.0
0.2350703328847885 0.453125 0.0
0.328125 0.6108594536781311 0.0
0.453125 0.7484579086303711 0.0
0.609375 0.8395360112190247 0.0
0.7540584802627563 0.734375 0.0
0.734375 0.5075889229774475 0.0
0.66881263256073 0.359375 0.0
0.5706619024276733 0.203125 0.0
0.421875 0.12576283514499664 0.0
0.359375 0.23030011355876923 0.0
0.5351915955543518 0.296875 0.0
0.625 0.4618692100048065 0.0
0.6703647375106812 0.671875 0.0
0.5 0.7018442749977112 0.0
0.390625 0.5504680871963501 0.0
0.30994561314582825 0.390625 0.0
4 8 13 12 9 255 0 0
5 0 11 17 2 1 255 0 0
4 3 16 15 4 255 0 0
5 9 12 11 0 10 255 0 0
5 6 14 13 8 7 255 0 0
4 2 17 16 3 255 0 0
5 4 15 14 6 5 255 0 0
4 26 27 30 31 0 0 255
5 18 19 20 35 29 0 0 255
4 21 22 33 34 0 0 255
5 27 28 18 29 30 0 0 255
5 24 25 26 31 32 0 0 255
4 20 21 34 35 0 0 255
5 22 23 24 32 33 0 0 255
4 0 1 19 18 128 0 128
4 1 2 20 19 0 255 0
4 2 3 21 20 0 255 0
4 3 4 22 21 0 255 0
4 4 5 23 22 0 255 0
4 5 6 24 23 0 255 0
4 6 7 25 24 0 255 0
4 7 8 26 25 0 255 0
4 8 9 27 26 0 255 0
4 9 10 28 27 0 255 0
4 10 0 18 28 128 0 128
4 11 12 30 29 0 255 0
4 12 13 31 30 0 255 0
4 13 14 32 31 0 255 0
4 14 15 33 32 0 255 0
4 15 16 34 33 0 255 0
4 16 17 35 34 0 255 0
4 17 11 29 35 0 255 0
