ply
format ascii 1.0
element vertex 38
property float x
property float y
property float z
element face 25
property list uchar int vertex_index
property uchar red
property uchar green
property uchar blue
end_header
0.4166218936443329 0.109375 1.0
0.38980820775032043 0.296875 1.0
0.359375 0.4281041920185089 1.0
0.26108282804489136 0.546875 1.0
0.359375 0.6914600729942322 1.0
0.5262444615364075 0.78125 1.0
0.640625 0.7137778997421265 1.0
0.46875 0.671421229839325 1.0
0.33188700675964355 0.546875 1.0
0.484375 0.452312707901001 1.0
0.59375 0.5829852223396301 1.0
0.71875 0.7131732702255249 1.0
0.7168485522270203 0.609375 1.0
0.6015685200691223 0.46875 1.0
0.6018129587173462 0.3125 1.0
0.5506734848022461 0.109375 1.0
0.453125 0.1579660326242447 1.0
0.515625 0.16785986721515656 1.0
0.5 0.31650006771087646 1.0
0.4166218936443329 0.109375 0.0
0.38980820775032043 0.296875 0.0
0.359375 0.4281041920185089 0.0
0.26108282804489136 0.546875 0.0
0.359375 0.6914600729942322 0.0
0.5262444615364075 0.78125 0.0
0.640625 0.7137778997421265 0.0
0.46875 0.671421229839325 0.0
0.33188700675964355 0.546875 0.0
0.484375 0.452312707901001 0.0
0.59375 0.5829852223396301 0.0
0.71875 0.7131732702255249 0.0
0.7168485522270203 0.609375 0.0
0.6015685200691223 0.46875 0.0
0.6018129587173462 0.3125 0.0
0.5506734848022461 0.109375 0.0
0.453125 0.1579660326242447 0.0
0.515625 0.16785986721515656 0.0
0.5 0.31650006771087646 0.0
4 15 17 16 0 255 0 0
17 0 16 18 14 13 12 11 10 9 8 7 6 5 4 3 2 1 255 0 0
4 14 18 17 15 255 0 0
4 34 19 35 36 0 0 255
17 19 20 21 22 23 24 25 26 27 28 29 30 31 32 33 37 35 0 0 255
4 33 34 36 37 0 0 255
4 0 1 20 19 0 255 0
4 1 2 21 20 0 255 0
4 2 3 22 21 0 255 0
4 3 4 23 22 0 255 0
4 4 5 24 23 0 255 0
4 5 6 25 24 0 255 0
4 6 7 26 25 0 255 0
4 7 8 27 26 0 255 0
4 8 9 28 27 0 255 0
4 9 10 29 28 0 255 0
4 10 11 30 29 0 255 0
4 11 12 31 30 0 255 0
4 12 13 32 31 0 255 0
4 13 14 33 32 0 255 0
4 14 15 34 33 0 255 0
4 15 0 19 34 128 0 128
4 16 17 36 35 0 255 0
4 17 18 37 36 0 255 0
4 18 16 35 37 0 255 0
