ply
format ascii 1.0
element vertex 32
property float x
property float y
property float z
element face 18
property list uchar int vertex_index
property uchar red
property uchar green
property uchar blue
end_header
0.3197709619998932 0.203125 1.0
0.3032931685447693 0.375 1.0
0.390625 0.5372143387794495 1.0
0.48562270402908325 0.6875 1.0
0.59375 0.8366588354110718 1.0
0.6813809275627136 0.859375 1.0
0.59375 0.6890945434570312 1.0
0.5 0.5464656949043274 1.0
0.6246083378791809 0.421875 1.0
0.546875 0.27455785870552063 1.0
0.375 0.19712898135185242 1.0
0.3197709619998932 0.203125 1.0
0.390625 0.2617529332637787 1.0
0.4738030433654785 0.328125 1.0
0.421875 0.3596368432044983 1.0
0.390625 0.2617529332637787 1.0
0.3197709619998932 0.203125 0.0
0.3032931685447693 0.375 0.0
0.390625 0.5372143387794495 0.0
0.48562270402908325 0.6875 0.0
0.59375 0.8366588354110718 0.0
0.6813809275627136 0.859375 0.0
0.59375 0.6890945434570312 0.0
0.5 0.5464656949043274 0.0
0.6246083378791809 0.421875 0.0
0.546875 0.27455785870552063 0.0
0.375 0.19712898135185242 0.0
0.3197709619998932 0.203125 0.0
0.390625 0.2617529332637787 0.0
0.4738030433654785 0.328125 0.0
0.421875 0.3596368432044983 0.0
0.390625 0.2617529332637787 0.0
4 13 9 10 12 255 0 0
11 14 1 2 3 4 5 6 7 8 9 13 255 0 0
4 29 28 26 25 0 0 255
11 30 29 25 24 23 22 21 20 19 18 17 0 0 255
4 1 0 16 17 0 255 0
4 2 1 17 18 0 255 0
4 3 2 18 19 0 255 0
4 4 3 19 20 0 255 0
4 5 4 20 21 0 255 0
4 6 5 21 22 0 255 0
4 7 6 22 23 0 255 0
4 8 7 23 24 0 255 0
4 9 8 24 25 0 255 0
4 10 9 25 26 128 0 128
4 11 10 26 27 128 0 128
4 13 12 28 29 0 255 0
4 14 13 29 30 0 255 0
4 15 14 30 31 0 255 0
