ply
format ascii 1.0
element vertex 38
property float x
property float y
property float z
element face 29
property list uchar int vertex_index
property uchar red
property uchar green
property uchar blue
end_header
0.22504901885986328 0.125 1.0
0.12700296938419342 0.21875 1.0
0.34375 0.2614370286464691 1.0
0.5128471851348877 0.34375 1.0
0.359375 0.41018936038017273 1.0
0.26503634452819824 0.5625 1.0
0.3125 0.7230079770088196 1.0
0.484375 0.8029764294624329 1.0
0.6875 0.7591915130615234 1.0
0.8079178333282471 0.625 1.0
0.8206036686897278 0.453125 1.0
0.734375 0.32598674297332764 1.0
0.6060667634010315 0.203125 1.0
0.421875 0.13100995123386383 1.0
0.609375 0.4768458604812622 1.0
0.6913386583328247 0.515625 1.0
0.578125 0.6524924635887146 1.0
0.4251096844673157 0.578125 1.0
0.5829184651374817 0.484375 1.0
0.22504901885986328 0.125 0.0
0.12700296938419342 0.21875 0.0
0.34375 0.2614370286464691 0.0
0.5128471851348877 0.34375 0.0
0.359375 0.41018936038017273 0.0
0.26503634452819824 0.5625 0.0
0.3125 0.7230079770088196 0.0
0.484375 0.8029764294624329 0.0
0.6875 0.7591915130615234 0.0
0.8079178333282471 0.625 0.0
0.8206036686897278 0.453125 0.0
0.734375 0.32598674297332764 0.0
0.6060667634010315 0.203125 0.0
0.421875 0.13100995123386383 0.0
0.609375 0.4768458604812622 0.0
0.6913386583328247 0.515625 0.0
0.578125 0.6524924635887146 0.0
0.4251096844673157 0.578125 0.0
0.5829184651374817 0.484375 0.0
10 10 15 14 3 2 1 0 13 12 11 255 0 0
5 3 18 17 5 4 255 0 0
3 3 14 18 255 0 0
6 5 17 16 8 7 6 255 0 0
5 8 16 15 10 9 255 0 0
10 29 30 31 32 19 20 21 22 33 34 0 0 255
5 22 23 24 36 37 0 0 255
3 22 37 33 0 0 255
6 24 25 26 27 35 36 0 0 255
5 27 28 29 34 35 0 0 255
4 0 1 20 19 128 0 128
4 1 2 21 20 0 255 0
4 2 3 22 21 0 255 0
4 3 4 23 22 0 255 0
4 4 5 24 23 0 255 0
4 5 6 25 24 0 255 0
4 6 7 26 25 0 255 0
4 7 8 27 26 0 255 0
4 8 9 28 27 0 255 0
4 9 10 29 28 0 255 0
4 10 11 30 29 0 255 0
4 11 12 31 30 0 255 0
4 12 13 32 31 0 255 0
4 13 0 19 32 128 0 128
4 14 15 34 33 0 255 0
4 15 16 35 34 0 255 0
4 16 17 36 35 0 255 0
4 17 18 37 36 0 255 0
4 18 14 33 37 0 255 0
