ply
format ascii 1.0
element vertex 38
property float x
property float y
property float z
element face 27
property list uchar int vertex_index
property uchar red
property uchar green
property uchar blue
end_header
0.35883137583732605 0.203125 1.0
0.23025116324424744 0.328125 1.0
0.24441055953502655 0.53125 1.0
0.321310430765152 0.703125 1.0
0.4253350794315338 0.84375 1.0
0.5246440172195435 0.828125 1.0
0.4204072654247284 0.6875 1.0
0.335430383682251 0.515625 1.0
0.349215030670166 0.34375 1.0
0.5020118355751038 0.421875 1.0
0.6079617142677307 0.578125 1.0
0.78125 0.5845139622688293 1.0
0.8189813494682312 0.40625 1.0
0.703125 0.26730307936668396 1.0
0.515625 0.20593643188476562 1.0
0.59375 0.32348448038101196 1.0
0.609375 0.3299638032913208 1.0
0.7677463293075562 0.421875 1.0
0.6304014921188354 0.453125 1.0
0.35883137583732605 0.203125 0.0
0.23025116324424744 0.328125 0.0
0.24441055953502655 0.53125 0.0
0.321310430765152 0.703125 0.0
0.4253350794315338 0.84375 0.0
0.5246440172195435 0.828125 0.0
0.4204072654247284 0.6875 0.0
0.335430383682251 0.515625 0.0
0.349215030670166 0.34375 0.0
0.5020118355751038 0.421875 0.0
0.6079617142677307 0.578125 0.0
0.78125 0.5845139622688293 0.0
0.8189813494682312 0.40625 0.0
0.703125 0.26730307936668396 0.0
0.515625 0.20593643188476562 0.0
0.59375 0.32348448038101196 0.0
0.609375 0.3299638032913208 0.0
0.7677463293075562 0.421875 0.0
0.6304014921188354 0.453125 0.0
15 13 15 18 10 9 8 7 6 5 4 3 2 1 0 14 255 0 0
5 10 18 17 12 11 255 0 0
3 13 16 15 255 0 0
4 12 17 16 13 255 0 0
15 32 33 19 20 21 22 23 24 25 26 27 28 29 37 34 0 0 255
5 29 30 31 36 37 0 0 255
3 32 34 35 0 0 255
4 31 32 35 36 0 0 255
4 0 1 20 19 128 0 128
4 1 2 21 20 0 255 0
4 2 3 22 21 0 255 0
4 3 4 23 22 0 255 0
4 4 5 24 23 0 255 0
4 5 6 25 24 0 255 0
4 6 7 26 25 0 255 0
4 7 8 27 26 0 255 0
4 8 9 28 27 0 255 0
4 9 10 29 28 0 255 0
4 10 11 30 29 0 255 0
4 11 12 31 30 0 255 0
4 12 13 32 31 0 255 0
4 13 14 33 32 0 255 0
4 14 0 19 33 128 0 128
4 15 16 35 34 0 255 0
4 16 17 36 35 0 255 0
4 17 18 37 36 0 255 0
4 18 15 34 37 0 255 0
