ply
format ascii 1.0
element vertex 40
property float x
property float y
property float z
element face 22
property list uchar int vertex_index
property uchar red
property uchar green
property uchar blue
end_header
0.671875 0.056730709969997406 1.0
0.6820819973945618 0.203125 1.0
0.7498433589935303 0.390625 1.0
0.8221465945243835 0.5625 1.0
0.703125 0.5030928254127502 1.0
0.6012611389160156 0.359375 1.0
0.390625 0.3520731031894684 1.0
0.2618597149848938 0.46875 1.0
0.25210559368133545 0.625 1.0
0.4375 0.6974846720695496 1.0
0.6494134664535522 0.65625 1.0
0.703125 0.5484269857406616 1.0
0.6620233654975891 0.71875 1.0
0.453125 0.765233039855957 1.0
0.25091466307640076 0.703125 1.0
0.14010049402713776 0.578125 1.0
0.21530723571777344 0.40625 1.0
0.359375 0.30504217743873596 1.0
0.578125 0.2715105414390564 1.0
0.5917690396308899 0.09375 1.0
0.671875 0.056730709969997406 0.0
0.6820819973945618 0.203125 0.0
0.7498433589935303 0.390625 0.0
0.8221465945243835 0.5625 0.0
0.703125 0.5030928254127502 0.0
0.6012611389160156 0.359375 0.0
0.390625 0.3520731031894684 0.0
0.2618597149848938 0.46875 0.0
0.25210559368133545 0.625 0.0
0.4375 0.6974846720695496 0.0
0.6494134664535522 0.65625 0.0
0.703125 0.5484269857406616 0.0
0.6620233654975891 0.71875 0.0
0.453125 0.765233039855957 0.0
0.25091466307640076 0.703125 0.0
0.14010049402713776 0.578125 0.0
0.21530723571777344 0.40625 0.0
0.359375 0.30504217743873596 0.0
0.578125 0.2715105414390564 0.0
0.5917690396308899 0.09375 0.0
20 0 1 2 3 4 5 6 7 8 9 10 11 12 13 14 15 16 17 18 19 255 0 0
20 20 39 38 37 36 35 34 33 32 31 30 29 28 27 26 25 24 23 22 21 0 0 255
4 1 0 20 21 128 0 128
4 2 1 21 22 0 255 0
4 3 2 22 23 0 255 0
4 4 3 23 24 0 255 0
4 5 4 24 25 0 255 0
4 6 5 25 26 0 255 0
4 7 6 26 27 0 255 0
4 8 7 27 28 0 255 0
4 9 8 28 29 0 255 0
4 10 9 29 30 0 255 0
4 11 10 30 31 0 255 0
4 12 11 31 32 0 255 0
4 13 12 32 33 0 255 0
4 14 13 33 34 0 255 0
4 15 14 34 35 0 255 0
4 16 15 35 36 0 255 0
4 17 16 36 37 0 255 0
4 18 17 37 38 0 255 0
4 19 18 38 39 0 255 0
4 0 19 39 20 128 0 128
