ply
format ascii 1.0
element vertex 38
property float x
property float y
property float z
element face 25
property list uchar int vertex_index
property uchar red
property uchar green
property uchar blue
end_header
0.4000018239021301 0.171875 1.0
0.30515480041503906 0.328125 1.0
0.35946589708328247 0.515625 1.0
0.4375 0.69923996925354 1.0
0.5259756445884705 0.859375 1.0
0.5435429811477661 0.734375 1.0
0.44575369358062744 0.578125 1.0
0.48310914635658264 0.5 1.0
0.65625 0.5332308411598206 1.0
0.7188859581947327 0.359375 1.0
0.609375 0.22853033244609833 1.0
0.421875 0.1700841635465622 1.0
0.4000018239021301 0.171875 1.0
0.453125 0.22465863823890686 1.0
0.5785176753997803 0.28125 1.0
0.6267770528793335 0.453125 1.0
0.453125 0.39792338013648987 1.0
0.390625 0.2619895040988922 1.0
0.453125 0.22465863823890686 1.0
0.4000018239021301 0.171875 0.0
0.30515480041503906 0.328125 0.0
0.35946589708328247 0.515625 0.0
0.4375 0.69923996925354 0.0
0.5259756445884705 0.859375 0.0
0.5435429811477661 0.734375 0.0
0.44575369358062744 0.578125 0.0
0.48310914635658264 0.5 0.0
0.65625 0.5332308411598206 0.0
0.7188859581947327 0.359375 0.0
0.609375 0.22853033244609833 0.0
0.421875 0.1700841635465622 0.0
0.4000018239021301 0.171875 0.0
0.453125 0.22465863823890686 0.0
0.5785176753997803 0.28125 0.0
0.6267770528793335 0.453125 0.0
0.453125 0.39792338013648987 0.0
0.390625 0.2619895040988922 0.0
0.453125 0.22465863823890686 0.0
4 7 16 15 8 255 0 0
5 8 15 14 10 9 255 0 0
10 0 17 16 7 6 5 4 3 2 1 255 0 0
4 10 14 13 11 255 0 0
4 26 27 34 35 0 0 255
5 27 28 29 33 34 0 0 255
10 19 20 21 22 23 24 25 26 35 36 0 0 255
4 29 30 32 33 0 0 255
4 0 1 20 19 0 255 0
4 1 2 21 20 0 255 0
4 2 3 22 21 0 255 0
4 3 4 23 22 0 255 0
4 4 5 24 23 0 255 0
4 5 6 25 24 0 255 0
4 6 7 26 25 0 255 0
4 7 8 27 26 0 255 0
4 8 9 28 27 0 255 0
4 9 10 29 28 0 255 0
4 10 11 30 29 128 0 128
4 11 12 31 30 128 0 128
4 13 14 33 32 0 255 0
4 14 15 34 33 0 255 0
4 15 16 35 34 0 255 0
4 16 17 36 35 0 255 0
4 17 18 37 36 0 255 0
