ply
format ascii 1.0
element vertex 38
property float x
property float y
property float z
element face 37
property list uchar int vertex_index
property uchar red
property uchar green
property uchar blue
end_header
0.41101348400115967 0.09375 1.0
0.2880370020866394 0.21875 1.0
0.27480700612068176 0.453125 1.0
0.35725733637809753 0.625 1.0
0.4875016212463379 0.734375 1.0
0.6439000368118286 0.78125 1.0
0.7377925515174866 0.625 1.0
0.7259648442268372 0.421875 1.0
0.640625 0.2558591961860657 1.0
0.5240719318389893 0.125 1.0
0.4375 0.15949416160583496 1.0
0.484375 0.18182820081710815 1.0
0.6021471619606018 0.3125 1.0
0.6734322309494019 0.484375 1.0
0.6624776124954224 0.6875 1.0
0.5419560074806213 0.671875 1.0
0.453125 0.5362515449523926 1.0
0.3418896496295929 0.46875 1.0
0.359375 0.2452673465013504 1.0
0.41101348400115967 0.09375 0.0
0.2880370020866394 0.21875 0.0
0.27480700612068176 0.453125 0.0
0.35725733637809753 0.625 0.0
0.4875016212463379 0.734375 0.0
0.6439000368118286 0.78125 0.0
0.7377925515174866 0.625 0.0
0.7259648442268372 0.421875 0.0
0.640625 0.2558591961860657 0.0
0.5240719318389893 0.125 0.0
0.4375 0.15949416160583496 0.0
0.484375 0.18182820081710815 0.0
0.6021471619606018 0.3125 0.0
0.6734322309494019 0.484375 0.0
0.6624776124954224 0.6875 0.0
0.5419560074806213 0.671875 0.0
0.453125 0.5362515449523926 0.0
0.3418896496295929 0.46875 0.0
0.359375 0.2452673465013504 0.0
4 8 12 11 9 255 0 0
5 5 14 13 7 6 255 0 0
4 0 10 18 1 255 0 0
4 1 18 17 2 255 0 0
4 7 13 12 8 255 0 0
4 3 16 15 4 255 0 0
4 9 11 10 0 255 0 0
4 2 17 16 3 255 0 0
4 4 15 14 5 255 0 0
4 27 28 30 31 0 0 255
5 24 25 26 32 33 0 0 255
4 19 20 37 29 0 0 255
4 20 21 36 37 0 0 255
4 26 27 31 32 0 0 255
4 22 23 34 35 0 0 255
4 28 19 29 30 0 0 255
4 21 22 35 36 0 0 255
4 23 24 33 34 0 0 255
4 0 1 20 19 128 0 128
4 1 2 21 20 0 255 0
4 2 3 22 21 0 255 0
4 3 4 23 22 0 255 0
4 4 5 24 23 0 255 0
4 5 6 25 24 0 255 0
4 6 7 26 25 0 255 0
4 7 8 27 26 0 255 0
4 8 9 28 27 0 255 0
4 9 0 19 28 128 0 128
4 10 11 30 29 0 255 0
4 11 12 31 30 0 255 0
4 12 13 32 31 0 255 0
4 13 14 33 32 0 255 0
4 14 15 34 33 0 255 0
4 15 16 35 34 0 255 0
4 16 17 36 35 0 255 0
4 17 18 37 36 0 255 0
4 18 10 29 37 0 255 0
