ply
format ascii 1.0
element vertex 38
property float x
property float y
property float z
element face 29
property list uchar int vertex_index
property uchar red
property uchar green
property uchar blue
end_header
0.29618415236473083 0.09375 1.0
0.375 0.23149831593036652 1.0
0.546875 0.3108738958835602 1.0
0.375 0.37393325567245483 1.0
0.22145134210586548 0.46875 1.0
0.18303635716438293 0.640625 1.0
0.3125 0.7520462274551392 1.0
0.515625 0.8010392189025879 1.0
0.6875 0.7231823205947876 1.0
0.7818984985351562 0.578125 1.0
0.78125 0.39790236949920654 1.0
0.6784493327140808 0.25 1.0
0.53125 0.14884571731090546 1.0
0.34375 0.09122868627309799 1.0
0.5 0.4774220585823059 1.0
0.65625 0.48373496532440186 1.0
0.5788763761520386 0.640625 1.0
0.390625 0.6286519765853882 1.0
0.390625 0.49343812465667725 1.0
0.29618415236473083 0.09375 0.0
0.375 0.23149831593036652 0.0
0.546875 0.3108738958835602 0.0
0.375 0.37393325567245483 0.0
0.22145134210586548 0.46875 0.0
0.18303635716438293 0.640625 0.0
0.3125 0.7520462274551392 0.0
0.515625 0.8010392189025879 0.0
0.6875 0.7231823205947876 0.0
0.7818984985351562 0.578125 0.0
0.78125 0.39790236949920654 0.0
0.6784493327140808 0.25 0.0
0.53125 0.14884571731090546 0.0
0.34375 0.09122868627309799 0.0
0.5 0.4774220585823059 0.0
0.65625 0.48373496532440186 0.0
0.5788763761520386 0.640625 0.0
0.390625 0.6286519765853882 0.0
0.390625 0.49343812465667725 0.0
10 10 15 14 3 2 1 0 13 12 11 255 0 0
6 3 18 17 6 5 4 255 0 0
5 6 17 16 8 7 255 0 0
3 3 14 18 255 0 0
5 8 16 15 10 9 255 0 0
10 29 30 31 32 19 20 21 22 33 34 0 0 255
6 22 23 24 25 36 37 0 0 255
5 25 26 27 35 36 0 0 255
3 22 37 33 0 0 255
5 27 28 29 34 35 0 0 255
4 0 1 20 19 0 255 0
4 1 2 21 20 0 255 0
4 2 3 22 21 0 255 0
4 3 4 23 22 0 255 0
4 4 5 24 23 0 255 0
4 5 6 25 24 0 255 0
4 6 7 26 25 0 255 0
4 7 8 27 26 0 255 0
4 8 9 28 27 0 255 0
4 9 10 29 28 0 255 0
4 10 11 30 29 0 255 0
4 11 12 31 30 0 255 0
4 12 13 32 31 128 0 128
4 13 0 19 32 128 0 128
4 14 15 34 33 0 255 0
4 15 16 35 34 0 255 0
4 16 17 36 35 0 255 0
4 17 18 37 36 0 255 0
4 18 14 33 37 0 255 0
