ply
format ascii 1.0
element vertex 38
property float x
property float y
property float z
element face 29
property list uchar int vertex_index
property uchar red
property uchar green
property uchar blue
end_header
0.37978681921958923 0.171875 1.0
0.2728455364704132 0.3125 1.0
0.25616753101348877 0.484375 1.0
0.33255234360694885 0.65625 1.0
0.44477730989456177 0.796875 1.0
0.625 0.8659246563911438 1.0
0.5319442749023438 0.71875 1.0
0.4400983452796936 0.5625 1.0
0.5 0.48916885256767273 1.0
0.703125 0.5398389101028442 1.0
0.861220121383667 0.453125 1.0
0.765625 0.3045974671840668 1.0
0.6115070581436157 0.203125 1.0
0.40625 0.16169528663158417 1.0
0.4375 0.2804158926010132 1.0
0.578125 0.31343868374824524 1.0
0.671875 0.42616456747055054 1.0
0.515625 0.3425869941711426 1.0
0.40625 0.3117818832397461 1.0
0.37978681921958923 0.171875 0.0
0.2728455364704132 0.3125 0.0
0.25616753101348877 0.484375 0.0
0.33255234360694885 0.65625 0.0
0.44477730989456177 0.796875 0.0
0.625 0.8659246563911438 0.0
0.5319442749023438 0.71875 0.0
0.4400983452796936 0.5625 0.0
0.5 0.48916885256767273 0.0
0.703125 0.5398389101028442 0.0
0.861220121383667 0.453125 0.0
0.765625 0.3045974671840668 0.0
0.6115070581436157 0.203125 0.0
0.40625 0.16169528663158417 0.0
0.4375 0.2804158926010132 0.0
0.578125 0.31343868374824524 0.0
0.671875 0.42616456747055054 0.0
0.515625 0.3425869941711426 0.0
0.40625 0.3117818832397461 0.0
10 1 18 17 8 7 6 5 4 3 2 255 0 0
5 13 14 18 1 0 255 0 0
6 9 16 15 12 11 10 255 0 0
4 12 15 14 13 255 0 0
4 8 17 16 9 255 0 0
10 20 21 22 23 24 25 26 27 36 37 0 0 255
5 32 19 20 37 33 0 0 255
6 28 29 30 31 34 35 0 0 255
4 31 32 33 34 0 0 255
4 27 28 35 36 0 0 255
4 0 1 20 19 0 255 0
4 1 2 21 20 0 255 0
4 2 3 22 21 0 255 0
4 3 4 23 22 0 255 0
4 4 5 24 23 0 255 0
4 5 6 25 24 0 255 0
4 6 7 26 25 0 255 0
4 7 8 27 26 0 255 0
4 8 9 28 27 0 255 0
4 9 10 29 28 0 255 0
4 10 11 30 29 0 255 0
4 11 12 31 30 0 255 0
4 12 13 32 31 128 0 128
4 13 0 19 32 128 0 128
4 14 15 34 33 0 255 0
4 15 16 35 34 0 255 0
4 16 17 36 35 0 255 0
4 17 18 37 36 0 255 0
4 18 14 33 37 0 255 0
