ply
format ascii 1.0
element vertex 38
property float x
property float y
property float z
element face 33
property list uchar int vertex_index
property uchar red
property uchar green
property uchar blue
end_header
0.4435781240463257 0.125 1.0
0.2630617320537567 0.1875 1.0
0.27110952138900757 0.390625 1.0
0.37982556223869324 0.53125 1.0
0.4524776339530945 0.65625 1.0
0.5323165655136108 0.8125 1.0
0.6974794864654541 0.765625 1.0
0.53125 0.7113330960273743 1.0
0.6875 0.6901852488517761 1.0
0.6875 0.5071774125099182 1.0
0.6927252411842346 0.296875 1.0
0.5642528533935547 0.171875 1.0
0.421875 0.23237060010433197 1.0
0.4375 0.23568090796470642 1.0
0.6222782731056213 0.3125 1.0
0.6272297501564026 0.484375 1.0
0.49478626251220703 0.515625 1.0
0.359375 0.4010504484176636 1.0
0.3483905494213104 0.25 1.0
0.4435781240463257 0.125 0.0
0.2630617320537567 0.1875 0.0
0.27110952138900757 0.390625 0.0
0.37982556223869324 0.53125 0.0
0.4524776339530945 0.65625 0.0
0.5323165655136108 0.8125 0.0
0.6974794864654541 0.765625 0.0
0.53125 0.7113330960273743 0.0
0.6875 0.6901852488517761 0.0
0.6875 0.5071774125099182 0.0
0.6927252411842346 0.296875 0.0
0.5642528533935547 0.171875 0.0
0.421875 0.23237060010433197 0.0
0.4375 0.23568090796470642 0.0
0.6222782731056213 0.3125 0.0
0.6272297501564026 0.484375 0.0
0.49478626251220703 0.515625 0.0
0.359375 0.4010504484176636 0.0
0.3483905494213104 0.25 0.0
4 1 18 17 2 255 0 0
4 9 15 14 10 255 0 0
9 3 16 15 9 8 7 6 5 4 255 0 0
4 0 12 18 1 255 0 0
3 0 13 12 255 0 0
5 10 14 13 0 11 255 0 0
4 2 17 16 3 255 0 0
4 20 21 36 37 0 0 255
4 28 29 33 34 0 0 255
9 22 23 24 25 26 27 28 34 35 0 0 255
4 19 20 37 31 0 0 255
3 19 31 32 0 0 255
5 29 30 19 32 33 0 0 255
4 21 22 35 36 0 0 255
4 0 1 20 19 128 0 128
4 1 2 21 20 0 255 0
4 2 3 22 21 0 255 0
4 3 4 23 22 0 255 0
4 4 5 24 23 0 255 0
4 5 6 25 24 0 255 0
4 6 7 26 25 0 255 0
4 7 8 27 26 0 255 0
4 8 9 28 27 0 255 0
4 9 10 29 28 0 255 0
4 10 11 30 29 0 255 0
4 11 0 19 30 128 0 128
4 12 13 32 31 0 255 0
4 13 14 33 32 0 255 0
4 14 15 34 33 0 255 0
4 15 16 35 34 0 255 0
4 16 17 36 35 0 255 0
4 17 18 37 36 0 255 0
4 18 12 31 37 0 255 0
