ply
format ascii 1.0
element vertex 42
property float x
property float y
property float z
element face 39
property list uchar int vertex_index
property uchar red
property uchar green
property uchar blue
end_header
0.20234091579914093 0.15625 1.0
0.125 0.33599966764450073 1.0
0.2091589868068695 0.484375 1.0
0.3157282769680023 0.625 1.0
0.46875 0.7263225317001343 1.0
0.625 0.8171001672744751 1.0
0.796875 0.7763569951057434 1.0
0.8395040035247803 0.5625 1.0
0.7804125547409058 0.375 1.0
0.640625 0.2611587941646576 1.0
0.4732641279697418 0.171875 1.0
0.25 0.14598771929740906 1.0
0.28125 0.26152095198631287 1.0
0.41218289732933044 0.28125 1.0
0.578125 0.3596501052379608 1.0
0.7120141386985779 0.484375 1.0
0.71875 0.7174818515777588 1.0
0.5898990631103516 0.65625 1.0
0.4405125677585602 0.578125 1.0
0.328125 0.44898954033851624 1.0
0.24774613976478577 0.28125 1.0
0.20234091579914093 0.15625 0.0
0.125 0.33599966764450073 0.0
0.2091589868068695 0.484375 0.0
0.3157282769680023 0.625 0.0
0.46875 0.7263225317001343 0.0
0.625 0.8171001672744751 0.0
0.796875 0.7763569951057434 0.0
0.8395040035247803 0.5625 0.0
0.7804125547409058 0.375 0.0
0.640625 0.2611587941646576 0.0
0.4732641279697418 0.171875 0.0
0.25 0.14598771929740906 0.0
0.28125 0.26152095198631287 0.0
0.41218289732933044 0.28125 0.0
0.578125 0.3596501052379608 0.0
0.7120141386985779 0.484375 0.0
0.71875 0.7174818515777588 0.0
0.5898990631103516 0.65625 0.0
0.4405125677585602 0.578125 0.0
0.328125 0.44898954033851624 0.0
0.24774613976478577 0.28125 0.0
5 4 17 16 6 5 255 0 0
5 0 20 19 2 1 255 0 0
4 10 13 12 11 255 0 0
5 6 16 15 8 7 255 0 0
4 3 18 17 4 255 0 0
4 9 14 13 10 255 0 0
4 8 15 14 9 255 0 0
4 2 19 18 3 255 0 0
4 11 12 20 0 255 0 0
5 25 26 27 37 38 0 0 255
5 21 22 23 40 41 0 0 255
4 31 32 33 34 0 0 255
5 27 28 29 36 37 0 0 255
4 24 25 38 39 0 0 255
4 30 31 34 35 0 0 255
4 29 30 35 36 0 0 255
4 23 24 39 40 0 0 255
4 32 21 41 33 0 0 255
4 0 1 22 21 0 255 0
4 1 2 23 22 0 255 0
4 2 3 24 23 0 255 0
4 3 4 25 24 0 255 0
4 4 5 26 25 0 255 0
4 5 6 27 26 0 255 0
4 6 7 28 27 0 255 0
4 7 8 29 28 0 255 0
4 8 9 30 29 0 255 0
4 9 10 31 30 0 255 0
4 10 11 32 31 128 0 128
4 11 0 21 32 128 0 128
4 12 13 34 33 0 255 0
4 13 14 35 34 0 255 0
4 14 15 36 35 0 255 0
4 15 16 37 36 0 255 0
4 16 17 38 37 0 255 0
4 17 18 39 38 0 255 0
4 18 19 40 39 0 255 0
4 19 20 41 40 0 255 0
4 20 12 33 41 0 255 0
