ply
format ascii 1.0
element vertex 36
property float x
property float y
property float z
element face 32
property list uchar int vertex_index
property uchar red
property uchar green
property uchar blue
end_header
0.3819213807582855 0.171875 1.0
0.203125 0.24386505782604218 1.0
0.16670839488506317 0.453125 1.0
0.2777253985404968 0.59375 1.0
0.40625 0.7184813022613525 1.0
0.5845215320587158 0.734375 1.0
0.765625 0.6984915733337402 1.0
0.8722596764564514 0.546875 1.0
0.8019652962684631 0.359375 1.0
0.676287829875946 0.234375 1.0
0.5 0.1646524965763092 1.0
0.421875 0.30323442816734314 1.0
0.59375 0.35008153319358826 1.0
0.73285973072052 0.46875 1.0
0.625 0.5851427316665649 1.0
0.4526742696762085 0.515625 1.0
0.3489762246608734 0.4375 1.0
0.3238210082054138 0.328125 1.0
0.3819213807582855 0.171875 0.0
0.203125 0.24386505782604218 0.0
0.16670839488506317 0.453125 0.0
0.2777253985404968 0.59375 0.0
0.40625 0.7184813022613525 0.0
0.5845215320587158 0.734375 0.0
0.765625 0.6984915733337402 0.0
0.8722596764564514 0.546875 0.0
0.8019652962684631 0.359375 0.0
0.676287829875946 0.234375 0.0
0.5 0.1646524965763092 0.0
0.421875 0.30323442816734314 0.0
0.59375 0.35008153319358826 0.0
0.73285973072052 0.46875 0.0
0.625 0.5851427316665649 0.0
0.4526742696762085 0.515625 0.0
0.3489762246608734 0.4375 0.0
0.3238210082054138 0.328125 0.0
6 5 14 13 8 7 6 255 0 0
4 8 13 12 9 255 0 0
5 1 17 16 3 2 255 0 0
4 0 11 17 1 255 0 0
5 3 15 14 5 4 255 0 0
3 3 16 15 255 0 0
5 9 12 11 0 10 255 0 0
6 23 24 25 26 31 32 0 0 255
4 26 27 30 31 0 0 255
5 19 20 21 34 35 0 0 255
4 18 19 35 29 0 0 255
5 21 22 23 32 33 0 0 255
3 21 33 34 0 0 255
5 27 28 18 29 30 0 0 255
4 0 1 19 18 0 255 0
4 1 2 20 19 0 255 0
4 2 3 21 20 0 255 0
4 3 4 22 21 0 255 0
4 4 5 23 22 0 255 0
4 5 6 24 23 0 255 0
4 6 7 25 24 0 255 0
4 7 8 26 25 0 255 0
4 8 9 27 26 0 255 0
4 9 10 28 27 128 0 128
4 10 0 18 28 128 0 128
4 11 12 30 29 0 255 0
4 12 13 31 30 0 255 0
4 13 14 32 31 0 255 0
4 14 15 33 32 0 255 0
4 15 16 34 33 0 255 0
4 16 17 35 34 0 255 0
4 17 11 29 35 0 255 0
