ply
format ascii 1.0
element vertex 40
property float x
property float y
property float z
element face 34
property list uchar int vertex_index
property uchar red
property uchar green
property uchar blue
end_header
0.40625 0.13117878139019012 1.0
0.28933319449424744 0.265625 1.0
0.3125 0.45434728264808655 1.0
0.26729828119277954 0.625 1.0
0.34375 0.805358350276947 1.0
0.5625 0.831510066986084 1.0
0.65625 0.6801830530166626 1.0
0.7348805665969849 0.515625 1.0
0.7624748945236206 0.3125 1.0
0.65625 0.15752781927585602 1.0
0.46875 0.12619580328464508 1.0
0.5 0.21761512756347656 1.0
0.65625 0.2799527049064636 1.0
0.65625 0.47252795100212097 1.0
0.484375 0.4272124767303467 1.0
0.3845321536064148 0.28125 1.0
0.453125 0.5199971795082092 1.0
0.484375 0.520176351070404 1.0
0.5569921731948853 0.671875 1.0
0.3760976493358612 0.671875 1.0
0.40625 0.13117878139019012 0.0
0.28933319449424744 0.265625 0.0
0.3125 0.45434728264808655 0.0
0.26729828119277954 0.625 0.0
0.34375 0.805358350276947 0.0
0.5625 0.831510066986084 0.0
0.65625 0.6801830530166626 0.0
0.7348805665969849 0.515625 0.0
0.7624748945236206 0.3125 0.0
0.65625 0.15752781927585602 0.0
0.46875 0.12619580328464508 0.0
0.5 0.21761512756347656 0.0
0.65625 0.2799527049064636 0.0
0.65625 0.47252795100212097 0.0
0.484375 0.4272124767303467 0.0
0.3845321536064148 0.28125 0.0
0.453125 0.5199971795082092 0.0
0.484375 0.520176351070404 0.0
0.5569921731948853 0.671875 0.0
0.3760976493358612 0.671875 0.0
5 8 12 11 10 9 255 0 0
5 10 11 15 1 0 255 0 0
4 7 13 12 8 255 0 0
6 3 19 18 6 5 4 255 0 0
6 6 18 17 14 13 7 255 0 0
7 14 16 19 3 2 1 15 255 0 0
3 14 17 16 255 0 0
5 28 29 30 31 32 0 0 255
5 30 20 21 35 31 0 0 255
4 27 28 32 33 0 0 255
6 23 24 25 26 38 39 0 0 255
6 26 27 33 34 37 38 0 0 255
7 34 35 21 22 23 39 36 0 0 255
3 34 36 37 0 0 255
4 0 1 21 20 0 255 0
4 1 2 22 21 0 255 0
4 2 3 23 22 0 255 0
4 3 4 24 23 0 255 0
4 4 5 25 24 0 255 0
4 5 6 26 25 0 255 0
4 6 7 27 26 0 255 0
4 7 8 28 27 0 255 0
4 8 9 29 28 0 255 0
4 9 10 30 29 128 0 128
4 10 0 20 30 128 0 128
4 11 12 32 31 0 255 0
4 12 13 33 32 0 255 0
4 13 14 34 33 0 255 0
4 14 15 35 34 0 255 0
4 15 11 31 35 0 255 0
4 16 17 37 36 0 255 0
4 17 18 38 37 0 255 0
4 18 19 39 38 0 255 0
4 19 16 36 39 0 255 0
