ply
format ascii 1.0
element vertex 40
property float x
property float y
property float z
element face 34
property list uchar int vertex_index
property uchar red
property uchar green
property uchar blue
end_header
0.23515775799751282 0.171875 1.0
0.16090768575668335 0.34375 1.0
0.26501181721687317 0.5 1.0
0.36798468232154846 0.640625 1.0
0.5 0.7556954622268677 1.0
0.6481068730354309 0.75 1.0
0.5007956624031067 0.640625 1.0
0.6135998964309692 0.640625 1.0
0.8125 0.6321578621864319 1.0
0.8316764235496521 0.46875 1.0
0.7018843293190002 0.359375 1.0
0.546875 0.25318530201911926 1.0
0.375 0.18381085991859436 1.0
0.28125 0.26446786522865295 1.0
0.3307982087135315 0.265625 1.0
0.515625 0.33410871028900146 1.0
0.6702373623847961 0.4375 1.0
0.640625 0.5394662022590637 1.0
0.47479426860809326 0.453125 1.0
0.33391711115837097 0.34375 1.0
0.23515775799751282 0.171875 0.0
0.16090768575668335 0.34375 0.0
0.26501181721687317 0.5 0.0
0.36798468232154846 0.640625 0.0
0.5 0.7556954622268677 0.0
0.6481068730354309 0.75 0.0
0.5007956624031067 0.640625 0.0
0.6135998964309692 0.640625 0.0
0.8125 0.6321578621864319 0.0
0.8316764235496521 0.46875 0.0
0.7018843293190002 0.359375 0.0
0.546875 0.25318530201911926 0.0
0.375 0.18381085991859436 0.0
0.28125 0.26446786522865295 0.0
0.3307982087135315 0.265625 0.0
0.515625 0.33410871028900146 0.0
0.6702373623847961 0.4375 0.0
0.640625 0.5394662022590637 0.0
0.47479426860809326 0.453125 0.0
0.33391711115837097 0.34375 0.0
6 7 17 16 10 9 8 255 0 0
4 10 16 15 11 255 0 0
5 0 13 19 2 1 255 0 0
4 6 18 17 7 255 0 0
4 12 14 13 0 255 0 0
7 2 19 18 6 5 4 3 255 0 0
4 11 15 14 12 255 0 0
6 27 28 29 30 36 37 0 0 255
4 30 31 35 36 0 0 255
5 20 21 22 39 33 0 0 255
4 26 27 37 38 0 0 255
4 32 20 33 34 0 0 255
7 22 23 24 25 26 38 39 0 0 255
4 31 32 34 35 0 0 255
4 0 1 21 20 128 0 128
4 1 2 22 21 0 255 0
4 2 3 23 22 0 255 0
4 3 4 24 23 0 255 0
4 4 5 25 24 0 255 0
4 5 6 26 25 0 255 0
4 6 7 27 26 0 255 0
4 7 8 28 27 0 255 0
4 8 9 29 28 0 255 0
4 9 10 30 29 0 255 0
4 10 11 31 30 0 255 0
4 11 12 32 31 0 255 0
4 12 0 20 32 128 0 128
4 13 14 34 33 0 255 0
4 14 15 35 34 0 255 0
4 15 16 36 35 0 255 0
4 16 17 37 36 0 255 0
4 17 18 38 37 0 255 0
4 18 19 39 38 0 255 0
4 19 13 33 39 0 255 0
