ply
format ascii 1.0
element vertex 38
property float x
property float y
property float z
element face 33
property list uchar int vertex_index
property uchar red
property uchar green
property uchar blue
end_header
0.171875 0.2069593369960785 1.0
0.203125 0.3553898334503174 1.0
0.375 0.4365908205509186 1.0
0.47718334197998047 0.578125 1.0
0.5901939868927002 0.71875 1.0
0.796371579170227 0.75 1.0
0.796875 0.5886209011077881 1.0
0.625 0.5026980042457581 1.0
0.5929375290870667 0.359375 1.0
0.47127851843833923 0.25 1.0
0.265625 0.20600637793540955 1.0
0.22979578375816345 0.25 1.0
0.4136708080768585 0.28125 1.0
0.5376654267311096 0.40625 1.0
0.359375 0.378225713968277 1.0
0.203125 0.28536999225616455 1.0
0.578125 0.5446420907974243 1.0
0.734375 0.637262225151062 1.0
0.625 0.6691092252731323 1.0
0.171875 0.2069593369960785 0.0
0.203125 0.3553898334503174 0.0
0.375 0.4365908205509186 0.0
0.47718334197998047 0.578125 0.0
0.5901939868927002 0.71875 0.0
0.796371579170227 0.75 0.0
0.796875 0.5886209011077881 0.0
0.625 0.5026980042457581 0.0
0.5929375290870667 0.359375 0.0
0.47127851843833923 0.25 0.0
0.265625 0.20600637793540955 0.0
0.22979578375816345 0.25 0.0
0.4136708080768585 0.28125 0.0
0.5376654267311096 0.40625 0.0
0.359375 0.378225713968277 0.0
0.203125 0.28536999225616455 0.0
0.578125 0.5446420907974243 0.0
0.734375 0.637262225151062 0.0
0.625 0.6691092252731323 0.0
4 8 13 12 9 255 0 0
9 7 16 18 4 3 2 14 13 8 255 0 0
5 4 18 17 6 5 255 0 0
5 10 11 15 1 0 255 0 0
4 6 17 16 7 255 0 0
4 9 12 11 10 255 0 0
4 1 15 14 2 255 0 0
4 27 28 31 32 0 0 255
9 26 27 32 33 21 22 23 37 35 0 0 255
5 23 24 25 36 37 0 0 255
5 29 19 20 34 30 0 0 255
4 25 26 35 36 0 0 255
4 28 29 30 31 0 0 255
4 20 21 33 34 0 0 255
4 0 1 20 19 0 255 0
4 1 2 21 20 0 255 0
4 2 3 22 21 0 255 0
4 3 4 23 22 0 255 0
4 4 5 24 23 0 255 0
4 5 6 25 24 0 255 0
4 6 7 26 25 0 255 0
4 7 8 27 26 0 255 0
4 8 9 28 27 0 255 0
4 9 10 29 28 128 0 128
4 10 0 19 29 128 0 128
4 11 12 31 30 0 255 0
4 12 13 32 31 0 255 0
4 13 14 33 32 0 255 0
4 14 15 34 33 0 255 0
4 15 11 30 34 0 255 0
4 16 17 36 35 0 255 0
4 17 18 37 36 0 255 0
4 18 16 35 37 0 255 0
