ply
format ascii 1.0
element vertex 42
property float x
property float y
property float z
element face 39
property list uchar int vertex_index
property uchar red
property uchar green
property uchar blue
end_header
0.44750016927719116 0.09375 1.0
0.3125 0.17437539994716644 1.0
0.19114765524864197 0.3125 1.0
0.14501821994781494 0.515625 1.0
0.21875 0.6972467303276062 1.0
0.359375 0.8049789071083069 1.0
0.53125 0.7819273471832275 1.0
0.7097367644309998 0.75 1.0
0.784490704536438 0.578125 1.0
0.8182458281517029 0.359375 1.0
0.71875 0.20656077563762665 1.0
0.5790846347808838 0.109375 1.0
0.5017571449279785 0.234375 1.0
0.5283673405647278 0.25 1.0
0.6883796453475952 0.328125 1.0
0.671875 0.5186259150505066 1.0
0.53125 0.6315189599990845 1.0
0.375 0.6371434330940247 1.0
0.2951350510120392 0.625 1.0
0.28125 0.4269172251224518 1.0
0.40625 0.302200049161911 1.0
0.44750016927719116 0.09375 0.0
0.3125 0.17437539994716644 0.0
0.19114765524864197 0.3125 0.0
0.14501821994781494 0.515625 0.0
0.21875 0.6972467303276062 0.0
0.359375 0.8049789071083069 0.0
0.53125 0.7819273471832275 0.0
0.7097367644309998 0.75 0.0
0.784490704536438 0.578125 0.0
0.8182458281517029 0.359375 0.0
0.71875 0.20656077563762665 0.0
0.5790846347808838 0.109375 0.0
0.5017571449279785 0.234375 0.0
0.5283673405647278 0.25 0.0
0.6883796453475952 0.328125 0.0
0.671875 0.5186259150505066 0.0
0.53125 0.6315189599990845 0.0
0.375 0.6371434330940247 0.0
0.2951350510120392 0.625 0.0
0.28125 0.4269172251224518 0.0
0.40625 0.302200049161911 0.0
5 4 17 16 6 5 255 0 0
3 4 18 17 255 0 0
4 10 14 13 11 255 0 0
5 6 16 15 8 7 255 0 0
5 8 15 14 10 9 255 0 0
5 2 19 18 4 3 255 0 0
5 11 12 20 1 0 255 0 0
4 1 20 19 2 255 0 0
3 11 13 12 255 0 0
5 25 26 27 37 38 0 0 255
3 25 38 39 0 0 255
4 31 32 34 35 0 0 255
5 27 28 29 36 37 0 0 255
5 29 30 31 35 36 0 0 255
5 23 24 25 39 40 0 0 255
5 32 21 22 41 33 0 0 255
4 22 23 40 41 0 0 255
3 32 33 34 0 0 255
4 0 1 22 21 128 0 128
4 1 2 23 22 0 255 0
4 2 3 24 23 0 255 0
4 3 4 25 24 0 255 0
4 4 5 26 25 0 255 0
4 5 6 27 26 0 255 0
4 6 7 28 27 0 255 0
4 7 8 29 28 0 255 0
4 8 9 30 29 0 255 0
4 9 10 31 30 0 255 0
4 10 11 32 31 0 255 0
4 11 0 21 32 128 0 128
4 12 13 34 33 0 255 0
4 13 14 35 34 0 255 0
4 14 15 36 35 0 255 0
4 15 16 37 36 0 255 0
4 16 17 38 37 0 255 0
4 17 18 39 38 0 255 0
4 18 19 40 39 0 255 0
4 19 20 41 40 0 255 0
4 20 12 33 41 0 255 0
