ply
format ascii 1.0
element vertex 40
property float x
property float y
property float z
element face 36
property list uchar int vertex_index
property uchar red
property uchar green
property uchar blue
end_header
0.21779467165470123 0.125 1.0
0.18503469228744507 0.3125 1.0
0.27986809611320496 0.46875 1.0
0.381686806678772 0.609375 1.0
0.53125 0.7056575417518616 1.0
0.703125 0.793642520904541 1.0
0.8601529598236084 0.734375 1.0
0.796875 0.5495994687080383 1.0
0.7057474851608276 0.390625 1.0
0.5869433879852295 0.265625 1.0
0.4375 0.15715748071670532 1.0
0.234375 0.11699395626783371 1.0
0.328125 0.24542690813541412 1.0
0.453125 0.3038896322250366 1.0
0.578125 0.4220459759235382 1.0
0.6883462071418762 0.5625 1.0
0.65625 0.6849381923675537 1.0
0.515625 0.5751791000366211 1.0
0.405284583568573 0.4375 1.0
0.31326475739479065 0.265625 1.0
0.21779467165470123 0.125 0.0
0.18503469228744507 0.3125 0.0
0.27986809611320496 0.46875 0.0
0.381686806678772 0.609375 0.0
0.53125 0.7056575417518616 0.0
0.703125 0.793642520904541 0.0
0.8601529598236084 0.734375 0.0
0.796875 0.5495994687080383 0.0
0.7057474851608276 0.390625 0.0
0.5869433879852295 0.265625 0.0
0.4375 0.15715748071670532 0.0
0.234375 0.11699395626783371 0.0
0.328125 0.24542690813541412 0.0
0.453125 0.3038896322250366 0.0
0.578125 0.4220459759235382 0.0
0.6883462071418762 0.5625 0.0
0.65625 0.6849381923675537 0.0
0.515625 0.5751791000366211 0.0
0.405284583568573 0.4375 0.0
0.31326475739479065 0.265625 0.0
4 7 15 14 8 255 0 0
4 4 17 16 5 255 0 0
4 8 14 13 9 255 0 0
4 1 19 18 2 255 0 0
6 10 12 19 1 0 11 255 0 0
4 9 13 12 10 255 0 0
5 5 16 15 7 6 255 0 0
5 2 18 17 4 3 255 0 0
4 27 28 34 35 0 0 255
4 24 25 36 37 0 0 255
4 28 29 33 34 0 0 255
4 21 22 38 39 0 0 255
6 30 31 20 21 39 32 0 0 255
4 29 30 32 33 0 0 255
5 25 26 27 35 36 0 0 255
5 22 23 24 37 38 0 0 255
4 0 1 21 20 0 255 0
4 1 2 22 21 0 255 0
4 2 3 23 22 0 255 0
4 3 4 24 23 0 255 0
4 4 5 25 24 0 255 0
4 5 6 26 25 0 255 0
4 6 7 27 26 0 255 0
4 7 8 28 27 0 255 0
4 8 9 29 28 0 255 0
4 9 10 30 29 0 255 0
4 10 11 31 30 128 0 128
4 11 0 20 31 128 0 128
4 12 13 33 32 0 255 0
4 13 14 34 33 0 255 0
4 14 15 35 34 0 255 0
4 15 16 36 35 0 255 0
4 16 17 37 36 0 255 0
4 17 18 38 37 0 255 0
4 18 19 39 38 0 255 0
4 19 12 32 39 0 255 0
