ply
format ascii 1.0
element vertex 38
property float x
property float y
property float z
element face 21
property list uchar int vertex_index
property uchar red
property uchar green
property uchar blue
end_header
0.324104905128479 0.125 1.0
0.328125 0.3033474385738373 1.0
0.46875 0.4168151915073395 1.0
0.59375 0.5344238877296448 1.0
0.609375 0.7000827789306641 1.0
0.4375 0.7705672383308411 1.0
0.28125 0.6852855682373047 1.0
0.18521319329738617 0.703125 1.0
0.328125 0.8022204041481018 1.0
0.53125 0.8223585486412048 1.0
0.7004388570785522 0.734375 1.0
0.6956304311752319 0.546875 1.0
0.625 0.3883725106716156 1.0
0.796875 0.3055954873561859 1.0
0.703125 0.2649281322956085 1.0
0.5420509576797485 0.265625 1.0
0.40625 0.14333300292491913 1.0
0.40625 0.22888906300067902 1.0
0.39234310388565063 0.25 1.0
0.324104905128479 0.125 0.0
0.328125 0.3033474385738373 0.0
0.46875 0.4168151915073395 0.0
0.59375 0.5344238877296448 0.0
0.609375 0.7000827789306641 0.0
0.4375 0.7705672383308411 0.0
0.28125 0.6852855682373047 0.0
0.18521319329738617 0.703125 0.0
0.328125 0.8022204041481018 0.0
0.53125 0.8223585486412048 0.0
0.7004388570785522 0.734375 0.0
0.6956304311752319 0.546875 0.0
0.625 0.3883725106716156 0.0
0.796875 0.3055954873561859 0.0
0.703125 0.2649281322956085 0.0
0.5420509576797485 0.265625 0.0
0.40625 0.14333300292491913 0.0
0.40625 0.22888906300067902 0.0
0.39234310388565063 0.25 0.0
5 16 17 18 1 0 255 0 0
18 1 18 17 16 15 14 13 12 11 10 9 8 7 6 5 4 3 2 255 0 0
5 35 19 20 37 36 0 0 255
18 20 21 22 23 24 25 26 27 28 29 30 31 32 33 34 35 36 37 0 0 255
4 0 1 20 19 128 0 128
4 1 2 21 20 0 255 0
4 2 3 22 21 0 255 0
4 3 4 23 22 0 255 0
4 4 5 24 23 0 255 0
4 5 6 25 24 0 255 0
4 6 7 26 25 0 255 0
4 7 8 27 26 0 255 0
4 8 9 28 27 0 255 0
4 9 10 29 28 0 255 0
4 10 11 30 29 0 255 0
4 11 12 31 30 0 255 0
4 12 13 32 31 0 255 0
4 13 14 33 32 0 255 0
4 14 15 34 33 0 255 0
4 15 16 35 34 0 255 0
4 16 0 19 35 128 0 128
