ply
format ascii 1.0
element vertex 42
property float x
property float y
property float z
element face 23
property list uchar int vertex_index
property uchar red
property uchar green
property uchar blue
end_header
0.28125 0.056219447404146194 1.0
0.5 0.09121008217334747 1.0
0.65625 0.1759064495563507 1.0
0.700465977191925 0.359375 1.0
0.65625 0.49896499514579773 1.0
0.7970215082168579 0.59375 1.0
0.78125 0.7603835463523865 1.0
0.578125 0.766529381275177 1.0
0.375 0.7308531403541565 1.0
0.203125 0.7442125082015991 1.0
0.3125 0.6778479814529419 1.0
0.53125 0.6759449243545532 1.0
0.6875 0.6336812973022461 1.0
0.53125 0.5457624197006226 1.0
0.3410530686378479 0.546875 1.0
0.390625 0.44163626432418823 1.0
0.5625 0.3741033375263214 1.0
0.5760114789009094 0.25 1.0
0.41007980704307556 0.15625 1.0
0.25 0.22847947478294373 1.0
0.21875 0.11848828941583633 1.0
0.28125 0.056219447404146194 0.0
0.5 0.09121008217334747 0.0
0.65625 0.1759064495563507 0.0
0.700465977191925 0.359375 0.0
0.65625 0.49896499514579773 0.0
0.7970215082168579 0.59375 0.0
0.78125 0.7603835463523865 0.0
0.578125 0.766529381275177 0.0
0.375 0.7308531403541565 0.0
0.203125 0.7442125082015991 0.0
0.3125 0.6778479814529419 0.0
0.53125 0.6759449243545532 0.0
0.6875 0.6336812973022461 0.0
0.53125 0.5457624197006226 0.0
0.3410530686378479 0.546875 0.0
0.390625 0.44163626432418823 0.0
0.5625 0.3741033375263214 0.0
0.5760114789009094 0.25 0.0
0.41007980704307556 0.15625 0.0
0.25 0.22847947478294373 0.0
0.21875 0.11848828941583633 0.0
21 0 1 2 3 4 5 6 7 8 9 10 11 12 13 14 15 16 17 18 19 20 255 0 0
21 21 41 40 39 38 37 36 35 34 33 32 31 30 29 28 27 26 25 24 23 22 0 0 255
4 1 0 21 22 128 0 128
4 2 1 22 23 0 255 0
4 3 2 23 24 0 255 0
4 4 3 24 25 0 255 0
4 5 4 25 26 0 255 0
4 6 5 26 27 0 255 0
4 7 6 27 28 0 255 0
4 8 7 28 29 0 255 0
4 9 8 29 30 0 255 0
4 10 9 30 31 0 255 0
4 11 10 31 32 0 255 0
4 12 11 32 33 0 255 0
4 13 12 33 34 0 255 0
4 14 13 34 35 0 255 0
4 15 14 35 36 0 255 0
4 16 15 36 37 0 255 0
4 17 16 37 38 0 255 0
4 18 17 38 39 0 255 0
4 19 18 39 40 0 255 0
4 20 19 40 41 0 255 0
4 0 20 41 21 128 0 128
