ply
format ascii 1.0
element vertex 38
property float x
property float y
property float z
element face 35
property list uchar int vertex_index
property uchar red
property uchar green
property uchar blue
end_header
0.3389214873313904 0.140625 1.0
0.21451549232006073 0.265625 1.0
0.22986355423927307 0.4375 1.0
0.3026176393032074 0.609375 1.0
0.40625 0.7578187584877014 1.0
0.5625 0.8263686895370483 1.0
0.71875 0.7197461724281311 1.0
0.8112291097640991 0.5625 1.0
0.7676873803138733 0.34375 1.0
0.65625 0.20456255972385406 1.0
0.4739896059036255 0.140625 1.0
0.390625 0.23427234590053558 1.0
0.4375 0.23878267407417297 1.0
0.6224681735038757 0.3125 1.0
0.7193246483802795 0.453125 1.0
0.666782557964325 0.640625 1.0
0.515625 0.7150703072547913 1.0
0.40041136741638184 0.578125 1.0
0.3174052834510803 0.40625 1.0
0.3389214873313904 0.140625 0.0
0.21451549232006073 0.265625 0.0
0.22986355423927307 0.4375 0.0
0.3026176393032074 0.609375 0.0
0.40625 0.7578187584877014 0.0
0.5625 0.8263686895370483 0.0
0.71875 0.7197461724281311 0.0
0.8112291097640991 0.5625 0.0
0.7676873803138733 0.34375 0.0
0.65625 0.20456255972385406 0.0
0.4739896059036255 0.140625 0.0
0.390625 0.23427234590053558 0.0
0.4375 0.23878267407417297 0.0
0.6224681735038757 0.3125 0.0
0.7193246483802795 0.453125 0.0
0.666782557964325 0.640625 0.0
0.515625 0.7150703072547913 0.0
0.40041136741638184 0.578125 0.0
0.3174052834510803 0.40625 0.0
4 8 14 13 9 255 0 0
5 0 11 18 2 1 255 0 0
4 10 12 11 0 255 0 0
5 6 15 14 8 7 255 0 0
4 3 17 16 4 255 0 0
4 9 13 12 10 255 0 0
4 2 18 17 3 255 0 0
5 4 16 15 6 5 255 0 0
4 27 28 32 33 0 0 255
5 19 20 21 37 30 0 0 255
4 29 19 30 31 0 0 255
5 25 26 27 33 34 0 0 255
4 22 23 35 36 0 0 255
4 28 29 31 32 0 0 255
4 21 22 36 37 0 0 255
5 23 24 25 34 35 0 0 255
4 0 1 20 19 0 255 0
4 1 2 21 20 0 255 0
4 2 3 22 21 0 255 0
4 3 4 23 22 0 255 0
4 4 5 24 23 0 255 0
4 5 6 25 24 0 255 0
4 6 7 26 25 0 255 0
4 7 8 27 26 0 255 0
4 8 9 28 27 0 255 0
4 9 10 29 28 0 255 0
4 10 0 19 29 128 0 128
4 11 12 31 30 0 255 0
4 12 13 32 31 0 255 0
4 13 14 33 32 0 255 0
4 14 15 34 33 0 255 0
4 15 16 35 34 0 255 0
4 16 17 36 35 0 255 0
4 17 18 37 36 0 255 0
4 18 11 30 37 0 255 0
