ply
format ascii 1.0
element vertex 36
property float x
property float y
property float z
element face 26
property list uchar int vertex_index
property uchar red
property uchar green
property uchar blue
end_header
0.3024534285068512 0.171875 1.0
0.25710541009902954 0.34375 1.0
0.390625 0.4561043083667755 1.0
0.5966903567314148 0.46875 1.0
0.5944247841835022 0.6875 1.0
0.46875 0.8031203150749207 1.0
0.28125 0.743766188621521 1.0
0.36508679389953613 0.859375 1.0
0.5898820161819458 0.84375 1.0
0.6762993335723877 0.6875 1.0
0.677766740322113 0.46875 1.0
0.7145680785179138 0.28125 1.0
0.625 0.24768203496932983 1.0
0.5 0.2160201072692871 1.0
0.375 0.2411634624004364 1.0
0.4375 0.2679705023765564 1.0
0.4840889275074005 0.390625 1.0
0.34375 0.32639771699905396 1.0
0.3024534285068512 0.171875 0.0
0.25710541009902954 0.34375 0.0
0.390625 0.4561043083667755 0.0
0.5966903567314148 0.46875 0.0
0.5944247841835022 0.6875 0.0
0.46875 0.8031203150749207 0.0
0.28125 0.743766188621521 0.0
0.36508679389953613 0.859375 0.0
0.5898820161819458 0.84375 0.0
0.6762993335723877 0.6875 0.0
0.677766740322113 0.46875 0.0
0.7145680785179138 0.28125 0.0
0.625 0.24768203496932983 0.0
0.5 0.2160201072692871 0.0
0.375 0.2411634624004364 0.0
0.4375 0.2679705023765564 0.0
0.4840889275074005 0.390625 0.0
0.34375 0.32639771699905396 0.0
4 13 15 14 0 255 0 0
4 0 14 17 1 255 0 0
14 2 16 15 13 12 11 10 9 8 7 6 5 4 3 255 0 0
4 1 17 16 2 255 0 0
4 31 18 32 33 0 0 255
4 18 19 35 32 0 0 255
14 20 21 22 23 24 25 26 27 28 29 30 31 33 34 0 0 255
4 19 20 34 35 0 0 255
4 0 1 19 18 128 0 128
4 1 2 20 19 0 255 0
4 2 3 21 20 0 255 0
4 3 4 22 21 0 255 0
4 4 5 23 22 0 255 0
4 5 6 24 23 0 255 0
4 6 7 25 24 0 255 0
4 7 8 26 25 0 255 0
4 8 9 27 26 0 255 0
4 9 10 28 27 0 255 0
4 10 11 29 28 0 255 0
4 11 12 30 29 0 255 0
4 12 13 31 30 0 255 0
4 13 0 18 31 128 0 128
4 14 15 33 32 0 255 0
4 15 16 34 33 0 255 0
4 16 17 35 34 0 255 0
4 17 14 32 35 0 255 0
