ply
format ascii 1.0
element vertex 28
property float x
property float y
property float z
element face 22
property list uchar int vertex_index
property uchar red
property uchar green
property uchar blue
end_header
0.6885952353477478 0.0625 1.0
0.5846452713012695 0.203125 1.0
0.53125 0.3913455009460449 1.0
0.375 0.4640458822250366 1.0
0.2773350775241852 0.609375 1.0
0.39143410325050354 0.734375 1.0
0.5590243935585022 0.6875 1.0
0.5812590718269348 0.46875 1.0
0.6222319602966309 0.25 1.0
0.7253198027610779 0.109375 1.0
0.421875 0.5116904973983765 1.0
0.46875 0.517303466796875 1.0
0.5 0.6928462386131287 1.0
0.34375 0.6310204863548279 1.0
0.6885952353477478 0.0625 0.0
0.5846452713012695 0.203125 0.0
0.53125 0.3913455009460449 0.0
0.375 0.4640458822250366 0.0
0.2773350775241852 0.609375 0.0
0.39143410325050354 0.734375 0.0
0.5590243935585022 0.6875 0.0
0.5812590718269348 0.46875 0.0
0.6222319602966309 0.25 0.0
0.7253198027610779 0.109375 0.0
0.421875 0.5116904973983765 0.0
0.46875 0.517303466796875 0.0
0.5 0.6928462386131287 0.0
0.34375 0.6310204863548279 0.0
4 3 10 13 4 255 0 0
10 6 12 11 3 2 1 0 9 8 7 255 0 0
3 3 11 10 255 0 0
5 4 13 12 6 5 255 0 0
4 17 18 27 24 0 0 255
10 20 21 22 23 14 15 16 17 25 26 0 0 255
3 17 24 25 0 0 255
5 18 19 20 26 27 0 0 255
4 0 1 15 14 128 0 128
4 1 2 16 15 0 255 0
4 2 3 17 16 0 255 0
4 3 4 18 17 0 255 0
4 4 5 19 18 0 255 0
4 5 6 20 19 0 255 0
4 6 7 21 20 0 255 0
4 7 8 22 21 0 255 0
4 8 9 23 22 0 255 0
4 9 0 14 23 128 0 128
4 10 11 25 24 0 255 0
4 11 12 26 25 0 255 0
4 12 13 27 26 0 255 0
4 13 10 24 27 0 255 0
