ply
format ascii 1.0
element vertex 40
property float x
property float y
property float z
element face 38
property list uchar int vertex_index
property uchar red
property uchar green
property uchar blue
end_header
0.45537227392196655 0.140625 1.0
0.296875 0.23330992460250854 1.0
0.22745974361896515 0.40625 1.0
0.25992682576179504 0.625 1.0
0.375 0.7594808340072632 1.0
0.5625 0.827079713344574 1.0
0.7134891152381897 0.75 1.0
0.78125 0.5708518028259277 1.0
0.7832160592079163 0.390625 1.0
0.703125 0.21912473440170288 1.0
0.546875 0.12841472029685974 1.0
0.46875 0.2003941833972931 1.0
0.657844066619873 0.25 1.0
0.7309591770172119 0.4375 1.0
0.71875 0.6549050211906433 1.0
0.5789888501167297 0.765625 1.0
0.4123915135860443 0.703125 1.0
0.30662456154823303 0.5625 1.0
0.296875 0.3678075969219208 1.0
0.40625 0.22545933723449707 1.0
0.45537227392196655 0.140625 0.0
0.296875 0.23330992460250854 0.0
0.22745974361896515 0.40625 0.0
0.25992682576179504 0.625 0.0
0.375 0.7594808340072632 0.0
0.5625 0.827079713344574 0.0
0.7134891152381897 0.75 0.0
0.78125 0.5708518028259277 0.0
0.7832160592079163 0.390625 0.0
0.703125 0.21912473440170288 0.0
0.546875 0.12841472029685974 0.0
0.46875 0.2003941833972931 0.0
0.657844066619873 0.25 0.0
0.7309591770172119 0.4375 0.0
0.71875 0.6549050211906433 0.0
0.5789888501167297 0.765625 0.0
0.4123915135860443 0.703125 0.0
0.30662456154823303 0.5625 0.0
0.296875 0.3678075969219208 0.0
0.40625 0.22545933723449707 0.0
4 8 13 12 9 255 0 0
3 0 11 19 255 0 0
4 3 17 16 4 255 0 0
5 0 19 18 2 1 255 0 0
5 9 12 11 0 10 255 0 0
5 6 14 13 8 7 255 0 0
4 5 15 14 6 255 0 0
4 2 18 17 3 255 0 0
4 4 16 15 5 255 0 0
4 28 29 32 33 0 0 255
3 20 39 31 0 0 255
4 23 24 36 37 0 0 255
5 20 21 22 38 39 0 0 255
5 29 30 20 31 32 0 0 255
5 26 27 28 33 34 0 0 255
4 25 26 34 35 0 0 255
4 22 23 37 38 0 0 255
4 24 25 35 36 0 0 255
4 0 1 21 20 0 255 0
4 1 2 22 21 0 255 0
4 2 3 23 22 0 255 0
4 3 4 24 23 0 255 0
4 4 5 25 24 0 255 0
4 5 6 26 25 0 255 0
4 6 7 27 26 0 255 0
4 7 8 28 27 0 255 0
4 8 9 29 28 0 255 0
4 9 10 30 29 128 0 128
4 10 0 20 30 128 0 128
4 11 12 32 31 0 255 0
4 12 13 33 32 0 255 0
4 13 14 34 33 0 255 0
4 14 15 35 34 0 255 0
4 15 16 36 35 0 255 0
4 16 17 37 36 0 255 0
4 17 18 38 37 0 255 0
4 18 19 39 38 0 255 0
4 19 11 31 39 0 255 0
