ply
format ascii 1.0
element vertex 42
property float x
property float y
property float z
element face 23
property list uchar int vertex_index
property uchar red
property uchar green
property uchar blue
end_header
0.328125 0.10377106070518494 1.0
0.578125 0.10376183688640594 1.0
0.7261866331100464 0.203125 1.0
0.8001036643981934 0.375 1.0
0.6875 0.5079048275947571 1.0
0.5559538006782532 0.59375 1.0
0.6511819958686829 0.75 1.0
0.453125 0.8035728335380554 1.0
0.234375 0.7681061029434204 1.0
0.20833607017993927 0.6875 1.0
0.421875 0.7340158224105835 1.0
0.5658488869667053 0.6875 1.0
0.421875 0.5836716890335083 1.0
0.25 0.5018274784088135 1.0
0.40625 0.4909210205078125 1.0
0.6341810822486877 0.46875 1.0
0.7434157133102417 0.328125 1.0
0.609375 0.20868784189224243 1.0
0.40625 0.1613418310880661 1.0
0.2593780755996704 0.265625 1.0
0.234375 0.16028453409671783 1.0
0.328125 0.10377106070518494 0.0
0.578125 0.10376183688640594 0.0
0.7261866331100464 0.203125 0.0
0.8001036643981934 0.375 0.0
0.6875 0.5079048275947571 0.0
0.5559538006782532 0.59375 0.0
0.6511819958686829 0.75 0.0
0.453125 0.8035728335380554 0.0
0.234375 0.7681061029434204 0.0
0.20833607017993927 0.6875 0.0
0.421875 0.7340158224105835 0.0
0.5658488869667053 0.6875 0.0
0.421875 0.5836716890335083 0.0
0.25 0.5018274784088135 0.0
0.40625 0.4909210205078125 0.0
0.6341810822486877 0.46875 0.0
0.7434157133102417 0.328125 0.0
0.609375 0.20868784189224243 0.0
0.40625 0.1613418310880661 0.0
0.2593780755996704 0.265625 0.0
0.234375 0.16028453409671783 0.0
21 0 1 2 3 4 5 6 7 8 9 10 11 12 13 14 15 16 17 18 19 20 255 0 0
21 21 41 40 39 38 37 36 35 34 33 32 31 30 29 28 27 26 25 24 23 22 0 0 255
4 1 0 21 22 128 0 128
4 2 1 22 23 128 0 128
4 3 2 23 24 0 255 0
4 4 3 24 25 0 255 0
4 5 4 25 26 0 255 0
4 6 5 26 27 0 255 0
4 7 6 27 28 0 255 0
4 8 7 28 29 0 255 0
4 9 8 29 30 0 255 0
4 10 9 30 31 0 255 0
4 11 10 31 32 0 255 0
4 12 11 32 33 0 255 0
4 13 12 33 34 0 255 0
4 14 13 34 35 0 255 0
4 15 14 35 36 0 255 0
4 16 15 36 37 0 255 0
4 17 16 37 38 0 255 0
4 18 17 38 39 0 255 0
4 19 18 39 40 0 255 0
4 20 19 40 41 0 255 0
4 0 20 41 21 0 255 0
