ply
format ascii 1.0
element vertex 48
property float x
property float y
property float z
element face 44
property list uchar int vertex_index
property uchar red
property uchar green
property uchar blue
end_header
0.375 0.1476658135652542 1.0
0.2657209038734436 0.296875 1.0
0.234375 0.4714788496494293 1.0
0.2285098135471344 0.6875 1.0
0.375 0.7879731059074402 1.0
0.5625 0.8219237923622131 1.0
0.6510434746742249 0.65625 1.0
0.8125 0.6026189923286438 1.0
0.8993602395057678 0.4375 1.0
0.8125 0.27522721886634827 1.0
0.6453590393066406 0.1875 1.0
0.453125 0.1269870400428772 1.0
0.484375 0.20223109424114227 1.0
0.6641219258308411 0.265625 1.0
0.796875 0.386381059885025 1.0
0.75 0.5640010237693787 1.0
0.5815592408180237 0.515625 1.0
0.435648649930954 0.421875 1.0
0.36992061138153076 0.296875 1.0
0.32929369807243347 0.546875 1.0
0.4375 0.5652443170547485 1.0
0.5915911793708801 0.671875 1.0
0.4814058244228363 0.734375 1.0
0.375 0.6852517127990723 1.0
0.375 0.1476658135652542 0.0
0.2657209038734436 0.296875 0.0
0.234375 0.4714788496494293 0.0
0.2285098135471344 0.6875 0.0
0.375 0.7879731059074402 0.0
0.5625 0.8219237923622131 0.0
0.6510434746742249 0.65625 0.0
0.8125 0.6026189923286438 0.0
0.8993602395057678 0.4375 0.0
0.8125 0.27522721886634827 0.0
0.6453590393066406 0.1875 0.0
0.453125 0.1269870400428772 0.0
0.484375 0.20223109424114227 0.0
0.6641219258308411 0.265625 0.0
0.796875 0.386381059885025 0.0
0.75 0.5640010237693787 0.0
0.5815592408180237 0.515625 0.0
0.435648649930954 0.421875 0.0
0.36992061138153076 0.296875 0.0
0.32929369807243347 0.546875 0.0
0.4375 0.5652443170547485 0.0
0.5915911793708801 0.671875 0.0
0.4814058244228363 0.734375 0.0
0.375 0.6852517127990723 0.0
5 7 15 14 9 8 255 0 0
6 17 20 19 2 1 18 255 0 0
5 4 22 21 6 5 255 0 0
4 10 13 12 11 255 0 0
6 20 16 15 7 6 21 255 0 0
5 2 19 23 4 3 255 0 0
3 20 17 16 255 0 0
4 9 14 13 10 255 0 0
5 11 12 18 1 0 255 0 0
3 4 23 22 255 0 0
5 31 32 33 38 39 0 0 255
6 41 42 25 26 43 44 0 0 255
5 28 29 30 45 46 0 0 255
4 34 35 36 37 0 0 255
6 44 45 30 31 39 40 0 0 255
5 26 27 28 47 43 0 0 255
3 44 40 41 0 0 255
4 33 34 37 38 0 0 255
5 35 24 25 42 36 0 0 255
3 28 46 47 0 0 255
4 0 1 25 24 0 255 0
4 1 2 26 25 0 255 0
4 2 3 27 26 0 255 0
4 3 4 28 27 0 255 0
4 4 5 29 28 0 255 0
4 5 6 30 29 0 255 0
4 6 7 31 30 0 255 0
4 7 8 32 31 0 255 0
4 8 9 33 32 0 255 0
4 9 10 34 33 0 255 0
4 10 11 35 34 128 0 128
4 11 0 24 35 128 0 128
4 12 13 37 36 0 255 0
4 13 14 38 37 0 255 0
4 14 15 39 38 0 255 0
4 15 16 40 39 0 255 0
4 16 17 41 40 0 255 0
4 17 18 42 41 0 255 0
4 18 12 36 42 0 255 0
4 19 20 44 43 0 255 0
4 20 21 45 44 0 255 0
4 21 22 46 45 0 255 0
4 22 23 47 46 0 255 0
4 23 19 43 47 0 255 0
