ply
format ascii 1.0
element vertex 44
property float x
property float y
property float z
element face 38
property list uchar int vertex_index
property uchar red
property uchar green
property uchar blue
end_header
0.484375 0.0680399164557457 1.0
0.34375 0.18588240444660187 1.0
0.33326825499534607 0.390625 1.0
0.2767711281776428 0.546875 1.0
0.328125 0.7410266995429993 1.0
0.5479356646537781 0.765625 1.0
0.71875 0.6882147789001465 1.0
0.7199949026107788 0.59375 1.0
0.59375 0.6239817142486572 1.0
0.45948463678359985 0.5 1.0
0.5659630298614502 0.390625 1.0
0.6875 0.25476521253585815 1.0
0.625 0.08610188961029053 1.0
0.5 0.1444949358701706 1.0
0.53125 0.1473303735256195 1.0
0.6014401912689209 0.265625 1.0
0.46875 0.3769723176956177 1.0
0.38542643189430237 0.25 1.0
0.390625 0.5368120670318604 1.0
0.453125 0.6042240858078003 1.0
0.515625 0.7054817080497742 1.0
0.3399631083011627 0.640625 1.0
0.484375 0.0680399164557457 0.0
0.34375 0.18588240444660187 0.0
0.33326825499534607 0.390625 0.0
0.2767711281776428 0.546875 0.0
0.328125 0.7410266995429993 0.0
0.5479356646537781 0.765625 0.0
0.71875 0.6882147789001465 0.0
0.7199949026107788 0.59375 0.0
0.59375 0.6239817142486572 0.0
0.45948463678359985 0.5 0.0
0.5659630298614502 0.390625 0.0
0.6875 0.25476521253585815 0.0
0.625 0.08610188961029053 0.0
0.5 0.1444949358701706 0.0
0.53125 0.1473303735256195 0.0
0.6014401912689209 0.265625 0.0
0.46875 0.3769723176956177 0.0
0.38542643189430237 0.25 0.0
0.390625 0.5368120670318604 0.0
0.453125 0.6042240858078003 0.0
0.515625 0.7054817080497742 0.0
0.3399631083011627 0.640625 0.0
4 4 21 20 5 255 0 0
10 1 17 16 10 9 18 21 4 3 2 255 0 0
7 5 20 19 9 8 7 6 255 0 0
4 10 16 15 11 255 0 0
3 9 19 18 255 0 0
4 0 13 17 1 255 0 0
3 0 14 13 255 0 0
5 11 15 14 0 12 255 0 0
4 26 27 42 43 0 0 255
10 23 24 25 26 43 40 31 32 38 39 0 0 255
7 27 28 29 30 31 41 42 0 0 255
4 32 33 37 38 0 0 255
3 31 40 41 0 0 255
4 22 23 39 35 0 0 255
3 22 35 36 0 0 255
5 33 34 22 36 37 0 0 255
4 0 1 23 22 128 0 128
4 1 2 24 23 0 255 0
4 2 3 25 24 0 255 0
4 3 4 26 25 0 255 0
4 4 5 27 26 0 255 0
4 5 6 28 27 0 255 0
4 6 7 29 28 0 255 0
4 7 8 30 29 0 255 0
4 8 9 31 30 0 255 0
4 9 10 32 31 0 255 0
4 10 11 33 32 0 255 0
4 11 12 34 33 0 255 0
4 12 0 22 34 128 0 128
4 13 14 36 35 0 255 0
4 14 15 37 36 0 255 0
4 15 16 38 37 0 255 0
4 16 17 39 38 0 255 0
4 17 13 35 39 0 255 0
4 18 19 41 40 0 255 0
4 19 20 42 41 0 255 0
4 20 21 43 42 0 255 0
4 21 18 40 43 0 255 0
