ply
format ascii 1.0
element vertex 42
property float x
property float y
property float z
element face 39
property list uchar int vertex_index
property uchar red
property uchar green
property uchar blue
end_header
0.484375 0.12909245491027832 1.0
0.328125 0.20250548422336578 1.0
0.33718323707580566 0.390625 1.0
0.2738633155822754 0.546875 1.0
0.34375 0.7254595160484314 1.0
0.484375 0.8369113802909851 1.0
0.6822916269302368 0.78125 1.0
0.6958233118057251 0.546875 1.0
0.7622721195220947 0.359375 1.0
0.6811397075653076 0.1875 1.0
0.5 0.1248575821518898 1.0
0.5 0.21117505431175232 1.0
0.625 0.26682719588279724 1.0
0.6357066035270691 0.421875 1.0
0.4512796103954315 0.375 1.0
0.46875 0.2132049798965454 1.0
0.44106271862983704 0.5 1.0
0.578125 0.553615927696228 1.0
0.5625 0.7165257334709167 1.0
0.4064047336578369 0.640625 1.0
0.4331837296485901 0.5 1.0
0.484375 0.12909245491027832 0.0
0.328125 0.20250548422336578 0.0
0.33718323707580566 0.390625 0.0
0.2738633155822754 0.546875 0.0
0.34375 0.7254595160484314 0.0
0.484375 0.8369113802909851 0.0
0.6822916269302368 0.78125 0.0
0.6958233118057251 0.546875 0.0
0.7622721195220947 0.359375 0.0
0.6811397075653076 0.1875 0.0
0.5 0.1248575821518898 0.0
0.5 0.21117505431175232 0.0
0.625 0.26682719588279724 0.0
0.6357066035270691 0.421875 0.0
0.4512796103954315 0.375 0.0
0.46875 0.2132049798965454 0.0
0.44106271862983704 0.5 0.0
0.578125 0.553615927696228 0.0
0.5625 0.7165257334709167 0.0
0.4064047336578369 0.640625 0.0
0.4331837296485901 0.5 0.0
6 14 20 19 4 3 2 255 0 0
5 0 15 14 2 1 255 0 0
5 7 17 16 14 13 255 0 0
5 7 13 12 9 8 255 0 0
3 0 11 15 255 0 0
5 9 12 11 0 10 255 0 0
4 6 18 17 7 255 0 0
3 14 16 20 255 0 0
5 4 19 18 6 5 255 0 0
6 35 23 24 25 40 41 0 0 255
5 21 22 23 35 36 0 0 255
5 28 34 35 37 38 0 0 255
5 28 29 30 33 34 0 0 255
3 21 36 32 0 0 255
5 30 31 21 32 33 0 0 255
4 27 28 38 39 0 0 255
3 35 41 37 0 0 255
5 25 26 27 39 40 0 0 255
4 0 1 22 21 0 255 0
4 1 2 23 22 0 255 0
4 2 3 24 23 0 255 0
4 3 4 25 24 0 255 0
4 4 5 26 25 0 255 0
4 5 6 27 26 0 255 0
4 6 7 28 27 0 255 0
4 7 8 29 28 0 255 0
4 8 9 30 29 0 255 0
4 9 10 31 30 128 0 128
4 10 0 21 31 128 0 128
4 11 12 33 32 0 255 0
4 12 13 34 33 0 255 0
4 13 14 35 34 0 255 0
4 14 15 36 35 0 255 0
4 15 11 32 36 0 255 0
4 16 17 38 37 0 255 0
4 17 18 39 38 0 255 0
4 18 19 40 39 0 255 0
4 19 20 41 40 0 255 0
4 20 16 37 41 0 255 0
