ply
format ascii 1.0
element vertex 40
property float x
property float y
property float z
element face 36
property list uchar int vertex_index
property uchar red
property uchar green
property uchar blue
end_header
0.3064098656177521 0.140625 1.0
0.234375 0.3085053265094757 1.0
0.29843196272850037 0.484375 1.0
0.40625 0.6352522969245911 1.0
0.53125 0.7607966661453247 1.0
0.6752551198005676 0.8125 1.0
0.5473251342773438 0.6875 1.0
0.609375 0.6161824464797974 1.0
0.793952465057373 0.546875 1.0
0.75 0.37282857298851013 1.0
0.625 0.24935151636600494 1.0
0.453125 0.1597079187631607 1.0
0.359375 0.19502247869968414 1.0
0.3838191330432892 0.203125 1.0
0.5591750741004944 0.28125 1.0
0.6923321485519409 0.390625 1.0
0.6875 0.5368314981460571 1.0
0.4869752824306488 0.515625 1.0
0.34375 0.4162849485874176 1.0
0.3023144602775574 0.234375 1.0
0.3064098656177521 0.140625 0.0
0.234375 0.3085053265094757 0.0
0.29843196272850037 0.484375 0.0
0.40625 0.6352522969245911 0.0
0.53125 0.7607966661453247 0.0
0.6752551198005676 0.8125 0.0
0.5473251342773438 0.6875 0.0
0.609375 0.6161824464797974 0.0
0.793952465057373 0.546875 0.0
0.75 0.37282857298851013 0.0
0.625 0.24935151636600494 0.0
0.453125 0.1597079187631607 0.0
0.359375 0.19502247869968414 0.0
0.3838191330432892 0.203125 0.0
0.5591750741004944 0.28125 0.0
0.6923321485519409 0.390625 0.0
0.6875 0.5368314981460571 0.0
0.4869752824306488 0.515625 0.0
0.34375 0.4162849485874176 0.0
0.3023144602775574 0.234375 0.0
4 9 15 14 10 255 0 0
3 0 12 19 255 0 0
8 3 17 16 8 7 6 5 4 255 0 0
4 10 14 13 11 255 0 0
5 0 19 18 2 1 255 0 0
4 2 18 17 3 255 0 0
4 8 16 15 9 255 0 0
4 11 13 12 0 255 0 0
4 29 30 34 35 0 0 255
3 20 39 32 0 0 255
8 23 24 25 26 27 28 36 37 0 0 255
4 30 31 33 34 0 0 255
5 20 21 22 38 39 0 0 255
4 22 23 37 38 0 0 255
4 28 29 35 36 0 0 255
4 31 20 32 33 0 0 255
4 0 1 21 20 128 0 128
4 1 2 22 21 0 255 0
4 2 3 23 22 0 255 0
4 3 4 24 23 0 255 0
4 4 5 25 24 0 255 0
4 5 6 26 25 0 255 0
4 6 7 27 26 0 255 0
4 7 8 28 27 0 255 0
4 8 9 29 28 0 255 0
4 9 10 30 29 0 255 0
4 10 11 31 30 0 255 0
4 11 0 20 31 128 0 128
4 12 13 33 32 0 255 0
4 13 14 34 33 0 255 0
4 14 15 35 34 0 255 0
4 15 16 36 35 0 255 0
4 16 17 37 36 0 255 0
4 17 18 38 37 0 255 0
4 18 19 39 38 0 255 0
4 19 12 32 39 0 255 0
