ply
format ascii 1.0
element vertex 44
property float x
property float y
property float z
element face 38
property list uchar int vertex_index
property uchar red
property uchar green
property uchar blue
end_header
0.375 0.09783093631267548 1.0
0.2651386857032776 0.234375 1.0
0.359375 0.37956249713897705 1.0
0.3125 0.5112687349319458 1.0
0.32103413343429565 0.703125 1.0
0.484375 0.7890552282333374 1.0
0.6875 0.766989529132843 1.0
0.767413318157196 0.609375 1.0
0.66571444272995 0.625 1.0
0.5649245381355286 0.46875 1.0
0.5906146764755249 0.328125 1.0
0.5705154538154602 0.15625 1.0
0.390625 0.09373637288808823 1.0
0.4375 0.15631946921348572 1.0
0.5511214733123779 0.234375 1.0
0.4456900358200073 0.359375 1.0
0.325397253036499 0.234375 1.0
0.4375 0.47314876317977905 1.0
0.515625 0.5176190137863159 1.0
0.6153060793876648 0.671875 1.0
0.4639815092086792 0.71875 1.0
0.34934648871421814 0.578125 1.0
0.375 0.09783093631267548 0.0
0.2651386857032776 0.234375 0.0
0.359375 0.37956249713897705 0.0
0.3125 0.5112687349319458 0.0
0.32103413343429565 0.703125 0.0
0.484375 0.7890552282333374 0.0
0.6875 0.766989529132843 0.0
0.767413318157196 0.609375 0.0
0.66571444272995 0.625 0.0
0.5649245381355286 0.46875 0.0
0.5906146764755249 0.328125 0.0
0.5705154538154602 0.15625 0.0
0.390625 0.09373637288808823 0.0
0.4375 0.15631946921348572 0.0
0.5511214733123779 0.234375 0.0
0.4456900358200073 0.359375 0.0
0.325397253036499 0.234375 0.0
0.4375 0.47314876317977905 0.0
0.515625 0.5176190137863159 0.0
0.6153060793876648 0.671875 0.0
0.4639815092086792 0.71875 0.0
0.34934648871421814 0.578125 0.0
4 11 14 13 12 255 0 0
4 1 16 15 2 255 0 0
4 8 19 18 9 255 0 0
6 5 20 19 8 7 6 255 0 0
5 15 17 21 3 2 255 0 0
5 3 21 20 5 4 255 0 0
7 9 18 17 15 14 11 10 255 0 0
5 12 13 16 1 0 255 0 0
4 33 34 35 36 0 0 255
4 23 24 37 38 0 0 255
4 30 31 40 41 0 0 255
6 27 28 29 30 41 42 0 0 255
5 37 24 25 43 39 0 0 255
5 25 26 27 42 43 0 0 255
7 31 32 33 36 37 39 40 0 0 255
5 34 22 23 38 35 0 0 255
4 0 1 23 22 0 255 0
4 1 2 24 23 0 255 0
4 2 3 25 24 0 255 0
4 3 4 26 25 0 255 0
4 4 5 27 26 0 255 0
4 5 6 28 27 0 255 0
4 6 7 29 28 0 255 0
4 7 8 30 29 0 255 0
4 8 9 31 30 0 255 0
4 9 10 32 31 0 255 0
4 10 11 33 32 0 255 0
4 11 12 34 33 128 0 128
4 12 0 22 34 128 0 128
4 13 14 36 35 0 255 0
4 14 15 37 36 0 255 0
4 15 16 38 37 0 255 0
4 16 13 35 38 0 255 0
4 17 18 40 39 0 255 0
4 18 19 41 40 0 255 0
4 19 20 42 41 0 255 0
4 20 21 43 42 0 255 0
4 21 17 39 43 0 255 0
