ply
format ascii 1.0
element vertex 36
property float x
property float y
property float z
element face 28
property list uchar int vertex_index
property uchar red
property uchar green
property uchar blue
end_header
0.46022292971611023 0.0625 1.0
0.453204482793808 0.21875 1.0
0.5499634742736816 0.375 1.0
0.4375 0.41316840052604675 1.0
0.203125 0.3998500406742096 1.0
0.15575630962848663 0.53125 1.0
0.296875 0.6340356469154358 1.0
0.4687405526638031 0.71875 1.0
0.641870379447937 0.765625 1.0
0.7415274381637573 0.609375 1.0
0.7110089659690857 0.421875 1.0
0.635958731174469 0.25 1.0
0.546875 0.08853009343147278 1.0
0.296875 0.47802677750587463 1.0
0.4702030122280121 0.515625 1.0
0.59375 0.6252812147140503 1.0
0.421875 0.6187795996665955 1.0
0.2745599150657654 0.515625 1.0
0.46022292971611023 0.0625 0.0
0.453204482793808 0.21875 0.0
0.5499634742736816 0.375 0.0
0.4375 0.41316840052604675 0.0
0.203125 0.3998500406742096 0.0
0.15575630962848663 0.53125 0.0
0.296875 0.6340356469154358 0.0
0.4687405526638031 0.71875 0.0
0.641870379447937 0.765625 0.0
0.7415274381637573 0.609375 0.0
0.7110089659690857 0.421875 0.0
0.635958731174469 0.25 0.0
0.546875 0.08853009343147278 0.0
0.296875 0.47802677750587463 0.0
0.4702030122280121 0.515625 0.0
0.59375 0.6252812147140503 0.0
0.421875 0.6187795996665955 0.0
0.2745599150657654 0.515625 0.0
4 7 16 15 8 255 0 0
4 4 13 17 5 255 0 0
4 3 14 13 4 255 0 0
11 8 15 14 3 2 1 0 12 11 10 9 255 0 0
5 5 17 16 7 6 255 0 0
4 25 26 33 34 0 0 255
4 22 23 35 31 0 0 255
4 21 22 31 32 0 0 255
11 26 27 28 29 30 18 19 20 21 32 33 0 0 255
5 23 24 25 34 35 0 0 255
4 0 1 19 18 128 0 128
4 1 2 20 19 0 255 0
4 2 3 21 20 0 255 0
4 3 4 22 21 0 255 0
4 4 5 23 22 0 255 0
4 5 6 24 23 0 255 0
4 6 7 25 24 0 255 0
4 7 8 26 25 0 255 0
4 8 9 27 26 0 255 0
4 9 10 28 27 0 255 0
4 10 11 29 28 0 255 0
4 11 12 30 29 0 255 0
4 12 0 18 30 128 0 128
4 13 14 32 31 0 255 0
4 14 15 33 32 0 255 0
4 15 16 34 33 0 255 0
4 16 17 35 34 0 255 0
4 17 13 31 35 0 255 0
