ply
format ascii 1.0
element vertex 40
property float x
property float y
property float z
element face 26
property list uchar int vertex_index
property uchar red
property uchar green
property uchar blue
end_header
0.41639086604118347 0.09375 1.0
0.3030225932598114 0.234375 1.0
0.40924596786499023 0.375 1.0
0.3125 0.527589738368988 1.0
0.359375 0.7039492726325989 1.0
0.515625 0.7998347878456116 1.0
0.71875 0.7635118365287781 1.0
0.75 0.5935046076774597 1.0
0.625 0.4630345404148102 1.0
0.6642780303955078 0.65625 1.0
0.5 0.680336594581604 1.0
0.4064508080482483 0.546875 1.0
0.515625 0.400103360414505 1.0
0.734375 0.39683568477630615 1.0
0.65625 0.33535686135292053 1.0
0.6047738194465637 0.171875 1.0
0.4375 0.09252000600099564 1.0
0.453125 0.1596480906009674 1.0
0.5281344652175903 0.25 1.0
0.39701664447784424 0.203125 1.0
0.41639086604118347 0.09375 0.0
0.3030225932598114 0.234375 0.0
0.40924596786499023 0.375 0.0
0.3125 0.527589738368988 0.0
0.359375 0.7039492726325989 0.0
0.515625 0.7998347878456116 0.0
0.71875 0.7635118365287781 0.0
0.75 0.5935046076774597 0.0
0.625 0.4630345404148102 0.0
0.6642780303955078 0.65625 0.0
0.5 0.680336594581604 0.0
0.4064508080482483 0.546875 0.0
0.515625 0.400103360414505 0.0
0.734375 0.39683568477630615 0.0
0.65625 0.33535686135292053 0.0
0.6047738194465637 0.171875 0.0
0.4375 0.09252000600099564 0.0
0.453125 0.1596480906009674 0.0
0.5281344652175903 0.25 0.0
0.39701664447784424 0.203125 0.0
17 1 19 18 15 14 13 12 11 10 9 8 7 6 5 4 3 2 255 0 0
5 16 17 19 1 0 255 0 0
4 15 18 17 16 255 0 0
17 21 22 23 24 25 26 27 28 29 30 31 32 33 34 35 38 39 0 0 255
5 36 20 21 39 37 0 0 255
4 35 36 37 38 0 0 255
4 0 1 21 20 0 255 0
4 1 2 22 21 0 255 0
4 2 3 23 22 0 255 0
4 3 4 24 23 0 255 0
4 4 5 25 24 0 255 0
4 5 6 26 25 0 255 0
4 6 7 27 26 0 255 0
4 7 8 28 27 0 255 0
4 8 9 29 28 0 255 0
4 9 10 30 29 0 255 0
4 10 11 31 30 0 255 0
4 11 12 32 31 0 255 0
4 12 13 33 32 0 255 0
4 13 14 34 33 0 255 0
4 14 15 35 34 0 255 0
4 15 16 36 35 128 0 128
4 16 0 20 36 128 0 128
4 17 18 38 37 0 255 0
4 18 19 39 38 0 255 0
4 19 17 37 39 0 255 0
