ply
format ascii 1.0
element vertex 34
property float x
property float y
property float z
element face 27
property list uchar int vertex_index
property uchar red
property uchar green
property uchar blue
end_header
0.359375 0.09590673446655273 1.0
0.2760912775993347 0.265625 1.0
0.375 0.40650585293769836 1.0
0.37619492411613464 0.59375 1.0
0.45517686009407043 0.765625 1.0
0.65625 0.7821566462516785 1.0
0.7602417469024658 0.640625 1.0
0.6875 0.4627612233161926 1.0
0.6402450203895569 0.296875 1.0
0.546875 0.1601283848285675 1.0
0.375 0.09165292233228683 1.0
0.421875 0.21773450076580048 1.0
0.5206119418144226 0.296875 1.0
0.376675546169281 0.234375 1.0
0.546875 0.517424464225769 1.0
0.6258565187454224 0.59375 1.0
0.5 0.649696409702301 1.0
0.359375 0.09590673446655273 0.0
0.2760912775993347 0.265625 0.0
0.375 0.40650585293769836 0.0
0.37619492411613464 0.59375 0.0
0.45517686009407043 0.765625 0.0
0.65625 0.7821566462516785 0.0
0.7602417469024658 0.640625 0.0
0.6875 0.4627612233161926 0.0
0.6402450203895569 0.296875 0.0
0.546875 0.1601283848285675 0.0
0.375 0.09165292233228683 0.0
0.421875 0.21773450076580048 0.0
0.5206119418144226 0.296875 0.0
0.376675546169281 0.234375 0.0
0.546875 0.517424464225769 0.0
0.6258565187454224 0.59375 0.0
0.5 0.649696409702301 0.0
5 8 12 11 10 9 255 0 0
10 7 14 16 4 3 2 1 13 12 8 255 0 0
5 4 16 15 6 5 255 0 0
5 10 11 13 1 0 255 0 0
4 6 15 14 7 255 0 0
5 25 26 27 28 29 0 0 255
10 24 25 29 30 18 19 20 21 33 31 0 0 255
5 21 22 23 32 33 0 0 255
5 27 17 18 30 28 0 0 255
4 23 24 31 32 0 0 255
4 0 1 18 17 0 255 0
4 1 2 19 18 0 255 0
4 2 3 20 19 0 255 0
4 3 4 21 20 0 255 0
4 4 5 22 21 0 255 0
4 5 6 23 22 0 255 0
4 6 7 24 23 0 255 0
4 7 8 25 24 0 255 0
4 8 9 26 25 0 255 0
4 9 10 27 26 128 0 128
4 10 0 17 27 128 0 128
4 11 12 29 28 0 255 0
4 12 13 30 29 0 255 0
4 13 11 28 30 0 255 0
4 14 15 32 31 0 255 0
4 15 16 33 32 0 255 0
4 16 14 31 33 0 255 0
