ply
format ascii 1.0
element vertex 44
property float x
property float y
property float z
element face 42
property list uchar int vertex_index
property uchar red
property uchar green
property uchar blue
end_header
0.22208525240421295 0.15625 1.0
0.2344367653131485 0.328125 1.0
0.34375 0.4751022160053253 1.0
0.390625 0.6503961086273193 1.0
0.515625 0.7729249000549316 1.0
0.671875 0.8037276268005371 1.0
0.7252345085144043 0.609375 1.0
0.7428051829338074 0.46875 1.0
0.703125 0.3138132393360138 1.0
0.5625 0.2183503359556198 1.0
0.390625 0.13995523750782013 1.0
0.3125 0.2097206562757492 1.0
0.40625 0.2371455729007721 1.0
0.5722416043281555 0.328125 1.0
0.640625 0.4277375340461731 1.0
0.421875 0.4333876073360443 1.0
0.29940134286880493 0.296875 1.0
0.46875 0.5377212166786194 1.0
0.4858974814414978 0.546875 1.0
0.651079535484314 0.640625 1.0
0.5768073201179504 0.703125 1.0
0.43992307782173157 0.578125 1.0
0.22208525240421295 0.15625 0.0
0.2344367653131485 0.328125 0.0
0.34375 0.4751022160053253 0.0
0.390625 0.6503961086273193 0.0
0.515625 0.7729249000549316 0.0
0.671875 0.8037276268005371 0.0
0.7252345085144043 0.609375 0.0
0.7428051829338074 0.46875 0.0
0.703125 0.3138132393360138 0.0
0.5625 0.2183503359556198 0.0
0.390625 0.13995523750782013 0.0
0.3125 0.2097206562757492 0.0
0.40625 0.2371455729007721 0.0
0.5722416043281555 0.328125 0.0
0.640625 0.4277375340461731 0.0
0.421875 0.4333876073360443 0.0
0.29940134286880493 0.296875 0.0
0.46875 0.5377212166786194 0.0
0.4858974814414978 0.546875 0.0
0.651079535484314 0.640625 0.0
0.5768073201179504 0.703125 0.0
0.43992307782173157 0.578125 0.0
4 1 16 15 2 255 0 0
5 10 11 16 1 0 255 0 0
3 10 12 11 255 0 0
5 7 14 13 9 8 255 0 0
5 15 17 21 3 2 255 0 0
6 6 19 18 15 14 7 255 0 0
5 4 20 19 6 5 255 0 0
3 15 18 17 255 0 0
4 3 21 20 4 255 0 0
4 9 13 12 10 255 0 0
4 23 24 37 38 0 0 255
5 32 22 23 38 33 0 0 255
3 32 33 34 0 0 255
5 29 30 31 35 36 0 0 255
5 37 24 25 43 39 0 0 255
6 28 29 36 37 40 41 0 0 255
5 26 27 28 41 42 0 0 255
3 37 39 40 0 0 255
4 25 26 42 43 0 0 255
4 31 32 34 35 0 0 255
4 0 1 23 22 0 255 0
4 1 2 24 23 0 255 0
4 2 3 25 24 0 255 0
4 3 4 26 25 0 255 0
4 4 5 27 26 0 255 0
4 5 6 28 27 0 255 0
4 6 7 29 28 0 255 0
4 7 8 30 29 0 255 0
4 8 9 31 30 0 255 0
4 9 10 32 31 128 0 128
4 10 0 22 32 128 0 128
4 11 12 34 33 0 255 0
4 12 13 35 34 0 255 0
4 13 14 36 35 0 255 0
4 14 15 37 36 0 255 0
4 15 16 38 37 0 255 0
4 16 11 33 38 0 255 0
4 17 18 40 39 0 255 0
4 18 19 41 40 0 255 0
4 19 20 42 41 0 255 0
4 20 21 43 42 0 255 0
4 21 17 39 43 0 255 0
