ply
format ascii 1.0
element vertex 44
property float x
property float y
property float z
element face 32
property list uchar int vertex_index
property uchar red
property uchar green
property uchar blue
end_header
0.4321982264518738 0.125 1.0
0.234375 0.17460377514362335 1.0
0.21060332655906677 0.375 1.0
0.375 0.46025556325912476 1.0
0.31424227356910706 0.640625 1.0
0.390625 0.790937602519989 1.0
0.59375 0.8343135714530945 1.0
0.75 0.7361407279968262 1.0
0.7205026745796204 0.671875 1.0
0.5625 0.7610357999801636 1.0
0.41330137848854065 0.65625 1.0
0.53125 0.5275399088859558 1.0
0.734375 0.5775287747383118 1.0
0.7863327264785767 0.5 1.0
0.6221648454666138 0.421875 1.0
0.671875 0.2468709945678711 1.0
0.515625 0.14707492291927338 1.0
0.375 0.19756534695625305 1.0
0.53125 0.25923287868499756 1.0
0.5163843035697937 0.390625 1.0
0.359375 0.35434406995773315 1.0
0.3287794291973114 0.21875 1.0
0.4321982264518738 0.125 0.0
0.234375 0.17460377514362335 0.0
0.21060332655906677 0.375 0.0
0.375 0.46025556325912476 0.0
0.31424227356910706 0.640625 0.0
0.390625 0.790937602519989 0.0
0.59375 0.8343135714530945 0.0
0.75 0.7361407279968262 0.0
0.7205026745796204 0.671875 0.0
0.5625 0.7610357999801636 0.0
0.41330137848854065 0.65625 0.0
0.53125 0.5275399088859558 0.0
0.734375 0.5775287747383118 0.0
0.7863327264785767 0.5 0.0
0.6221648454666138 0.421875 0.0
0.671875 0.2468709945678711 0.0
0.515625 0.14707492291927338 0.0
0.375 0.19756534695625305 0.0
0.53125 0.25923287868499756 0.0
0.5163843035697937 0.390625 0.0
0.359375 0.35434406995773315 0.0
0.3287794291973114 0.21875 0.0
5 14 19 18 16 15 255 0 0
5 1 21 20 3 2 255 0 0
14 3 20 19 14 13 12 11 10 9 8 7 6 5 4 255 0 0
4 0 17 21 1 255 0 0
4 16 18 17 0 255 0 0
5 36 37 38 40 41 0 0 255
5 23 24 25 42 43 0 0 255
14 25 26 27 28 29 30 31 32 33 34 35 36 41 42 0 0 255
4 22 23 43 39 0 0 255
4 38 22 39 40 0 0 255
4 0 1 23 22 128 0 128
4 1 2 24 23 0 255 0
4 2 3 25 24 0 255 0
4 3 4 26 25 0 255 0
4 4 5 27 26 0 255 0
4 5 6 28 27 0 255 0
4 6 7 29 28 0 255 0
4 7 8 30 29 0 255 0
4 8 9 31 30 0 255 0
4 9 10 32 31 0 255 0
4 10 11 33 32 0 255 0
4 11 12 34 33 0 255 0
4 12 13 35 34 0 255 0
4 13 14 36 35 0 255 0
4 14 15 37 36 0 255 0
4 15 16 38 37 0 255 0
4 16 0 22 38 128 0 128
4 17 18 40 39 0 255 0
4 18 19 41 40 0 255 0
4 19 20 42 41 0 255 0
4 20 21 43 42 0 255 0
4 21 17 39 43 0 255 0
