ply
format ascii 1.0
element vertex 44
property float x
property float y
property float z
element face 22
property list uchar int vertex_index
property uchar red
property uchar green
property uchar blue
end_header
0.2363298237323761 0.1875 1.0
0.19607004523277283 0.328125 1.0
0.296875 0.48103877902030945 1.0
0.4677720069885254 0.453125 1.0
0.592193603515625 0.5625 1.0
0.5753821730613708 0.734375 1.0
0.4375 0.7324231266975403 1.0
0.375 0.7744916081428528 1.0
0.5425915122032166 0.84375 1.0
0.6875 0.7369272112846375 1.0
0.65625 0.5397299528121948 1.0
0.5801545977592468 0.359375 1.0
0.765625 0.32580193877220154 1.0
0.84375 0.31487199664115906 1.0
0.6875 0.23269590735435486 1.0
0.515625 0.2781490087509155 1.0
0.359375 0.18317683041095734 1.0
0.2363298237323761 0.1875 1.0
0.328125 0.24552904069423676 1.0
0.4375 0.3567608594894409 1.0
0.30718794465065 0.375 1.0
0.328125 0.24552904069423676 1.0
0.2363298237323761 0.1875 0.0
0.19607004523277283 0.328125 0.0
0.296875 0.48103877902030945 0.0
0.4677720069885254 0.453125 0.0
0.592193603515625 0.5625 0.0
0.5753821730613708 0.734375 0.0
0.4375 0.7324231266975403 0.0
0.375 0.7744916081428528 0.0
0.5425915122032166 0.84375 0.0
0.6875 0.7369272112846375 0.0
0.65625 0.5397299528121948 0.0
0.5801545977592468 0.359375 0.0
0.765625 0.32580193877220154 0.0
0.84375 0.31487199664115906 0.0
0.6875 0.23269590735435486 0.0
0.515625 0.2781490087509155 0.0
0.359375 0.18317683041095734 0.0
0.2363298237323761 0.1875 0.0
0.328125 0.24552904069423676 0.0
0.4375 0.3567608594894409 0.0
0.30718794465065 0.375 0.0
0.328125 0.24552904069423676 0.0
18 20 2 3 4 5 6 7 8 9 10 11 12 13 14 15 16 18 19 255 0 0
18 42 41 40 38 37 36 35 34 33 32 31 30 29 28 27 26 25 24 0 0 255
4 1 0 22 23 0 255 0
4 2 1 23 24 0 255 0
4 3 2 24 25 0 255 0
4 4 3 25 26 0 255 0
4 5 4 26 27 0 255 0
4 6 5 27 28 0 255 0
4 7 6 28 29 0 255 0
4 8 7 29 30 0 255 0
4 9 8 30 31 0 255 0
4 10 9 31 32 0 255 0
4 11 10 32 33 0 255 0
4 12 11 33 34 0 255 0
4 13 12 34 35 0 255 0
4 14 13 35 36 0 255 0
4 15 14 36 37 0 255 0
4 16 15 37 38 128 0 128
4 17 16 38 39 128 0 128
4 19 18 40 41 0 255 0
4 20 19 41 42 0 255 0
4 21 20 42 43 0 255 0
