ply
format ascii 1.0
element vertex 40
property float x
property float y
property float z
element face 36
property list uchar int vertex_index
property uchar red
property uchar green
property uchar blue
end_header
0.453125 0.10012976825237274 1.0
0.34658393263816833 0.25 1.0
0.39490756392478943 0.390625 1.0
0.34223800897598267 0.515625 1.0
0.296875 0.6722884178161621 1.0
0.4375 0.7899149060249329 1.0
0.6033703088760376 0.734375 1.0
0.6665357351303101 0.546875 1.0
0.59375 0.3891527056694031 1.0
0.6587128639221191 0.203125 1.0
0.53125 0.08930790424346924 1.0
0.53125 0.1443590521812439 1.0
0.578125 0.29887598752975464 1.0
0.421875 0.34048992395401 1.0
0.44495826959609985 0.1875 1.0
0.53125 0.48236754536628723 1.0
0.5948967337608337 0.625 1.0
0.4575851559638977 0.734375 1.0
0.36927634477615356 0.59375 1.0
0.5108429789543152 0.484375 1.0
0.453125 0.10012976825237274 0.0
0.34658393263816833 0.25 0.0
0.39490756392478943 0.390625 0.0
0.34223800897598267 0.515625 0.0
0.296875 0.6722884178161621 0.0
0.4375 0.7899149060249329 0.0
0.6033703088760376 0.734375 0.0
0.6665357351303101 0.546875 0.0
0.59375 0.3891527056694031 0.0
0.6587128639221191 0.203125 0.0
0.53125 0.08930790424346924 0.0
0.53125 0.1443590521812439 0.0
0.578125 0.29887598752975464 0.0
0.421875 0.34048992395401 0.0
0.44495826959609985 0.1875 0.0
0.53125 0.48236754536628723 0.0
0.5948967337608337 0.625 0.0
0.4575851559638977 0.734375 0.0
0.36927634477615356 0.59375 0.0
0.5108429789543152 0.484375 0.0
5 8 12 11 10 9 255 0 0
4 7 16 15 8 255 0 0
4 10 11 14 0 255 0 0
5 0 14 13 2 1 255 0 0
5 3 18 17 5 4 255 0 0
7 8 19 18 3 2 13 12 255 0 0
3 8 15 19 255 0 0
5 5 17 16 7 6 255 0 0
5 28 29 30 31 32 0 0 255
4 27 28 35 36 0 0 255
4 30 20 34 31 0 0 255
5 20 21 22 33 34 0 0 255
5 23 24 25 37 38 0 0 255
7 28 32 33 22 23 38 39 0 0 255
3 28 39 35 0 0 255
5 25 26 27 36 37 0 0 255
4 0 1 21 20 0 255 0
4 1 2 22 21 0 255 0
4 2 3 23 22 0 255 0
4 3 4 24 23 0 255 0
4 4 5 25 24 0 255 0
4 5 6 26 25 0 255 0
4 6 7 27 26 0 255 0
4 7 8 28 27 0 255 0
4 8 9 29 28 0 255 0
4 9 10 30 29 128 0 128
4 10 0 20 30 128 0 128
4 11 12 32 31 0 255 0
4 12 13 33 32 0 255 0
4 13 14 34 33 0 255 0
4 14 11 31 34 0 255 0
4 15 16 36 35 0 255 0
4 16 17 37 36 0 255 0
4 17 18 38 37 0 255 0
4 18 19 39 38 0 255 0
4 19 15 35 39 0 255 0
