ply
format ascii 1.0
element vertex 40
property float x
property float y
property float z
element face 38
property list uchar int vertex_index
property uchar red
property uchar green
property uchar blue
end_header
0.48132210969924927 0.109375 1.0
0.3095899820327759 0.1875 1.0
0.22880153357982635 0.359375 1.0
0.26398858428001404 0.546875 1.0
0.3657272160053253 0.6875 1.0
0.5 0.7978276014328003 1.0
0.6777642965316772 0.765625 1.0
0.7842214703559875 0.625 1.0
0.7974064946174622 0.390625 1.0
0.71875 0.22382685542106628 1.0
0.578125 0.1218549832701683 1.0
0.484375 0.17887751758098602 1.0
0.6350919604301453 0.25 1.0
0.734375 0.39431390166282654 1.0
0.7340798377990723 0.59375 1.0
0.609375 0.7211095690727234 1.0
0.46875 0.6759883761405945 1.0
0.359375 0.5312920212745667 1.0
0.3070499300956726 0.34375 1.0
0.40625 0.19790957868099213 1.0
0.48132210969924927 0.109375 0.0
0.3095899820327759 0.1875 0.0
0.22880153357982635 0.359375 0.0
0.26398858428001404 0.546875 0.0
0.3657272160053253 0.6875 0.0
0.5 0.7978276014328003 0.0
0.6777642965316772 0.765625 0.0
0.7842214703559875 0.625 0.0
0.7974064946174622 0.390625 0.0
0.71875 0.22382685542106628 0.0
0.578125 0.1218549832701683 0.0
0.484375 0.17887751758098602 0.0
0.6350919604301453 0.25 0.0
0.734375 0.39431390166282654 0.0
0.7340798377990723 0.59375 0.0
0.609375 0.7211095690727234 0.0
0.46875 0.6759883761405945 0.0
0.359375 0.5312920212745667 0.0
0.3070499300956726 0.34375 0.0
0.40625 0.19790957868099213 0.0
4 8 13 12 9 255 0 0
4 0 11 19 1 255 0 0
4 1 19 18 2 255 0 0
4 7 14 13 8 255 0 0
4 6 15 14 7 255 0 0
4 3 17 16 4 255 0 0
5 9 12 11 0 10 255 0 0
4 2 18 17 3 255 0 0
5 4 16 15 6 5 255 0 0
4 28 29 32 33 0 0 255
4 20 21 39 31 0 0 255
4 21 22 38 39 0 0 255
4 27 28 33 34 0 0 255
4 26 27 34 35 0 0 255
4 23 24 36 37 0 0 255
5 29 30 20 31 32 0 0 255
4 22 23 37 38 0 0 255
5 24 25 26 35 36 0 0 255
4 0 1 21 20 128 0 128
4 1 2 22 21 0 255 0
4 2 3 23 22 0 255 0
4 3 4 24 23 0 255 0
4 4 5 25 24 0 255 0
4 5 6 26 25 0 255 0
4 6 7 27 26 0 255 0
4 7 8 28 27 0 255 0
4 8 9 29 28 0 255 0
4 9 10 30 29 0 255 0
4 10 0 20 30 128 0 128
4 11 12 32 31 0 255 0
4 12 13 33 32 0 255 0
4 13 14 34 33 0 255 0
4 14 15 35 34 0 255 0
4 15 16 36 35 0 255 0
4 16 17 37 36 0 255 0
4 17 18 38 37 0 255 0
4 18 19 39 38 0 255 0
4 19 11 31 39 0 255 0
