ply
format ascii 1.0
element vertex 26
property float x
property float y
property float z
element face 15
property list uchar int vertex_index
property uchar red
property uchar green
property uchar blue
end_header
0.5 0.03027520887553692 1.0
0.609375 0.1522761434316635 1.0
0.6451279520988464 0.34375 1.0
0.6621177196502686 0.515625 1.0
0.65625 0.6932649612426758 1.0
0.4375 0.7235154509544373 1.0
0.28125 0.6368634104728699 1.0
0.203125 0.4695599377155304 1.0
0.3084224760532379 0.5625 1.0
0.4375 0.649078905582428 1.0
0.6009325385093689 0.5625 1.0
0.5542706251144409 0.390625 1.0
0.528178334236145 0.203125 1.0
0.5 0.03027520887553692 0.0
0.609375 0.1522761434316635 0.0
0.6451279520988464 0.34375 0.0
0.6621177196502686 0.515625 0.0
0.65625 0.6932649612426758 0.0
0.4375 0.7235154509544373 0.0
0.28125 0.6368634104728699 0.0
0.203125 0.4695599377155304 0.0
0.3084224760532379 0.5625 0.0
0.4375 0.649078905582428 0.0
0.6009325385093689 0.5625 0.0
0.5542706251144409 0.390625 0.0
0.528178334236145 0.203125 0.0
13 0 1 2 3 4 5 6 7 8 9 10 11 12 255 0 0
13 13 25 24 23 22 21 20 19 18 17 16 15 14 0 0 255
4 1 0 13 14 128 0 128
4 2 1 14 15 0 255 0
4 3 2 15 16 0 255 0
4 4 3 16 17 0 255 0
4 5 4 17 18 0 255 0
4 6 5 18 19 0 255 0
4 7 6 19 20 0 255 0
4 8 7 20 21 0 255 0
4 9 8 21 22 0 255 0
4 10 9 22 23 0 255 0
4 11 10 23 24 0 255 0
4 12 11 24 25 0 255 0
4 0 12 25 13 128 0 128
