ply
format ascii 1.0
element vertex 38
property float x
property float y
property float z
element face 23
property list uchar int vertex_index
property uchar red
property uchar green
property uchar blue
end_header
0.3610822260379791 0.171875 1.0
0.2423461377620697 0.296875 1.0
0.30358925461769104 0.453125 1.0
0.42835116386413574 0.578125 1.0
0.5448433756828308 0.71875 1.0
0.6605764031410217 0.84375 1.0
0.7978805303573608 0.8125 1.0
0.6766998171806335 0.6875 1.0
0.546875 0.5644150972366333 1.0
0.609375 0.5270591974258423 1.0
0.7036458253860474 0.375 1.0
0.609375 0.23284564912319183 1.0
0.421875 0.16683126986026764 1.0
0.3610822260379791 0.171875 1.0
0.40625 0.27534720301628113 1.0
0.5164774060249329 0.28125 1.0
0.578125 0.4265144467353821 1.0
0.39406028389930725 0.359375 1.0
0.40625 0.27534720301628113 1.0
0.3610822260379791 0.171875 0.0
0.2423461377620697 0.296875 0.0
0.30358925461769104 0.453125 0.0
0.42835116386413574 0.578125 0.0
0.5448433756828308 0.71875 0.0
0.6605764031410217 0.84375 0.0
0.7978805303573608 0.8125 0.0
0.6766998171806335 0.6875 0.0
0.546875 0.5644150972366333 0.0
0.609375 0.5270591974258423 0.0
0.7036458253860474 0.375 0.0
0.609375 0.23284564912319183 0.0
0.421875 0.16683126986026764 0.0
0.3610822260379791 0.171875 0.0
0.40625 0.27534720301628113 0.0
0.5164774060249329 0.28125 0.0
0.578125 0.4265144467353821 0.0
0.39406028389930725 0.359375 0.0
0.40625 0.27534720301628113 0.0
4 15 11 12 14 255 0 0
5 16 9 10 11 15 255 0 0
10 17 2 3 4 5 6 7 8 9 16 255 0 0
4 34 33 31 30 0 0 255
5 35 34 30 29 28 0 0 255
10 36 35 28 27 26 25 24 23 22 21 0 0 255
4 1 0 19 20 0 255 0
4 2 1 20 21 0 255 0
4 3 2 21 22 0 255 0
4 4 3 22 23 0 255 0
4 5 4 23 24 0 255 0
4 6 5 24 25 0 255 0
4 7 6 25 26 0 255 0
4 8 7 26 27 0 255 0
4 9 8 27 28 0 255 0
4 10 9 28 29 0 255 0
4 11 10 29 30 0 255 0
4 12 11 30 31 128 0 128
4 13 12 31 32 128 0 128
4 15 14 33 34 0 255 0
4 16 15 34 35 0 255 0
4 17 16 35 36 0 255 0
4 18 17 36 37 0 255 0
