ply
format ascii 1.0
element vertex 42
property float x
property float y
property float z
element face 35
property list uchar int vertex_index
property uchar red
property uchar green
property uchar blue
end_header
0.359375 0.10224694013595581 1.0
0.2078656256198883 0.203125 1.0
0.3086155652999878 0.359375 1.0
0.24221175909042358 0.484375 1.0
0.24158403277397156 0.640625 1.0
0.390625 0.7371374368667603 1.0
0.578125 0.7977755069732666 1.0
0.7696911096572876 0.75 1.0
0.78125 0.582909882068634 1.0
0.6525896191596985 0.46875 1.0
0.734375 0.33002400398254395 1.0
0.701066255569458 0.171875 1.0
0.5161673426628113 0.109375 1.0
0.390625 0.2006508708000183 1.0
0.46875 0.2037426233291626 1.0
0.578125 0.30049359798431396 1.0
0.40625 0.28665149211883545 1.0
0.484375 0.5138986706733704 1.0
0.5625 0.5609658360481262 1.0
0.5625 0.6608779430389404 1.0
0.3757544457912445 0.59375 1.0
0.359375 0.10224694013595581 0.0
0.2078656256198883 0.203125 0.0
0.3086155652999878 0.359375 0.0
0.24221175909042358 0.484375 0.0
0.24158403277397156 0.640625 0.0
0.390625 0.7371374368667603 0.0
0.578125 0.7977755069732666 0.0
0.7696911096572876 0.75 0.0
0.78125 0.582909882068634 0.0
0.6525896191596985 0.46875 0.0
0.734375 0.33002400398254395 0.0
0.701066255569458 0.171875 0.0
0.5161673426628113 0.109375 0.0
0.390625 0.2006508708000183 0.0
0.46875 0.2037426233291626 0.0
0.578125 0.30049359798431396 0.0
0.40625 0.28665149211883545 0.0
0.484375 0.5138986706733704 0.0
0.5625 0.5609658360481262 0.0
0.5625 0.6608779430389404 0.0
0.3757544457912445 0.59375 0.0
5 10 15 14 12 11 255 0 0
5 4 20 19 6 5 255 0 0
6 6 19 18 9 8 7 255 0 0
5 0 13 16 2 1 255 0 0
9 9 17 20 4 3 2 16 15 10 255 0 0
3 9 18 17 255 0 0
4 12 14 13 0 255 0 0
5 31 32 33 35 36 0 0 255
5 25 26 27 40 41 0 0 255
6 27 28 29 30 39 40 0 0 255
5 21 22 23 37 34 0 0 255
9 30 31 36 37 23 24 25 41 38 0 0 255
3 30 38 39 0 0 255
4 33 21 34 35 0 0 255
4 0 1 22 21 128 0 128
4 1 2 23 22 0 255 0
4 2 3 24 23 0 255 0
4 3 4 25 24 0 255 0
4 4 5 26 25 0 255 0
4 5 6 27 26 0 255 0
4 6 7 28 27 0 255 0
4 7 8 29 28 0 255 0
4 8 9 30 29 0 255 0
4 9 10 31 30 0 255 0
4 10 11 32 31 0 255 0
4 11 12 33 32 0 255 0
4 12 0 21 33 128 0 128
4 13 14 35 34 0 255 0
4 14 15 36 35 0 255 0
4 15 16 37 36 0 255 0
4 16 13 34 37 0 255 0
4 17 18 39 38 0 255 0
4 18 19 40 39 0 255 0
4 19 20 41 40 0 255 0
4 20 17 38 41 0 255 0
