ply
format ascii 1.0
element vertex 32
property float x
property float y
property float z
element face 22
property list uchar int vertex_index
property uchar red
property uchar green
property uchar blue
end_header
0.39650169014930725 0.234375 1.0
0.3078262209892273 0.390625 1.0
0.35341596603393555 0.59375 1.0
0.42071405053138733 0.78125 1.0
0.5032097697257996 0.9375 1.0
0.5156300067901611 0.78125 1.0
0.44453853368759155 0.609375 1.0
0.3859034776687622 0.421875 1.0
0.4246237277984619 0.390625 1.0
0.546875 0.529923677444458 1.0
0.71875 0.48217377066612244 1.0
0.682628333568573 0.28125 1.0
0.484375 0.23375938832759857 1.0
0.59375 0.342306911945343 1.0
0.609375 0.4636926054954529 1.0
0.546875 0.34568336606025696 1.0
0.39650169014930725 0.234375 0.0
0.3078262209892273 0.390625 0.0
0.35341596603393555 0.59375 0.0
0.42071405053138733 0.78125 0.0
0.5032097697257996 0.9375 0.0
0.5156300067901611 0.78125 0.0
0.44453853368759155 0.609375 0.0
0.3859034776687622 0.421875 0.0
0.4246237277984619 0.390625 0.0
0.546875 0.529923677444458 0.0
0.71875 0.48217377066612244 0.0
0.682628333568573 0.28125 0.0
0.484375 0.23375938832759857 0.0
0.59375 0.342306911945343 0.0
0.609375 0.4636926054954529 0.0
0.546875 0.34568336606025696 0.0
5 9 14 13 11 10 255 0 0
13 12 15 14 9 8 7 6 5 4 3 2 1 0 255 0 0
4 11 13 15 12 255 0 0
5 25 26 27 29 30 0 0 255
13 28 16 17 18 19 20 21 22 23 24 25 30 31 0 0 255
4 27 28 31 29 0 0 255
4 0 1 17 16 0 255 0
4 1 2 18 17 0 255 0
4 2 3 19 18 0 255 0
4 3 4 20 19 0 255 0
4 4 5 21 20 0 255 0
4 5 6 22 21 0 255 0
4 6 7 23 22 0 255 0
4 7 8 24 23 0 255 0
4 8 9 25 24 0 255 0
4 9 10 26 25 0 255 0
4 10 11 27 26 0 255 0
4 11 12 28 27 128 0 128
4 12 0 16 28 128 0 128
4 13 14 30 29 0 255 0
4 14 15 31 30 0 255 0
4 15 13 29 31 0 255 0
