ply
format ascii 1.0
element vertex 36
property float x
property float y
property float z
element face 34
property list uchar int vertex_index
property uchar red
property uchar green
property uchar blue
end_header
0.5133172273635864 0.140625 1.0
0.3410938084125519 0.21875 1.0
0.265625 0.3961046636104584 1.0
0.2773233652114868 0.59375 1.0
0.34298333525657654 0.75 1.0
0.5 0.8388566374778748 1.0
0.671875 0.7527639865875244 1.0
0.7578951120376587 0.59375 1.0
0.7582665681838989 0.375 1.0
0.6833977103233337 0.203125 1.0
0.53125 0.23223407566547394 1.0
0.59375 0.2618505358695984 1.0
0.6998775601387024 0.40625 1.0
0.65625 0.6241093873977661 1.0
0.5191613435745239 0.734375 1.0
0.3722282350063324 0.65625 1.0
0.3384123742580414 0.4375 1.0
0.421875 0.26571589708328247 1.0
0.5133172273635864 0.140625 0.0
0.3410938084125519 0.21875 0.0
0.265625 0.3961046636104584 0.0
0.2773233652114868 0.59375 0.0
0.34298333525657654 0.75 0.0
0.5 0.8388566374778748 0.0
0.671875 0.7527639865875244 0.0
0.7578951120376587 0.59375 0.0
0.7582665681838989 0.375 0.0
0.6833977103233337 0.203125 0.0
0.53125 0.23223407566547394 0.0
0.59375 0.2618505358695984 0.0
0.6998775601387024 0.40625 0.0
0.65625 0.6241093873977661 0.0
0.5191613435745239 0.734375 0.0
0.3722282350063324 0.65625 0.0
0.3384123742580414 0.4375 0.0
0.421875 0.26571589708328247 0.0
4 8 12 11 9 255 0 0
5 5 14 13 7 6 255 0 0
4 1 17 16 2 255 0 0
4 0 10 17 1 255 0 0
4 7 13 12 8 255 0 0
4 9 11 10 0 255 0 0
5 2 16 15 4 3 255 0 0
4 4 15 14 5 255 0 0
4 26 27 29 30 0 0 255
5 23 24 25 31 32 0 0 255
4 19 20 34 35 0 0 255
4 18 19 35 28 0 0 255
4 25 26 30 31 0 0 255
4 27 18 28 29 0 0 255
5 20 21 22 33 34 0 0 255
4 22 23 32 33 0 0 255
4 0 1 19 18 128 0 128
4 1 2 20 19 0 255 0
4 2 3 21 20 0 255 0
4 3 4 22 21 0 255 0
4 4 5 23 22 0 255 0
4 5 6 24 23 0 255 0
4 6 7 25 24 0 255 0
4 7 8 26 25 0 255 0
4 8 9 27 26 0 255 0
4 9 0 18 27 128 0 128
4 10 11 29 28 0 255 0
4 11 12 30 29 0 255 0
4 12 13 31 30 0 255 0
4 13 14 32 31 0 255 0
4 14 15 33 32 0 255 0
4 15 16 34 33 0 255 0
4 16 17 35 34 0 255 0
4 17 10 28 35 0 255 0
