ply
format ascii 1.0
element vertex 36
property float x
property float y
property float z
element face 28
property list uchar int vertex_index
property uchar red
property uchar green
property uchar blue
end_header
0.4507230222225189 0.25 1.0
0.296875 0.3521691858768463 1.0
0.2485973984003067 0.546875 1.0
0.26921865344047546 0.734375 1.0
0.359375 0.9061818718910217 1.0
0.4099837839603424 0.859375 1.0
0.3308962881565094 0.71875 1.0
0.2895430028438568 0.546875 1.0
0.390625 0.42568957805633545 1.0
0.546875 0.5235238075256348 1.0
0.734375 0.521217942237854 1.0
0.7511261701583862 0.328125 1.0
0.59375 0.2485426962375641 1.0
0.5 0.3054380714893341 1.0
0.5625 0.30457252264022827 1.0
0.6878383755683899 0.421875 1.0
0.5483319759368896 0.453125 1.0
0.4231374263763428 0.359375 1.0
0.4507230222225189 0.25 0.0
0.296875 0.3521691858768463 0.0
0.2485973984003067 0.546875 0.0
0.26921865344047546 0.734375 0.0
0.359375 0.9061818718910217 0.0
0.4099837839603424 0.859375 0.0
0.3308962881565094 0.71875 0.0
0.2895430028438568 0.546875 0.0
0.390625 0.42568957805633545 0.0
0.546875 0.5235238075256348 0.0
0.734375 0.521217942237854 0.0
0.7511261701583862 0.328125 0.0
0.59375 0.2485426962375641 0.0
0.5 0.3054380714893341 0.0
0.5625 0.30457252264022827 0.0
0.6878383755683899 0.421875 0.0
0.5483319759368896 0.453125 0.0
0.4231374263763428 0.359375 0.0
5 10 15 14 12 11 255 0 0
4 9 16 15 10 255 0 0
11 0 13 17 8 7 6 5 4 3 2 1 255 0 0
4 12 14 13 0 255 0 0
4 8 17 16 9 255 0 0
5 28 29 30 32 33 0 0 255
4 27 28 33 34 0 0 255
11 18 19 20 21 22 23 24 25 26 35 31 0 0 255
4 30 18 31 32 0 0 255
4 26 27 34 35 0 0 255
4 0 1 19 18 0 255 0
4 1 2 20 19 0 255 0
4 2 3 21 20 0 255 0
4 3 4 22 21 0 255 0
4 4 5 23 22 0 255 0
4 5 6 24 23 0 255 0
4 6 7 25 24 0 255 0
4 7 8 26 25 0 255 0
4 8 9 27 26 0 255 0
4 9 10 28 27 0 255 0
4 10 11 29 28 0 255 0
4 11 12 30 29 128 0 128
4 12 0 18 30 128 0 128
4 13 14 32 31 0 255 0
4 14 15 33 32 0 255 0
4 15 16 34 33 0 255 0
4 16 17 35 34 0 255 0
4 17 13 31 35 0 255 0
