ply
format ascii 1.0
element vertex 42
property float x
property float y
property float z
element face 33
property list uchar int vertex_index
property uchar red
property uchar green
property uchar blue
end_header
0.36027881503105164 0.171875 1.0
0.27396753430366516 0.328125 1.0
0.3184913694858551 0.53125 1.0
0.41269609332084656 0.6875 1.0
0.5091793537139893 0.84375 1.0
0.515625 0.7521966695785522 1.0
0.42362627387046814 0.59375 1.0
0.3466682434082031 0.421875 1.0
0.375 0.22722092270851135 1.0
0.42746269702911377 0.390625 1.0
0.5172699093818665 0.546875 1.0
0.65625 0.6644542217254639 1.0
0.7372669577598572 0.5 1.0
0.6795966029167175 0.3125 1.0
0.5466034412384033 0.203125 1.0
0.5150864720344543 0.25 1.0
0.5864211916923523 0.296875 1.0
0.6869227290153503 0.453125 1.0
0.625 0.5821097493171692 1.0
0.514374315738678 0.453125 1.0
0.46875 0.264018714427948 1.0
0.36027881503105164 0.171875 0.0
0.27396753430366516 0.328125 0.0
0.3184913694858551 0.53125 0.0
0.41269609332084656 0.6875 0.0
0.5091793537139893 0.84375 0.0
0.515625 0.7521966695785522 0.0
0.42362627387046814 0.59375 0.0
0.3466682434082031 0.421875 0.0
0.375 0.22722092270851135 0.0
0.42746269702911377 0.390625 0.0
0.5172699093818665 0.546875 0.0
0.65625 0.6644542217254639 0.0
0.7372669577598572 0.5 0.0
0.6795966029167175 0.3125 0.0
0.5466034412384033 0.203125 0.0
0.5150864720344543 0.25 0.0
0.5864211916923523 0.296875 0.0
0.6869227290153503 0.453125 0.0
0.625 0.5821097493171692 0.0
0.514374315738678 0.453125 0.0
0.46875 0.264018714427948 0.0
4 13 16 15 14 255 0 0
4 10 19 18 11 255 0 0
4 12 17 16 13 255 0 0
14 14 20 19 10 9 8 7 6 5 4 3 2 1 0 255 0 0
3 14 15 20 255 0 0
4 11 18 17 12 255 0 0
4 34 35 36 37 0 0 255
4 31 32 39 40 0 0 255
4 33 34 37 38 0 0 255
14 35 21 22 23 24 25 26 27 28 29 30 31 40 41 0 0 255
3 35 41 36 0 0 255
4 32 33 38 39 0 0 255
4 0 1 22 21 128 0 128
4 1 2 23 22 0 255 0
4 2 3 24 23 0 255 0
4 3 4 25 24 0 255 0
4 4 5 26 25 0 255 0
4 5 6 27 26 0 255 0
4 6 7 28 27 0 255 0
4 7 8 29 28 0 255 0
4 8 9 30 29 0 255 0
4 9 10 31 30 0 255 0
4 10 11 32 31 0 255 0
4 11 12 33 32 0 255 0
4 12 13 34 33 0 255 0
4 13 14 35 34 0 255 0
4 14 0 21 35 128 0 128
4 15 16 37 36 0 255 0
4 16 17 38 37 0 255 0
4 17 18 39 38 0 255 0
4 18 19 40 39 0 255 0
4 19 20 41 40 0 255 0
4 20 15 36 41 0 255 0
