ply
format ascii 1.0
element vertex 36
property float x
property float y
property float z
element face 32
property list uchar int vertex_index
property uchar red
property uchar green
property uchar blue
end_header
0.29708388447761536 0.171875 1.0
0.16169477999210358 0.28125 1.0
0.19946324825286865 0.5 1.0
0.296875 0.6555009484291077 1.0
0.40625 0.7959995269775391 1.0
0.5625 0.7316308617591858 1.0
0.75 0.6588939428329468 1.0
0.859375 0.5305892825126648 1.0
0.8021155595779419 0.34375 1.0
0.65625 0.24148167669773102 1.0
0.46875 0.18606138229370117 1.0
0.375 0.31214508414268494 1.0
0.390625 0.313933789730072 1.0
0.578125 0.34931620955467224 1.0
0.7376894354820251 0.4375 1.0
0.65625 0.5755695104598999 1.0
0.484375 0.5251553654670715 1.0
0.3550134003162384 0.46875 1.0
0.29708388447761536 0.171875 0.0
0.16169477999210358 0.28125 0.0
0.19946324825286865 0.5 0.0
0.296875 0.6555009484291077 0.0
0.40625 0.7959995269775391 0.0
0.5625 0.7316308617591858 0.0
0.75 0.6588939428329468 0.0
0.859375 0.5305892825126648 0.0
0.8021155595779419 0.34375 0.0
0.65625 0.24148167669773102 0.0
0.46875 0.18606138229370117 0.0
0.375 0.31214508414268494 0.0
0.390625 0.313933789730072 0.0
0.578125 0.34931620955467224 0.0
0.7376894354820251 0.4375 0.0
0.65625 0.5755695104598999 0.0
0.484375 0.5251553654670715 0.0
0.3550134003162384 0.46875 0.0
4 8 14 13 9 255 0 0
6 10 11 17 2 1 0 255 0 0
3 10 12 11 255 0 0
5 6 15 14 8 7 255 0 0
4 9 13 12 10 255 0 0
6 2 17 16 5 4 3 255 0 0
4 5 16 15 6 255 0 0
4 26 27 31 32 0 0 255
6 28 18 19 20 35 29 0 0 255
3 28 29 30 0 0 255
5 24 25 26 32 33 0 0 255
4 27 28 30 31 0 0 255
6 20 21 22 23 34 35 0 0 255
4 23 24 33 34 0 0 255
4 0 1 19 18 128 0 128
4 1 2 20 19 0 255 0
4 2 3 21 20 0 255 0
4 3 4 22 21 0 255 0
4 4 5 23 22 0 255 0
4 5 6 24 23 0 255 0
4 6 7 25 24 0 255 0
4 7 8 26 25 0 255 0
4 8 9 27 26 0 255 0
4 9 10 28 27 0 255 0
4 10 0 18 28 128 0 128
4 11 12 30 29 0 255 0
4 12 13 31 30 0 255 0
4 13 14 32 31 0 255 0
4 14 15 33 32 0 255 0
4 15 16 34 33 0 255 0
4 16 17 35 34 0 255 0
4 17 11 29 35 0 255 0
