ply
format ascii 1.0
element vertex 36
property float x
property float y
property float z
element face 32
property list uchar int vertex_index
property uchar red
property uchar green
property uchar blue
end_header
0.6554877161979675 0.0625 1.0
0.625 0.29513290524482727 1.0
0.421875 0.3040370047092438 1.0
0.256793349981308 0.390625 1.0
0.2450648844242096 0.5625 1.0
0.328125 0.7240691781044006 1.0
0.515625 0.76423180103302 1.0
0.6622759699821472 0.6875 1.0
0.7350399494171143 0.515625 1.0
0.7013791799545288 0.3125 1.0
0.71875 0.12259941548109055 1.0
0.421875 0.3808166980743408 1.0
0.484375 0.38683024048805237 1.0
0.635036051273346 0.484375 1.0
0.6079240441322327 0.640625 1.0
0.4423772096633911 0.6875 1.0
0.32336652278900146 0.5625 1.0
0.375 0.39416009187698364 1.0
0.6554877161979675 0.0625 0.0
0.625 0.29513290524482727 0.0
0.421875 0.3040370047092438 0.0
0.256793349981308 0.390625 0.0
0.2450648844242096 0.5625 0.0
0.328125 0.7240691781044006 0.0
0.515625 0.76423180103302 0.0
0.6622759699821472 0.6875 0.0
0.7350399494171143 0.515625 0.0
0.7013791799545288 0.3125 0.0
0.71875 0.12259941548109055 0.0
0.421875 0.3808166980743408 0.0
0.484375 0.38683024048805237 0.0
0.635036051273346 0.484375 0.0
0.6079240441322327 0.640625 0.0
0.4423772096633911 0.6875 0.0
0.32336652278900146 0.5625 0.0
0.375 0.39416009187698364 0.0
8 8 13 12 2 1 0 10 9 255 0 0
4 7 14 13 8 255 0 0
4 6 15 14 7 255 0 0
3 2 11 17 255 0 0
5 2 17 16 4 3 255 0 0
3 2 12 11 255 0 0
5 4 16 15 6 5 255 0 0
8 26 27 28 18 19 20 30 31 0 0 255
4 25 26 31 32 0 0 255
4 24 25 32 33 0 0 255
3 20 35 29 0 0 255
5 20 21 22 34 35 0 0 255
3 20 29 30 0 0 255
5 22 23 24 33 34 0 0 255
4 0 1 19 18 128 0 128
4 1 2 20 19 0 255 0
4 2 3 21 20 0 255 0
4 3 4 22 21 0 255 0
4 4 5 23 22 0 255 0
4 5 6 24 23 0 255 0
4 6 7 25 24 0 255 0
4 7 8 26 25 0 255 0
4 8 9 27 26 0 255 0
4 9 10 28 27 0 255 0
4 10 0 18 28 128 0 128
4 11 12 30 29 0 255 0
4 12 13 31 30 0 255 0
4 13 14 32 31 0 255 0
4 14 15 33 32 0 255 0
4 15 16 34 33 0 255 0
4 16 17 35 34 0 255 0
4 17 11 29 35 0 255 0
