ply
format ascii 1.0
element vertex 44
property float x
property float y
property float z
element face 38
property list uchar int vertex_index
property uchar red
property uchar green
property uchar blue
end_header
0.3752976059913635 0.125 1.0
0.20985381305217743 0.203125 1.0
0.21875 0.40947088599205017 1.0
0.3018591105937958 0.578125 1.0
0.39559340476989746 0.734375 1.0
0.21875 0.7080206871032715 1.0
0.2782931327819824 0.796875 1.0
0.484375 0.8413130640983582 1.0
0.671875 0.7745625376701355 1.0
0.796875 0.6508719325065613 1.0
0.8403210043907166 0.4375 1.0
0.7632055282592773 0.265625 1.0
0.609375 0.16004697978496552 1.0
0.40625 0.12225726991891861 1.0
0.453125 0.2343083769083023 1.0
0.59375 0.2659887373447418 1.0
0.721026599407196 0.390625 1.0
0.7232609987258911 0.578125 1.0
0.609375 0.7110157608985901 1.0
0.4769769310951233 0.65625 1.0
0.3760117292404175 0.5 1.0
0.30429282784461975 0.328125 1.0
0.3752976059913635 0.125 0.0
0.20985381305217743 0.203125 0.0
0.21875 0.40947088599205017 0.0
0.3018591105937958 0.578125 0.0
0.39559340476989746 0.734375 0.0
0.21875 0.7080206871032715 0.0
0.2782931327819824 0.796875 0.0
0.484375 0.8413130640983582 0.0
0.671875 0.7745625376701355 0.0
0.796875 0.6508719325065613 0.0
0.8403210043907166 0.4375 0.0
0.7632055282592773 0.265625 0.0
0.609375 0.16004697978496552 0.0
0.40625 0.12225726991891861 0.0
0.453125 0.2343083769083023 0.0
0.59375 0.2659887373447418 0.0
0.721026599407196 0.390625 0.0
0.7232609987258911 0.578125 0.0
0.609375 0.7110157608985901 0.0
0.4769769310951233 0.65625 0.0
0.3760117292404175 0.5 0.0
0.30429282784461975 0.328125 0.0
4 8 18 17 9 255 0 0
4 2 21 20 3 255 0 0
5 10 16 15 12 11 255 0 0
7 4 19 18 8 7 6 5 255 0 0
4 3 20 19 4 255 0 0
6 13 14 21 2 1 0 255 0 0
4 12 15 14 13 255 0 0
4 9 17 16 10 255 0 0
4 30 31 39 40 0 0 255
4 24 25 42 43 0 0 255
5 32 33 34 37 38 0 0 255
7 26 27 28 29 30 40 41 0 0 255
4 25 26 41 42 0 0 255
6 35 22 23 24 43 36 0 0 255
4 34 35 36 37 0 0 255
4 31 32 38 39 0 0 255
4 0 1 23 22 0 255 0
4 1 2 24 23 0 255 0
4 2 3 25 24 0 255 0
4 3 4 26 25 0 255 0
4 4 5 27 26 0 255 0
4 5 6 28 27 0 255 0
4 6 7 29 28 0 255 0
4 7 8 30 29 0 255 0
4 8 9 31 30 0 255 0
4 9 10 32 31 0 255 0
4 10 11 33 32 0 255 0
4 11 12 34 33 0 255 0
4 12 13 35 34 128 0 128
4 13 0 22 35 128 0 128
4 14 15 37 36 0 255 0
4 15 16 38 37 0 255 0
4 16 17 39 38 0 255 0
4 17 18 40 39 0 255 0
4 18 19 41 40 0 255 0
4 19 20 42 41 0 255 0
4 20 21 43 42 0 255 0
4 21 14 36 43 0 255 0
