ply
format ascii 1.0
element vertex 38
property float x
property float y
property float z
element face 35
property list uchar int vertex_index
property uchar red
property uchar green
property uchar blue
end_header
0.3428632915019989 0.125 1.0
0.26798179745674133 0.3125 1.0
0.328125 0.5124825239181519 1.0
0.40501007437705994 0.6875 1.0
0.5133625864982605 0.828125 1.0
0.671875 0.7604162096977234 1.0
0.7784761190414429 0.609375 1.0
0.8029715418815613 0.421875 1.0
0.6875 0.2897298336029053 1.0
0.546875 0.18563276529312134 1.0
0.359375 0.12297974526882172 1.0
0.421875 0.21665845811367035 1.0
0.546875 0.27884283661842346 1.0
0.6875 0.3838270902633667 1.0
0.734375 0.5714724659919739 1.0
0.6155950427055359 0.671875 1.0
0.484375 0.5746777057647705 1.0
0.390625 0.41494831442832947 1.0
0.3515673875808716 0.234375 1.0
0.3428632915019989 0.125 0.0
0.26798179745674133 0.3125 0.0
0.328125 0.5124825239181519 0.0
0.40501007437705994 0.6875 0.0
0.5133625864982605 0.828125 0.0
0.671875 0.7604162096977234 0.0
0.7784761190414429 0.609375 0.0
0.8029715418815613 0.421875 0.0
0.6875 0.2897298336029053 0.0
0.546875 0.18563276529312134 0.0
0.359375 0.12297974526882172 0.0
0.421875 0.21665845811367035 0.0
0.546875 0.27884283661842346 0.0
0.6875 0.3838270902633667 0.0
0.734375 0.5714724659919739 0.0
0.6155950427055359 0.671875 0.0
0.484375 0.5746777057647705 0.0
0.390625 0.41494831442832947 0.0
0.3515673875808716 0.234375 0.0
4 8 13 12 9 255 0 0
4 10 11 18 0 255 0 0
5 3 16 15 5 4 255 0 0
5 0 18 17 2 1 255 0 0
4 9 12 11 10 255 0 0
5 6 14 13 8 7 255 0 0
4 5 15 14 6 255 0 0
4 2 17 16 3 255 0 0
4 27 28 31 32 0 0 255
4 29 19 37 30 0 0 255
5 22 23 24 34 35 0 0 255
5 19 20 21 36 37 0 0 255
4 28 29 30 31 0 0 255
5 25 26 27 32 33 0 0 255
4 24 25 33 34 0 0 255
4 21 22 35 36 0 0 255
4 0 1 20 19 0 255 0
4 1 2 21 20 0 255 0
4 2 3 22 21 0 255 0
4 3 4 23 22 0 255 0
4 4 5 24 23 0 255 0
4 5 6 25 24 0 255 0
4 6 7 26 25 0 255 0
4 7 8 27 26 0 255 0
4 8 9 28 27 0 255 0
4 9 10 29 28 128 0 128
4 10 0 19 29 128 0 128
4 11 12 31 30 0 255 0
4 12 13 32 31 0 255 0
4 13 14 33 32 0 255 0
4 14 15 34 33 0 255 0
4 15 16 35 34 0 255 0
4 16 17 36 35 0 255 0
4 17 18 37 36 0 255 0
4 18 11 30 37 0 255 0
