ply
format ascii 1.0
element vertex 36
property float x
property float y
property float z
element face 20
property list uchar int vertex_index
property uchar red
property uchar green
property uchar blue
end_header
0.3141341209411621 0.140625 1.0
0.2238626778125763 0.265625 1.0
0.3443157374858856 0.390625 1.0
0.3651302456855774 0.5625 1.0
0.4375 0.7486342787742615 1.0
0.5878481864929199 0.828125 1.0
0.578125 0.7691881060600281 1.0
0.46875 0.6388654708862305 1.0
0.4875101149082184 0.46875 1.0
0.6401424407958984 0.578125 1.0
0.75 0.7093786597251892 1.0
0.8495161533355713 0.625 1.0
0.6875 0.5318576693534851 1.0
0.53125 0.4425145983695984 1.0
0.46835362911224365 0.296875 1.0
0.40625 0.13299450278282166 1.0
0.359375 0.19499923288822174 1.0
0.328125 0.279007226228714 1.0
0.3141341209411621 0.140625 0.0
0.2238626778125763 0.265625 0.0
0.3443157374858856 0.390625 0.0
0.3651302456855774 0.5625 0.0
0.4375 0.7486342787742615 0.0
0.5878481864929199 0.828125 0.0
0.578125 0.7691881060600281 0.0
0.46875 0.6388654708862305 0.0
0.4875101149082184 0.46875 0.0
0.6401424407958984 0.578125 0.0
0.75 0.7093786597251892 0.0
0.8495161533355713 0.625 0.0
0.6875 0.5318576693534851 0.0
0.53125 0.4425145983695984 0.0
0.46835362911224365 0.296875 0.0
0.40625 0.13299450278282166 0.0
0.359375 0.19499923288822174 0.0
0.328125 0.279007226228714 0.0
4 0 16 17 1 255 0 0
18 1 17 16 0 15 14 13 12 11 10 9 8 7 6 5 4 3 2 255 0 0
4 18 19 35 34 0 0 255
18 19 20 21 22 23 24 25 26 27 28 29 30 31 32 33 18 34 35 0 0 255
4 0 1 19 18 0 255 0
4 1 2 20 19 0 255 0
4 2 3 21 20 0 255 0
4 3 4 22 21 0 255 0
4 4 5 23 22 0 255 0
4 5 6 24 23 0 255 0
4 6 7 25 24 0 255 0
4 7 8 26 25 0 255 0
4 8 9 27 26 0 255 0
4 9 10 28 27 0 255 0
4 10 11 29 28 0 255 0
4 11 12 30 29 0 255 0
4 12 13 31 30 0 255 0
4 13 14 32 31 0 255 0
4 14 15 33 32 128 0 128
4 15 0 18 33 128 0 128
