ply
format ascii 1.0
element vertex 36
property float x
property float y
property float z
element face 32
property list uchar int vertex_index
property uchar red
property uchar green
property uchar blue
end_header
0.4192086458206177 0.125 1.0
0.234375 0.19385769963264465 1.0
0.203125 0.3934548497200012 1.0
0.29498445987701416 0.5625 1.0
0.38600438833236694 0.71875 1.0
0.515625 0.8402400612831116 1.0
0.6875 0.7591422200202942 1.0
0.796875 0.6218159794807434 1.0
0.8089240789413452 0.4375 1.0
0.703125 0.28415369987487793 1.0
0.546875 0.19322198629379272 1.0
0.40625 0.28121572732925415 1.0
0.484375 0.3264305889606476 1.0
0.609375 0.44441890716552734 1.0
0.647777795791626 0.59375 1.0
0.484375 0.5526748299598694 1.0
0.375 0.40895533561706543 1.0
0.390625 0.28240659832954407 1.0
0.4192086458206177 0.125 0.0
0.234375 0.19385769963264465 0.0
0.203125 0.3934548497200012 0.0
0.29498445987701416 0.5625 0.0
0.38600438833236694 0.71875 0.0
0.515625 0.8402400612831116 0.0
0.6875 0.7591422200202942 0.0
0.796875 0.6218159794807434 0.0
0.8089240789413452 0.4375 0.0
0.703125 0.28415369987487793 0.0
0.546875 0.19322198629379272 0.0
0.40625 0.28121572732925415 0.0
0.484375 0.3264305889606476 0.0
0.609375 0.44441890716552734 0.0
0.647777795791626 0.59375 0.0
0.484375 0.5526748299598694 0.0
0.375 0.40895533561706543 0.0
0.390625 0.28240659832954407 0.0
7 3 15 14 7 6 5 4 255 0 0
3 0 11 17 255 0 0
4 10 12 11 0 255 0 0
5 7 14 13 9 8 255 0 0
5 0 17 16 2 1 255 0 0
4 9 13 12 10 255 0 0
4 2 16 15 3 255 0 0
7 21 22 23 24 25 32 33 0 0 255
3 18 35 29 0 0 255
4 28 18 29 30 0 0 255
5 25 26 27 31 32 0 0 255
5 18 19 20 34 35 0 0 255
4 27 28 30 31 0 0 255
4 20 21 33 34 0 0 255
4 0 1 19 18 128 0 128
4 1 2 20 19 0 255 0
4 2 3 21 20 0 255 0
4 3 4 22 21 0 255 0
4 4 5 23 22 0 255 0
4 5 6 24 23 0 255 0
4 6 7 25 24 0 255 0
4 7 8 26 25 0 255 0
4 8 9 27 26 0 255 0
4 9 10 28 27 0 255 0
4 10 0 18 28 128 0 128
4 11 12 30 29 0 255 0
4 12 13 31 30 0 255 0
4 13 14 32 31 0 255 0
4 14 15 33 32 0 255 0
4 15 16 34 33 0 255 0
4 16 17 35 34 0 255 0
4 17 11 29 35 0 255 0
