ply
format ascii 1.0
element vertex 42
property float x
property float y
property float z
element face 29
property list uchar int vertex_index
property uchar red
property uchar green
property uchar blue
end_header
0.4251396059989929 0.203125 1.0
0.265625 0.2837650775909424 1.0
0.19734714925289154 0.46875 1.0
0.29687201976776123 0.625 1.0
0.40625 0.7503402829170227 1.0
0.53125 0.8770325779914856 1.0
0.7235043048858643 0.890625 1.0
0.578125 0.7937742471694946 1.0
0.453125 0.6685236692428589 1.0
0.34375 0.5205128788948059 1.0
0.34375 0.3575066030025482 1.0
0.41943231225013733 0.46875 1.0
0.578125 0.5544921159744263 1.0
0.765625 0.5577019453048706 1.0
0.8420175313949585 0.375 1.0
0.703125 0.25254783034324646 1.0
0.546875 0.20309241116046906 1.0
0.5507391095161438 0.328125 1.0
0.703125 0.3426227867603302 1.0
0.671875 0.48186472058296204 1.0
0.5 0.4057562053203583 1.0
0.4251396059989929 0.203125 0.0
0.265625 0.2837650775909424 0.0
0.19734714925289154 0.46875 0.0
0.29687201976776123 0.625 0.0
0.40625 0.7503402829170227 0.0
0.53125 0.8770325779914856 0.0
0.7235043048858643 0.890625 0.0
0.578125 0.7937742471694946 0.0
0.453125 0.6685236692428589 0.0
0.34375 0.5205128788948059 0.0
0.34375 0.3575066030025482 0.0
0.41943231225013733 0.46875 0.0
0.578125 0.5544921159744263 0.0
0.765625 0.5577019453048706 0.0
0.8420175313949585 0.375 0.0
0.703125 0.25254783034324646 0.0
0.546875 0.20309241116046906 0.0
0.5507391095161438 0.328125 0.0
0.703125 0.3426227867603302 0.0
0.671875 0.48186472058296204 0.0
0.5 0.4057562053203583 0.0
6 12 19 18 15 14 13 255 0 0
15 16 17 20 11 10 9 8 7 6 5 4 3 2 1 0 255 0 0
4 15 18 17 16 255 0 0
4 11 20 19 12 255 0 0
6 33 34 35 36 39 40 0 0 255
15 37 21 22 23 24 25 26 27 28 29 30 31 32 41 38 0 0 255
4 36 37 38 39 0 0 255
4 32 33 40 41 0 0 255
4 0 1 22 21 0 255 0
4 1 2 23 22 0 255 0
4 2 3 24 23 0 255 0
4 3 4 25 24 0 255 0
4 4 5 26 25 0 255 0
4 5 6 27 26 0 255 0
4 6 7 28 27 0 255 0
4 7 8 29 28 0 255 0
4 8 9 30 29 0 255 0
4 9 10 31 30 0 255 0
4 10 11 32 31 0 255 0
4 11 12 33 32 0 255 0
4 12 13 34 33 0 255 0
4 13 14 35 34 0 255 0
4 14 15 36 35 0 255 0
4 15 16 37 36 128 0 128
4 16 0 21 37 128 0 128
4 17 18 39 38 0 255 0
4 18 19 40 39 0 255 0
4 19 20 41 40 0 255 0
4 20 17 38 41 0 255 0
