ply
format ascii 1.0
element vertex 40
property float x
property float y
property float z
element face 22
property list uchar int vertex_index
property uchar red
property uchar green
property uchar blue
end_header
0.34375 0.12451785802841187 1.0
0.5570634603500366 0.15625 1.0
0.6985946893692017 0.265625 1.0
0.75 0.41286420822143555 1.0
0.609375 0.5256354808807373 1.0
0.41646695137023926 0.546875 1.0
0.59375 0.6102790236473083 1.0
0.7599462866783142 0.703125 1.0
0.765625 0.8416271209716797 1.0
0.6242817044258118 0.734375 1.0
0.4375 0.7212061882019043 1.0
0.3020227551460266 0.734375 1.0
0.2965417504310608 0.53125 1.0
0.40625 0.4347131550312042 1.0
0.625 0.43448612093925476 1.0
0.578125 0.3034122884273529 1.0
0.390625 0.24470752477645874 1.0
0.21871614456176758 0.3125 1.0
0.171875 0.23125481605529785 1.0
0.328125 0.12602750957012177 1.0
0.34375 0.12451785802841187 0.0
0.5570634603500366 0.15625 0.0
0.6985946893692017 0.265625 0.0
0.75 0.41286420822143555 0.0
0.609375 0.5256354808807373 0.0
0.41646695137023926 0.546875 0.0
0.59375 0.6102790236473083 0.0
0.7599462866783142 0.703125 0.0
0.765625 0.8416271209716797 0.0
0.6242817044258118 0.734375 0.0
0.4375 0.7212061882019043 0.0
0.3020227551460266 0.734375 0.0
0.2965417504310608 0.53125 0.0
0.40625 0.4347131550312042 0.0
0.625 0.43448612093925476 0.0
0.578125 0.3034122884273529 0.0
0.390625 0.24470752477645874 0.0
0.21871614456176758 0.3125 0.0
0.171875 0.23125481605529785 0.0
0.328125 0.12602750957012177 0.0
20 0 1 2 3 4 5 6 7 8 9 10 11 12 13 14 15 16 17 18 19 255 0 0
20 20 39 38 37 36 35 34 33 32 31 30 29 28 27 26 25 24 23 22 21 0 0 255
4 1 0 20 21 128 0 128
4 2 1 21 22 0 255 0
4 3 2 22 23 0 255 0
4 4 3 23 24 0 255 0
4 5 4 24 25 0 255 0
4 6 5 25 26 0 255 0
4 7 6 26 27 0 255 0
4 8 7 27 28 0 255 0
4 9 8 28 29 0 255 0
4 10 9 29 30 0 255 0
4 11 10 30 31 0 255 0
4 12 11 31 32 0 255 0
4 13 12 32 33 0 255 0
4 14 13 33 34 0 255 0
4 15 14 34 35 0 255 0
4 16 15 35 36 0 255 0
4 17 16 36 37 0 255 0
4 18 17 37 38 0 255 0
4 19 18 38 39 0 255 0
4 0 19 39 20 128 0 128
