ply
format ascii 1.0
element vertex 38
property float x
property float y
property float z
element face 21
property list uchar int vertex_index
property uchar red
property uchar green
property uchar blue
end_header
0.42562079429626465 0.171875 1.0
0.3095029592514038 0.296875 1.0
0.3125 0.5006345510482788 1.0
0.4018512964248657 0.671875 1.0
0.5 0.8190959095954895 1.0
0.6247292160987854 0.8125 1.0
0.5170516967773438 0.65625 1.0
0.42331230640411377 0.5 1.0
0.546875 0.4946107566356659 1.0
0.7285255789756775 0.515625 1.0
0.7658752202987671 0.34375 1.0
0.6489980220794678 0.21875 1.0
0.453125 0.16452690958976746 1.0
0.42562079429626465 0.171875 1.0
0.484375 0.26759961247444153 1.0
0.625 0.3223143219947815 1.0
0.625 0.4289039075374603 1.0
0.47372597455978394 0.328125 1.0
0.484375 0.26759961247444153 1.0
0.42562079429626465 0.171875 0.0
0.3095029592514038 0.296875 0.0
0.3125 0.5006345510482788 0.0
0.4018512964248657 0.671875 0.0
0.5 0.8190959095954895 0.0
0.6247292160987854 0.8125 0.0
0.5170516967773438 0.65625 0.0
0.42331230640411377 0.5 0.0
0.546875 0.4946107566356659 0.0
0.7285255789756775 0.515625 0.0
0.7658752202987671 0.34375 0.0
0.6489980220794678 0.21875 0.0
0.453125 0.16452690958976746 0.0
0.42562079429626465 0.171875 0.0
0.484375 0.26759961247444153 0.0
0.625 0.3223143219947815 0.0
0.625 0.4289039075374603 0.0
0.47372597455978394 0.328125 0.0
0.484375 0.26759961247444153 0.0
8 16 8 9 10 11 12 14 15 255 0 0
11 17 0 1 2 3 4 5 6 7 8 16 255 0 0
8 35 34 33 31 30 29 28 27 0 0 255
11 36 35 27 26 25 24 23 22 21 20 19 0 0 255
4 1 0 19 20 0 255 0
4 2 1 20 21 0 255 0
4 3 2 21 22 0 255 0
4 4 3 22 23 0 255 0
4 5 4 23 24 0 255 0
4 6 5 24 25 0 255 0
4 7 6 25 26 0 255 0
4 8 7 26 27 0 255 0
4 9 8 27 28 0 255 0
4 10 9 28 29 0 255 0
4 11 10 29 30 0 255 0
4 12 11 30 31 128 0 128
4 13 12 31 32 128 0 128
4 15 14 33 34 0 255 0
4 16 15 34 35 0 255 0
4 17 16 35 36 0 255 0
4 18 17 36 37 0 255 0
