ply
format ascii 1.0
element vertex 46
property float x
property float y
property float z
element face 27
property list uchar int vertex_index
property uchar red
property uchar green
property uchar blue
end_header
0.20665551722049713 0.140625 1.0
0.15063562989234924 0.296875 1.0
0.296875 0.39704903960227966 1.0
0.515625 0.3959006369113922 1.0
0.625 0.5327308773994446 1.0
0.650460958480835 0.734375 1.0
0.47603774070739746 0.734375 1.0
0.359375 0.5991689562797546 1.0
0.39950916171073914 0.765625 1.0
0.578125 0.8376995921134949 1.0
0.734375 0.7364417910575867 1.0
0.704155683517456 0.53125 1.0
0.640625 0.37497588992118835 1.0
0.796875 0.28530582785606384 1.0
0.5889232158660889 0.3125 1.0
0.453125 0.19684074819087982 1.0
0.265625 0.12746180593967438 1.0
0.20665551722049713 0.140625 1.0
0.25 0.1879250407218933 1.0
0.3676864206790924 0.234375 1.0
0.34375 0.33652710914611816 1.0
0.203125 0.23462939262390137 1.0
0.25 0.1879250407218933 1.0
0.20665551722049713 0.140625 0.0
0.15063562989234924 0.296875 0.0
0.296875 0.39704903960227966 0.0
0.515625 0.3959006369113922 0.0
0.625 0.5327308773994446 0.0
0.650460958480835 0.734375 0.0
0.47603774070739746 0.734375 0.0
0.359375 0.5991689562797546 0.0
0.39950916171073914 0.765625 0.0
0.578125 0.8376995921134949 0.0
0.734375 0.7364417910575867 0.0
0.704155683517456 0.53125 0.0
0.640625 0.37497588992118835 0.0
0.796875 0.28530582785606384 0.0
0.5889232158660889 0.3125 0.0
0.453125 0.19684074819087982 0.0
0.265625 0.12746180593967438 0.0
0.20665551722049713 0.140625 0.0
0.25 0.1879250407218933 0.0
0.3676864206790924 0.234375 0.0
0.34375 0.33652710914611816 0.0
0.203125 0.23462939262390137 0.0
0.25 0.1879250407218933 0.0
4 19 15 16 18 255 0 0
16 20 2 3 4 5 6 7 8 9 10 11 12 13 14 15 19 255 0 0
4 21 1 2 20 255 0 0
4 42 41 39 38 0 0 255
16 43 42 38 37 36 35 34 33 32 31 30 29 28 27 26 25 0 0 255
4 44 43 25 24 0 0 255
4 1 0 23 24 0 255 0
4 2 1 24 25 0 255 0
4 3 2 25 26 0 255 0
4 4 3 26 27 0 255 0
4 5 4 27 28 0 255 0
4 6 5 28 29 0 255 0
4 7 6 29 30 0 255 0
4 8 7 30 31 0 255 0
4 9 8 31 32 0 255 0
4 10 9 32 33 0 255 0
4 11 10 33 34 0 255 0
4 12 11 34 35 0 255 0
4 13 12 35 36 0 255 0
4 14 13 36 37 0 255 0
4 15 14 37 38 0 255 0
4 16 15 38 39 128 0 128
4 17 16 39 40 128 0 128
4 19 18 41 42 0 255 0
4 20 19 42 43 0 255 0
4 21 20 43 44 0 255 0
4 22 21 44 45 0 255 0
