ply
format ascii 1.0
element vertex 36
property float x
property float y
property float z
element face 34
property list uchar int vertex_index
property uchar red
property uchar green
property uchar blue
end_header
0.3951055705547333 0.140625 1.0
0.296875 0.28890562057495117 1.0
0.27527111768722534 0.515625 1.0
0.35422849655151367 0.6875 1.0
0.484375 0.8115968704223633 1.0
0.671875 0.8063229322433472 1.0
0.6875107884407043 0.640625 1.0
0.7528784871101379 0.453125 1.0
0.671875 0.28371497988700867 1.0
0.546875 0.16314226388931274 1.0
0.421875 0.2648690938949585 1.0
0.453125 0.2617248594760895 1.0
0.6086780428886414 0.359375 1.0
0.6152576208114624 0.5625 1.0
0.5733048915863037 0.734375 1.0
0.4375 0.661413848400116 1.0
0.3677007257938385 0.484375 1.0
0.40625 0.2791496515274048 1.0
0.3951055705547333 0.140625 0.0
0.296875 0.28890562057495117 0.0
0.27527111768722534 0.515625 0.0
0.35422849655151367 0.6875 0.0
0.484375 0.8115968704223633 0.0
0.671875 0.8063229322433472 0.0
0.6875107884407043 0.640625 0.0
0.7528784871101379 0.453125 0.0
0.671875 0.28371497988700867 0.0
0.546875 0.16314226388931274 0.0
0.421875 0.2648690938949585 0.0
0.453125 0.2617248594760895 0.0
0.6086780428886414 0.359375 0.0
0.6152576208114624 0.5625 0.0
0.5733048915863037 0.734375 0.0
0.4375 0.661413848400116 0.0
0.3677007257938385 0.484375 0.0
0.40625 0.2791496515274048 0.0
5 8 12 11 0 9 255 0 0
4 1 17 16 2 255 0 0
4 0 10 17 1 255 0 0
5 4 14 13 6 5 255 0 0
3 0 11 10 255 0 0
4 3 15 14 4 255 0 0
5 6 13 12 8 7 255 0 0
4 2 16 15 3 255 0 0
5 26 27 18 29 30 0 0 255
4 19 20 34 35 0 0 255
4 18 19 35 28 0 0 255
5 22 23 24 31 32 0 0 255
3 18 28 29 0 0 255
4 21 22 32 33 0 0 255
5 24 25 26 30 31 0 0 255
4 20 21 33 34 0 0 255
4 0 1 19 18 128 0 128
4 1 2 20 19 0 255 0
4 2 3 21 20 0 255 0
4 3 4 22 21 0 255 0
4 4 5 23 22 0 255 0
4 5 6 24 23 0 255 0
4 6 7 25 24 0 255 0
4 7 8 26 25 0 255 0
4 8 9 27 26 0 255 0
4 9 0 18 27 128 0 128
4 10 11 29 28 0 255 0
4 11 12 30 29 0 255 0
4 12 13 31 30 0 255 0
4 13 14 32 31 0 255 0
4 14 15 33 32 0 255 0
4 15 16 34 33 0 255 0
4 16 17 35 34 0 255 0
4 17 10 28 35 0 255 0
