ply
format ascii 1.0
element vertex 44
property float x
property float y
property float z
element face 24
property list uchar int vertex_index
property uchar red
property uchar green
property uchar blue
end_header
0.578125 0.1659770905971527 1.0
0.7751165628433228 0.21875 1.0
0.859375 0.3601642847061157 1.0
0.765625 0.5173445343971252 1.0
0.5625 0.5406478643417358 1.0
0.41869810223579407 0.4375 1.0
0.515625 0.2841525971889496 1.0
0.5 0.3964325487613678 1.0
0.6692338585853577 0.46875 1.0
0.7702710628509521 0.328125 1.0
0.59375 0.2559303641319275 1.0
0.40548691153526306 0.28125 1.0
0.2849240005016327 0.421875 1.0
0.3362402021884918 0.625 1.0
0.4375 0.7712470889091492 1.0
0.5509699583053589 0.78125 1.0
0.40625 0.8541557788848877 1.0
0.28125 0.7342320680618286 1.0
0.203125 0.5592447519302368 1.0
0.203125 0.3570435345172882 1.0
0.328125 0.22997625172138214 1.0
0.53125 0.1777762621641159 1.0
0.578125 0.1659770905971527 0.0
0.7751165628433228 0.21875 0.0
0.859375 0.3601642847061157 0.0
0.765625 0.5173445343971252 0.0
0.5625 0.5406478643417358 0.0
0.41869810223579407 0.4375 0.0
0.515625 0.2841525971889496 0.0
0.5 0.3964325487613678 0.0
0.6692338585853577 0.46875 0.0
0.7702710628509521 0.328125 0.0
0.59375 0.2559303641319275 0.0
0.40548691153526306 0.28125 0.0
0.2849240005016327 0.421875 0.0
0.3362402021884918 0.625 0.0
0.4375 0.7712470889091492 0.0
0.5509699583053589 0.78125 0.0
0.40625 0.8541557788848877 0.0
0.28125 0.7342320680618286 0.0
0.203125 0.5592447519302368 0.0
0.203125 0.3570435345172882 0.0
0.328125 0.22997625172138214 0.0
0.53125 0.1777762621641159 0.0
22 0 1 2 3 4 5 6 7 8 9 10 11 12 13 14 15 16 17 18 19 20 21 255 0 0
22 22 43 42 41 40 39 38 37 36 35 34 33 32 31 30 29 28 27 26 25 24 23 0 0 255
4 1 0 22 23 128 0 128
4 2 1 23 24 0 255 0
4 3 2 24 25 0 255 0
4 4 3 25 26 0 255 0
4 5 4 26 27 0 255 0
4 6 5 27 28 0 255 0
4 7 6 28 29 0 255 0
4 8 7 29 30 0 255 0
4 9 8 30 31 0 255 0
4 10 9 31 32 0 255 0
4 11 10 32 33 0 255 0
4 12 11 33 34 0 255 0
4 13 12 34 35 0 255 0
4 14 13 35 36 0 255 0
4 15 14 36 37 0 255 0
4 16 15 37 38 0 255 0
4 17 16 38 39 0 255 0
4 18 17 39 40 0 255 0
4 19 18 40 41 0 255 0
4 20 19 41 42 0 255 0
4 21 20 42 43 0 255 0
4 0 21 43 22 128 0 128
