ply
format ascii 1.0
element vertex 38
property float x
property float y
property float z
element face 33
property list uchar int vertex_index
property uchar red
property uchar green
property uchar blue
end_header
0.453125 0.09652143716812134 1.0
0.3368900418281555 0.234375 1.0
0.40433308482170105 0.421875 1.0
0.28411921858787537 0.53125 1.0
0.265625 0.7109321355819702 1.0
0.421875 0.8013521432876587 1.0
0.609375 0.7396355271339417 1.0
0.6823931932449341 0.59375 1.0
0.625 0.4376191198825836 1.0
0.703125 0.28893399238586426 1.0
0.6143906712532043 0.125 1.0
0.5 0.19721733033657074 1.0
0.578125 0.2382407784461975 1.0
0.578125 0.37599918246269226 1.0
0.453125 0.25813254714012146 1.0
0.4375 0.5262256264686584 1.0
0.5622331500053406 0.625 1.0
0.484375 0.7114371061325073 1.0
0.336591511964798 0.609375 1.0
0.453125 0.09652143716812134 0.0
0.3368900418281555 0.234375 0.0
0.40433308482170105 0.421875 0.0
0.28411921858787537 0.53125 0.0
0.265625 0.7109321355819702 0.0
0.421875 0.8013521432876587 0.0
0.609375 0.7396355271339417 0.0
0.6823931932449341 0.59375 0.0
0.625 0.4376191198825836 0.0
0.703125 0.28893399238586426 0.0
0.6143906712532043 0.125 0.0
0.5 0.19721733033657074 0.0
0.578125 0.2382407784461975 0.0
0.578125 0.37599918246269226 0.0
0.453125 0.25813254714012146 0.0
0.4375 0.5262256264686584 0.0
0.5622331500053406 0.625 0.0
0.484375 0.7114371061325073 0.0
0.336591511964798 0.609375 0.0
5 8 13 12 10 9 255 0 0
4 0 11 14 1 255 0 0
4 10 12 11 0 255 0 0
9 1 14 13 8 7 6 16 15 2 255 0 0
4 2 15 18 3 255 0 0
5 3 18 17 5 4 255 0 0
4 5 17 16 6 255 0 0
5 27 28 29 31 32 0 0 255
4 19 20 33 30 0 0 255
4 29 19 30 31 0 0 255
9 20 21 34 35 25 26 27 32 33 0 0 255
4 21 22 37 34 0 0 255
5 22 23 24 36 37 0 0 255
4 24 25 35 36 0 0 255
4 0 1 20 19 128 0 128
4 1 2 21 20 0 255 0
4 2 3 22 21 0 255 0
4 3 4 23 22 0 255 0
4 4 5 24 23 0 255 0
4 5 6 25 24 0 255 0
4 6 7 26 25 0 255 0
4 7 8 27 26 0 255 0
4 8 9 28 27 0 255 0
4 9 10 29 28 0 255 0
4 10 0 19 29 128 0 128
4 11 12 31 30 0 255 0
4 12 13 32 31 0 255 0
4 13 14 33 32 0 255 0
4 14 11 30 33 0 255 0
4 15 16 35 34 0 255 0
4 16 17 36 35 0 255 0
4 17 18 37 36 0 255 0
4 18 15 34 37 0 255 0
