ply
format ascii 1.0
element vertex 28
property float x
property float y
property float z
element face 16
property list uchar int vertex_index
property uchar red
property uchar green
property uchar blue
end_header
0.5284897685050964 0.171875 1.0
0.328125 0.2339189201593399 1.0
0.23835431039333344 0.390625 1.0
0.30857589840888977 0.578125 1.0
0.40625 0.7230927348136902 1.0
0.5 0.8756974935531616 1.0
0.5933411717414856 0.75 1.0
0.5 0.5798592567443848 1.0
0.59375 0.5654252767562866 1.0
0.7592191696166992 0.546875 1.0
0.796875 0.3555617034435272 1.0
0.703125 0.19054971635341644 1.0
0.609375 0.3404335677623749 1.0
0.609375 0.37846335768699646 1.0
0.5284897685050964 0.171875 0.0
0.328125 0.2339189201593399 0.0
0.23835431039333344 0.390625 0.0
0.30857589840888977 0.578125 0.0
0.40625 0.7230927348136902 0.0
0.5 0.8756974935531616 0.0
0.5933411717414856 0.75 0.0
0.5 0.5798592567443848 0.0
0.59375 0.5654252767562866 0.0
0.7592191696166992 0.546875 0.0
0.796875 0.3555617034435272 0.0
0.703125 0.19054971635341644 0.0
0.609375 0.3404335677623749 0.0
0.609375 0.37846335768699646 0.0
6 8 13 12 11 10 9 255 0 0
12 11 12 13 8 7 6 5 4 3 2 1 0 255 0 0
6 22 23 24 25 26 27 0 0 255
12 25 14 15 16 17 18 19 20 21 22 27 26 0 0 255
4 0 1 15 14 128 0 128
4 1 2 16 15 0 255 0
4 2 3 17 16 0 255 0
4 3 4 18 17 0 255 0
4 4 5 19 18 0 255 0
4 5 6 20 19 0 255 0
4 6 7 21 20 0 255 0
4 7 8 22 21 0 255 0
4 8 9 23 22 0 255 0
4 9 10 24 23 0 255 0
4 10 11 25 24 0 255 0
4 11 0 14 25 128 0 128
