ply
format ascii 1.0
element vertex 42
property float x
property float y
property float z
element face 23
property list uchar int vertex_index
property uchar red
property uchar green
property uchar blue
end_header
0.421875 0.12488139420747757 1.0
0.65625 0.13062061369419098 1.0
0.7830045819282532 0.25 1.0
0.6663817763328552 0.375 1.0
0.5 0.46455782651901245 1.0
0.32881712913513184 0.546875 1.0
0.3125 0.6890597343444824 1.0
0.53125 0.6887627840042114 1.0
0.78125 0.7027833461761475 1.0
0.828125 0.7652130126953125 1.0
0.609375 0.7870099544525146 1.0
0.375 0.770942747592926 1.0
0.2393340915441513 0.71875 1.0
0.2214093655347824 0.546875 1.0
0.375 0.44490280747413635 1.0
0.546875 0.3627174198627472 1.0
0.6936144828796387 0.265625 1.0
0.515625 0.19374056160449982 1.0
0.328125 0.2189176082611084 1.0
0.234375 0.29962658882141113 1.0
0.328125 0.14929330348968506 1.0
0.421875 0.12488139420747757 0.0
0.65625 0.13062061369419098 0.0
0.7830045819282532 0.25 0.0
0.6663817763328552 0.375 0.0
0.5 0.46455782651901245 0.0
0.32881712913513184 0.546875 0.0
0.3125 0.6890597343444824 0.0
0.53125 0.6887627840042114 0.0
0.78125 0.7027833461761475 0.0
0.828125 0.7652130126953125 0.0
0.609375 0.7870099544525146 0.0
0.375 0.770942747592926 0.0
0.2393340915441513 0.71875 0.0
0.2214093655347824 0.546875 0.0
0.375 0.44490280747413635 0.0
0.546875 0.3627174198627472 0.0
0.6936144828796387 0.265625 0.0
0.515625 0.19374056160449982 0.0
0.328125 0.2189176082611084 0.0
0.234375 0.29962658882141113 0.0
0.328125 0.14929330348968506 0.0
21 0 1 2 3 4 5 6 7 8 9 10 11 12 13 14 15 16 17 18 19 20 255 0 0
21 21 41 40 39 38 37 36 35 34 33 32 31 30 29 28 27 26 25 24 23 22 0 0 255
4 1 0 21 22 128 0 128
4 2 1 22 23 0 255 0
4 3 2 23 24 0 255 0
4 4 3 24 25 0 255 0
4 5 4 25 26 0 255 0
4 6 5 26 27 0 255 0
4 7 6 27 28 0 255 0
4 8 7 28 29 0 255 0
4 9 8 29 30 0 255 0
4 10 9 30 31 0 255 0
4 11 10 31 32 0 255 0
4 12 11 32 33 0 255 0
4 13 12 33 34 0 255 0
4 14 13 34 35 0 255 0
4 15 14 35 36 0 255 0
4 16 15 36 37 0 255 0
4 17 16 37 38 0 255 0
4 18 17 38 39 0 255 0
4 19 18 39 40 0 255 0
4 20 19 40 41 0 255 0
4 0 20 41 21 128 0 128
