ply
format ascii 1.0
element vertex 40
property float x
property float y
property float z
element face 22
property list uchar int vertex_index
property uchar red
property uchar green
property uchar blue
end_header
0.296875 0.12491365522146225 1.0
0.5 0.160661518573761 1.0
0.65625 0.2558368146419525 1.0
0.7470464110374451 0.421875 1.0
0.7153347134590149 0.609375 1.0
0.796875 0.7618381977081299 1.0
0.625 0.8362096548080444 1.0
0.390625 0.8199980854988098 1.0
0.46875 0.7501110434532166 1.0
0.6454816460609436 0.75 1.0
0.609375 0.6316404342651367 1.0
0.40625 0.5819529891014099 1.0
0.296875 0.46491387486457825 1.0
0.421875 0.4298151731491089 1.0
0.6002379655838013 0.484375 1.0
0.59375 0.33416950702667236 1.0
0.421875 0.25796714425086975 1.0
0.2671148478984833 0.234375 1.0
0.171875 0.32364824414253235 1.0
0.21296696364879608 0.15625 1.0
0.296875 0.12491365522146225 0.0
0.5 0.160661518573761 0.0
0.65625 0.2558368146419525 0.0
0.7470464110374451 0.421875 0.0
0.7153347134590149 0.609375 0.0
0.796875 0.7618381977081299 0.0
0.625 0.8362096548080444 0.0
0.390625 0.8199980854988098 0.0
0.46875 0.7501110434532166 0.0
0.6454816460609436 0.75 0.0
0.609375 0.6316404342651367 0.0
0.40625 0.5819529891014099 0.0
0.296875 0.46491387486457825 0.0
0.421875 0.4298151731491089 0.0
0.6002379655838013 0.484375 0.0
0.59375 0.33416950702667236 0.0
0.421875 0.25796714425086975 0.0
0.2671148478984833 0.234375 0.0
0.171875 0.32364824414253235 0.0
0.21296696364879608 0.15625 0.0
20 0 1 2 3 4 5 6 7 8 9 10 11 12 13 14 15 16 17 18 19 255 0 0
20 20 39 38 37 36 35 34 33 32 31 30 29 28 27 26 25 24 23 22 21 0 0 255
4 1 0 20 21 128 0 128
4 2 1 21 22 0 255 0
4 3 2 22 23 0 255 0
4 4 3 23 24 0 255 0
4 5 4 24 25 0 255 0
4 6 5 25 26 0 255 0
4 7 6 26 27 0 255 0
4 8 7 27 28 0 255 0
4 9 8 28 29 0 255 0
4 10 9 29 30 0 255 0
4 11 10 30 31 0 255 0
4 12 11 31 32 0 255 0
4 13 12 32 33 0 255 0
4 14 13 33 34 0 255 0
4 15 14 34 35 0 255 0
4 16 15 35 36 0 255 0
4 17 16 36 37 0 255 0
4 18 17 37 38 0 255 0
4 19 18 38 39 0 255 0
4 0 19 39 20 128 0 128
