ply
format ascii 1.0
element vertex 40
property float x
property float y
property float z
element face 34
property list uchar int vertex_index
property uchar red
property uchar green
property uchar blue
end_header
0.4722000062465668 0.09375 1.0
0.5213546752929688 0.234375 1.0
0.532267689704895 0.359375 1.0
0.3125 0.3291395306587219 1.0
0.14482811093330383 0.390625 1.0
0.1875 0.5318194031715393 1.0
0.333737313747406 0.640625 1.0
0.5239933729171753 0.703125 1.0
0.71875 0.7330796122550964 1.0
0.7765142321586609 0.5625 1.0
0.7738802433013916 0.4375 1.0
0.6655269265174866 0.296875 1.0
0.5861123204231262 0.125 1.0
0.25 0.4131081998348236 1.0
0.3125 0.4094502627849579 1.0
0.53125 0.4428657591342926 1.0
0.7121955156326294 0.515625 1.0
0.5931466221809387 0.625 1.0
0.390625 0.5697013139724731 1.0
0.24689435958862305 0.46875 1.0
0.4722000062465668 0.09375 0.0
0.5213546752929688 0.234375 0.0
0.532267689704895 0.359375 0.0
0.3125 0.3291395306587219 0.0
0.14482811093330383 0.390625 0.0
0.1875 0.5318194031715393 0.0
0.333737313747406 0.640625 0.0
0.5239933729171753 0.703125 0.0
0.71875 0.7330796122550964 0.0
0.7765142321586609 0.5625 0.0
0.7738802433013916 0.4375 0.0
0.6655269265174866 0.296875 0.0
0.5861123204231262 0.125 0.0
0.25 0.4131081998348236 0.0
0.3125 0.4094502627849579 0.0
0.53125 0.4428657591342926 0.0
0.7121955156326294 0.515625 0.0
0.5931466221809387 0.625 0.0
0.390625 0.5697013139724731 0.0
0.24689435958862305 0.46875 0.0
4 5 19 18 6 255 0 0
5 7 17 16 9 8 255 0 0
9 9 16 15 2 1 0 12 11 10 255 0 0
4 6 18 17 7 255 0 0
4 2 15 14 3 255 0 0
5 3 13 19 5 4 255 0 0
3 3 14 13 255 0 0
4 25 26 38 39 0 0 255
5 27 28 29 36 37 0 0 255
9 29 30 31 32 20 21 22 35 36 0 0 255
4 26 27 37 38 0 0 255
4 22 23 34 35 0 0 255
5 23 24 25 39 33 0 0 255
3 23 33 34 0 0 255
4 0 1 21 20 128 0 128
4 1 2 22 21 0 255 0
4 2 3 23 22 0 255 0
4 3 4 24 23 0 255 0
4 4 5 25 24 0 255 0
4 5 6 26 25 0 255 0
4 6 7 27 26 0 255 0
4 7 8 28 27 0 255 0
4 8 9 29 28 0 255 0
4 9 10 30 29 0 255 0
4 10 11 31 30 0 255 0
4 11 12 32 31 0 255 0
4 12 0 20 32 128 0 128
4 13 14 34 33 0 255 0
4 14 15 35 34 0 255 0
4 15 16 36 35 0 255 0
4 16 17 37 36 0 255 0
4 17 18 38 37 0 255 0
4 18 19 39 38 0 255 0
4 19 13 33 39 0 255 0
