ply
format ascii 1.0
element vertex 46
property float x
property float y
property float z
element face 33
property list uchar int vertex_index
property uchar red
property uchar green
property uchar blue
end_header
0.5245504975318909 0.125 1.0
0.328125 0.176934152841568 1.0
0.234375 0.3205257058143616 1.0
0.359375 0.4449913799762726 1.0
0.265625 0.5507934093475342 1.0
0.16126497089862823 0.703125 1.0
0.296875 0.8162367939949036 1.0
0.53125 0.829166829586029 1.0
0.609375 0.7165440320968628 1.0
0.421875 0.746599555015564 1.0
0.3125 0.643476128578186 1.0
0.46875 0.5529435873031616 1.0
0.654110848903656 0.625 1.0
0.796875 0.7218056917190552 1.0
0.729213297367096 0.5625 1.0
0.640625 0.44877195358276367 1.0
0.765625 0.31556349992752075 1.0
0.7014883160591125 0.15625 1.0
0.453125 0.23049883544445038 1.0
0.578125 0.2303943932056427 1.0
0.609375 0.33703142404556274 1.0
0.4506361782550812 0.40625 1.0
0.32179027795791626 0.28125 1.0
0.5245504975318909 0.125 0.0
0.328125 0.176934152841568 0.0
0.234375 0.3205257058143616 0.0
0.359375 0.4449913799762726 0.0
0.265625 0.5507934093475342 0.0
0.16126497089862823 0.703125 0.0
0.296875 0.8162367939949036 0.0
0.53125 0.829166829586029 0.0
0.609375 0.7165440320968628 0.0
0.421875 0.746599555015564 0.0
0.3125 0.643476128578186 0.0
0.46875 0.5529435873031616 0.0
0.654110848903656 0.625 0.0
0.796875 0.7218056917190552 0.0
0.729213297367096 0.5625 0.0
0.640625 0.44877195358276367 0.0
0.765625 0.31556349992752075 0.0
0.7014883160591125 0.15625 0.0
0.453125 0.23049883544445038 0.0
0.578125 0.2303943932056427 0.0
0.609375 0.33703142404556274 0.0
0.4506361782550812 0.40625 0.0
0.32179027795791626 0.28125 0.0
5 0 18 22 2 1 255 0 0
3 0 19 18 255 0 0
6 15 20 19 0 17 16 255 0 0
4 2 22 21 3 255 0 0
15 3 21 20 15 14 13 12 11 10 9 8 7 6 5 4 255 0 0
5 23 24 25 45 41 0 0 255
3 23 41 42 0 0 255
6 38 39 40 23 42 43 0 0 255
4 25 26 44 45 0 0 255
15 26 27 28 29 30 31 32 33 34 35 36 37 38 43 44 0 0 255
4 0 1 24 23 128 0 128
4 1 2 25 24 0 255 0
4 2 3 26 25 0 255 0
4 3 4 27 26 0 255 0
4 4 5 28 27 0 255 0
4 5 6 29 28 0 255 0
4 6 7 30 29 0 255 0
4 7 8 31 30 0 255 0
4 8 9 32 31 0 255 0
4 9 10 33 32 0 255 0
4 10 11 34 33 0 255 0
4 11 12 35 34 0 255 0
4 12 13 36 35 0 255 0
4 13 14 37 36 0 255 0
4 14 15 38 37 0 255 0
4 15 16 39 38 0 255 0
4 16 17 40 39 0 255 0
4 17 0 23 40 128 0 128
4 18 19 42 41 0 255 0
4 19 20 43 42 0 255 0
4 20 21 44 43 0 255 0
4 21 22 45 44 0 255 0
4 22 18 41 45 0 255 0
