ply
format ascii 1.0
element vertex 40
property float x
property float y
property float z
element face 38
property list uchar int vertex_index
property uchar red
property uchar green
property uchar blue
end_header
0.6112428307533264 0.171875 1.0
0.4375 0.24110578000545502 1.0
0.27791959047317505 0.328125 1.0
0.140625 0.4422954022884369 1.0
0.18908502161502838 0.59375 1.0
0.3125 0.725905179977417 1.0
0.484375 0.8040256500244141 1.0
0.6376046538352966 0.703125 1.0
0.7664609551429749 0.59375 1.0
0.8390575051307678 0.40625 1.0
0.78125 0.20735906064510345 1.0
0.65625 0.23952379822731018 1.0
0.734375 0.28396502137184143 1.0
0.7402591705322266 0.5 1.0
0.6232402920722961 0.625 1.0
0.44226202368736267 0.703125 1.0
0.3086795508861542 0.609375 1.0
0.24434445798397064 0.453125 1.0
0.40625 0.3621238172054291 1.0
0.5625 0.27755823731422424 1.0
0.6112428307533264 0.171875 0.0
0.4375 0.24110578000545502 0.0
0.27791959047317505 0.328125 0.0
0.140625 0.4422954022884369 0.0
0.18908502161502838 0.59375 0.0
0.3125 0.725905179977417 0.0
0.484375 0.8040256500244141 0.0
0.6376046538352966 0.703125 0.0
0.7664609551429749 0.59375 0.0
0.8390575051307678 0.40625 0.0
0.78125 0.20735906064510345 0.0
0.65625 0.23952379822731018 0.0
0.734375 0.28396502137184143 0.0
0.7402591705322266 0.5 0.0
0.6232402920722961 0.625 0.0
0.44226202368736267 0.703125 0.0
0.3086795508861542 0.609375 0.0
0.24434445798397064 0.453125 0.0
0.40625 0.3621238172054291 0.0
0.5625 0.27755823731422424 0.0
5 8 13 12 10 9 255 0 0
5 1 18 17 3 2 255 0 0
3 0 11 19 255 0 0
4 10 12 11 0 255 0 0
4 7 14 13 8 255 0 0
4 6 15 14 7 255 0 0
5 3 17 16 5 4 255 0 0
4 0 19 18 1 255 0 0
4 5 16 15 6 255 0 0
5 28 29 30 32 33 0 0 255
5 21 22 23 37 38 0 0 255
3 20 39 31 0 0 255
4 30 20 31 32 0 0 255
4 27 28 33 34 0 0 255
4 26 27 34 35 0 0 255
5 23 24 25 36 37 0 0 255
4 20 21 38 39 0 0 255
4 25 26 35 36 0 0 255
4 0 1 21 20 128 0 128
4 1 2 22 21 0 255 0
4 2 3 23 22 0 255 0
4 3 4 24 23 0 255 0
4 4 5 25 24 0 255 0
4 5 6 26 25 0 255 0
4 6 7 27 26 0 255 0
4 7 8 28 27 0 255 0
4 8 9 29 28 0 255 0
4 9 10 30 29 0 255 0
4 10 0 20 30 128 0 128
4 11 12 32 31 0 255 0
4 12 13 33 32 0 255 0
4 13 14 34 33 0 255 0
4 14 15 35 34 0 255 0
4 15 16 36 35 0 255 0
4 16 17 37 36 0 255 0
4 17 18 38 37 0 255 0
4 18 19 39 38 0 255 0
4 19 11 31 39 0 255 0
