ply
format ascii 1.0
element vertex 38
property float x
property float y
property float z
element face 33
property list uchar int vertex_index
property uchar red
property uchar green
property uchar blue
end_header
0.390625 0.09454196691513062 1.0
0.27300533652305603 0.234375 1.0
0.359375 0.3923409581184387 1.0
0.328125 0.5145715475082397 1.0
0.296875 0.6844732761383057 1.0
0.440815806388855 0.78125 1.0
0.6243937015533447 0.75 1.0
0.7410080432891846 0.625 1.0
0.652930736541748 0.46875 1.0
0.6453006863594055 0.28125 1.0
0.5315126180648804 0.140625 1.0
0.4375 0.20680831372737885 1.0
0.5 0.2740861773490906 1.0
0.439786821603775 0.3125 1.0
0.53125 0.5072594881057739 1.0
0.578125 0.5386834144592285 1.0
0.5755370855331421 0.671875 1.0
0.40625 0.6372557282447815 1.0
0.515625 0.5102527737617493 1.0
0.390625 0.09454196691513062 0.0
0.27300533652305603 0.234375 0.0
0.359375 0.3923409581184387 0.0
0.328125 0.5145715475082397 0.0
0.296875 0.6844732761383057 0.0
0.440815806388855 0.78125 0.0
0.6243937015533447 0.75 0.0
0.7410080432891846 0.625 0.0
0.652930736541748 0.46875 0.0
0.6453006863594055 0.28125 0.0
0.5315126180648804 0.140625 0.0
0.4375 0.20680831372737885 0.0
0.5 0.2740861773490906 0.0
0.439786821603775 0.3125 0.0
0.53125 0.5072594881057739 0.0
0.578125 0.5386834144592285 0.0
0.5755370855331421 0.671875 0.0
0.40625 0.6372557282447815 0.0
0.515625 0.5102527737617493 0.0
5 4 17 16 6 5 255 0 0
10 8 18 17 4 3 2 13 12 10 9 255 0 0
6 10 11 13 2 1 0 255 0 0
3 10 12 11 255 0 0
5 6 16 15 8 7 255 0 0
3 8 14 18 255 0 0
3 8 15 14 255 0 0
5 23 24 25 35 36 0 0 255
10 27 28 29 31 32 21 22 23 36 37 0 0 255
6 29 19 20 21 32 30 0 0 255
3 29 30 31 0 0 255
5 25 26 27 34 35 0 0 255
3 27 37 33 0 0 255
3 27 33 34 0 0 255
4 0 1 20 19 128 0 128
4 1 2 21 20 0 255 0
4 2 3 22 21 0 255 0
4 3 4 23 22 0 255 0
4 4 5 24 23 0 255 0
4 5 6 25 24 0 255 0
4 6 7 26 25 0 255 0
4 7 8 27 26 0 255 0
4 8 9 28 27 0 255 0
4 9 10 29 28 0 255 0
4 10 0 19 29 128 0 128
4 11 12 31 30 0 255 0
4 12 13 32 31 0 255 0
4 13 11 30 32 0 255 0
4 14 15 34 33 0 255 0
4 15 16 35 34 0 255 0
4 16 17 36 35 0 255 0
4 17 18 37 36 0 255 0
4 18 14 33 37 0 255 0
