ply
format ascii 1.0
element vertex 42
property float x
property float y
property float z
element face 39
property list uchar int vertex_index
property uchar red
property uchar green
property uchar blue
end_header
0.356714129447937 0.125 1.0
0.2171892523765564 0.234375 1.0
0.22937153279781342 0.40625 1.0
0.3395299017429352 0.515625 1.0
0.3318922221660614 0.703125 1.0
0.46875 0.82496577501297 1.0
0.6875 0.8173381686210632 1.0
0.796875 0.681222677230835 1.0
0.790494441986084 0.484375 1.0
0.7294153571128845 0.296875 1.0
0.59375 0.17597606778144836 1.0
0.390625 0.12507708370685577 1.0
0.375 0.2262456864118576 1.0
0.515625 0.24481366574764252 1.0
0.6637336611747742 0.34375 1.0
0.7283423542976379 0.53125 1.0
0.6725865006446838 0.734375 1.0
0.5 0.7443144917488098 1.0
0.38287827372550964 0.609375 1.0
0.37305760383605957 0.4375 1.0
0.32496607303619385 0.265625 1.0
0.356714129447937 0.125 0.0
0.2171892523765564 0.234375 0.0
0.22937153279781342 0.40625 0.0
0.3395299017429352 0.515625 0.0
0.3318922221660614 0.703125 0.0
0.46875 0.82496577501297 0.0
0.6875 0.8173381686210632 0.0
0.796875 0.681222677230835 0.0
0.790494441986084 0.484375 0.0
0.7294153571128845 0.296875 0.0
0.59375 0.17597606778144836 0.0
0.390625 0.12507708370685577 0.0
0.375 0.2262456864118576 0.0
0.515625 0.24481366574764252 0.0
0.6637336611747742 0.34375 0.0
0.7283423542976379 0.53125 0.0
0.6725865006446838 0.734375 0.0
0.5 0.7443144917488098 0.0
0.38287827372550964 0.609375 0.0
0.37305760383605957 0.4375 0.0
0.32496607303619385 0.265625 0.0
4 10 13 12 11 255 0 0
5 6 16 15 8 7 255 0 0
5 3 18 17 5 4 255 0 0
3 3 19 18 255 0 0
4 9 14 13 10 255 0 0
4 8 15 14 9 255 0 0
4 5 17 16 6 255 0 0
5 11 12 20 1 0 255 0 0
5 1 20 19 3 2 255 0 0
4 31 32 33 34 0 0 255
5 27 28 29 36 37 0 0 255
5 24 25 26 38 39 0 0 255
3 24 39 40 0 0 255
4 30 31 34 35 0 0 255
4 29 30 35 36 0 0 255
4 26 27 37 38 0 0 255
5 32 21 22 41 33 0 0 255
5 22 23 24 40 41 0 0 255
4 0 1 22 21 128 0 128
4 1 2 23 22 0 255 0
4 2 3 24 23 0 255 0
4 3 4 25 24 0 255 0
4 4 5 26 25 0 255 0
4 5 6 27 26 0 255 0
4 6 7 28 27 0 255 0
4 7 8 29 28 0 255 0
4 8 9 30 29 0 255 0
4 9 10 31 30 0 255 0
4 10 11 32 31 0 255 0
4 11 0 21 32 128 0 128
4 12 13 34 33 0 255 0
4 13 14 35 34 0 255 0
4 14 15 36 35 0 255 0
4 15 16 37 36 0 255 0
4 16 17 38 37 0 255 0
4 17 18 39 38 0 255 0
4 18 19 40 39 0 255 0
4 19 20 41 40 0 255 0
4 20 12 33 41 0 255 0
