ply
format ascii 1.0
element vertex 30
property float x
property float y
property float z
element face 23
property list uchar int vertex_index
property uchar red
property uchar green
property uchar blue
end_header
0.5062904953956604 0.0625 1.0
0.4809930622577667 0.25 1.0
0.453125 0.44076070189476013 1.0
0.2797679603099823 0.484375 1.0
0.27532610297203064 0.640625 1.0
0.421875 0.7390760779380798 1.0
0.6042556166648865 0.734375 1.0
0.640625 0.5730226635932922 1.0
0.5878767371177673 0.375 1.0
0.5748851895332336 0.171875 1.0
0.53125 0.05335671454668045 1.0
0.375 0.5270859003067017 1.0
0.515625 0.5659464001655579 1.0
0.46875 0.6648067831993103 1.0
0.34375 0.5516533851623535 1.0
0.5062904953956604 0.0625 0.0
0.4809930622577667 0.25 0.0
0.453125 0.44076070189476013 0.0
0.2797679603099823 0.484375 0.0
0.27532610297203064 0.640625 0.0
0.421875 0.7390760779380798 0.0
0.6042556166648865 0.734375 0.0
0.640625 0.5730226635932922 0.0
0.5878767371177673 0.375 0.0
0.5748851895332336 0.171875 0.0
0.53125 0.05335671454668045 0.0
0.375 0.5270859003067017 0.0
0.515625 0.5659464001655579 0.0
0.46875 0.6648067831993103 0.0
0.34375 0.5516533851623535 0.0
5 3 14 13 5 4 255 0 0
5 5 13 12 7 6 255 0 0
3 3 11 14 255 0 0
10 7 12 11 3 2 1 0 10 9 8 255 0 0
5 18 19 20 28 29 0 0 255
5 20 21 22 27 28 0 0 255
3 18 29 26 0 0 255
10 22 23 24 25 15 16 17 18 26 27 0 0 255
4 0 1 16 15 0 255 0
4 1 2 17 16 0 255 0
4 2 3 18 17 0 255 0
4 3 4 19 18 0 255 0
4 4 5 20 19 0 255 0
4 5 6 21 20 0 255 0
4 6 7 22 21 0 255 0
4 7 8 23 22 0 255 0
4 8 9 24 23 0 255 0
4 9 10 25 24 128 0 128
4 10 0 15 25 128 0 128
4 11 12 27 26 0 255 0
4 12 13 28 27 0 255 0
4 13 14 29 28 0 255 0
4 14 11 26 29 0 255 0
