ply
format ascii 1.0
element vertex 42
property float x
property float y
property float z
element face 29
property list uchar int vertex_index
property uchar red
property uchar green
property uchar blue
end_header
0.6332024931907654 0.140625 1.0
0.5 0.17008891701698303 1.0
0.328125 0.20897836983203888 1.0
0.3125 0.3972523510456085 1.0
0.48099127411842346 0.46875 1.0
0.625 0.36745283007621765 1.0
0.671875 0.5462003946304321 1.0
0.59375 0.7015103697776794 1.0
0.427574098110199 0.78125 1.0
0.25 0.7217748165130615 1.0
0.15402087569236755 0.625 1.0
0.24619388580322266 0.78125 1.0
0.4375 0.8377764225006104 1.0
0.625 0.7683975100517273 1.0
0.7171850204467773 0.609375 1.0
0.71875 0.4139268398284912 1.0
0.6733826994895935 0.234375 1.0
0.453125 0.22779303789138794 1.0
0.546875 0.2653176784515381 1.0
0.484375 0.3967556059360504 1.0
0.3532317578792572 0.3125 1.0
0.6332024931907654 0.140625 0.0
0.5 0.17008891701698303 0.0
0.328125 0.20897836983203888 0.0
0.3125 0.3972523510456085 0.0
0.48099127411842346 0.46875 0.0
0.625 0.36745283007621765 0.0
0.671875 0.5462003946304321 0.0
0.59375 0.7015103697776794 0.0
0.427574098110199 0.78125 0.0
0.25 0.7217748165130615 0.0
0.15402087569236755 0.625 0.0
0.24619388580322266 0.78125 0.0
0.4375 0.8377764225006104 0.0
0.625 0.7683975100517273 0.0
0.7171850204467773 0.609375 0.0
0.71875 0.4139268398284912 0.0
0.6733826994895935 0.234375 0.0
0.453125 0.22779303789138794 0.0
0.546875 0.2653176784515381 0.0
0.484375 0.3967556059360504 0.0
0.3532317578792572 0.3125 0.0
17 4 19 18 1 0 16 15 14 13 12 11 10 9 8 7 6 5 255 0 0
4 3 20 19 4 255 0 0
5 1 17 20 3 2 255 0 0
3 1 18 17 255 0 0
17 25 26 27 28 29 30 31 32 33 34 35 36 37 21 22 39 40 0 0 255
4 24 25 40 41 0 0 255
5 22 23 24 41 38 0 0 255
3 22 38 39 0 0 255
4 0 1 22 21 128 0 128
4 1 2 23 22 0 255 0
4 2 3 24 23 0 255 0
4 3 4 25 24 0 255 0
4 4 5 26 25 0 255 0
4 5 6 27 26 0 255 0
4 6 7 28 27 0 255 0
4 7 8 29 28 0 255 0
4 8 9 30 29 0 255 0
4 9 10 31 30 0 255 0
4 10 11 32 31 0 255 0
4 11 12 33 32 0 255 0
4 12 13 34 33 0 255 0
4 13 14 35 34 0 255 0
4 14 15 36 35 0 255 0
4 15 16 37 36 0 255 0
4 16 0 21 37 128 0 128
4 17 18 39 38 0 255 0
4 18 19 40 39 0 255 0
4 19 20 41 40 0 255 0
4 20 17 38 41 0 255 0
