ply
format ascii 1.0
element vertex 38
property float x
property float y
property float z
element face 35
property list uchar int vertex_index
property uchar red
property uchar green
property uchar blue
end_header
0.46875 0.12516182661056519 1.0
0.30680787563323975 0.21875 1.0
0.28125 0.40100860595703125 1.0
0.390625 0.5424361824989319 1.0
0.42714923620224 0.71875 1.0
0.5625 0.8411924839019775 1.0
0.6778748631477356 0.703125 1.0
0.5452166795730591 0.59375 1.0
0.5906914472579956 0.390625 1.0
0.6090975403785706 0.1875 1.0
0.515625 0.17775622010231018 1.0
0.5615414381027222 0.265625 1.0
0.5100048184394836 0.46875 1.0
0.3950422406196594 0.46875 1.0
0.3134852647781372 0.296875 1.0
0.46875 0.188344344496727 1.0
0.53125 0.6581939458847046 1.0
0.5872599482536316 0.765625 1.0
0.49156585335731506 0.6875 1.0
0.46875 0.12516182661056519 0.0
0.30680787563323975 0.21875 0.0
0.28125 0.40100860595703125 0.0
0.390625 0.5424361824989319 0.0
0.42714923620224 0.71875 0.0
0.5625 0.8411924839019775 0.0
0.6778748631477356 0.703125 0.0
0.5452166795730591 0.59375 0.0
0.5906914472579956 0.390625 0.0
0.6090975403785706 0.1875 0.0
0.515625 0.17775622010231018 0.0
0.5615414381027222 0.265625 0.0
0.5100048184394836 0.46875 0.0
0.3950422406196594 0.46875 0.0
0.3134852647781372 0.296875 0.0
0.46875 0.188344344496727 0.0
0.53125 0.6581939458847046 0.0
0.5872599482536316 0.765625 0.0
0.49156585335731506 0.6875 0.0
4 8 12 11 9 255 0 0
8 7 16 18 4 3 13 12 8 255 0 0
4 0 15 14 1 255 0 0
3 0 10 15 255 0 0
4 4 18 17 5 255 0 0
5 1 14 13 3 2 255 0 0
4 9 11 10 0 255 0 0
5 5 17 16 7 6 255 0 0
4 27 28 30 31 0 0 255
8 26 27 31 32 22 23 37 35 0 0 255
4 19 20 33 34 0 0 255
3 19 34 29 0 0 255
4 23 24 36 37 0 0 255
5 20 21 22 32 33 0 0 255
4 28 19 29 30 0 0 255
5 24 25 26 35 36 0 0 255
4 0 1 20 19 128 0 128
4 1 2 21 20 0 255 0
4 2 3 22 21 0 255 0
4 3 4 23 22 0 255 0
4 4 5 24 23 0 255 0
4 5 6 25 24 0 255 0
4 6 7 26 25 0 255 0
4 7 8 27 26 0 255 0
4 8 9 28 27 0 255 0
4 9 0 19 28 128 0 128
4 10 11 30 29 0 255 0
4 11 12 31 30 0 255 0
4 12 13 32 31 0 255 0
4 13 14 33 32 0 255 0
4 14 15 34 33 0 255 0
4 15 10 29 34 0 255 0
4 16 17 36 35 0 255 0
4 17 18 37 36 0 255 0
4 18 16 35 37 0 255 0
