ply
format ascii 1.0
element vertex 40
property float x
property float y
property float z
element face 26
property list uchar int vertex_index
property uchar red
property uchar green
property uchar blue
end_header
0.38627731800079346 0.234375 1.0
0.25800803303718567 0.359375 1.0
0.2752741873264313 0.59375 1.0
0.3682437539100647 0.75 1.0
0.4439427852630615 0.921875 1.0
0.49117225408554077 0.828125 1.0
0.421875 0.649330735206604 1.0
0.351763516664505 0.46875 1.0
0.53125 0.48609113693237305 1.0
0.703125 0.5405560731887817 1.0
0.8328897953033447 0.421875 1.0
0.71875 0.2870224118232727 1.0
0.53125 0.23350198566913605 1.0
0.38627731800079346 0.234375 1.0
0.46875 0.30710873007774353 1.0
0.5 0.3087010383605957 1.0
0.6875 0.3743639588356018 1.0
0.609375 0.42948126792907715 1.0
0.4375 0.3456004858016968 1.0
0.46875 0.30710873007774353 1.0
0.38627731800079346 0.234375 0.0
0.25800803303718567 0.359375 0.0
0.2752741873264313 0.59375 0.0
0.3682437539100647 0.75 0.0
0.4439427852630615 0.921875 0.0
0.49117225408554077 0.828125 0.0
0.421875 0.649330735206604 0.0
0.351763516664505 0.46875 0.0
0.53125 0.48609113693237305 0.0
0.703125 0.5405560731887817 0.0
0.8328897953033447 0.421875 0.0
0.71875 0.2870224118232727 0.0
0.53125 0.23350198566913605 0.0
0.38627731800079346 0.234375 0.0
0.46875 0.30710873007774353 0.0
0.5 0.3087010383605957 0.0
0.6875 0.3743639588356018 0.0
0.609375 0.42948126792907715 0.0
0.4375 0.3456004858016968 0.0
0.46875 0.30710873007774353 0.0
11 0 18 17 8 7 6 5 4 3 2 1 255 0 0
3 12 15 14 255 0 0
6 8 17 16 11 10 9 255 0 0
4 11 16 15 12 255 0 0
11 20 21 22 23 24 25 26 27 28 37 38 0 0 255
3 32 34 35 0 0 255
6 28 29 30 31 36 37 0 0 255
4 31 32 35 36 0 0 255
4 0 1 21 20 0 255 0
4 1 2 22 21 0 255 0
4 2 3 23 22 0 255 0
4 3 4 24 23 0 255 0
4 4 5 25 24 0 255 0
4 5 6 26 25 0 255 0
4 6 7 27 26 0 255 0
4 7 8 28 27 0 255 0
4 8 9 29 28 0 255 0
4 9 10 30 29 0 255 0
4 10 11 31 30 0 255 0
4 11 12 32 31 128 0 128
4 12 13 33 32 128 0 128
4 14 15 35 34 0 255 0
4 15 16 36 35 0 255 0
4 16 17 37 36 0 255 0
4 17 18 38 37 0 255 0
4 18 19 39 38 0 255 0
