ply
format ascii 1.0
element vertex 24
property float x
property float y
property float z
element face 16
property list uchar int vertex_index
property uchar red
property uchar green
property uchar blue
end_header
0.35615116357803345 0.171875 1.0
0.33303382992744446 0.375 1.0
0.453125 0.5154629945755005 1.0
0.547376275062561 0.65625 1.0
0.6578171849250793 0.796875 1.0
0.75 0.794979453086853 1.0
0.6561222672462463 0.640625 1.0
0.5445482730865479 0.5 1.0
0.5777631998062134 0.34375 1.0
0.46875 0.19601497054100037 1.0
0.4375 0.27348998188972473 1.0
0.46875 0.30994483828544617 1.0
0.35615116357803345 0.171875 0.0
0.33303382992744446 0.375 0.0
0.453125 0.5154629945755005 0.0
0.547376275062561 0.65625 0.0
0.6578171849250793 0.796875 0.0
0.75 0.794979453086853 0.0
0.6561222672462463 0.640625 0.0
0.5445482730865479 0.5 0.0
0.5777631998062134 0.34375 0.0
0.46875 0.19601497054100037 0.0
0.4375 0.27348998188972473 0.0
0.46875 0.30994483828544617 0.0
3 9 10 11 255 0 0
3 9 11 10 255 0 0
10 1 0 9 8 7 6 5 4 3 2 255 0 0
3 21 23 22 0 0 255
3 21 22 23 0 0 255
10 13 14 15 16 17 18 19 20 21 12 0 0 255
4 0 1 13 12 128 0 128
4 1 2 14 13 0 255 0
4 2 3 15 14 0 255 0
4 3 4 16 15 0 255 0
4 4 5 17 16 0 255 0
4 5 6 18 17 0 255 0
4 6 7 19 18 0 255 0
4 7 8 20 19 0 255 0
4 8 9 21 20 0 255 0
4 9 0 12 21 128 0 128
