ply
format ascii 1.0
element vertex 40
property float x
property float y
property float z
element face 38
property list uchar int vertex_index
property uchar red
property uchar green
property uchar blue
end_header
0.4030637741088867 0.171875 1.0
0.23715969920158386 0.265625 1.0
0.15794916450977325 0.4375 1.0
0.20293469727039337 0.625 1.0
0.328125 0.7460114359855652 1.0
0.515625 0.7734799981117249 1.0
0.71875 0.7242386341094971 1.0
0.828125 0.5854575037956238 1.0
0.8592991232872009 0.390625 1.0
0.734375 0.25379514694213867 1.0
0.5625 0.1734478920698166 1.0
0.37623512744903564 0.3125 1.0
0.40625 0.31677722930908203 1.0
0.578125 0.3297075927257538 1.0
0.71875 0.4472658634185791 1.0
0.703125 0.5954636335372925 1.0
0.546875 0.657692015171051 1.0
0.38670963048934937 0.59375 1.0
0.26662611961364746 0.5 1.0
0.328125 0.3331105709075928 1.0
0.4030637741088867 0.171875 0.0
0.23715969920158386 0.265625 0.0
0.15794916450977325 0.4375 0.0
0.20293469727039337 0.625 0.0
0.328125 0.7460114359855652 0.0
0.515625 0.7734799981117249 0.0
0.71875 0.7242386341094971 0.0
0.828125 0.5854575037956238 0.0
0.8592991232872009 0.390625 0.0
0.734375 0.25379514694213867 0.0
0.5625 0.1734478920698166 0.0
0.37623512744903564 0.3125 0.0
0.40625 0.31677722930908203 0.0
0.578125 0.3297075927257538 0.0
0.71875 0.4472658634185791 0.0
0.703125 0.5954636335372925 0.0
0.546875 0.657692015171051 0.0
0.38670963048934937 0.59375 0.0
0.26662611961364746 0.5 0.0
0.328125 0.3331105709075928 0.0
4 7 15 14 8 255 0 0
4 4 17 16 5 255 0 0
5 8 14 13 10 9 255 0 0
4 0 11 19 1 255 0 0
4 1 19 18 2 255 0 0
3 0 12 11 255 0 0
4 10 13 12 0 255 0 0
5 5 16 15 7 6 255 0 0
5 2 18 17 4 3 255 0 0
4 27 28 34 35 0 0 255
4 24 25 36 37 0 0 255
5 28 29 30 33 34 0 0 255
4 20 21 39 31 0 0 255
4 21 22 38 39 0 0 255
3 20 31 32 0 0 255
4 30 20 32 33 0 0 255
5 25 26 27 35 36 0 0 255
5 22 23 24 37 38 0 0 255
4 0 1 21 20 128 0 128
4 1 2 22 21 0 255 0
4 2 3 23 22 0 255 0
4 3 4 24 23 0 255 0
4 4 5 25 24 0 255 0
4 5 6 26 25 0 255 0
4 6 7 27 26 0 255 0
4 7 8 28 27 0 255 0
4 8 9 29 28 0 255 0
4 9 10 30 29 0 255 0
4 10 0 20 30 128 0 128
4 11 12 32 31 0 255 0
4 12 13 33 32 0 255 0
4 13 14 34 33 0 255 0
4 14 15 35 34 0 255 0
4 15 16 36 35 0 255 0
4 16 17 37 36 0 255 0
4 17 18 38 37 0 255 0
4 18 19 39 38 0 255 0
4 19 11 31 39 0 255 0
