ply
format ascii 1.0
element vertex 40
property float x
property float y
property float z
element face 30
property list uchar int vertex_index
property uchar red
property uchar green
property uchar blue
end_header
0.39618629217147827 0.203125 1.0
0.28125 0.33905482292175293 1.0
0.26075008511543274 0.53125 1.0
0.3392252027988434 0.703125 1.0
0.453125 0.8317432403564453 1.0
0.625 0.9091628193855286 1.0
0.59375 0.8308174014091492 1.0
0.45439597964286804 0.71875 1.0
0.3688008487224579 0.5625 1.0
0.3719141483306885 0.375 1.0
0.515625 0.4539647102355957 1.0
0.71875 0.5152643918991089 1.0
0.84375 0.4138018488883972 1.0
0.765625 0.26282602548599243 1.0
0.578125 0.19882437586784363 1.0
0.53125 0.27698734402656555 1.0
0.5481541156768799 0.28125 1.0
0.7330152988433838 0.328125 1.0
0.6875 0.44544538855552673 1.0
0.515625 0.37443798780441284 1.0
0.39618629217147827 0.203125 0.0
0.28125 0.33905482292175293 0.0
0.26075008511543274 0.53125 0.0
0.3392252027988434 0.703125 0.0
0.453125 0.8317432403564453 0.0
0.625 0.9091628193855286 0.0
0.59375 0.8308174014091492 0.0
0.45439597964286804 0.71875 0.0
0.3688008487224579 0.5625 0.0
0.3719141483306885 0.375 0.0
0.515625 0.4539647102355957 0.0
0.71875 0.5152643918991089 0.0
0.84375 0.4138018488883972 0.0
0.765625 0.26282602548599243 0.0
0.578125 0.19882437586784363 0.0
0.53125 0.27698734402656555 0.0
0.5481541156768799 0.28125 0.0
0.7330152988433838 0.328125 0.0
0.6875 0.44544538855552673 0.0
0.515625 0.37443798780441284 0.0
4 13 17 16 14 255 0 0
4 10 19 18 11 255 0 0
14 14 15 19 10 9 8 7 6 5 4 3 2 1 0 255 0 0
3 14 16 15 255 0 0
5 11 18 17 13 12 255 0 0
4 33 34 36 37 0 0 255
4 30 31 38 39 0 0 255
14 34 20 21 22 23 24 25 26 27 28 29 30 39 35 0 0 255
3 34 35 36 0 0 255
5 31 32 33 37 38 0 0 255
4 0 1 21 20 0 255 0
4 1 2 22 21 0 255 0
4 2 3 23 22 0 255 0
4 3 4 24 23 0 255 0
4 4 5 25 24 0 255 0
4 5 6 26 25 0 255 0
4 6 7 27 26 0 255 0
4 7 8 28 27 0 255 0
4 8 9 29 28 0 255 0
4 9 10 30 29 0 255 0
4 10 11 31 30 0 255 0
4 11 12 32 31 0 255 0
4 12 13 33 32 0 255 0
4 13 14 34 33 128 0 128
4 14 0 20 34 128 0 128
4 15 16 36 35 0 255 0
4 16 17 37 36 0 255 0
4 17 18 38 37 0 255 0
4 18 19 39 38 0 255 0
4 19 15 35 39 0 255 0
