ply
format ascii 1.0
element vertex 44
property float x
property float y
property float z
element face 38
property list uchar int vertex_index
property uchar red
property uchar green
property uchar blue
end_header
0.234375 0.09680180251598358 1.0
0.21875 0.2611095905303955 1.0
0.3601243793964386 0.359375 1.0
0.386528879404068 0.5 1.0
0.34375 0.6710773706436157 1.0
0.525631844997406 0.734375 1.0
0.71875 0.7853633165359497 1.0
0.796875 0.7263437509536743 1.0
0.69515061378479 0.578125 1.0
0.5690566301345825 0.453125 1.0
0.6193460822105408 0.28125 1.0
0.515625 0.1264018714427948 1.0
0.34375 0.09262911230325699 1.0
0.3125 0.15053313970565796 1.0
0.484375 0.19225338101387024 1.0
0.515625 0.34176915884017944 1.0
0.359375 0.2782900929450989 1.0
0.28125 0.14460250735282898 1.0
0.515625 0.4961879849433899 1.0
0.609375 0.5808290243148804 1.0
0.578125 0.6664087176322937 1.0
0.4375 0.5645003914833069 1.0
0.234375 0.09680180251598358 0.0
0.21875 0.2611095905303955 0.0
0.3601243793964386 0.359375 0.0
0.386528879404068 0.5 0.0
0.34375 0.6710773706436157 0.0
0.525631844997406 0.734375 0.0
0.71875 0.7853633165359497 0.0
0.796875 0.7263437509536743 0.0
0.69515061378479 0.578125 0.0
0.5690566301345825 0.453125 0.0
0.6193460822105408 0.28125 0.0
0.515625 0.1264018714427948 0.0
0.34375 0.09262911230325699 0.0
0.3125 0.15053313970565796 0.0
0.484375 0.19225338101387024 0.0
0.515625 0.34176915884017944 0.0
0.359375 0.2782900929450989 0.0
0.28125 0.14460250735282898 0.0
0.515625 0.4961879849433899 0.0
0.609375 0.5808290243148804 0.0
0.578125 0.6664087176322937 0.0
0.4375 0.5645003914833069 0.0
4 11 14 13 12 255 0 0
4 8 19 18 9 255 0 0
4 10 15 14 11 255 0 0
6 5 20 19 8 7 6 255 0 0
5 0 17 16 2 1 255 0 0
5 3 21 20 5 4 255 0 0
8 2 16 15 10 9 18 21 3 255 0 0
4 12 13 17 0 255 0 0
4 33 34 35 36 0 0 255
4 30 31 40 41 0 0 255
4 32 33 36 37 0 0 255
6 27 28 29 30 41 42 0 0 255
5 22 23 24 38 39 0 0 255
5 25 26 27 42 43 0 0 255
8 24 25 43 40 31 32 37 38 0 0 255
4 34 22 39 35 0 0 255
4 0 1 23 22 0 255 0
4 1 2 24 23 0 255 0
4 2 3 25 24 0 255 0
4 3 4 26 25 0 255 0
4 4 5 27 26 0 255 0
4 5 6 28 27 0 255 0
4 6 7 29 28 0 255 0
4 7 8 30 29 0 255 0
4 8 9 31 30 0 255 0
4 9 10 32 31 0 255 0
4 10 11 33 32 0 255 0
4 11 12 34 33 128 0 128
4 12 0 22 34 128 0 128
4 13 14 36 35 0 255 0
4 14 15 37 36 0 255 0
4 15 16 38 37 0 255 0
4 16 17 39 38 0 255 0
4 17 13 35 39 0 255 0
4 18 19 41 40 0 255 0
4 19 20 42 41 0 255 0
4 20 21 43 42 0 255 0
4 21 18 40 43 0 255 0
