ply
format ascii 1.0
element vertex 36
property float x
property float y
property float z
element face 32
property list uchar int vertex_index
property uchar red
property uchar green
property uchar blue
end_header
0.5445194840431213 0.125 1.0
0.359375 0.19246937334537506 1.0
0.234375 0.31732603907585144 1.0
0.19189515709877014 0.5 1.0
0.265625 0.6831713914871216 1.0
0.40625 0.7835429906845093 1.0
0.609375 0.8370837569236755 1.0
0.7056502103805542 0.6875 1.0
0.796875 0.5236273407936096 1.0
0.8125 0.30887243151664734 1.0
0.703125 0.16790653765201569 1.0
0.46875 0.2877865731716156 1.0
0.5625 0.3128828704357147 1.0
0.7108505964279175 0.421875 1.0
0.639380693435669 0.59375 1.0
0.453125 0.6084070801734924 1.0
0.3031105697154999 0.5 1.0
0.37938034534454346 0.328125 1.0
0.5445194840431213 0.125 0.0
0.359375 0.19246937334537506 0.0
0.234375 0.31732603907585144 0.0
0.19189515709877014 0.5 0.0
0.265625 0.6831713914871216 0.0
0.40625 0.7835429906845093 0.0
0.609375 0.8370837569236755 0.0
0.7056502103805542 0.6875 0.0
0.796875 0.5236273407936096 0.0
0.8125 0.30887243151664734 0.0
0.703125 0.16790653765201569 0.0
0.46875 0.2877865731716156 0.0
0.5625 0.3128828704357147 0.0
0.7108505964279175 0.421875 0.0
0.639380693435669 0.59375 0.0
0.453125 0.6084070801734924 0.0
0.3031105697154999 0.5 0.0
0.37938034534454346 0.328125 0.0
6 8 13 12 0 10 9 255 0 0
3 1 11 17 255 0 0
5 1 17 16 3 2 255 0 0
4 7 14 13 8 255 0 0
4 0 12 11 1 255 0 0
5 3 16 15 5 4 255 0 0
5 5 15 14 7 6 255 0 0
6 26 27 28 18 30 31 0 0 255
3 19 35 29 0 0 255
5 19 20 21 34 35 0 0 255
4 25 26 31 32 0 0 255
4 18 19 29 30 0 0 255
5 21 22 23 33 34 0 0 255
5 23 24 25 32 33 0 0 255
4 0 1 19 18 128 0 128
4 1 2 20 19 0 255 0
4 2 3 21 20 0 255 0
4 3 4 22 21 0 255 0
4 4 5 23 22 0 255 0
4 5 6 24 23 0 255 0
4 6 7 25 24 0 255 0
4 7 8 26 25 0 255 0
4 8 9 27 26 0 255 0
4 9 10 28 27 0 255 0
4 10 0 18 28 128 0 128
4 11 12 30 29 0 255 0
4 12 13 31 30 0 255 0
4 13 14 32 31 0 255 0
4 14 15 33 32 0 255 0
4 15 16 34 33 0 255 0
4 16 17 35 34 0 255 0
4 17 11 29 35 0 255 0
