ply
format ascii 1.0
element vertex 38
property float x
property float y
property float z
element face 35
property list uchar int vertex_index
property uchar red
property uchar green
property uchar blue
end_header
0.33425021171569824 0.140625 1.0
0.2249194234609604 0.28125 1.0
0.2606489062309265 0.46875 1.0
0.34928980469703674 0.625 1.0
0.4578269124031067 0.765625 1.0
0.6362507939338684 0.828125 1.0
0.7365080118179321 0.6875 1.0
0.744637131690979 0.5 1.0
0.6663413643836975 0.328125 1.0
0.5625 0.18145418167114258 1.0
0.359375 0.13308508694171906 1.0
0.390625 0.18458867073059082 1.0
0.5079326033592224 0.25 1.0
0.609375 0.40490660071372986 1.0
0.6632074117660522 0.59375 1.0
0.5715405344963074 0.703125 1.0
0.4376334846019745 0.578125 1.0
0.34375 0.4255465269088745 1.0
0.2980474531650543 0.25 1.0
0.33425021171569824 0.140625 0.0
0.2249194234609604 0.28125 0.0
0.2606489062309265 0.46875 0.0
0.34928980469703674 0.625 0.0
0.4578269124031067 0.765625 0.0
0.6362507939338684 0.828125 0.0
0.7365080118179321 0.6875 0.0
0.744637131690979 0.5 0.0
0.6663413643836975 0.328125 0.0
0.5625 0.18145418167114258 0.0
0.359375 0.13308508694171906 0.0
0.390625 0.18458867073059082 0.0
0.5079326033592224 0.25 0.0
0.609375 0.40490660071372986 0.0
0.6632074117660522 0.59375 0.0
0.5715405344963074 0.703125 0.0
0.4376334846019745 0.578125 0.0
0.34375 0.4255465269088745 0.0
0.2980474531650543 0.25 0.0
4 8 13 12 9 255 0 0
4 1 18 17 2 255 0 0
5 10 11 18 1 0 255 0 0
4 3 16 15 4 255 0 0
4 9 12 11 10 255 0 0
5 6 14 13 8 7 255 0 0
4 2 17 16 3 255 0 0
5 4 15 14 6 5 255 0 0
4 27 28 31 32 0 0 255
4 20 21 36 37 0 0 255
5 29 19 20 37 30 0 0 255
4 22 23 34 35 0 0 255
4 28 29 30 31 0 0 255
5 25 26 27 32 33 0 0 255
4 21 22 35 36 0 0 255
5 23 24 25 33 34 0 0 255
4 0 1 20 19 0 255 0
4 1 2 21 20 0 255 0
4 2 3 22 21 0 255 0
4 3 4 23 22 0 255 0
4 4 5 24 23 0 255 0
4 5 6 25 24 0 255 0
4 6 7 26 25 0 255 0
4 7 8 27 26 0 255 0
4 8 9 28 27 0 255 0
4 9 10 29 28 128 0 128
4 10 0 19 29 128 0 128
4 11 12 31 30 0 255 0
4 12 13 32 31 0 255 0
4 13 14 33 32 0 255 0
4 14 15 34 33 0 255 0
4 15 16 35 34 0 255 0
4 16 17 36 35 0 255 0
4 17 18 37 36 0 255 0
4 18 11 30 37 0 255 0
