ply
format ascii 1.0
element vertex 40
property float x
property float y
property float z
element face 22
property list uchar int vertex_index
property uchar red
property uchar green
property uchar blue
end_header
0.390625 0.09112056344747543 1.0
0.599040687084198 0.125 1.0
0.7449570298194885 0.234375 1.0
0.6875 0.4225108027458191 1.0
0.5625 0.5381630659103394 1.0
0.6909616589546204 0.65625 1.0
0.578125 0.7851225137710571 1.0
0.421875 0.7857690453529358 1.0
0.234375 0.7567350268363953 1.0
0.18197250366210938 0.671875 1.0
0.375 0.6930096745491028 1.0
0.5898752212524414 0.6875 1.0
0.453125 0.5668020248413086 1.0
0.328125 0.4638986587524414 1.0
0.53125 0.41390758752822876 1.0
0.6719091534614563 0.3125 1.0
0.546875 0.20176026225090027 1.0
0.359375 0.16418485343456268 1.0
0.265625 0.22242647409439087 1.0
0.359375 0.11194212734699249 1.0
0.390625 0.09112056344747543 0.0
0.599040687084198 0.125 0.0
0.7449570298194885 0.234375 0.0
0.6875 0.4225108027458191 0.0
0.5625 0.5381630659103394 0.0
0.6909616589546204 0.65625 0.0
0.578125 0.7851225137710571 0.0
0.421875 0.7857690453529358 0.0
0.234375 0.7567350268363953 0.0
0.18197250366210938 0.671875 0.0
0.375 0.6930096745491028 0.0
0.5898752212524414 0.6875 0.0
0.453125 0.5668020248413086 0.0
0.328125 0.4638986587524414 0.0
0.53125 0.41390758752822876 0.0
0.6719091534614563 0.3125 0.0
0.546875 0.20176026225090027 0.0
0.359375 0.16418485343456268 0.0
0.265625 0.22242647409439087 0.0
0.359375 0.11194212734699249 0.0
20 0 1 2 3 4 5 6 7 8 9 10 11 12 13 14 15 16 17 18 19 255 0 0
20 20 39 38 37 36 35 34 33 32 31 30 29 28 27 26 25 24 23 22 21 0 0 255
4 1 0 20 21 128 0 128
4 2 1 21 22 0 255 0
4 3 2 22 23 0 255 0
4 4 3 23 24 0 255 0
4 5 4 24 25 0 255 0
4 6 5 25 26 0 255 0
4 7 6 26 27 0 255 0
4 8 7 27 28 0 255 0
4 9 8 28 29 0 255 0
4 10 9 29 30 0 255 0
4 11 10 30 31 0 255 0
4 12 11 31 32 0 255 0
4 13 12 32 33 0 255 0
4 14 13 33 34 0 255 0
4 15 14 34 35 0 255 0
4 16 15 35 36 0 255 0
4 17 16 36 37 0 255 0
4 18 17 37 38 0 255 0
4 19 18 38 39 0 255 0
4 0 19 39 20 128 0 128
