ply
format ascii 1.0
element vertex 36
property float x
property float y
property float z
element face 34
property list uchar int vertex_index
property uchar red
property uchar green
property uchar blue
end_header
0.45113158226013184 0.09375 1.0
0.34304237365722656 0.234375 1.0
0.31146764755249023 0.453125 1.0
0.3429615795612335 0.640625 1.0
0.4375 0.7953423261642456 1.0
0.625 0.7622244954109192 1.0
0.7021046876907349 0.578125 1.0
0.7246324419975281 0.359375 1.0
0.65625 0.18059535324573517 1.0
0.5 0.09067066013813019 1.0
0.53125 0.15963517129421234 1.0
0.6226415634155273 0.234375 1.0
0.6763755083084106 0.421875 1.0
0.6292737722396851 0.625 1.0
0.5 0.7392163872718811 1.0
0.4330315589904785 0.59375 1.0
0.40599295496940613 0.375 1.0
0.47202757000923157 0.203125 1.0
0.45113158226013184 0.09375 0.0
0.34304237365722656 0.234375 0.0
0.31146764755249023 0.453125 0.0
0.3429615795612335 0.640625 0.0
0.4375 0.7953423261642456 0.0
0.625 0.7622244954109192 0.0
0.7021046876907349 0.578125 0.0
0.7246324419975281 0.359375 0.0
0.65625 0.18059535324573517 0.0
0.5 0.09067066013813019 0.0
0.53125 0.15963517129421234 0.0
0.6226415634155273 0.234375 0.0
0.6763755083084106 0.421875 0.0
0.6292737722396851 0.625 0.0
0.5 0.7392163872718811 0.0
0.4330315589904785 0.59375 0.0
0.40599295496940613 0.375 0.0
0.47202757000923157 0.203125 0.0
4 7 12 11 8 255 0 0
5 4 14 13 6 5 255 0 0
4 3 15 14 4 255 0 0
5 0 17 16 2 1 255 0 0
4 9 10 17 0 255 0 0
4 6 13 12 7 255 0 0
4 2 16 15 3 255 0 0
4 8 11 10 9 255 0 0
4 25 26 29 30 0 0 255
5 22 23 24 31 32 0 0 255
4 21 22 32 33 0 0 255
5 18 19 20 34 35 0 0 255
4 27 18 35 28 0 0 255
4 24 25 30 31 0 0 255
4 20 21 33 34 0 0 255
4 26 27 28 29 0 0 255
4 0 1 19 18 0 255 0
4 1 2 20 19 0 255 0
4 2 3 21 20 0 255 0
4 3 4 22 21 0 255 0
4 4 5 23 22 0 255 0
4 5 6 24 23 0 255 0
4 6 7 25 24 0 255 0
4 7 8 26 25 0 255 0
4 8 9 27 26 128 0 128
4 9 0 18 27 128 0 128
4 10 11 29 28 0 255 0
4 11 12 30 29 0 255 0
4 12 13 31 30 0 255 0
4 13 14 32 31 0 255 0
4 14 15 33 32 0 255 0
4 15 16 34 33 0 255 0
4 16 17 35 34 0 255 0
4 17 10 28 35 0 255 0
