ply
format ascii 1.0
element vertex 36
property float x
property float y
property float z
element face 32
property list uchar int vertex_index
property uchar red
property uchar green
property uchar blue
end_header
0.32459354400634766 0.125 1.0
0.24546170234680176 0.265625 1.0
0.296875 0.4230591058731079 1.0
0.3839208781719208 0.59375 1.0
0.4888074994087219 0.734375 1.0
0.625 0.820236325263977 1.0
0.7265676856040955 0.671875 1.0
0.7408725023269653 0.5 1.0
0.6777374148368835 0.3125 1.0
0.546875 0.19282883405685425 1.0
0.359375 0.12539762258529663 1.0
0.359375 0.2291957587003708 1.0
0.46875 0.26992717385292053 1.0
0.6022997498512268 0.390625 1.0
0.6613540053367615 0.578125 1.0
0.5625 0.6610941290855408 1.0
0.44900351762771606 0.53125 1.0
0.375 0.3521714210510254 1.0
0.32459354400634766 0.125 0.0
0.24546170234680176 0.265625 0.0
0.296875 0.4230591058731079 0.0
0.3839208781719208 0.59375 0.0
0.4888074994087219 0.734375 0.0
0.625 0.820236325263977 0.0
0.7265676856040955 0.671875 0.0
0.7408725023269653 0.5 0.0
0.6777374148368835 0.3125 0.0
0.546875 0.19282883405685425 0.0
0.359375 0.12539762258529663 0.0
0.359375 0.2291957587003708 0.0
0.46875 0.26992717385292053 0.0
0.6022997498512268 0.390625 0.0
0.6613540053367615 0.578125 0.0
0.5625 0.6610941290855408 0.0
0.44900351762771606 0.53125 0.0
0.375 0.3521714210510254 0.0
4 8 13 12 9 255 0 0
6 10 11 17 2 1 0 255 0 0
4 7 14 13 8 255 0 0
4 3 16 15 4 255 0 0
4 9 12 11 10 255 0 0
4 2 17 16 3 255 0 0
6 4 15 14 7 6 5 255 0 0
4 26 27 30 31 0 0 255
6 28 18 19 20 35 29 0 0 255
4 25 26 31 32 0 0 255
4 21 22 33 34 0 0 255
4 27 28 29 30 0 0 255
4 20 21 34 35 0 0 255
6 22 23 24 25 32 33 0 0 255
4 0 1 19 18 128 0 128
4 1 2 20 19 0 255 0
4 2 3 21 20 0 255 0
4 3 4 22 21 0 255 0
4 4 5 23 22 0 255 0
4 5 6 24 23 0 255 0
4 6 7 25 24 0 255 0
4 7 8 26 25 0 255 0
4 8 9 27 26 0 255 0
4 9 10 28 27 0 255 0
4 10 0 18 28 128 0 128
4 11 12 30 29 0 255 0
4 12 13 31 30 0 255 0
4 13 14 32 31 0 255 0
4 14 15 33 32 0 255 0
4 15 16 34 33 0 255 0
4 16 17 35 34 0 255 0
4 17 11 29 35 0 255 0
