ply
format ascii 1.0
element vertex 36
property float x
property float y
property float z
element face 32
property list uchar int vertex_index
property uchar red
property uchar green
property uchar blue
end_header
0.29528459906578064 0.125 1.0
0.16120651364326477 0.25 1.0
0.203125 0.4552849531173706 1.0
0.3125 0.6058069467544556 1.0
0.4475351870059967 0.71875 1.0
0.59375 0.8133172988891602 1.0
0.75 0.7558238506317139 1.0
0.76900714635849 0.5625 1.0
0.7281889319419861 0.359375 1.0
0.624152421951294 0.21875 1.0
0.45229798555374146 0.140625 1.0
0.359375 0.25720399618148804 1.0
0.45441216230392456 0.28125 1.0
0.609375 0.3856165409088135 1.0
0.6665194034576416 0.578125 1.0
0.53125 0.5708232522010803 1.0
0.3839309811592102 0.46875 1.0
0.3116340935230255 0.296875 1.0
0.29528459906578064 0.125 0.0
0.16120651364326477 0.25 0.0
0.203125 0.4552849531173706 0.0
0.3125 0.6058069467544556 0.0
0.4475351870059967 0.71875 0.0
0.59375 0.8133172988891602 0.0
0.75 0.7558238506317139 0.0
0.76900714635849 0.5625 0.0
0.7281889319419861 0.359375 0.0
0.624152421951294 0.21875 0.0
0.45229798555374146 0.140625 0.0
0.359375 0.25720399618148804 0.0
0.45441216230392456 0.28125 0.0
0.609375 0.3856165409088135 0.0
0.6665194034576416 0.578125 0.0
0.53125 0.5708232522010803 0.0
0.3839309811592102 0.46875 0.0
0.3116340935230255 0.296875 0.0
5 8 13 12 10 9 255 0 0
5 1 17 16 3 2 255 0 0
4 0 11 17 1 255 0 0
4 10 12 11 0 255 0 0
4 7 14 13 8 255 0 0
4 3 16 15 4 255 0 0
6 4 15 14 7 6 5 255 0 0
5 26 27 28 30 31 0 0 255
5 19 20 21 34 35 0 0 255
4 18 19 35 29 0 0 255
4 28 18 29 30 0 0 255
4 25 26 31 32 0 0 255
4 21 22 33 34 0 0 255
6 22 23 24 25 32 33 0 0 255
4 0 1 19 18 128 0 128
4 1 2 20 19 0 255 0
4 2 3 21 20 0 255 0
4 3 4 22 21 0 255 0
4 4 5 23 22 0 255 0
4 5 6 24 23 0 255 0
4 6 7 25 24 0 255 0
4 7 8 26 25 0 255 0
4 8 9 27 26 0 255 0
4 9 10 28 27 0 255 0
4 10 0 18 28 128 0 128
4 11 12 30 29 0 255 0
4 12 13 31 30 0 255 0
4 13 14 32 31 0 255 0
4 14 15 33 32 0 255 0
4 15 16 34 33 0 255 0
4 16 17 35 34 0 255 0
4 17 11 29 35 0 255 0
