ply
format ascii 1.0
element vertex 42
property float x
property float y
property float z
element face 39
property list uchar int vertex_index
property uchar red
property uchar green
property uchar blue
end_header
0.17024734616279602 0.140625 1.0
0.15625 0.3357006907463074 1.0
0.2574029266834259 0.484375 1.0
0.3511458933353424 0.640625 1.0
0.46875 0.777621865272522 1.0
0.6525211930274963 0.828125 1.0
0.7745283246040344 0.703125 1.0
0.8283573389053345 0.515625 1.0
0.765625 0.339112251996994 1.0
0.59375 0.25527992844581604 1.0
0.421875 0.17442096769809723 1.0
0.21875 0.1269366443157196 1.0
0.234375 0.19726517796516418 1.0
0.359375 0.2330981194972992 1.0
0.5189409255981445 0.3125 1.0
0.6875 0.3909207284450531 1.0
0.7321393489837646 0.578125 1.0
0.625 0.7251015305519104 1.0
0.484375 0.615624189376831 1.0
0.37836650013923645 0.46875 1.0
0.2641720473766327 0.34375 1.0
0.17024734616279602 0.140625 0.0
0.15625 0.3357006907463074 0.0
0.2574029266834259 0.484375 0.0
0.3511458933353424 0.640625 0.0
0.46875 0.777621865272522 0.0
0.6525211930274963 0.828125 0.0
0.7745283246040344 0.703125 0.0
0.8283573389053345 0.515625 0.0
0.765625 0.339112251996994 0.0
0.59375 0.25527992844581604 0.0
0.421875 0.17442096769809723 0.0
0.21875 0.1269366443157196 0.0
0.234375 0.19726517796516418 0.0
0.359375 0.2330981194972992 0.0
0.5189409255981445 0.3125 0.0
0.6875 0.3909207284450531 0.0
0.7321393489837646 0.578125 0.0
0.625 0.7251015305519104 0.0
0.484375 0.615624189376831 0.0
0.37836650013923645 0.46875 0.0
0.2641720473766327 0.34375 0.0
4 7 16 15 8 255 0 0
4 10 13 12 11 255 0 0
5 3 18 17 5 4 255 0 0
4 9 14 13 10 255 0 0
4 8 15 14 9 255 0 0
5 5 17 16 7 6 255 0 0
4 2 19 18 3 255 0 0
5 11 12 20 1 0 255 0 0
4 1 20 19 2 255 0 0
4 28 29 36 37 0 0 255
4 31 32 33 34 0 0 255
5 24 25 26 38 39 0 0 255
4 30 31 34 35 0 0 255
4 29 30 35 36 0 0 255
5 26 27 28 37 38 0 0 255
4 23 24 39 40 0 0 255
5 32 21 22 41 33 0 0 255
4 22 23 40 41 0 0 255
4 0 1 22 21 0 255 0
4 1 2 23 22 0 255 0
4 2 3 24 23 0 255 0
4 3 4 25 24 0 255 0
4 4 5 26 25 0 255 0
4 5 6 27 26 0 255 0
4 6 7 28 27 0 255 0
4 7 8 29 28 0 255 0
4 8 9 30 29 0 255 0
4 9 10 31 30 0 255 0
4 10 11 32 31 128 0 128
4 11 0 21 32 128 0 128
4 12 13 34 33 0 255 0
4 13 14 35 34 0 255 0
4 14 15 36 35 0 255 0
4 15 16 37 36 0 255 0
4 16 17 38 37 0 255 0
4 17 18 39 38 0 255 0
4 18 19 40 39 0 255 0
4 19 20 41 40 0 255 0
4 20 12 33 41 0 255 0
