ply
format ascii 1.0
element vertex 38
property float x
property float y
property float z
element face 29
property list uchar int vertex_index
property uchar red
property uchar green
property uchar blue
end_header
0.3234052360057831 0.125 1.0
0.2654089331626892 0.3125 1.0
0.3757830262184143 0.4375 1.0
0.53125 0.5327044129371643 1.0
0.4977203607559204 0.671875 1.0
0.3179595470428467 0.609375 1.0
0.265625 0.6739438772201538 1.0
0.4060971140861511 0.796875 1.0
0.546875 0.7987541556358337 1.0
0.6311003565788269 0.640625 1.0
0.6607558727264404 0.453125 1.0
0.6971646547317505 0.265625 1.0
0.5625 0.15431225299835205 1.0
0.34375 0.12480171024799347 1.0
0.4375 0.23253978788852692 1.0
0.5805118680000305 0.265625 1.0
0.5205336809158325 0.390625 1.0
0.34763315320014954 0.359375 1.0
0.4148423969745636 0.234375 1.0
0.3234052360057831 0.125 0.0
0.2654089331626892 0.3125 0.0
0.3757830262184143 0.4375 0.0
0.53125 0.5327044129371643 0.0
0.4977203607559204 0.671875 0.0
0.3179595470428467 0.609375 0.0
0.265625 0.6739438772201538 0.0
0.4060971140861511 0.796875 0.0
0.546875 0.7987541556358337 0.0
0.6311003565788269 0.640625 0.0
0.6607558727264404 0.453125 0.0
0.6971646547317505 0.265625 0.0
0.5625 0.15431225299835205 0.0
0.34375 0.12480171024799347 0.0
0.4375 0.23253978788852692 0.0
0.5805118680000305 0.265625 0.0
0.5205336809158325 0.390625 0.0
0.34763315320014954 0.359375 0.0
0.4148423969745636 0.234375 0.0
12 3 16 15 12 11 10 9 8 7 6 5 4 255 0 0
3 13 14 18 255 0 0
4 12 15 14 13 255 0 0
6 13 18 17 2 1 0 255 0 0
4 2 17 16 3 255 0 0
12 22 23 24 25 26 27 28 29 30 31 34 35 0 0 255
3 32 37 33 0 0 255
4 31 32 33 34 0 0 255
6 32 19 20 21 36 37 0 0 255
4 21 22 35 36 0 0 255
4 0 1 20 19 0 255 0
4 1 2 21 20 0 255 0
4 2 3 22 21 0 255 0
4 3 4 23 22 0 255 0
4 4 5 24 23 0 255 0
4 5 6 25 24 0 255 0
4 6 7 26 25 0 255 0
4 7 8 27 26 0 255 0
4 8 9 28 27 0 255 0
4 9 10 29 28 0 255 0
4 10 11 30 29 0 255 0
4 11 12 31 30 0 255 0
4 12 13 32 31 128 0 128
4 13 0 19 32 128 0 128
4 14 15 34 33 0 255 0
4 15 16 35 34 0 255 0
4 16 17 36 35 0 255 0
4 17 18 37 36 0 255 0
4 18 14 33 37 0 255 0
