ply
format ascii 1.0
element vertex 38
property float x
property float y
property float z
element face 35
property list uchar int vertex_index
property uchar red
property uchar green
property uchar blue
end_header
0.47416552901268005 0.125 1.0
0.328125 0.233932763338089 1.0
0.2559950351715088 0.40625 1.0
0.26622670888900757 0.578125 1.0
0.3315436542034149 0.734375 1.0
0.484375 0.8352659344673157 1.0
0.65625 0.7535940408706665 1.0
0.78125 0.6271134614944458 1.0
0.8023377656936646 0.40625 1.0
0.734375 0.23009340465068817 1.0
0.59375 0.14374405145645142 1.0
0.515625 0.23234617710113525 1.0
0.5625 0.24483737349510193 1.0
0.6600119471549988 0.390625 1.0
0.6653682589530945 0.578125 1.0
0.53125 0.6955284476280212 1.0
0.40740904211997986 0.5625 1.0
0.38036519289016724 0.375 1.0
0.4882354140281677 0.234375 1.0
0.47416552901268005 0.125 0.0
0.328125 0.233932763338089 0.0
0.2559950351715088 0.40625 0.0
0.26622670888900757 0.578125 0.0
0.3315436542034149 0.734375 0.0
0.484375 0.8352659344673157 0.0
0.65625 0.7535940408706665 0.0
0.78125 0.6271134614944458 0.0
0.8023377656936646 0.40625 0.0
0.734375 0.23009340465068817 0.0
0.59375 0.14374405145645142 0.0
0.515625 0.23234617710113525 0.0
0.5625 0.24483737349510193 0.0
0.6600119471549988 0.390625 0.0
0.6653682589530945 0.578125 0.0
0.53125 0.6955284476280212 0.0
0.40740904211997986 0.5625 0.0
0.38036519289016724 0.375 0.0
0.4882354140281677 0.234375 0.0
5 8 13 12 10 9 255 0 0
3 0 11 18 255 0 0
4 10 12 11 0 255 0 0
4 7 14 13 8 255 0 0
6 3 16 15 6 5 4 255 0 0
4 6 15 14 7 255 0 0
5 0 18 17 2 1 255 0 0
4 2 17 16 3 255 0 0
5 27 28 29 31 32 0 0 255
3 19 37 30 0 0 255
4 29 19 30 31 0 0 255
4 26 27 32 33 0 0 255
6 22 23 24 25 34 35 0 0 255
4 25 26 33 34 0 0 255
5 19 20 21 36 37 0 0 255
4 21 22 35 36 0 0 255
4 0 1 20 19 128 0 128
4 1 2 21 20 0 255 0
4 2 3 22 21 0 255 0
4 3 4 23 22 0 255 0
4 4 5 24 23 0 255 0
4 5 6 25 24 0 255 0
4 6 7 26 25 0 255 0
4 7 8 27 26 0 255 0
4 8 9 28 27 0 255 0
4 9 10 29 28 0 255 0
4 10 0 19 29 128 0 128
4 11 12 31 30 0 255 0
4 12 13 32 31 0 255 0
4 13 14 33 32 0 255 0
4 14 15 34 33 0 255 0
4 15 16 35 34 0 255 0
4 16 17 36 35 0 255 0
4 17 18 37 36 0 255 0
4 18 11 30 37 0 255 0
