ply
format ascii 1.0
element vertex 38
property float x
property float y
property float z
element face 29
property list uchar int vertex_index
property uchar red
property uchar green
property uchar blue
end_header
0.2517082393169403 0.140625 1.0
0.22927600145339966 0.296875 1.0
0.36001157760620117 0.40625 1.0
0.5 0.5218449831008911 1.0
0.48820632696151733 0.71875 1.0
0.625 0.8294456005096436 1.0
0.640625 0.7790482640266418 1.0
0.543769121170044 0.625 1.0
0.7126128673553467 0.625 1.0
0.9012253880500793 0.640625 1.0
0.734375 0.5613498687744141 1.0
0.6163268089294434 0.453125 1.0
0.546875 0.2695194184780121 1.0
0.40625 0.1636371910572052 1.0
0.328125 0.19664312899112701 1.0
0.34375 0.20420193672180176 1.0
0.4866524338722229 0.3125 1.0
0.4911135733127594 0.421875 1.0
0.34870296716690063 0.3125 1.0
0.2517082393169403 0.140625 0.0
0.22927600145339966 0.296875 0.0
0.36001157760620117 0.40625 0.0
0.5 0.5218449831008911 0.0
0.48820632696151733 0.71875 0.0
0.625 0.8294456005096436 0.0
0.640625 0.7790482640266418 0.0
0.543769121170044 0.625 0.0
0.7126128673553467 0.625 0.0
0.9012253880500793 0.640625 0.0
0.734375 0.5613498687744141 0.0
0.6163268089294434 0.453125 0.0
0.546875 0.2695194184780121 0.0
0.40625 0.1636371910572052 0.0
0.328125 0.19664312899112701 0.0
0.34375 0.20420193672180176 0.0
0.4866524338722229 0.3125 0.0
0.4911135733127594 0.421875 0.0
0.34870296716690063 0.3125 0.0
3 13 15 14 255 0 0
6 13 14 18 2 1 0 255 0 0
12 3 17 16 12 11 10 9 8 7 6 5 4 255 0 0
4 12 16 15 13 255 0 0
4 2 18 17 3 255 0 0
3 32 33 34 0 0 255
6 32 19 20 21 37 33 0 0 255
12 22 23 24 25 26 27 28 29 30 31 35 36 0 0 255
4 31 32 34 35 0 0 255
4 21 22 36 37 0 0 255
4 0 1 20 19 128 0 128
4 1 2 21 20 0 255 0
4 2 3 22 21 0 255 0
4 3 4 23 22 0 255 0
4 4 5 24 23 0 255 0
4 5 6 25 24 0 255 0
4 6 7 26 25 0 255 0
4 7 8 27 26 0 255 0
4 8 9 28 27 0 255 0
4 9 10 29 28 0 255 0
4 10 11 30 29 0 255 0
4 11 12 31 30 0 255 0
4 12 13 32 31 0 255 0
4 13 0 19 32 128 0 128
4 14 15 34 33 0 255 0
4 15 16 35 34 0 255 0
4 16 17 36 35 0 255 0
4 17 18 37 36 0 255 0
4 18 14 33 37 0 255 0
