ply
format ascii 1.0
element vertex 34
property float x
property float y
property float z
element face 25
property list uchar int vertex_index
property uchar red
property uchar green
property uchar blue
end_header
0.2938400208950043 0.140625 1.0
0.2767880856990814 0.34375 1.0
0.390625 0.4695952534675598 1.0
0.5840822458267212 0.46875 1.0
0.6347987055778503 0.671875 1.0
0.484375 0.7414558529853821 1.0
0.375 0.8021072149276733 1.0
0.578125 0.8206333518028259 1.0
0.6961884498596191 0.6875 1.0
0.6842085719108582 0.484375 1.0
0.6136863827705383 0.296875 1.0
0.4696432650089264 0.21875 1.0
0.3125 0.1329054832458496 1.0
0.34375 0.22856295108795166 1.0
0.453125 0.3099665641784668 1.0
0.43359899520874023 0.40625 1.0
0.31468045711517334 0.265625 1.0
0.2938400208950043 0.140625 0.0
0.2767880856990814 0.34375 0.0
0.390625 0.4695952534675598 0.0
0.5840822458267212 0.46875 0.0
0.6347987055778503 0.671875 0.0
0.484375 0.7414558529853821 0.0
0.375 0.8021072149276733 0.0
0.578125 0.8206333518028259 0.0
0.6961884498596191 0.6875 0.0
0.6842085719108582 0.484375 0.0
0.6136863827705383 0.296875 0.0
0.4696432650089264 0.21875 0.0
0.3125 0.1329054832458496 0.0
0.34375 0.22856295108795166 0.0
0.453125 0.3099665641784668 0.0
0.43359899520874023 0.40625 0.0
0.31468045711517334 0.265625 0.0
5 12 13 16 1 0 255 0 0
12 2 15 14 11 10 9 8 7 6 5 4 3 255 0 0
4 11 14 13 12 255 0 0
4 1 16 15 2 255 0 0
5 29 17 18 33 30 0 0 255
12 19 20 21 22 23 24 25 26 27 28 31 32 0 0 255
4 28 29 30 31 0 0 255
4 18 19 32 33 0 0 255
4 0 1 18 17 0 255 0
4 1 2 19 18 0 255 0
4 2 3 20 19 0 255 0
4 3 4 21 20 0 255 0
4 4 5 22 21 0 255 0
4 5 6 23 22 0 255 0
4 6 7 24 23 0 255 0
4 7 8 25 24 0 255 0
4 8 9 26 25 0 255 0
4 9 10 27 26 0 255 0
4 10 11 28 27 0 255 0
4 11 12 29 28 128 0 128
4 12 0 17 29 128 0 128
4 13 14 31 30 0 255 0
4 14 15 32 31 0 255 0
4 15 16 33 32 0 255 0
4 16 13 30 33 0 255 0
