ply
format ascii 1.0
element vertex 40
property float x
property float y
property float z
element face 28
property list uchar int vertex_index
property uchar red
property uchar green
property uchar blue
end_header
0.354097843170166 0.09375 1.0
0.28459668159484863 0.25 1.0
0.40625 0.3892245888710022 1.0
0.36821281909942627 0.28125 1.0
0.4064558446407318 0.15625 1.0
0.5806034803390503 0.234375 1.0
0.5 0.3992878496646881 1.0
0.375 0.5284080505371094 1.0
0.41091182827949524 0.71875 1.0
0.578125 0.8005847334861755 1.0
0.6928544044494629 0.671875 1.0
0.5625 0.5555782318115234 1.0
0.5518234968185425 0.4375 1.0
0.6526933312416077 0.28125 1.0
0.5625 0.14850550889968872 1.0
0.375 0.09250018745660782 1.0
0.4375 0.5500293970108032 1.0
0.546875 0.6261703372001648 1.0
0.53125 0.729698121547699 1.0
0.4080362319946289 0.59375 1.0
0.354097843170166 0.09375 0.0
0.28459668159484863 0.25 0.0
0.40625 0.3892245888710022 0.0
0.36821281909942627 0.28125 0.0
0.4064558446407318 0.15625 0.0
0.5806034803390503 0.234375 0.0
0.5 0.3992878496646881 0.0
0.375 0.5284080505371094 0.0
0.41091182827949524 0.71875 0.0
0.578125 0.8005847334861755 0.0
0.6928544044494629 0.671875 0.0
0.5625 0.5555782318115234 0.0
0.5518234968185425 0.4375 0.0
0.6526933312416077 0.28125 0.0
0.5625 0.14850550889968872 0.0
0.375 0.09250018745660782 0.0
0.4375 0.5500293970108032 0.0
0.546875 0.6261703372001648 0.0
0.53125 0.729698121547699 0.0
0.4080362319946289 0.59375 0.0
5 9 18 17 11 10 255 0 0
5 7 19 18 9 8 255 0 0
3 7 16 19 255 0 0
15 11 17 16 7 6 5 4 3 2 1 0 15 14 13 12 255 0 0
5 29 30 31 37 38 0 0 255
5 27 28 29 38 39 0 0 255
3 27 39 36 0 0 255
15 31 32 33 34 35 20 21 22 23 24 25 26 27 36 37 0 0 255
4 0 1 21 20 0 255 0
4 1 2 22 21 0 255 0
4 2 3 23 22 0 255 0
4 3 4 24 23 0 255 0
4 4 5 25 24 0 255 0
4 5 6 26 25 0 255 0
4 6 7 27 26 0 255 0
4 7 8 28 27 0 255 0
4 8 9 29 28 0 255 0
4 9 10 30 29 0 255 0
4 10 11 31 30 0 255 0
4 11 12 32 31 0 255 0
4 12 13 33 32 0 255 0
4 13 14 34 33 0 255 0
4 14 15 35 34 128 0 128
4 15 0 20 35 128 0 128
4 16 17 37 36 0 255 0
4 17 18 38 37 0 255 0
4 18 19 39 38 0 255 0
4 19 16 36 39 0 255 0
