ply
format ascii 1.0
element vertex 40
property float x
property float y
property float z
element face 26
property list uchar int vertex_index
property uchar red
property uchar green
property uchar blue
end_header
0.3463388681411743 0.0625 1.0
0.4375 0.19417501986026764 1.0
0.5606548190116882 0.328125 1.0
0.6659217476844788 0.46875 1.0
0.75 0.6261727809906006 1.0
0.609375 0.6930168867111206 1.0
0.5 0.5678951144218445 1.0
0.40625 0.42536428570747375 1.0
0.25 0.3346027433872223 1.0
0.28125 0.5058644413948059 1.0
0.40625 0.6370413303375244 1.0
0.5625 0.7306072115898132 1.0
0.7470796704292297 0.75 1.0
0.78125 0.5913567543029785 1.0
0.703125 0.4110878109931946 1.0
0.609375 0.25579702854156494 1.0
0.47844505310058594 0.140625 1.0
0.3125 0.41662779450416565 1.0
0.381049782037735 0.46875 1.0
0.38906046748161316 0.546875 1.0
0.3463388681411743 0.0625 0.0
0.4375 0.19417501986026764 0.0
0.5606548190116882 0.328125 0.0
0.6659217476844788 0.46875 0.0
0.75 0.6261727809906006 0.0
0.609375 0.6930168867111206 0.0
0.5 0.5678951144218445 0.0
0.40625 0.42536428570747375 0.0
0.25 0.3346027433872223 0.0
0.28125 0.5058644413948059 0.0
0.40625 0.6370413303375244 0.0
0.5625 0.7306072115898132 0.0
0.7470796704292297 0.75 0.0
0.78125 0.5913567543029785 0.0
0.703125 0.4110878109931946 0.0
0.609375 0.25579702854156494 0.0
0.47844505310058594 0.140625 0.0
0.3125 0.41662779450416565 0.0
0.381049782037735 0.46875 0.0
0.38906046748161316 0.546875 0.0
3 7 18 17 255 0 0
6 7 17 19 10 9 8 255 0 0
17 10 19 18 7 6 5 4 3 2 1 0 16 15 14 13 12 11 255 0 0
3 27 37 38 0 0 255
6 27 28 29 30 39 37 0 0 255
17 30 31 32 33 34 35 36 20 21 22 23 24 25 26 27 38 39 0 0 255
4 0 1 21 20 128 0 128
4 1 2 22 21 0 255 0
4 2 3 23 22 0 255 0
4 3 4 24 23 0 255 0
4 4 5 25 24 0 255 0
4 5 6 26 25 0 255 0
4 6 7 27 26 0 255 0
4 7 8 28 27 0 255 0
4 8 9 29 28 0 255 0
4 9 10 30 29 0 255 0
4 10 11 31 30 0 255 0
4 11 12 32 31 0 255 0
4 12 13 33 32 0 255 0
4 13 14 34 33 0 255 0
4 14 15 35 34 0 255 0
4 15 16 36 35 0 255 0
4 16 0 20 36 128 0 128
4 17 18 38 37 0 255 0
4 18 19 39 38 0 255 0
4 19 17 37 39 0 255 0
