ply
format ascii 1.0
element vertex 42
property float x
property float y
property float z
element face 29
property list uchar int vertex_index
property uchar red
property uchar green
property uchar blue
end_header
0.3409046530723572 0.171875 1.0
0.3028910756111145 0.359375 1.0
0.38156336545944214 0.53125 1.0
0.4721529483795166 0.6875 1.0
0.5735395550727844 0.84375 1.0
0.6343408823013306 0.765625 1.0
0.531663179397583 0.609375 1.0
0.43476754426956177 0.46875 1.0
0.5090909004211426 0.5 1.0
0.6875 0.5468441843986511 1.0
0.6927706599235535 0.359375 1.0
0.5691717267036438 0.234375 1.0
0.390625 0.1633608639240265 1.0
0.3409046530723572 0.171875 1.0
0.40625 0.23322682082653046 1.0
0.5148463845252991 0.28125 1.0
0.640625 0.39668843150138855 1.0
0.5625 0.46212291717529297 1.0
0.453125 0.3220360577106476 1.0
0.3571242392063141 0.296875 1.0
0.40625 0.23322682082653046 1.0
0.3409046530723572 0.171875 0.0
0.3028910756111145 0.359375 0.0
0.38156336545944214 0.53125 0.0
0.4721529483795166 0.6875 0.0
0.5735395550727844 0.84375 0.0
0.6343408823013306 0.765625 0.0
0.531663179397583 0.609375 0.0
0.43476754426956177 0.46875 0.0
0.5090909004211426 0.5 0.0
0.6875 0.5468441843986511 0.0
0.6927706599235535 0.359375 0.0
0.5691717267036438 0.234375 0.0
0.390625 0.1633608639240265 0.0
0.3409046530723572 0.171875 0.0
0.40625 0.23322682082653046 0.0
0.5148463845252991 0.28125 0.0
0.640625 0.39668843150138855 0.0
0.5625 0.46212291717529297 0.0
0.453125 0.3220360577106476 0.0
0.3571242392063141 0.296875 0.0
0.40625 0.23322682082653046 0.0
4 11 15 14 12 255 0 0
4 10 16 15 11 255 0 0
4 7 18 17 8 255 0 0
9 1 19 18 7 6 5 4 3 2 255 0 0
5 8 17 16 10 9 255 0 0
4 32 33 35 36 0 0 255
4 31 32 36 37 0 0 255
4 28 29 38 39 0 0 255
9 22 23 24 25 26 27 28 39 40 0 0 255
5 29 30 31 37 38 0 0 255
4 0 1 22 21 0 255 0
4 1 2 23 22 0 255 0
4 2 3 24 23 0 255 0
4 3 4 25 24 0 255 0
4 4 5 26 25 0 255 0
4 5 6 27 26 0 255 0
4 6 7 28 27 0 255 0
4 7 8 29 28 0 255 0
4 8 9 30 29 0 255 0
4 9 10 31 30 0 255 0
4 10 11 32 31 0 255 0
4 11 12 33 32 128 0 128
4 12 13 34 33 128 0 128
4 14 15 36 35 0 255 0
4 15 16 37 36 0 255 0
4 16 17 38 37 0 255 0
4 17 18 39 38 0 255 0
4 18 19 40 39 0 255 0
4 19 20 41 40 0 255 0
