ply
format ascii 1.0
element vertex 42
property float x
property float y
property float z
element face 29
property list uchar int vertex_index
property uchar red
property uchar green
property uchar blue
end_header
0.6146399974822998 0.171875 1.0
0.484375 0.2563803195953369 1.0
0.3125 0.1818918138742447 1.0
0.140625 0.2626434564590454 1.0
0.203125 0.4371695816516876 1.0
0.375 0.4803485870361328 1.0
0.578125 0.4961531162261963 1.0
0.640625 0.6787146925926208 1.0
0.515625 0.7845367193222046 1.0
0.3744795322418213 0.6875 1.0
0.3125 0.7206012010574341 1.0
0.4375 0.8441007733345032 1.0
0.640625 0.8691509366035461 1.0
0.75 0.7304726839065552 1.0
0.7335924506187439 0.546875 1.0
0.640625 0.3798934519290924 1.0
0.7115945816040039 0.21875 1.0
0.265625 0.3002437651157379 1.0
0.31367722153663635 0.3125 1.0
0.375 0.3935704231262207 1.0
0.23478251695632935 0.3125 1.0
0.6146399974822998 0.171875 0.0
0.484375 0.2563803195953369 0.0
0.3125 0.1818918138742447 0.0
0.140625 0.2626434564590454 0.0
0.203125 0.4371695816516876 0.0
0.375 0.4803485870361328 0.0
0.578125 0.4961531162261963 0.0
0.640625 0.6787146925926208 0.0
0.515625 0.7845367193222046 0.0
0.3744795322418213 0.6875 0.0
0.3125 0.7206012010574341 0.0
0.4375 0.8441007733345032 0.0
0.640625 0.8691509366035461 0.0
0.75 0.7304726839065552 0.0
0.7335924506187439 0.546875 0.0
0.640625 0.3798934519290924 0.0
0.7115945816040039 0.21875 0.0
0.265625 0.3002437651157379 0.0
0.31367722153663635 0.3125 0.0
0.375 0.3935704231262207 0.0
0.23478251695632935 0.3125 0.0
17 5 19 18 2 1 0 16 15 14 13 12 11 10 9 8 7 6 255 0 0
3 2 18 17 255 0 0
5 3 20 19 5 4 255 0 0
4 2 17 20 3 255 0 0
17 26 27 28 29 30 31 32 33 34 35 36 37 21 22 23 39 40 0 0 255
3 23 38 39 0 0 255
5 24 25 26 40 41 0 0 255
4 23 24 41 38 0 0 255
4 0 1 22 21 128 0 128
4 1 2 23 22 0 255 0
4 2 3 24 23 0 255 0
4 3 4 25 24 0 255 0
4 4 5 26 25 0 255 0
4 5 6 27 26 0 255 0
4 6 7 28 27 0 255 0
4 7 8 29 28 0 255 0
4 8 9 30 29 0 255 0
4 9 10 31 30 0 255 0
4 10 11 32 31 0 255 0
4 11 12 33 32 0 255 0
4 12 13 34 33 0 255 0
4 13 14 35 34 0 255 0
4 14 15 36 35 0 255 0
4 15 16 37 36 0 255 0
4 16 0 21 37 128 0 128
4 17 18 39 38 0 255 0
4 18 19 40 39 0 255 0
4 19 20 41 40 0 255 0
4 20 17 38 41 0 255 0
