ply
format ascii 1.0
element vertex 32
property float x
property float y
property float z
element face 24
property list uchar int vertex_index
property uchar red
property uchar green
property uchar blue
end_header
0.38285475969314575 0.03125 1.0
0.44027215242385864 0.1875 1.0
0.5185585021972656 0.359375 1.0
0.390625 0.3899998366832733 1.0
0.22534310817718506 0.46875 1.0
0.296875 0.6136671304702759 1.0
0.46875 0.7005400061607361 1.0
0.6875 0.7326661348342896 1.0
0.71875 0.5551862716674805 1.0
0.640625 0.3781922459602356 1.0
0.5635408759117126 0.203125 1.0
0.46875 0.050238993018865585 1.0
0.375 0.48194435238838196 1.0
0.546875 0.5296140313148499 1.0
0.59375 0.6421735286712646 1.0
0.4375 0.5879830718040466 1.0
0.38285475969314575 0.03125 0.0
0.44027215242385864 0.1875 0.0
0.5185585021972656 0.359375 0.0
0.390625 0.3899998366832733 0.0
0.22534310817718506 0.46875 0.0
0.296875 0.6136671304702759 0.0
0.46875 0.7005400061607361 0.0
0.6875 0.7326661348342896 0.0
0.71875 0.5551862716674805 0.0
0.640625 0.3781922459602356 0.0
0.5635408759117126 0.203125 0.0
0.46875 0.050238993018865585 0.0
0.375 0.48194435238838196 0.0
0.546875 0.5296140313148499 0.0
0.59375 0.6421735286712646 0.0
0.4375 0.5879830718040466 0.0
6 3 12 15 6 5 4 255 0 0
4 2 13 12 3 255 0 0
10 7 14 13 2 1 0 11 10 9 8 255 0 0
4 6 15 14 7 255 0 0
6 19 20 21 22 31 28 0 0 255
4 18 19 28 29 0 0 255
10 23 24 25 26 27 16 17 18 29 30 0 0 255
4 22 23 30 31 0 0 255
4 0 1 17 16 128 0 128
4 1 2 18 17 0 255 0
4 2 3 19 18 0 255 0
4 3 4 20 19 0 255 0
4 4 5 21 20 0 255 0
4 5 6 22 21 0 255 0
4 6 7 23 22 0 255 0
4 7 8 24 23 0 255 0
4 8 9 25 24 0 255 0
4 9 10 26 25 0 255 0
4 10 11 27 26 0 255 0
4 11 0 16 27 128 0 128
4 12 13 29 28 0 255 0
4 13 14 30 29 0 255 0
4 14 15 31 30 0 255 0
4 15 12 28 31 0 255 0
