ply
format ascii 1.0
element vertex 40
property float x
property float y
property float z
element face 22
property list uchar int vertex_index
property uchar red
property uchar green
property uchar blue
end_header
0.12718527019023895 0.234375 1.0
0.17170864343643188 0.390625 1.0
0.328125 0.4748381972312927 1.0
0.515625 0.4093894064426422 1.0
0.65625 0.5192126035690308 1.0
0.671875 0.6550260782241821 1.0
0.53125 0.5423840284347534 1.0
0.5233309268951416 0.65625 1.0
0.65625 0.7490686178207397 1.0
0.796875 0.6699405312538147 1.0
0.7346982955932617 0.484375 1.0
0.609375 0.3743305206298828 1.0
0.5921579599380493 0.234375 1.0
0.421875 0.2755231261253357 1.0
0.21875 0.2288523018360138 1.0
0.12718527019023895 0.234375 1.0
0.25 0.29467421770095825 1.0
0.40625 0.36358508467674255 1.0
0.24998249113559723 0.34375 1.0
0.25 0.29467421770095825 1.0
0.12718527019023895 0.234375 0.0
0.17170864343643188 0.390625 0.0
0.328125 0.4748381972312927 0.0
0.515625 0.4093894064426422 0.0
0.65625 0.5192126035690308 0.0
0.671875 0.6550260782241821 0.0
0.53125 0.5423840284347534 0.0
0.5233309268951416 0.65625 0.0
0.65625 0.7490686178207397 0.0
0.796875 0.6699405312538147 0.0
0.7346982955932617 0.484375 0.0
0.609375 0.3743305206298828 0.0
0.5921579599380493 0.234375 0.0
0.421875 0.2755231261253357 0.0
0.21875 0.2288523018360138 0.0
0.12718527019023895 0.234375 0.0
0.25 0.29467421770095825 0.0
0.40625 0.36358508467674255 0.0
0.24998249113559723 0.34375 0.0
0.25 0.29467421770095825 0.0
4 17 13 14 16 255 0 0
15 18 1 2 3 4 5 6 7 8 9 10 11 12 13 17 255 0 0
4 37 36 34 33 0 0 255
15 38 37 33 32 31 30 29 28 27 26 25 24 23 22 21 0 0 255
4 1 0 20 21 0 255 0
4 2 1 21 22 0 255 0
4 3 2 22 23 0 255 0
4 4 3 23 24 0 255 0
4 5 4 24 25 0 255 0
4 6 5 25 26 0 255 0
4 7 6 26 27 0 255 0
4 8 7 27 28 0 255 0
4 9 8 28 29 0 255 0
4 10 9 29 30 0 255 0
4 11 10 30 31 0 255 0
4 12 11 31 32 0 255 0
4 13 12 32 33 0 255 0
4 14 13 33 34 128 0 128
4 15 14 34 35 128 0 128
4 17 16 36 37 0 255 0
4 18 17 37 38 0 255 0
4 19 18 38 39 0 255 0
