ply
format ascii 1.0
element vertex 22
property float x
property float y
property float z
element face 13
property list uchar int vertex_index
property uchar red
property uchar green
property uchar blue
end_header
0.328125 0.2174423784017563 1.0
0.45364561676979065 0.328125 1.0
0.43931302428245544 0.5 1.0
0.6084306836128235 0.59375 1.0
0.8125 0.6295257806777954 1.0
0.8075817823410034 0.6875 1.0
0.59375 0.6452624797821045 1.0
0.4375 0.5823362469673157 1.0
0.3609265089035034 0.4375 1.0
0.34375 0.2738671898841858 1.0
0.19530043005943298 0.296875 1.0
0.328125 0.2174423784017563 0.0
0.45364561676979065 0.328125 0.0
0.43931302428245544 0.5 0.0
0.6084306836128235 0.59375 0.0
0.8125 0.6295257806777954 0.0
0.8075817823410034 0.6875 0.0
0.59375 0.6452624797821045 0.0
0.4375 0.5823362469673157 0.0
0.3609265089035034 0.4375 0.0
0.34375 0.2738671898841858 0.0
0.19530043005943298 0.296875 0.0
11 0 1 2 3 4 5 6 7 8 9 10 255 0 0
11 11 21 20 19 18 17 16 15 14 13 12 0 0 255
4 1 0 11 12 128 0 128
4 2 1 12 13 0 255 0
4 3 2 13 14 0 255 0
4 4 3 14 15 0 255 0
4 5 4 15 16 0 255 0
4 6 5 16 17 0 255 0
4 7 6 17 18 0 255 0
4 8 7 18 19 0 255 0
4 9 8 19 20 0 255 0
4 10 9 20 21 0 255 0
4 0 10 21 11 128 0 128
