ply
format ascii 1.0
element vertex 38
property float x
property float y
property float z
element face 29
property list uchar int vertex_index
property uchar red
property uchar green
property uchar blue
end_header
0.5 0.09715718775987625 1.0
0.31966254115104675 0.171875 1.0
0.24341793358325958 0.34375 1.0
0.296875 0.5164875984191895 1.0
0.30679821968078613 0.71875 1.0
0.453125 0.7935255765914917 1.0
0.609375 0.7005412578582764 1.0
0.734375 0.5635533928871155 1.0
0.765625 0.3740648925304413 1.0
0.6938199996948242 0.1875 1.0
0.543317437171936 0.09375 1.0
0.53125 0.21348488330841064 1.0
0.6286314725875854 0.265625 1.0
0.640625 0.4557631313800812 1.0
0.5 0.5729590654373169 1.0
0.4537907838821411 0.421875 1.0
0.390625 0.2897792458534241 1.0
0.40625 0.6382443904876709 1.0
0.40392908453941345 0.671875 1.0
0.5 0.09715718775987625 0.0
0.31966254115104675 0.171875 0.0
0.24341793358325958 0.34375 0.0
0.296875 0.5164875984191895 0.0
0.30679821968078613 0.71875 0.0
0.453125 0.7935255765914917 0.0
0.609375 0.7005412578582764 0.0
0.734375 0.5635533928871155 0.0
0.765625 0.3740648925304413 0.0
0.6938199996948242 0.1875 0.0
0.543317437171936 0.09375 0.0
0.53125 0.21348488330841064 0.0
0.6286314725875854 0.265625 0.0
0.640625 0.4557631313800812 0.0
0.5 0.5729590654373169 0.0
0.4537907838821411 0.421875 0.0
0.390625 0.2897792458534241 0.0
0.40625 0.6382443904876709 0.0
0.40392908453941345 0.671875 0.0
5 1 16 15 3 2 255 0 0
8 4 18 17 14 13 7 6 5 255 0 0
5 10 11 16 1 0 255 0 0
5 7 13 12 9 8 255 0 0
6 3 15 14 17 18 4 255 0 0
4 9 12 11 10 255 0 0
5 20 21 22 34 35 0 0 255
8 23 24 25 26 32 33 36 37 0 0 255
5 29 19 20 35 30 0 0 255
5 26 27 28 31 32 0 0 255
6 22 23 37 36 33 34 0 0 255
4 28 29 30 31 0 0 255
4 0 1 20 19 0 255 0
4 1 2 21 20 0 255 0
4 2 3 22 21 0 255 0
4 3 4 23 22 0 255 0
4 4 5 24 23 0 255 0
4 5 6 25 24 0 255 0
4 6 7 26 25 0 255 0
4 7 8 27 26 0 255 0
4 8 9 28 27 0 255 0
4 9 10 29 28 128 0 128
4 10 0 19 29 128 0 128
4 11 12 31 30 0 255 0
4 12 13 32 31 0 255 0
4 13 14 33 32 0 255 0
4 14 15 34 33 0 255 0
4 15 16 35 34 0 255 0
4 16 11 30 35 0 255 0
