ply
format ascii 1.0
element vertex 40
property float x
property float y
property float z
element face 22
property list uchar int vertex_index
property uchar red
property uchar green
property uchar blue
end_header
0.3489997684955597 0.0625 1.0
0.390625 0.24710287153720856 1.0
0.4241523742675781 0.390625 1.0
0.30157312750816345 0.515625 1.0
0.278072327375412 0.703125 1.0
0.4397134482860565 0.765625 1.0
0.6211179494857788 0.71875 1.0
0.515625 0.6576487421989441 1.0
0.34541457891464233 0.640625 1.0
0.4401197135448456 0.484375 1.0
0.578125 0.45498567819595337 1.0
0.7120295763015747 0.578125 1.0
0.78125 0.7196909785270691 1.0
0.8387016654014587 0.625 1.0
0.7209689021110535 0.484375 1.0
0.6154617071151733 0.34375 1.0
0.5942359566688538 0.171875 1.0
0.453125 0.06360848248004913 1.0
0.4795656204223633 0.171875 1.0
0.515625 0.27042731642723083 1.0
0.3489997684955597 0.0625 0.0
0.390625 0.24710287153720856 0.0
0.4241523742675781 0.390625 0.0
0.30157312750816345 0.515625 0.0
0.278072327375412 0.703125 0.0
0.4397134482860565 0.765625 0.0
0.6211179494857788 0.71875 0.0
0.515625 0.6576487421989441 0.0
0.34541457891464233 0.640625 0.0
0.4401197135448456 0.484375 0.0
0.578125 0.45498567819595337 0.0
0.7120295763015747 0.578125 0.0
0.78125 0.7196909785270691 0.0
0.8387016654014587 0.625 0.0
0.7209689021110535 0.484375 0.0
0.6154617071151733 0.34375 0.0
0.5942359566688538 0.171875 0.0
0.453125 0.06360848248004913 0.0
0.4795656204223633 0.171875 0.0
0.515625 0.27042731642723083 0.0
5 15 19 18 17 16 255 0 0
19 17 18 19 15 14 13 12 11 10 9 8 7 6 5 4 3 2 1 0 255 0 0
5 35 36 37 38 39 0 0 255
19 37 20 21 22 23 24 25 26 27 28 29 30 31 32 33 34 35 39 38 0 0 255
4 0 1 21 20 128 0 128
4 1 2 22 21 0 255 0
4 2 3 23 22 0 255 0
4 3 4 24 23 0 255 0
4 4 5 25 24 0 255 0
4 5 6 26 25 0 255 0
4 6 7 27 26 0 255 0
4 7 8 28 27 0 255 0
4 8 9 29 28 0 255 0
4 9 10 30 29 0 255 0
4 10 11 31 30 0 255 0
4 11 12 32 31 0 255 0
4 12 13 33 32 0 255 0
4 13 14 34 33 0 255 0
4 14 15 35 34 0 255 0
4 15 16 36 35 0 255 0
4 16 17 37 36 0 255 0
4 17 0 20 37 128 0 128
