ply
format ascii 1.0
element vertex 40
property float x
property float y
property float z
element face 28
property list uchar int vertex_index
property uchar red
property uchar green
property uchar blue
end_header
0.3914282023906708 0.171875 1.0
0.25 0.26738104224205017 1.0
0.2854277789592743 0.4375 1.0
0.390625 0.5858049392700195 1.0
0.515625 0.7144259810447693 1.0
0.6452439427375793 0.828125 1.0
0.7875553965568542 0.828125 1.0
0.640625 0.7223222851753235 1.0
0.5179603099822998 0.59375 1.0
0.4097461998462677 0.453125 1.0
0.3466043770313263 0.296875 1.0
0.47098562121391296 0.40625 1.0
0.6131173968315125 0.515625 1.0
0.7781476974487305 0.5 1.0
0.71875 0.34221750497817993 1.0
0.578125 0.22737711668014526 1.0
0.515625 0.2727324664592743 1.0
0.578125 0.29731011390686035 1.0
0.7032905220985413 0.421875 1.0
0.5588975548744202 0.375 1.0
0.3914282023906708 0.171875 0.0
0.25 0.26738104224205017 0.0
0.2854277789592743 0.4375 0.0
0.390625 0.5858049392700195 0.0
0.515625 0.7144259810447693 0.0
0.6452439427375793 0.828125 0.0
0.7875553965568542 0.828125 0.0
0.640625 0.7223222851753235 0.0
0.5179603099822998 0.59375 0.0
0.4097461998462677 0.453125 0.0
0.3466043770313263 0.296875 0.0
0.47098562121391296 0.40625 0.0
0.6131173968315125 0.515625 0.0
0.7781476974487305 0.5 0.0
0.71875 0.34221750497817993 0.0
0.578125 0.22737711668014526 0.0
0.515625 0.2727324664592743 0.0
0.578125 0.29731011390686035 0.0
0.7032905220985413 0.421875 0.0
0.5588975548744202 0.375 0.0
3 15 17 16 255 0 0
6 11 19 18 14 13 12 255 0 0
4 14 18 17 15 255 0 0
15 15 16 19 11 10 9 8 7 6 5 4 3 2 1 0 255 0 0
3 35 36 37 0 0 255
6 31 32 33 34 38 39 0 0 255
4 34 35 37 38 0 0 255
15 35 20 21 22 23 24 25 26 27 28 29 30 31 39 36 0 0 255
4 0 1 21 20 128 0 128
4 1 2 22 21 0 255 0
4 2 3 23 22 0 255 0
4 3 4 24 23 0 255 0
4 4 5 25 24 0 255 0
4 5 6 26 25 0 255 0
4 6 7 27 26 0 255 0
4 7 8 28 27 0 255 0
4 8 9 29 28 0 255 0
4 9 10 30 29 0 255 0
4 10 11 31 30 0 255 0
4 11 12 32 31 0 255 0
4 12 13 33 32 0 255 0
4 13 14 34 33 0 255 0
4 14 15 35 34 0 255 0
4 15 0 20 35 128 0 128
4 16 17 37 36 0 255 0
4 17 18 38 37 0 255 0
4 18 19 39 38 0 255 0
4 19 16 36 39 0 255 0
