ply
format ascii 1.0
element vertex 26
property float x
property float y
property float z
element face 19
property list uchar int vertex_index
property uchar red
property uchar green
property uchar blue
end_header
0.4726371169090271 0.203125 1.0
0.3691631853580475 0.34375 1.0
0.40625 0.5618447065353394 1.0
0.46406790614128113 0.75 1.0
0.5470036268234253 0.890625 1.0
0.515625 0.6955720782279968 1.0
0.453125 0.5176355242729187 1.0
0.53125 0.46711596846580505 1.0
0.6619086265563965 0.34375 1.0
0.5625 0.2010117918252945 1.0
0.515625 0.2643275260925293 1.0
0.546875 0.39851006865501404 1.0
0.482650488615036 0.28125 1.0
0.4726371169090271 0.203125 0.0
0.3691631853580475 0.34375 0.0
0.40625 0.5618447065353394 0.0
0.46406790614128113 0.75 0.0
0.5470036268234253 0.890625 0.0
0.515625 0.6955720782279968 0.0
0.453125 0.5176355242729187 0.0
0.53125 0.46711596846580505 0.0
0.6619086265563965 0.34375 0.0
0.5625 0.2010117918252945 0.0
0.515625 0.2643275260925293 0.0
0.546875 0.39851006865501404 0.0
0.482650488615036 0.28125 0.0
6 7 11 10 0 9 8 255 0 0
10 0 12 11 7 6 5 4 3 2 1 255 0 0
3 0 10 12 255 0 0
6 20 21 22 13 23 24 0 0 255
10 13 14 15 16 17 18 19 20 24 25 0 0 255
3 13 25 23 0 0 255
4 0 1 14 13 0 255 0
4 1 2 15 14 0 255 0
4 2 3 16 15 0 255 0
4 3 4 17 16 0 255 0
4 4 5 18 17 0 255 0
4 5 6 19 18 0 255 0
4 6 7 20 19 0 255 0
4 7 8 21 20 0 255 0
4 8 9 22 21 128 0 128
4 9 0 13 22 128 0 128
4 10 11 24 23 0 255 0
4 11 12 25 24 0 255 0
4 12 10 23 25 0 255 0
