ply
format ascii 1.0
element vertex 40
property float x
property float y
property float z
element face 34
property list uchar int vertex_index
property uchar red
property uchar green
property uchar blue
end_header
0.390625 0.09888709336519241 1.0
0.3125 0.25125551223754883 1.0
0.374260812997818 0.421875 1.0
0.2725825011730194 0.578125 1.0
0.375 0.7252308130264282 1.0
0.546875 0.8033296465873718 1.0
0.6720532178878784 0.703125 1.0
0.71875 0.6190886497497559 1.0
0.578125 0.5012656450271606 1.0
0.546875 0.3700602054595947 1.0
0.609375 0.199112206697464 1.0
0.46875 0.0930391326546669 1.0
0.45874905586242676 0.171875 1.0
0.484375 0.3257392942905426 1.0
0.3744175136089325 0.25 1.0
0.421875 0.4799415171146393 1.0
0.44885918498039246 0.484375 1.0
0.570605993270874 0.609375 1.0
0.515625 0.706641435623169 1.0
0.3664616346359253 0.609375 1.0
0.390625 0.09888709336519241 0.0
0.3125 0.25125551223754883 0.0
0.374260812997818 0.421875 0.0
0.2725825011730194 0.578125 0.0
0.375 0.7252308130264282 0.0
0.546875 0.8033296465873718 0.0
0.6720532178878784 0.703125 0.0
0.71875 0.6190886497497559 0.0
0.578125 0.5012656450271606 0.0
0.546875 0.3700602054595947 0.0
0.609375 0.199112206697464 0.0
0.46875 0.0930391326546669 0.0
0.45874905586242676 0.171875 0.0
0.484375 0.3257392942905426 0.0
0.3744175136089325 0.25 0.0
0.421875 0.4799415171146393 0.0
0.44885918498039246 0.484375 0.0
0.570605993270874 0.609375 0.0
0.515625 0.706641435623169 0.0
0.3664616346359253 0.609375 0.0
6 5 18 17 8 7 6 255 0 0
8 8 17 16 2 1 14 13 9 255 0 0
5 3 19 18 5 4 255 0 0
4 2 15 19 3 255 0 0
5 9 13 12 11 10 255 0 0
3 2 16 15 255 0 0
5 11 12 14 1 0 255 0 0
6 25 26 27 28 37 38 0 0 255
8 28 29 33 34 21 22 36 37 0 0 255
5 23 24 25 38 39 0 0 255
4 22 23 39 35 0 0 255
5 29 30 31 32 33 0 0 255
3 22 35 36 0 0 255
5 31 20 21 34 32 0 0 255
4 0 1 21 20 0 255 0
4 1 2 22 21 0 255 0
4 2 3 23 22 0 255 0
4 3 4 24 23 0 255 0
4 4 5 25 24 0 255 0
4 5 6 26 25 0 255 0
4 6 7 27 26 0 255 0
4 7 8 28 27 0 255 0
4 8 9 29 28 0 255 0
4 9 10 30 29 0 255 0
4 10 11 31 30 128 0 128
4 11 0 20 31 128 0 128
4 12 13 33 32 0 255 0
4 13 14 34 33 0 255 0
4 14 12 32 34 0 255 0
4 15 16 36 35 0 255 0
4 16 17 37 36 0 255 0
4 17 18 38 37 0 255 0
4 18 19 39 38 0 255 0
4 19 15 35 39 0 255 0
