ply
format ascii 1.0
element vertex 34
property float x
property float y
property float z
element face 29
property list uchar int vertex_index
property uchar red
property uchar green
property uchar blue
end_header
0.34375 0.14236846566200256 1.0
0.2332162857055664 0.28125 1.0
0.359375 0.40143877267837524 1.0
0.4775044620037079 0.53125 1.0
0.5075960755348206 0.75 1.0
0.650695264339447 0.8125 1.0
0.720494270324707 0.640625 1.0
0.6332449316978455 0.484375 1.0
0.5288283824920654 0.34375 1.0
0.46875 0.15143853425979614 1.0
0.375 0.19748269021511078 1.0
0.42292872071266174 0.203125 1.0
0.453125 0.3752079904079437 1.0
0.31059592962265015 0.28125 1.0
0.546875 0.5542157888412476 1.0
0.6224669218063354 0.59375 1.0
0.5390589237213135 0.65625 1.0
0.34375 0.14236846566200256 0.0
0.2332162857055664 0.28125 0.0
0.359375 0.40143877267837524 0.0
0.4775044620037079 0.53125 0.0
0.5075960755348206 0.75 0.0
0.650695264339447 0.8125 0.0
0.720494270324707 0.640625 0.0
0.6332449316978455 0.484375 0.0
0.5288283824920654 0.34375 0.0
0.46875 0.15143853425979614 0.0
0.375 0.19748269021511078 0.0
0.42292872071266174 0.203125 0.0
0.453125 0.3752079904079437 0.0
0.31059592962265015 0.28125 0.0
0.546875 0.5542157888412476 0.0
0.6224669218063354 0.59375 0.0
0.5390589237213135 0.65625 0.0
4 8 12 11 9 255 0 0
5 4 16 15 6 5 255 0 0
4 0 10 13 1 255 0 0
10 1 13 12 8 7 6 15 14 3 2 255 0 0
4 3 14 16 4 255 0 0
4 9 11 10 0 255 0 0
4 25 26 28 29 0 0 255
5 21 22 23 32 33 0 0 255
4 17 18 30 27 0 0 255
10 18 19 20 31 32 23 24 25 29 30 0 0 255
4 20 21 33 31 0 0 255
4 26 17 27 28 0 0 255
4 0 1 18 17 128 0 128
4 1 2 19 18 0 255 0
4 2 3 20 19 0 255 0
4 3 4 21 20 0 255 0
4 4 5 22 21 0 255 0
4 5 6 23 22 0 255 0
4 6 7 24 23 0 255 0
4 7 8 25 24 0 255 0
4 8 9 26 25 0 255 0
4 9 0 17 26 128 0 128
4 10 11 28 27 0 255 0
4 11 12 29 28 0 255 0
4 12 13 30 29 0 255 0
4 13 10 27 30 0 255 0
4 14 15 32 31 0 255 0
4 15 16 33 32 0 255 0
4 16 14 31 33 0 255 0
