ply
format ascii 1.0
element vertex 36
property float x
property float y
property float z
element face 24
property list uchar int vertex_index
property uchar red
property uchar green
property uchar blue
end_header
0.5262253284454346 0.125 1.0
0.3640536069869995 0.21875 1.0
0.40625 0.4074784815311432 1.0
0.296875 0.5517076253890991 1.0
0.3244587481021881 0.703125 1.0
0.46875 0.6814031600952148 1.0
0.3859609067440033 0.5625 1.0
0.515625 0.5065097808837891 1.0
0.6248258352279663 0.65625 1.0
0.664206326007843 0.828125 1.0
0.7298216223716736 0.6875 1.0
0.640625 0.523306131362915 1.0
0.578125 0.3814660310745239 1.0
0.684560239315033 0.234375 1.0
0.546875 0.1238207072019577 1.0
0.46875 0.23155498504638672 1.0
0.5169475078582764 0.296875 1.0
0.44384726881980896 0.234375 1.0
0.5262253284454346 0.125 0.0
0.3640536069869995 0.21875 0.0
0.40625 0.4074784815311432 0.0
0.296875 0.5517076253890991 0.0
0.3244587481021881 0.703125 0.0
0.46875 0.6814031600952148 0.0
0.3859609067440033 0.5625 0.0
0.515625 0.5065097808837891 0.0
0.6248258352279663 0.65625 0.0
0.664206326007843 0.828125 0.0
0.7298216223716736 0.6875 0.0
0.640625 0.523306131362915 0.0
0.578125 0.3814660310745239 0.0
0.684560239315033 0.234375 0.0
0.546875 0.1238207072019577 0.0
0.46875 0.23155498504638672 0.0
0.5169475078582764 0.296875 0.0
0.44384726881980896 0.234375 0.0
7 12 16 15 1 0 14 13 255 0 0
14 1 17 16 12 11 10 9 8 7 6 5 4 3 2 255 0 0
3 1 15 17 255 0 0
7 30 31 32 18 19 33 34 0 0 255
14 19 20 21 22 23 24 25 26 27 28 29 30 34 35 0 0 255
3 19 35 33 0 0 255
4 0 1 19 18 0 255 0
4 1 2 20 19 0 255 0
4 2 3 21 20 0 255 0
4 3 4 22 21 0 255 0
4 4 5 23 22 0 255 0
4 5 6 24 23 0 255 0
4 6 7 25 24 0 255 0
4 7 8 26 25 0 255 0
4 8 9 27 26 0 255 0
4 9 10 28 27 0 255 0
4 10 11 29 28 0 255 0
4 11 12 30 29 0 255 0
4 12 13 31 30 0 255 0
4 13 14 32 31 128 0 128
4 14 0 18 32 128 0 128
4 15 16 34 33 0 255 0
4 16 17 35 34 0 255 0
4 17 15 33 35 0 255 0
