ply
format ascii 1.0
element vertex 40
property float x
property float y
property float z
element face 34
property list uchar int vertex_index
property uchar red
property uchar green
property uchar blue
end_header
0.3450950086116791 0.0625 1.0
0.3410763144493103 0.234375 1.0
0.34375 0.3317953944206238 1.0
0.16681623458862305 0.40625 1.0
0.25 0.5754887461662292 1.0
0.40625 0.6636856198310852 1.0
0.5729097723960876 0.75 1.0
0.7654820084571838 0.734375 1.0
0.8518520593643188 0.578125 1.0
0.734375 0.4429296851158142 1.0
0.5963414311408997 0.328125 1.0
0.4546418786048889 0.21875 1.0
0.3949669301509857 0.0625 1.0
0.359375 0.40162548422813416 1.0
0.5 0.4138982892036438 1.0
0.65625 0.5054473280906677 1.0
0.6807330250740051 0.671875 1.0
0.502372145652771 0.609375 1.0
0.34375 0.5169428586959839 1.0
0.3409370183944702 0.40625 1.0
0.3450950086116791 0.0625 0.0
0.3410763144493103 0.234375 0.0
0.34375 0.3317953944206238 0.0
0.16681623458862305 0.40625 0.0
0.25 0.5754887461662292 0.0
0.40625 0.6636856198310852 0.0
0.5729097723960876 0.75 0.0
0.7654820084571838 0.734375 0.0
0.8518520593643188 0.578125 0.0
0.734375 0.4429296851158142 0.0
0.5963414311408997 0.328125 0.0
0.4546418786048889 0.21875 0.0
0.3949669301509857 0.0625 0.0
0.359375 0.40162548422813416 0.0
0.5 0.4138982892036438 0.0
0.65625 0.5054473280906677 0.0
0.6807330250740051 0.671875 0.0
0.502372145652771 0.609375 0.0
0.34375 0.5169428586959839 0.0
0.3409370183944702 0.40625 0.0
5 7 16 15 9 8 255 0 0
4 4 18 17 5 255 0 0
5 5 17 16 7 6 255 0 0
4 9 15 14 10 255 0 0
8 10 14 13 2 1 0 12 11 255 0 0
3 2 13 19 255 0 0
5 2 19 18 4 3 255 0 0
5 27 28 29 35 36 0 0 255
4 24 25 37 38 0 0 255
5 25 26 27 36 37 0 0 255
4 29 30 34 35 0 0 255
8 30 31 32 20 21 22 33 34 0 0 255
3 22 39 33 0 0 255
5 22 23 24 38 39 0 0 255
4 0 1 21 20 0 255 0
4 1 2 22 21 0 255 0
4 2 3 23 22 0 255 0
4 3 4 24 23 0 255 0
4 4 5 25 24 0 255 0
4 5 6 26 25 0 255 0
4 6 7 27 26 0 255 0
4 7 8 28 27 0 255 0
4 8 9 29 28 0 255 0
4 9 10 30 29 0 255 0
4 10 11 31 30 0 255 0
4 11 12 32 31 0 255 0
4 12 0 20 32 128 0 128
4 13 14 34 33 0 255 0
4 14 15 35 34 0 255 0
4 15 16 36 35 0 255 0
4 16 17 37 36 0 255 0
4 17 18 38 37 0 255 0
4 18 19 39 38 0 255 0
4 19 13 33 39 0 255 0
