ply
format ascii 1.0
element vertex 40
property float x
property float y
property float z
element face 34
property list uchar int vertex_index
property uchar red
property uchar green
property uchar blue
end_header
0.46875 0.1284707486629486 1.0
0.2957528233528137 0.203125 1.0
0.25647321343421936 0.359375 1.0
0.25812968611717224 0.578125 1.0
0.36569392681121826 0.71875 1.0
0.515625 0.8225944638252258 1.0
0.703125 0.7824068069458008 1.0
0.7850533723831177 0.625 1.0
0.6974787712097168 0.46875 1.0
0.7058975100517273 0.296875 1.0
0.640625 0.14484581351280212 1.0
0.484375 0.24175678193569183 1.0
0.609375 0.24806144833564758 1.0
0.515625 0.37727057933807373 1.0
0.375 0.2955814003944397 1.0
0.40625 0.5189070701599121 1.0
0.421875 0.5182525515556335 1.0
0.640625 0.5607067346572876 1.0
0.5938501954078674 0.71875 1.0
0.453125 0.6289830207824707 1.0
0.46875 0.1284707486629486 0.0
0.2957528233528137 0.203125 0.0
0.25647321343421936 0.359375 0.0
0.25812968611717224 0.578125 0.0
0.36569392681121826 0.71875 0.0
0.515625 0.8225944638252258 0.0
0.703125 0.7824068069458008 0.0
0.7850533723831177 0.625 0.0
0.6974787712097168 0.46875 0.0
0.7058975100517273 0.296875 0.0
0.640625 0.14484581351280212 0.0
0.484375 0.24175678193569183 0.0
0.609375 0.24806144833564758 0.0
0.515625 0.37727057933807373 0.0
0.375 0.2955814003944397 0.0
0.40625 0.5189070701599121 0.0
0.421875 0.5182525515556335 0.0
0.640625 0.5607067346572876 0.0
0.5938501954078674 0.71875 0.0
0.453125 0.6289830207824707 0.0
7 8 17 16 13 12 10 9 255 0 0
4 0 11 14 1 255 0 0
4 10 12 11 0 255 0 0
7 1 14 13 16 15 3 2 255 0 0
4 3 15 19 4 255 0 0
5 6 18 17 8 7 255 0 0
5 4 19 18 6 5 255 0 0
7 28 29 30 32 33 36 37 0 0 255
4 20 21 34 31 0 0 255
4 30 20 31 32 0 0 255
7 21 22 23 35 36 33 34 0 0 255
4 23 24 39 35 0 0 255
5 26 27 28 37 38 0 0 255
5 24 25 26 38 39 0 0 255
4 0 1 21 20 128 0 128
4 1 2 22 21 0 255 0
4 2 3 23 22 0 255 0
4 3 4 24 23 0 255 0
4 4 5 25 24 0 255 0
4 5 6 26 25 0 255 0
4 6 7 27 26 0 255 0
4 7 8 28 27 0 255 0
4 8 9 29 28 0 255 0
4 9 10 30 29 0 255 0
4 10 0 20 30 128 0 128
4 11 12 32 31 0 255 0
4 12 13 33 32 0 255 0
4 13 14 34 33 0 255 0
4 14 11 31 34 0 255 0
4 15 16 36 35 0 255 0
4 16 17 37 36 0 255 0
4 17 18 38 37 0 255 0
4 18 19 39 38 0 255 0
4 19 15 35 39 0 255 0
