ply
format ascii 1.0
element vertex 40
property float x
property float y
property float z
element face 26
property list uchar int vertex_index
property uchar red
property uchar green
property uchar blue
end_header
0.3017882704734802 0.15625 1.0
0.140625 0.22936280071735382 1.0
0.2652393877506256 0.359375 1.0
0.46875 0.4044276773929596 1.0
0.609375 0.47744879126548767 1.0
0.6958433985710144 0.640625 1.0
0.6202433109283447 0.703125 1.0
0.453125 0.6126742362976074 1.0
0.3171215057373047 0.609375 1.0
0.453125 0.7289767265319824 1.0
0.625 0.8079432845115662 1.0
0.8274435997009277 0.8125 1.0
0.796875 0.6143959164619446 1.0
0.703125 0.4542364776134491 1.0
0.6015630960464478 0.3125 1.0
0.6313814520835876 0.15625 1.0
0.46875 0.22247575223445892 1.0
0.265625 0.22405460476875305 1.0
0.328125 0.256829172372818 1.0
0.2598300576210022 0.25 1.0
0.3017882704734802 0.15625 0.0
0.140625 0.22936280071735382 0.0
0.2652393877506256 0.359375 0.0
0.46875 0.4044276773929596 0.0
0.609375 0.47744879126548767 0.0
0.6958433985710144 0.640625 0.0
0.6202433109283447 0.703125 0.0
0.453125 0.6126742362976074 0.0
0.3171215057373047 0.609375 0.0
0.453125 0.7289767265319824 0.0
0.625 0.8079432845115662 0.0
0.8274435997009277 0.8125 0.0
0.796875 0.6143959164619446 0.0
0.703125 0.4542364776134491 0.0
0.6015630960464478 0.3125 0.0
0.6313814520835876 0.15625 0.0
0.46875 0.22247575223445892 0.0
0.265625 0.22405460476875305 0.0
0.328125 0.256829172372818 0.0
0.2598300576210022 0.25 0.0
5 0 17 19 2 1 255 0 0
18 2 19 18 0 16 15 14 13 12 11 10 9 8 7 6 5 4 3 255 0 0
3 0 18 17 255 0 0
5 20 21 22 39 37 0 0 255
18 22 23 24 25 26 27 28 29 30 31 32 33 34 35 36 20 38 39 0 0 255
3 20 37 38 0 0 255
4 0 1 21 20 0 255 0
4 1 2 22 21 0 255 0
4 2 3 23 22 0 255 0
4 3 4 24 23 0 255 0
4 4 5 25 24 0 255 0
4 5 6 26 25 0 255 0
4 6 7 27 26 0 255 0
4 7 8 28 27 0 255 0
4 8 9 29 28 0 255 0
4 9 10 30 29 0 255 0
4 10 11 31 30 0 255 0
4 11 12 32 31 0 255 0
4 12 13 33 32 0 255 0
4 13 14 34 33 0 255 0
4 14 15 35 34 0 255 0
4 15 16 36 35 0 255 0
4 16 0 20 36 0 255 0
4 17 18 38 37 0 255 0
4 18 19 39 38 0 255 0
4 19 17 37 39 0 255 0
