ply
format ascii 1.0
element vertex 46
property float x
property float y
property float z
element face 25
property list uchar int vertex_index
property uchar red
property uchar green
property uchar blue
end_header
0.234375 0.08998610079288483 1.0
0.484375 0.08635484427213669 1.0
0.7126829624176025 0.109375 1.0
0.7856033444404602 0.28125 1.0
0.703125 0.4497058689594269 1.0
0.6858882308006287 0.578125 1.0
0.7501871585845947 0.71875 1.0
0.59375 0.7445855140686035 1.0
0.421875 0.7300115823745728 1.0
0.25 0.7981277704238892 1.0
0.1875 0.6878334283828735 1.0
0.375 0.632396399974823 1.0
0.5625 0.6565405130386353 1.0
0.4946173131465912 0.59375 1.0
0.3125 0.5581579804420471 1.0
0.359375 0.465365469455719 1.0
0.5836648941040039 0.4375 1.0
0.6686664819717407 0.265625 1.0
0.53125 0.14579631388187408 1.0
0.3125 0.14570514857769012 1.0
0.16413365304470062 0.25 1.0
0.10701742023229599 0.234375 1.0
0.21875 0.09697405248880386 1.0
0.234375 0.08998610079288483 0.0
0.484375 0.08635484427213669 0.0
0.7126829624176025 0.109375 0.0
0.7856033444404602 0.28125 0.0
0.703125 0.4497058689594269 0.0
0.6858882308006287 0.578125 0.0
0.7501871585845947 0.71875 0.0
0.59375 0.7445855140686035 0.0
0.421875 0.7300115823745728 0.0
0.25 0.7981277704238892 0.0
0.1875 0.6878334283828735 0.0
0.375 0.632396399974823 0.0
0.5625 0.6565405130386353 0.0
0.4946173131465912 0.59375 0.0
0.3125 0.5581579804420471 0.0
0.359375 0.465365469455719 0.0
0.5836648941040039 0.4375 0.0
0.6686664819717407 0.265625 0.0
0.53125 0.14579631388187408 0.0
0.3125 0.14570514857769012 0.0
0.16413365304470062 0.25 0.0
0.10701742023229599 0.234375 0.0
0.21875 0.09697405248880386 0.0
23 0 1 2 3 4 5 6 7 8 9 10 11 12 13 14 15 16 17 18 19 20 21 22 255 0 0
23 23 45 44 43 42 41 40 39 38 37 36 35 34 33 32 31 30 29 28 27 26 25 24 0 0 255
4 1 0 23 24 128 0 128
4 2 1 24 25 128 0 128
4 3 2 25 26 0 255 0
4 4 3 26 27 0 255 0
4 5 4 27 28 0 255 0
4 6 5 28 29 0 255 0
4 7 6 29 30 0 255 0
4 8 7 30 31 0 255 0
4 9 8 31 32 0 255 0
4 10 9 32 33 0 255 0
4 11 10 33 34 0 255 0
4 12 11 34 35 0 255 0
4 13 12 35 36 0 255 0
4 14 13 36 37 0 255 0
4 15 14 37 38 0 255 0
4 16 15 38 39 0 255 0
4 17 16 39 40 0 255 0
4 18 17 40 41 0 255 0
4 19 18 41 42 0 255 0
4 20 19 42 43 0 255 0
4 21 20 43 44 0 255 0
4 22 21 44 45 0 255 0
4 0 22 45 23 0 255 0
