ply
format ascii 1.0
element vertex 38
property float x
property float y
property float z
element face 27
property list uchar int vertex_index
property uchar red
property uchar green
property uchar blue
end_header
0.24508683383464813 0.21875 1.0
0.158548504114151 0.390625 1.0
0.28125 0.5220657587051392 1.0
0.453125 0.4496488869190216 1.0
0.5940367579460144 0.546875 1.0
0.6100945472717285 0.75 1.0
0.484375 0.8113465905189514 1.0
0.5900171995162964 0.890625 1.0
0.6931673884391785 0.75 1.0
0.656335711479187 0.53125 1.0
0.640625 0.37825247645378113 1.0
0.8555191159248352 0.375 1.0
0.671875 0.30181100964546204 1.0
0.484375 0.3042876422405243 1.0
0.328125 0.2177034169435501 1.0
0.265625 0.279373437166214 1.0
0.4437371790409088 0.34375 1.0
0.296875 0.44313088059425354 1.0
0.21875 0.31690067052841187 1.0
0.24508683383464813 0.21875 0.0
0.158548504114151 0.390625 0.0
0.28125 0.5220657587051392 0.0
0.453125 0.4496488869190216 0.0
0.5940367579460144 0.546875 0.0
0.6100945472717285 0.75 0.0
0.484375 0.8113465905189514 0.0
0.5900171995162964 0.890625 0.0
0.6931673884391785 0.75 0.0
0.656335711479187 0.53125 0.0
0.640625 0.37825247645378113 0.0
0.8555191159248352 0.375 0.0
0.671875 0.30181100964546204 0.0
0.484375 0.3042876422405243 0.0
0.328125 0.2177034169435501 0.0
0.265625 0.279373437166214 0.0
0.4437371790409088 0.34375 0.0
0.296875 0.44313088059425354 0.0
0.21875 0.31690067052841187 0.0
5 13 16 15 0 14 255 0 0
14 2 17 16 13 12 11 10 9 8 7 6 5 4 3 255 0 0
4 0 15 18 1 255 0 0
4 1 18 17 2 255 0 0
5 32 33 19 34 35 0 0 255
14 21 22 23 24 25 26 27 28 29 30 31 32 35 36 0 0 255
4 19 20 37 34 0 0 255
4 20 21 36 37 0 0 255
4 0 1 20 19 0 255 0
4 1 2 21 20 0 255 0
4 2 3 22 21 0 255 0
4 3 4 23 22 0 255 0
4 4 5 24 23 0 255 0
4 5 6 25 24 0 255 0
4 6 7 26 25 0 255 0
4 7 8 27 26 0 255 0
4 8 9 28 27 0 255 0
4 9 10 29 28 0 255 0
4 10 11 30 29 0 255 0
4 11 12 31 30 0 255 0
4 12 13 32 31 0 255 0
4 13 14 33 32 128 0 128
4 14 0 19 33 128 0 128
4 15 16 35 34 0 255 0
4 16 17 36 35 0 255 0
4 17 18 37 36 0 255 0
4 18 15 34 37 0 255 0
