ply
format ascii 1.0
element vertex 44
property float x
property float y
property float z
element face 24
property list uchar int vertex_index
property uchar red
property uchar green
property uchar blue
end_header
0.19755388796329498 0.203125 1.0
0.16451364755630493 0.359375 1.0
0.296875 0.4786757230758667 1.0
0.49959245324134827 0.484375 1.0
0.6535372734069824 0.4375 1.0
0.7549501657485962 0.578125 1.0
0.6875 0.7312179207801819 1.0
0.49971064925193787 0.671875 1.0
0.421875 0.7901766300201416 1.0
0.609375 0.8461121916770935 1.0
0.7894708514213562 0.78125 1.0
0.828125 0.5881222486495972 1.0
0.7404088377952576 0.421875 1.0
0.6875 0.27310845255851746 1.0
0.5730395317077637 0.234375 1.0
0.375 0.19014999270439148 1.0
0.19755388796329498 0.203125 1.0
0.3125 0.27753549814224243 1.0
0.33750078082084656 0.28125 1.0
0.4887261390686035 0.34375 1.0
0.296875 0.3602146804332733 1.0
0.3125 0.27753549814224243 1.0
0.19755388796329498 0.203125 0.0
0.16451364755630493 0.359375 0.0
0.296875 0.4786757230758667 0.0
0.49959245324134827 0.484375 0.0
0.6535372734069824 0.4375 0.0
0.7549501657485962 0.578125 0.0
0.6875 0.7312179207801819 0.0
0.49971064925193787 0.671875 0.0
0.421875 0.7901766300201416 0.0
0.609375 0.8461121916770935 0.0
0.7894708514213562 0.78125 0.0
0.828125 0.5881222486495972 0.0
0.7404088377952576 0.421875 0.0
0.6875 0.27310845255851746 0.0
0.5730395317077637 0.234375 0.0
0.375 0.19014999270439148 0.0
0.19755388796329498 0.203125 0.0
0.3125 0.27753549814224243 0.0
0.33750078082084656 0.28125 0.0
0.4887261390686035 0.34375 0.0
0.296875 0.3602146804332733 0.0
0.3125 0.27753549814224243 0.0
5 19 14 15 17 18 255 0 0
15 20 2 3 4 5 6 7 8 9 10 11 12 13 14 19 255 0 0
5 41 40 39 37 36 0 0 255
15 42 41 36 35 34 33 32 31 30 29 28 27 26 25 24 0 0 255
4 1 0 22 23 0 255 0
4 2 1 23 24 0 255 0
4 3 2 24 25 0 255 0
4 4 3 25 26 0 255 0
4 5 4 26 27 0 255 0
4 6 5 27 28 0 255 0
4 7 6 28 29 0 255 0
4 8 7 29 30 0 255 0
4 9 8 30 31 0 255 0
4 10 9 31 32 0 255 0
4 11 10 32 33 0 255 0
4 12 11 33 34 0 255 0
4 13 12 34 35 0 255 0
4 14 13 35 36 0 255 0
4 15 14 36 37 128 0 128
4 16 15 37 38 128 0 128
4 18 17 39 40 0 255 0
4 19 18 40 41 0 255 0
4 20 19 41 42 0 255 0
4 21 20 42 43 0 255 0
