ply
format ascii 1.0
element vertex 36
property float x
property float y
property float z
element face 24
property list uchar int vertex_index
property uchar red
property uchar green
property uchar blue
end_header
0.32129257917404175 0.1875 1.0
0.22240974009037018 0.34375 1.0
0.2313484400510788 0.53125 1.0
0.3125 0.6911096572875977 1.0
0.4240376353263855 0.828125 1.0
0.5552330613136292 0.8125 1.0
0.484375 0.6579223871231079 1.0
0.375 0.5175477862358093 1.0
0.4133411943912506 0.46875 1.0
0.5456861257553101 0.59375 1.0
0.71875 0.6294872164726257 1.0
0.8045281171798706 0.46875 1.0
0.715030312538147 0.3125 1.0
0.5625 0.213228240609169 1.0
0.375 0.17557258903980255 1.0
0.578125 0.3774767518043518 1.0
0.6571176648139954 0.453125 1.0
0.578125 0.43441346287727356 1.0
0.32129257917404175 0.1875 0.0
0.22240974009037018 0.34375 0.0
0.2313484400510788 0.53125 0.0
0.3125 0.6911096572875977 0.0
0.4240376353263855 0.828125 0.0
0.5552330613136292 0.8125 0.0
0.484375 0.6579223871231079 0.0
0.375 0.5175477862358093 0.0
0.4133411943912506 0.46875 0.0
0.5456861257553101 0.59375 0.0
0.71875 0.6294872164726257 0.0
0.8045281171798706 0.46875 0.0
0.715030312538147 0.3125 0.0
0.5625 0.213228240609169 0.0
0.375 0.17557258903980255 0.0
0.578125 0.3774767518043518 0.0
0.6571176648139954 0.453125 0.0
0.578125 0.43441346287727356 0.0
5 9 17 16 11 10 255 0 0
4 11 16 15 12 255 0 0
15 12 15 17 9 8 7 6 5 4 3 2 1 0 14 13 255 0 0
5 27 28 29 34 35 0 0 255
4 29 30 33 34 0 0 255
15 30 31 32 18 19 20 21 22 23 24 25 26 27 35 33 0 0 255
4 0 1 19 18 0 255 0
4 1 2 20 19 0 255 0
4 2 3 21 20 0 255 0
4 3 4 22 21 0 255 0
4 4 5 23 22 0 255 0
4 5 6 24 23 0 255 0
4 6 7 25 24 0 255 0
4 7 8 26 25 0 255 0
4 8 9 27 26 0 255 0
4 9 10 28 27 0 255 0
4 10 11 29 28 0 255 0
4 11 12 30 29 0 255 0
4 12 13 31 30 0 255 0
4 13 14 32 31 128 0 128
4 14 0 18 32 128 0 128
4 15 16 34 33 0 255 0
4 16 17 35 34 0 255 0
4 17 15 33 35 0 255 0
