ply
format ascii 1.0
element vertex 40
property float x
property float y
property float z
element face 22
property list uchar int vertex_index
property uchar red
property uchar green
property uchar blue
end_header
0.484375 0.17009948194026947 1.0
0.71875 0.1780776083469391 1.0
0.8055977821350098 0.34375 1.0
0.671875 0.4602670967578888 1.0
0.46875 0.47990158200263977 1.0
0.28125 0.5060025453567505 1.0
0.375 0.5908267498016357 1.0
0.578125 0.6254180669784546 1.0
0.75 0.6739032864570618 1.0
0.7361099720001221 0.734375 1.0
0.53125 0.6890485882759094 1.0
0.3368973433971405 0.6875 1.0
0.2692762017250061 0.625 1.0
0.15625 0.6254069805145264 1.0
0.171875 0.44381818175315857 1.0
0.359375 0.4068831205368042 1.0
0.546875 0.4079633355140686 1.0
0.71875 0.33427131175994873 1.0
0.59375 0.22769467532634735 1.0
0.421875 0.18980450928211212 1.0
0.484375 0.17009948194026947 0.0
0.71875 0.1780776083469391 0.0
0.8055977821350098 0.34375 0.0
0.671875 0.4602670967578888 0.0
0.46875 0.47990158200263977 0.0
0.28125 0.5060025453567505 0.0
0.375 0.5908267498016357 0.0
0.578125 0.6254180669784546 0.0
0.75 0.6739032864570618 0.0
0.7361099720001221 0.734375 0.0
0.53125 0.6890485882759094 0.0
0.3368973433971405 0.6875 0.0
0.2692762017250061 0.625 0.0
0.15625 0.6254069805145264 0.0
0.171875 0.44381818175315857 0.0
0.359375 0.4068831205368042 0.0
0.546875 0.4079633355140686 0.0
0.71875 0.33427131175994873 0.0
0.59375 0.22769467532634735 0.0
0.421875 0.18980450928211212 0.0
20 0 1 2 3 4 5 6 7 8 9 10 11 12 13 14 15 16 17 18 19 255 0 0
20 20 39 38 37 36 35 34 33 32 31 30 29 28 27 26 25 24 23 22 21 0 0 255
4 1 0 20 21 128 0 128
4 2 1 21 22 0 255 0
4 3 2 22 23 0 255 0
4 4 3 23 24 0 255 0
4 5 4 24 25 0 255 0
4 6 5 25 26 0 255 0
4 7 6 26 27 0 255 0
4 8 7 27 28 0 255 0
4 9 8 28 29 0 255 0
4 10 9 29 30 0 255 0
4 11 10 30 31 0 255 0
4 12 11 31 32 0 255 0
4 13 12 32 33 0 255 0
4 14 13 33 34 0 255 0
4 15 14 34 35 0 255 0
4 16 15 35 36 0 255 0
4 17 16 36 37 0 255 0
4 18 17 37 38 0 255 0
4 19 18 38 39 0 255 0
4 0 19 39 20 128 0 128
