ply
format ascii 1.0
element vertex 40
property float x
property float y
property float z
element face 34
property list uchar int vertex_index
property uchar red
property uchar green
property uchar blue
end_header
0.421875 0.12630994617938995 1.0
0.27939197421073914 0.234375 1.0
0.32753702998161316 0.40625 1.0
0.29508015513420105 0.59375 1.0
0.40544915199279785 0.734375 1.0
0.546875 0.8352441787719727 1.0
0.6836761832237244 0.71875 1.0
0.703125 0.5575807094573975 1.0
0.7412652373313904 0.34375 1.0
0.625 0.2075825184583664 1.0
0.45836928486824036 0.125 1.0
0.4375 0.22529442608356476 1.0
0.546875 0.27714306116104126 1.0
0.6653478741645813 0.40625 1.0
0.562792956829071 0.484375 1.0
0.42250150442123413 0.375 1.0
0.421875 0.22417820990085602 1.0
0.46875 0.5780213475227356 1.0
0.5693408250808716 0.640625 1.0
0.484375 0.7046041488647461 1.0
0.421875 0.12630994617938995 0.0
0.27939197421073914 0.234375 0.0
0.32753702998161316 0.40625 0.0
0.29508015513420105 0.59375 0.0
0.40544915199279785 0.734375 0.0
0.546875 0.8352441787719727 0.0
0.6836761832237244 0.71875 0.0
0.703125 0.5575807094573975 0.0
0.7412652373313904 0.34375 0.0
0.625 0.2075825184583664 0.0
0.45836928486824036 0.125 0.0
0.4375 0.22529442608356476 0.0
0.546875 0.27714306116104126 0.0
0.6653478741645813 0.40625 0.0
0.562792956829071 0.484375 0.0
0.42250150442123413 0.375 0.0
0.421875 0.22417820990085602 0.0
0.46875 0.5780213475227356 0.0
0.5693408250808716 0.640625 0.0
0.484375 0.7046041488647461 0.0
4 8 13 12 9 255 0 0
5 0 16 15 2 1 255 0 0
3 0 11 16 255 0 0
7 2 15 14 17 19 4 3 255 0 0
5 9 12 11 0 10 255 0 0
7 6 18 17 14 13 8 7 255 0 0
5 4 19 18 6 5 255 0 0
4 28 29 32 33 0 0 255
5 20 21 22 35 36 0 0 255
3 20 36 31 0 0 255
7 22 23 24 39 37 34 35 0 0 255
5 29 30 20 31 32 0 0 255
7 26 27 28 33 34 37 38 0 0 255
5 24 25 26 38 39 0 0 255
4 0 1 21 20 0 255 0
4 1 2 22 21 0 255 0
4 2 3 23 22 0 255 0
4 3 4 24 23 0 255 0
4 4 5 25 24 0 255 0
4 5 6 26 25 0 255 0
4 6 7 27 26 0 255 0
4 7 8 28 27 0 255 0
4 8 9 29 28 0 255 0
4 9 10 30 29 128 0 128
4 10 0 20 30 128 0 128
4 11 12 32 31 0 255 0
4 12 13 33 32 0 255 0
4 13 14 34 33 0 255 0
4 14 15 35 34 0 255 0
4 15 16 36 35 0 255 0
4 16 11 31 36 0 255 0
4 17 18 38 37 0 255 0
4 18 19 39 38 0 255 0
4 19 17 37 39 0 255 0
