ply
format ascii 1.0
element vertex 30
property float x
property float y
property float z
element face 17
property list uchar int vertex_index
property uchar red
property uchar green
property uchar blue
end_header
0.3125 0.1353939324617386 1.0
0.5550599694252014 0.140625 1.0
0.7202388644218445 0.21875 1.0
0.703125 0.3834792375564575 1.0
0.546875 0.47470346093177795 1.0
0.4375 0.5644164681434631 1.0
0.53125 0.726725697517395 1.0
0.7284992337226868 0.78125 1.0
0.53125 0.8302885293960571 1.0
0.359375 0.7538227438926697 1.0
0.3318936228752136 0.5625 1.0
0.375 0.4103807210922241 1.0
0.5675165057182312 0.359375 1.0
0.59375 0.2496507316827774 1.0
0.359375 0.2219279706478119 1.0
0.3125 0.1353939324617386 0.0
0.5550599694252014 0.140625 0.0
0.7202388644218445 0.21875 0.0
0.703125 0.3834792375564575 0.0
0.546875 0.47470346093177795 0.0
0.4375 0.5644164681434631 0.0
0.53125 0.726725697517395 0.0
0.7284992337226868 0.78125 0.0
0.53125 0.8302885293960571 0.0
0.359375 0.7538227438926697 0.0
0.3318936228752136 0.5625 0.0
0.375 0.4103807210922241 0.0
0.5675165057182312 0.359375 0.0
0.59375 0.2496507316827774 0.0
0.359375 0.2219279706478119 0.0
15 0 1 2 3 4 5 6 7 8 9 10 11 12 13 14 255 0 0
15 15 29 28 27 26 25 24 23 22 21 20 19 18 17 16 0 0 255
4 1 0 15 16 128 0 128
4 2 1 16 17 0 255 0
4 3 2 17 18 0 255 0
4 4 3 18 19 0 255 0
4 5 4 19 20 0 255 0
4 6 5 20 21 0 255 0
4 7 6 21 22 0 255 0
4 8 7 22 23 0 255 0
4 9 8 23 24 0 255 0
4 10 9 24 25 0 255 0
4 11 10 25 26 0 255 0
4 12 11 26 27 0 255 0
4 13 12 27 28 0 255 0
4 14 13 28 29 0 255 0
4 0 14 29 15 128 0 128
