ply
format ascii 1.0
element vertex 44
property float x
property float y
property float z
element face 42
property list uchar int vertex_index
property uchar red
property uchar green
property uchar blue
end_header
0.40625 0.12602581083774567 1.0
0.27429673075675964 0.25 1.0
0.359375 0.41209471225738525 1.0
0.4752989709377289 0.546875 1.0
0.4082452952861786 0.734375 1.0
0.53125 0.8416440486907959 1.0
0.6889123320579529 0.75 1.0
0.732833743095398 0.59375 1.0
0.588137686252594 0.484375 1.0
0.640625 0.2974276542663574 1.0
0.53125 0.15826798975467682 1.0
0.40625 0.17849771678447723 1.0
0.4375 0.1771552711725235 1.0
0.5843968987464905 0.28125 1.0
0.5 0.4477153718471527 1.0
0.359375 0.3303582966327667 1.0
0.390625 0.18347719311714172 1.0
0.546875 0.5422372221946716 1.0
0.640625 0.6150171160697937 1.0
0.6265855431556702 0.75 1.0
0.46223658323287964 0.75 1.0
0.5213887691497803 0.5625 1.0
0.40625 0.12602581083774567 0.0
0.27429673075675964 0.25 0.0
0.359375 0.41209471225738525 0.0
0.4752989709377289 0.546875 0.0
0.4082452952861786 0.734375 0.0
0.53125 0.8416440486907959 0.0
0.6889123320579529 0.75 0.0
0.732833743095398 0.59375 0.0
0.588137686252594 0.484375 0.0
0.640625 0.2974276542663574 0.0
0.53125 0.15826798975467682 0.0
0.40625 0.17849771678447723 0.0
0.4375 0.1771552711725235 0.0
0.5843968987464905 0.28125 0.0
0.5 0.4477153718471527 0.0
0.359375 0.3303582966327667 0.0
0.390625 0.18347719311714172 0.0
0.546875 0.5422372221946716 0.0
0.640625 0.6150171160697937 0.0
0.6265855431556702 0.75 0.0
0.46223658323287964 0.75 0.0
0.5213887691497803 0.5625 0.0
7 8 17 21 3 2 15 14 255 0 0
4 8 14 13 9 255 0 0
5 0 16 15 2 1 255 0 0
3 0 11 16 255 0 0
4 7 18 17 8 255 0 0
5 4 20 19 6 5 255 0 0
3 0 12 11 255 0 0
4 6 19 18 7 255 0 0
4 3 21 20 4 255 0 0
5 9 13 12 0 10 255 0 0
7 30 36 37 24 25 43 39 0 0 255
4 30 31 35 36 0 0 255
5 22 23 24 37 38 0 0 255
3 22 38 33 0 0 255
4 29 30 39 40 0 0 255
5 26 27 28 41 42 0 0 255
3 22 33 34 0 0 255
4 28 29 40 41 0 0 255
4 25 26 42 43 0 0 255
5 31 32 22 34 35 0 0 255
4 0 1 23 22 128 0 128
4 1 2 24 23 0 255 0
4 2 3 25 24 0 255 0
4 3 4 26 25 0 255 0
4 4 5 27 26 0 255 0
4 5 6 28 27 0 255 0
4 6 7 29 28 0 255 0
4 7 8 30 29 0 255 0
4 8 9 31 30 0 255 0
4 9 10 32 31 0 255 0
4 10 0 22 32 128 0 128
4 11 12 34 33 0 255 0
4 12 13 35 34 0 255 0
4 13 14 36 35 0 255 0
4 14 15 37 36 0 255 0
4 15 16 38 37 0 255 0
4 16 11 33 38 0 255 0
4 17 18 40 39 0 255 0
4 18 19 41 40 0 255 0
4 19 20 42 41 0 255 0
4 20 21 43 42 0 255 0
4 21 17 39 43 0 255 0
