ply
format ascii 1.0
element vertex 32
property float x
property float y
property float z
element face 22
property list uchar int vertex_index
property uchar red
property uchar green
property uchar blue
end_header
0.603376030921936 0.109375 1.0
0.43043839931488037 0.1875 1.0
0.375 0.378695011138916 1.0
0.21700534224510193 0.46875 1.0
0.18504375219345093 0.65625 1.0
0.3281284272670746 0.75 1.0
0.53125 0.8037527799606323 1.0
0.682003378868103 0.703125 1.0
0.5882840752601624 0.546875 1.0
0.59375 0.4044172465801239 1.0
0.765625 0.3225148022174835 1.0
0.8332295417785645 0.203125 1.0
0.671875 0.12350299954414368 1.0
0.359375 0.4900025725364685 1.0
0.4749552011489868 0.625 1.0
0.328125 0.6076746582984924 1.0
0.603376030921936 0.109375 0.0
0.43043839931488037 0.1875 0.0
0.375 0.378695011138916 0.0
0.21700534224510193 0.46875 0.0
0.18504375219345093 0.65625 0.0
0.3281284272670746 0.75 0.0
0.53125 0.8037527799606323 0.0
0.682003378868103 0.703125 0.0
0.5882840752601624 0.546875 0.0
0.59375 0.4044172465801239 0.0
0.765625 0.3225148022174835 0.0
0.8332295417785645 0.203125 0.0
0.671875 0.12350299954414368 0.0
0.359375 0.4900025725364685 0.0
0.4749552011489868 0.625 0.0
0.328125 0.6076746582984924 0.0
6 5 15 14 8 7 6 255 0 0
6 2 13 15 5 4 3 255 0 0
10 8 14 13 2 1 0 12 11 10 9 255 0 0
6 21 22 23 24 30 31 0 0 255
6 18 19 20 21 31 29 0 0 255
10 24 25 26 27 28 16 17 18 29 30 0 0 255
4 0 1 17 16 128 0 128
4 1 2 18 17 0 255 0
4 2 3 19 18 0 255 0
4 3 4 20 19 0 255 0
4 4 5 21 20 0 255 0
4 5 6 22 21 0 255 0
4 6 7 23 22 0 255 0
4 7 8 24 23 0 255 0
4 8 9 25 24 0 255 0
4 9 10 26 25 0 255 0
4 10 11 27 26 0 255 0
4 11 12 28 27 0 255 0
4 12 0 16 28 128 0 128
4 13 14 30 29 0 255 0
4 14 15 31 30 0 255 0
4 15 13 29 31 0 255 0
