ply
format ascii 1.0
element vertex 40
property float x
property float y
property float z
element face 36
property list uchar int vertex_index
property uchar red
property uchar green
property uchar blue
end_header
0.42344287037849426 0.125 1.0
0.2730844020843506 0.21875 1.0
0.1814637929201126 0.375 1.0
0.22097478806972504 0.578125 1.0
0.31481054425239563 0.734375 1.0
0.46875 0.8393808007240295 1.0
0.6723511815071106 0.796875 1.0
0.7711150646209717 0.640625 1.0
0.8349716663360596 0.453125 1.0
0.7863413095474243 0.28125 1.0
0.671875 0.14966022968292236 1.0
0.484375 0.12470648437738419 1.0
0.4375 0.2473992109298706 1.0
0.5687651634216309 0.265625 1.0
0.6875 0.3941427767276764 1.0
0.703125 0.6110280156135559 1.0
0.5625 0.6940481066703796 1.0
0.40782949328422546 0.65625 1.0
0.3125 0.5123936533927917 1.0
0.328125 0.32546746730804443 1.0
0.42344287037849426 0.125 0.0
0.2730844020843506 0.21875 0.0
0.1814637929201126 0.375 0.0
0.22097478806972504 0.578125 0.0
0.31481054425239563 0.734375 0.0
0.46875 0.8393808007240295 0.0
0.6723511815071106 0.796875 0.0
0.7711150646209717 0.640625 0.0
0.8349716663360596 0.453125 0.0
0.7863413095474243 0.28125 0.0
0.671875 0.14966022968292236 0.0
0.484375 0.12470648437738419 0.0
0.4375 0.2473992109298706 0.0
0.5687651634216309 0.265625 0.0
0.6875 0.3941427767276764 0.0
0.703125 0.6110280156135559 0.0
0.5625 0.6940481066703796 0.0
0.40782949328422546 0.65625 0.0
0.3125 0.5123936533927917 0.0
0.328125 0.32546746730804443 0.0
5 7 15 14 9 8 255 0 0
5 4 17 16 6 5 255 0 0
5 1 19 18 3 2 255 0 0
4 0 12 19 1 255 0 0
5 10 13 12 0 11 255 0 0
4 6 16 15 7 255 0 0
4 3 18 17 4 255 0 0
4 9 14 13 10 255 0 0
5 27 28 29 34 35 0 0 255
5 24 25 26 36 37 0 0 255
5 21 22 23 38 39 0 0 255
4 20 21 39 32 0 0 255
5 30 31 20 32 33 0 0 255
4 26 27 35 36 0 0 255
4 23 24 37 38 0 0 255
4 29 30 33 34 0 0 255
4 0 1 21 20 0 255 0
4 1 2 22 21 0 255 0
4 2 3 23 22 0 255 0
4 3 4 24 23 0 255 0
4 4 5 25 24 0 255 0
4 5 6 26 25 0 255 0
4 6 7 27 26 0 255 0
4 7 8 28 27 0 255 0
4 8 9 29 28 0 255 0
4 9 10 30 29 0 255 0
4 10 11 31 30 128 0 128
4 11 0 20 31 128 0 128
4 12 13 33 32 0 255 0
4 13 14 34 33 0 255 0
4 14 15 35 34 0 255 0
4 15 16 36 35 0 255 0
4 16 17 37 36 0 255 0
4 17 18 38 37 0 255 0
4 18 19 39 38 0 255 0
4 19 12 32 39 0 255 0
