ply
format ascii 1.0
element vertex 38
property float x
property float y
property float z
element face 31
property list uchar int vertex_index
property uchar red
property uchar green
property uchar blue
end_header
0.34375 0.09377409517765045 1.0
0.19760701060295105 0.203125 1.0
0.25099149346351624 0.390625 1.0
0.29555556178092957 0.578125 1.0
0.40020132064819336 0.71875 1.0
0.5625 0.7990531921386719 1.0
0.7807943820953369 0.765625 1.0
0.7694644927978516 0.609375 1.0
0.7085130214691162 0.484375 1.0
0.6382042169570923 0.375 1.0
0.65625 0.22894534468650818 1.0
0.5 0.1275942027568817 1.0
0.375 0.21234315633773804 1.0
0.453125 0.25352418422698975 1.0
0.41550058126449585 0.34375 1.0
0.359375 0.2175874263048172 1.0
0.5 0.5467971563339233 1.0
0.609375 0.600155770778656 1.0
0.5482590794563293 0.640625 1.0
0.34375 0.09377409517765045 0.0
0.19760701060295105 0.203125 0.0
0.25099149346351624 0.390625 0.0
0.29555556178092957 0.578125 0.0
0.40020132064819336 0.71875 0.0
0.5625 0.7990531921386719 0.0
0.7807943820953369 0.765625 0.0
0.7694644927978516 0.609375 0.0
0.7085130214691162 0.484375 0.0
0.6382042169570923 0.375 0.0
0.65625 0.22894534468650818 0.0
0.5 0.1275942027568817 0.0
0.375 0.21234315633773804 0.0
0.453125 0.25352418422698975 0.0
0.41550058126449585 0.34375 0.0
0.359375 0.2175874263048172 0.0
0.5 0.5467971563339233 0.0
0.609375 0.600155770778656 0.0
0.5482590794563293 0.640625 0.0
6 5 18 17 8 7 6 255 0 0
4 4 16 18 5 255 0 0
11 8 17 16 4 3 2 14 13 11 10 9 255 0 0
5 0 15 14 2 1 255 0 0
3 0 12 15 255 0 0
4 11 13 12 0 255 0 0
6 24 25 26 27 36 37 0 0 255
4 23 24 37 35 0 0 255
11 27 28 29 30 32 33 21 22 23 35 36 0 0 255
5 19 20 21 33 34 0 0 255
3 19 34 31 0 0 255
4 30 19 31 32 0 0 255
4 0 1 20 19 128 0 128
4 1 2 21 20 0 255 0
4 2 3 22 21 0 255 0
4 3 4 23 22 0 255 0
4 4 5 24 23 0 255 0
4 5 6 25 24 0 255 0
4 6 7 26 25 0 255 0
4 7 8 27 26 0 255 0
4 8 9 28 27 0 255 0
4 9 10 29 28 0 255 0
4 10 11 30 29 0 255 0
4 11 0 19 30 128 0 128
4 12 13 32 31 0 255 0
4 13 14 33 32 0 255 0
4 14 15 34 33 0 255 0
4 15 12 31 34 0 255 0
4 16 17 36 35 0 255 0
4 17 18 37 36 0 255 0
4 18 16 35 37 0 255 0
