ply
format ascii 1.0
element vertex 12
property float x
property float y
property float z
element face 8
property list uchar int vertex_index
property uchar red
property uchar green
property uchar blue
end_header
0.5089852809906006 0.0 1.0
0.6470707654953003 0.453125 1.0
0.484375 0.6864222884178162 1.0
0.3125 0.5235976576805115 1.0
0.5865969061851501 0.53125 1.0
0.4670872092247009 0.1875 1.0
0.5089852809906006 0.0 0.0
0.6470707654953003 0.453125 0.0
0.484375 0.6864222884178162 0.0
0.3125 0.5235976576805115 0.0
0.5865969061851501 0.53125 0.0
0.4670872092247009 0.1875 0.0
6 0 1 2 3 4 5 255 0 0
6 6 11 10 9 8 7 0 0 255
4 1 0 6 7 128 0 128
4 2 1 7 8 0 255 0
4 3 2 8 9 0 255 0
4 4 3 9 10 0 255 0
4 5 4 10 11 0 255 0
4 0 5 11 6 128 0 128
