ply
format ascii 1.0
element vertex 50
property float x
property float y
property float z
element face 29
property list uchar int vertex_index
property uchar red
property uchar green
property uchar blue
end_header
0.16391409933567047 0.203125 1.0
0.1856723427772522 0.375 1.0
0.34249481558799744 0.46875 1.0
0.5265405774116516 0.5 1.0
0.651379406452179 0.625 1.0
0.71875 0.7876564860343933 1.0
0.53125 0.7258671522140503 1.0
0.3950110673904419 0.71875 1.0
0.53125 0.8012669086456299 1.0
0.71875 0.8594476580619812 1.0
0.7907117009162903 0.71875 1.0
0.6875 0.5661150217056274 1.0
0.5736135840415955 0.4375 1.0
0.671875 0.288029283285141 1.0
0.8352163434028625 0.296875 1.0
0.6875 0.19923178851604462 1.0
0.5581477284431458 0.3125 1.0
0.421875 0.2975901961326599 1.0
0.265625 0.20584547519683838 1.0
0.16391409933567047 0.203125 1.0
0.21875 0.26099148392677307 1.0
0.359375 0.331005722284317 1.0
0.34143534302711487 0.40625 1.0
0.203125 0.28652819991111755 1.0
0.21875 0.26099148392677307 1.0
0.16391409933567047 0.203125 0.0
0.1856723427772522 0.375 0.0
0.34249481558799744 0.46875 0.0
0.5265405774116516 0.5 0.0
0.651379406452179 0.625 0.0
0.71875 0.7876564860343933 0.0
0.53125 0.7258671522140503 0.0
0.3950110673904419 0.71875 0.0
0.53125 0.8012669086456299 0.0
0.71875 0.8594476580619812 0.0
0.7907117009162903 0.71875 0.0
0.6875 0.5661150217056274 0.0
0.5736135840415955 0.4375 0.0
0.671875 0.288029283285141 0.0
0.8352163434028625 0.296875 0.0
0.6875 0.19923178851604462 0.0
0.5581477284431458 0.3125 0.0
0.421875 0.2975901961326599 0.0
0.265625 0.20584547519683838 0.0
0.16391409933567047 0.203125 0.0
0.21875 0.26099148392677307 0.0
0.359375 0.331005722284317 0.0
0.34143534302711487 0.40625 0.0
0.203125 0.28652819991111755 0.0
0.21875 0.26099148392677307 0.0
4 1 23 22 2 255 0 0
18 2 22 21 17 16 15 14 13 12 11 10 9 8 7 6 5 4 3 255 0 0
4 17 21 20 18 255 0 0
4 26 27 47 48 0 0 255
18 27 28 29 30 31 32 33 34 35 36 37 38 39 40 41 42 46 47 0 0 255
4 42 43 45 46 0 0 255
4 0 1 26 25 0 255 0
4 1 2 27 26 0 255 0
4 2 3 28 27 0 255 0
4 3 4 29 28 0 255 0
4 4 5 30 29 0 255 0
4 5 6 31 30 0 255 0
4 6 7 32 31 0 255 0
4 7 8 33 32 0 255 0
4 8 9 34 33 0 255 0
4 9 10 35 34 0 255 0
4 10 11 36 35 0 255 0
4 11 12 37 36 0 255 0
4 12 13 38 37 0 255 0
4 13 14 39 38 0 255 0
4 14 15 40 39 128 0 128
4 15 16 41 40 128 0 128
4 16 17 42 41 0 255 0
4 17 18 43 42 0 255 0
4 18 19 44 43 0 255 0
4 20 21 46 45 0 255 0
4 21 22 47 46 0 255 0
4 22 23 48 47 0 255 0
4 23 24 49 48 0 255 0
