ply
format ascii 1.0
element vertex 40
property float x
property float y
property float z
element face 34
property list uchar int vertex_index
property uchar red
property uchar green
property uchar blue
end_header
0.375 0.09980776906013489 1.0
0.2184205949306488 0.1875 1.0
0.265625 0.3530203104019165 1.0
0.3099019527435303 0.5 1.0
0.265625 0.6979649662971497 1.0
0.43127432465553284 0.78125 1.0
0.625 0.7703753709793091 1.0
0.78125 0.6812281608581543 1.0
0.78125 0.5053712129592896 1.0
0.65625 0.39480599761009216 1.0
0.6633046269416809 0.21875 1.0
0.515625 0.11251575499773026 1.0
0.421875 0.2024066150188446 1.0
0.4375 0.20770232379436493 1.0
0.5 0.3254157602787018 1.0
0.34309229254722595 0.265625 1.0
0.484375 0.5301085114479065 1.0
0.546875 0.5252094268798828 1.0
0.6342816948890686 0.625 1.0
0.44526156783103943 0.609375 1.0
0.375 0.09980776906013489 0.0
0.2184205949306488 0.1875 0.0
0.265625 0.3530203104019165 0.0
0.3099019527435303 0.5 0.0
0.265625 0.6979649662971497 0.0
0.43127432465553284 0.78125 0.0
0.625 0.7703753709793091 0.0
0.78125 0.6812281608581543 0.0
0.78125 0.5053712129592896 0.0
0.65625 0.39480599761009216 0.0
0.6633046269416809 0.21875 0.0
0.515625 0.11251575499773026 0.0
0.421875 0.2024066150188446 0.0
0.4375 0.20770232379436493 0.0
0.5 0.3254157602787018 0.0
0.34309229254722595 0.265625 0.0
0.484375 0.5301085114479065 0.0
0.546875 0.5252094268798828 0.0
0.6342816948890686 0.625 0.0
0.44526156783103943 0.609375 0.0
5 0 12 15 2 1 255 0 0
5 3 16 19 5 4 255 0 0
7 2 15 14 9 17 16 3 255 0 0
6 6 18 17 9 8 7 255 0 0
4 5 19 18 6 255 0 0
5 9 14 13 11 10 255 0 0
4 11 13 12 0 255 0 0
5 20 21 22 35 32 0 0 255
5 23 24 25 39 36 0 0 255
7 22 23 36 37 29 34 35 0 0 255
6 26 27 28 29 37 38 0 0 255
4 25 26 38 39 0 0 255
5 29 30 31 33 34 0 0 255
4 31 20 32 33 0 0 255
4 0 1 21 20 128 0 128
4 1 2 22 21 0 255 0
4 2 3 23 22 0 255 0
4 3 4 24 23 0 255 0
4 4 5 25 24 0 255 0
4 5 6 26 25 0 255 0
4 6 7 27 26 0 255 0
4 7 8 28 27 0 255 0
4 8 9 29 28 0 255 0
4 9 10 30 29 0 255 0
4 10 11 31 30 0 255 0
4 11 0 20 31 128 0 128
4 12 13 33 32 0 255 0
4 13 14 34 33 0 255 0
4 14 15 35 34 0 255 0
4 15 12 32 35 0 255 0
4 16 17 37 36 0 255 0
4 17 18 38 37 0 255 0
4 18 19 39 38 0 255 0
4 19 16 36 39 0 255 0
