ply
format ascii 1.0
element vertex 48
property float x
property float y
property float z
element face 33
property list uchar int vertex_index
property uchar red
property uchar green
property uchar blue
end_header
0.171875 0.11389023065567017 1.0
0.109375 0.28422772884368896 1.0
0.25 0.3721105754375458 1.0
0.46875 0.3336724638938904 1.0
0.625 0.40164002776145935 1.0
0.703125 0.5780737996101379 1.0
0.65625 0.73011714220047 1.0
0.5175209045410156 0.609375 1.0
0.34375 0.5646157264709473 1.0
0.40625 0.7184274196624756 1.0
0.5625 0.7980027198791504 1.0
0.7619063854217529 0.75 1.0
0.796002209186554 0.59375 1.0
0.7302248477935791 0.4375 1.0
0.609375 0.29890722036361694 1.0
0.625 0.1897738128900528 1.0
0.46875 0.18982744216918945 1.0
0.296875 0.11547407507896423 1.0
0.234375 0.16243666410446167 1.0
0.28125 0.17452749609947205 1.0
0.45047661662101746 0.265625 1.0
0.28012290596961975 0.3125 1.0
0.171875 0.19631445407867432 1.0
0.421875 0.6344996094703674 1.0
0.171875 0.11389023065567017 0.0
0.109375 0.28422772884368896 0.0
0.25 0.3721105754375458 0.0
0.46875 0.3336724638938904 0.0
0.625 0.40164002776145935 0.0
0.703125 0.5780737996101379 0.0
0.65625 0.73011714220047 0.0
0.5175209045410156 0.609375 0.0
0.34375 0.5646157264709473 0.0
0.40625 0.7184274196624756 0.0
0.5625 0.7980027198791504 0.0
0.7619063854217529 0.75 0.0
0.796002209186554 0.59375 0.0
0.7302248477935791 0.4375 0.0
0.609375 0.29890722036361694 0.0
0.625 0.1897738128900528 0.0
0.46875 0.18982744216918945 0.0
0.296875 0.11547407507896423 0.0
0.234375 0.16243666410446167 0.0
0.28125 0.17452749609947205 0.0
0.45047661662101746 0.265625 0.0
0.28012290596961975 0.3125 0.0
0.171875 0.19631445407867432 0.0
0.421875 0.6344996094703674 0.0
4 2 21 20 3 255 0 0
4 17 18 22 0 255 0 0
3 17 19 18 255 0 0
5 0 22 21 2 1 255 0 0
17 3 20 19 17 16 15 14 13 12 11 10 9 8 7 6 5 4 255 0 0
4 26 27 44 45 0 0 255
4 41 24 46 42 0 0 255
3 41 42 43 0 0 255
5 24 25 26 45 46 0 0 255
17 27 28 29 30 31 32 33 34 35 36 37 38 39 40 41 43 44 0 0 255
4 0 1 25 24 128 0 128
4 1 2 26 25 0 255 0
4 2 3 27 26 0 255 0
4 3 4 28 27 0 255 0
4 4 5 29 28 0 255 0
4 5 6 30 29 0 255 0
4 6 7 31 30 0 255 0
4 7 8 32 31 0 255 0
4 8 9 33 32 0 255 0
4 9 10 34 33 0 255 0
4 10 11 35 34 0 255 0
4 11 12 36 35 0 255 0
4 12 13 37 36 0 255 0
4 13 14 38 37 0 255 0
4 14 15 39 38 0 255 0
4 15 16 40 39 0 255 0
4 16 17 41 40 0 255 0
4 17 0 24 41 128 0 128
4 18 19 43 42 0 255 0
4 19 20 44 43 0 255 0
4 20 21 45 44 0 255 0
4 21 22 46 45 0 255 0
4 22 18 42 46 0 255 0
