ply
format ascii 1.0
element vertex 30
property float x
property float y
property float z
element face 17
property list uchar int vertex_index
property uchar red
property uchar green
property uchar blue
end_header
0.4099422097206116 0.171875 1.0
0.3039608895778656 0.3125 1.0
0.390625 0.4735490679740906 1.0
0.5752806663513184 0.546875 1.0
0.5307461619377136 0.75 1.0
0.390625 0.8524190783500671 1.0
0.5625 0.8036571741104126 1.0
0.6571256518363953 0.65625 1.0
0.6633517146110535 0.46875 1.0
0.796875 0.34680843353271484 1.0
0.6844616532325745 0.375 1.0
0.5601349472999573 0.296875 1.0
0.4375 0.1692536175251007 1.0
0.42372453212738037 0.296875 1.0
0.484375 0.4065759778022766 1.0
0.4099422097206116 0.171875 0.0
0.3039608895778656 0.3125 0.0
0.390625 0.4735490679740906 0.0
0.5752806663513184 0.546875 0.0
0.5307461619377136 0.75 0.0
0.390625 0.8524190783500671 0.0
0.5625 0.8036571741104126 0.0
0.6571256518363953 0.65625 0.0
0.6633517146110535 0.46875 0.0
0.796875 0.34680843353271484 0.0
0.6844616532325745 0.375 0.0
0.5601349472999573 0.296875 0.0
0.4375 0.1692536175251007 0.0
0.42372453212738037 0.296875 0.0
0.484375 0.4065759778022766 0.0
4 1 13 14 2 255 0 0
15 2 14 13 1 0 12 11 10 9 8 7 6 5 4 3 255 0 0
4 16 17 29 28 0 0 255
15 17 18 19 20 21 22 23 24 25 26 27 15 16 28 29 0 0 255
4 0 1 16 15 0 255 0
4 1 2 17 16 0 255 0
4 2 3 18 17 0 255 0
4 3 4 19 18 0 255 0
4 4 5 20 19 0 255 0
4 5 6 21 20 0 255 0
4 6 7 22 21 0 255 0
4 7 8 23 22 0 255 0
4 8 9 24 23 0 255 0
4 9 10 25 24 0 255 0
4 10 11 26 25 0 255 0
4 11 12 27 26 128 0 128
4 12 0 15 27 128 0 128
