ply
format ascii 1.0
element vertex 42
property float x
property float y
property float z
element face 29
property list uchar int vertex_index
property uchar red
property uchar green
property uchar blue
end_header
0.34067708253860474 0.171875 1.0
0.23887842893600464 0.328125 1.0
0.375 0.45186707377433777 1.0
0.265625 0.5654342174530029 1.0
0.34375 0.6997939348220825 1.0
0.48253899812698364 0.8125 1.0
0.59375 0.8349503874778748 1.0
0.4643857479095459 0.71875 1.0
0.33843177556991577 0.59375 1.0
0.5 0.5064982771873474 1.0
0.6937739849090576 0.5625 1.0
0.875 0.6276546716690063 1.0
0.8767033815383911 0.578125 1.0
0.7010250687599182 0.515625 1.0
0.6151180267333984 0.40625 1.0
0.625 0.24392403662204742 1.0
0.453125 0.16104547679424286 1.0
0.375 0.21764035522937775 1.0
0.546875 0.2611123323440552 1.0
0.484375 0.4251849949359894 1.0
0.3327566981315613 0.328125 1.0
0.34067708253860474 0.171875 0.0
0.23887842893600464 0.328125 0.0
0.375 0.45186707377433777 0.0
0.265625 0.5654342174530029 0.0
0.34375 0.6997939348220825 0.0
0.48253899812698364 0.8125 0.0
0.59375 0.8349503874778748 0.0
0.4643857479095459 0.71875 0.0
0.33843177556991577 0.59375 0.0
0.5 0.5064982771873474 0.0
0.6937739849090576 0.5625 0.0
0.875 0.6276546716690063 0.0
0.8767033815383911 0.578125 0.0
0.7010250687599182 0.515625 0.0
0.6151180267333984 0.40625 0.0
0.625 0.24392403662204742 0.0
0.453125 0.16104547679424286 0.0
0.375 0.21764035522937775 0.0
0.546875 0.2611123323440552 0.0
0.484375 0.4251849949359894 0.0
0.3327566981315613 0.328125 0.0
5 15 18 17 0 16 255 0 0
11 1 20 19 9 8 7 6 5 4 3 2 255 0 0
4 0 17 20 1 255 0 0
9 9 19 18 15 14 13 12 11 10 255 0 0
5 36 37 21 38 39 0 0 255
11 22 23 24 25 26 27 28 29 30 40 41 0 0 255
4 21 22 41 38 0 0 255
9 30 31 32 33 34 35 36 39 40 0 0 255
4 0 1 22 21 0 255 0
4 1 2 23 22 0 255 0
4 2 3 24 23 0 255 0
4 3 4 25 24 0 255 0
4 4 5 26 25 0 255 0
4 5 6 27 26 0 255 0
4 6 7 28 27 0 255 0
4 7 8 29 28 0 255 0
4 8 9 30 29 0 255 0
4 9 10 31 30 0 255 0
4 10 11 32 31 0 255 0
4 11 12 33 32 0 255 0
4 12 13 34 33 0 255 0
4 13 14 35 34 0 255 0
4 14 15 36 35 0 255 0
4 15 16 37 36 128 0 128
4 16 0 21 37 128 0 128
4 17 18 39 38 0 255 0
4 18 19 40 39 0 255 0
4 19 20 41 40 0 255 0
4 20 17 38 41 0 255 0
