ply
format ascii 1.0
element vertex 44
property float x
property float y
property float z
element face 34
property list uchar int vertex_index
property uchar red
property uchar green
property uchar blue
end_header
0.3875478506088257 0.203125 1.0
0.24165530502796173 0.3125 1.0
0.169563427567482 0.484375 1.0
0.25 0.6536309123039246 1.0
0.3291299343109131 0.8125 1.0
0.45220962166786194 0.875 1.0
0.3531290888786316 0.71875 1.0
0.296875 0.5292056202888489 1.0
0.29857030510902405 0.390625 1.0
0.38379979133605957 0.390625 1.0
0.484375 0.531959056854248 1.0
0.65625 0.6218987703323364 1.0
0.84375 0.5518672466278076 1.0
0.8718854784965515 0.390625 1.0
0.75 0.25047025084495544 1.0
0.5675283670425415 0.203125 1.0
0.6050444841384888 0.25 1.0
0.671875 0.27493903040885925 1.0
0.7680445313453674 0.421875 1.0
0.65625 0.5482174158096313 1.0
0.5202495455741882 0.4375 1.0
0.4878467619419098 0.28125 1.0
0.3875478506088257 0.203125 0.0
0.24165530502796173 0.3125 0.0
0.169563427567482 0.484375 0.0
0.25 0.6536309123039246 0.0
0.3291299343109131 0.8125 0.0
0.45220962166786194 0.875 0.0
0.3531290888786316 0.71875 0.0
0.296875 0.5292056202888489 0.0
0.29857030510902405 0.390625 0.0
0.38379979133605957 0.390625 0.0
0.484375 0.531959056854248 0.0
0.65625 0.6218987703323364 0.0
0.84375 0.5518672466278076 0.0
0.8718854784965515 0.390625 0.0
0.75 0.25047025084495544 0.0
0.5675283670425415 0.203125 0.0
0.6050444841384888 0.25 0.0
0.671875 0.27493903040885925 0.0
0.7680445313453674 0.421875 0.0
0.65625 0.5482174158096313 0.0
0.5202495455741882 0.4375 0.0
0.4878467619419098 0.28125 0.0
5 11 19 18 13 12 255 0 0
4 10 20 19 11 255 0 0
14 15 21 20 10 9 8 7 6 5 4 3 2 1 0 255 0 0
4 13 18 17 14 255 0 0
3 15 16 21 255 0 0
4 14 17 16 15 255 0 0
5 33 34 35 40 41 0 0 255
4 32 33 41 42 0 0 255
14 37 22 23 24 25 26 27 28 29 30 31 32 42 43 0 0 255
4 35 36 39 40 0 0 255
3 37 43 38 0 0 255
4 36 37 38 39 0 0 255
4 0 1 23 22 0 255 0
4 1 2 24 23 0 255 0
4 2 3 25 24 0 255 0
4 3 4 26 25 0 255 0
4 4 5 27 26 0 255 0
4 5 6 28 27 0 255 0
4 6 7 29 28 0 255 0
4 7 8 30 29 0 255 0
4 8 9 31 30 0 255 0
4 9 10 32 31 0 255 0
4 10 11 33 32 0 255 0
4 11 12 34 33 0 255 0
4 12 13 35 34 0 255 0
4 13 14 36 35 0 255 0
4 14 15 37 36 0 255 0
4 15 0 22 37 128 0 128
4 16 17 39 38 0 255 0
4 17 18 40 39 0 255 0
4 18 19 41 40 0 255 0
4 19 20 42 41 0 255 0
4 20 21 43 42 0 255 0
4 21 16 38 43 0 255 0
