ply
format ascii 1.0
element vertex 42
property float x
property float y
property float z
element face 27
property list uchar int vertex_index
property uchar red
property uchar green
property uchar blue
end_header
0.26380646228790283 0.109375 1.0
0.2328108251094818 0.328125 1.0
0.265625 0.5025167465209961 1.0
0.36485353112220764 0.65625 1.0
0.53125 0.7387708425521851 1.0
0.7400148510932922 0.78125 1.0
0.9438336491584778 0.78125 1.0
0.7690722942352295 0.703125 1.0
0.5900659561157227 0.640625 1.0
0.5625 0.5534365177154541 1.0
0.665938675403595 0.40625 1.0
0.6300402283668518 0.25 1.0
0.515625 0.11782936751842499 1.0
0.28125 0.10378868132829666 1.0
0.26380646228790283 0.109375 1.0
0.34375 0.1666959673166275 1.0
0.46875 0.22710642218589783 1.0
0.5517319440841675 0.390625 1.0
0.390625 0.4100956320762634 1.0
0.2771375775337219 0.28125 1.0
0.34375 0.1666959673166275 1.0
0.26380646228790283 0.109375 0.0
0.2328108251094818 0.328125 0.0
0.265625 0.5025167465209961 0.0
0.36485353112220764 0.65625 0.0
0.53125 0.7387708425521851 0.0
0.7400148510932922 0.78125 0.0
0.9438336491584778 0.78125 0.0
0.7690722942352295 0.703125 0.0
0.5900659561157227 0.640625 0.0
0.5625 0.5534365177154541 0.0
0.665938675403595 0.40625 0.0
0.6300402283668518 0.25 0.0
0.515625 0.11782936751842499 0.0
0.28125 0.10378868132829666 0.0
0.26380646228790283 0.109375 0.0
0.34375 0.1666959673166275 0.0
0.46875 0.22710642218589783 0.0
0.5517319440841675 0.390625 0.0
0.390625 0.4100956320762634 0.0
0.2771375775337219 0.28125 0.0
0.34375 0.1666959673166275 0.0
4 1 19 18 2 255 0 0
5 10 17 16 12 11 255 0 0
4 12 16 15 13 255 0 0
11 2 18 17 10 9 8 7 6 5 4 3 255 0 0
4 22 23 39 40 0 0 255
5 31 32 33 37 38 0 0 255
4 33 34 36 37 0 0 255
11 23 24 25 26 27 28 29 30 31 38 39 0 0 255
4 0 1 22 21 0 255 0
4 1 2 23 22 0 255 0
4 2 3 24 23 0 255 0
4 3 4 25 24 0 255 0
4 4 5 26 25 0 255 0
4 5 6 27 26 0 255 0
4 6 7 28 27 0 255 0
4 7 8 29 28 0 255 0
4 8 9 30 29 0 255 0
4 9 10 31 30 0 255 0
4 10 11 32 31 0 255 0
4 11 12 33 32 0 255 0
4 12 13 34 33 128 0 128
4 13 14 35 34 128 0 128
4 15 16 37 36 0 255 0
4 16 17 38 37 0 255 0
4 17 18 39 38 0 255 0
4 18 19 40 39 0 255 0
4 19 20 41 40 0 255 0
