ply
format ascii 1.0
element vertex 40
property float x
property float y
property float z
element face 32
property list uchar int vertex_index
property uchar red
property uchar green
property uchar blue
end_header
0.3145640194416046 0.171875 1.0
0.17872902750968933 0.28125 1.0
0.18146459758281708 0.5 1.0
0.30283141136169434 0.578125 1.0
0.296875 0.4071817398071289 1.0
0.359375 0.40231868624687195 1.0
0.36497849225997925 0.59375 1.0
0.453125 0.7614611387252808 1.0
0.65625 0.801267683506012 1.0
0.796875 0.7015942335128784 1.0
0.875514566898346 0.53125 1.0
0.8352242112159729 0.359375 1.0
0.7022160291671753 0.25 1.0
0.5244888663291931 0.171875 1.0
0.578125 0.32898426055908203 1.0
0.65625 0.347148060798645 1.0
0.765625 0.4949890673160553 1.0
0.6875 0.6480880379676819 1.0
0.515625 0.660245418548584 1.0
0.46875 0.4768551290035248 1.0
0.3145640194416046 0.171875 0.0
0.17872902750968933 0.28125 0.0
0.18146459758281708 0.5 0.0
0.30283141136169434 0.578125 0.0
0.296875 0.4071817398071289 0.0
0.359375 0.40231868624687195 0.0
0.36497849225997925 0.59375 0.0
0.453125 0.7614611387252808 0.0
0.65625 0.801267683506012 0.0
0.796875 0.7015942335128784 0.0
0.875514566898346 0.53125 0.0
0.8352242112159729 0.359375 0.0
0.7022160291671753 0.25 0.0
0.5244888663291931 0.171875 0.0
0.578125 0.32898426055908203 0.0
0.65625 0.347148060798645 0.0
0.765625 0.4949890673160553 0.0
0.6875 0.6480880379676819 0.0
0.515625 0.660245418548584 0.0
0.46875 0.4768551290035248 0.0
5 5 19 18 7 6 255 0 0
5 10 16 15 12 11 255 0 0
5 7 18 17 9 8 255 0 0
3 12 15 14 255 0 0
4 9 17 16 10 255 0 0
10 12 14 19 5 4 3 2 1 0 13 255 0 0
5 25 26 27 38 39 0 0 255
5 30 31 32 35 36 0 0 255
5 27 28 29 37 38 0 0 255
3 32 34 35 0 0 255
4 29 30 36 37 0 0 255
10 32 33 20 21 22 23 24 25 39 34 0 0 255
4 0 1 21 20 0 255 0
4 1 2 22 21 0 255 0
4 2 3 23 22 0 255 0
4 3 4 24 23 0 255 0
4 4 5 25 24 0 255 0
4 5 6 26 25 0 255 0
4 6 7 27 26 0 255 0
4 7 8 28 27 0 255 0
4 8 9 29 28 0 255 0
4 9 10 30 29 0 255 0
4 10 11 31 30 0 255 0
4 11 12 32 31 0 255 0
4 12 13 33 32 0 255 0
4 13 0 20 33 128 0 128
4 14 15 35 34 0 255 0
4 15 16 36 35 0 255 0
4 16 17 37 36 0 255 0
4 17 18 38 37 0 255 0
4 18 19 39 38 0 255 0
4 19 14 34 39 0 255 0
