ply
format ascii 1.0
element vertex 32
property float x
property float y
property float z
element face 18
property list uchar int vertex_index
property uchar red
property uchar green
property uchar blue
end_header
0.515625 0.09177153557538986 1.0
0.6963284611701965 0.15625 1.0
0.760257363319397 0.34375 1.0
0.640625 0.47601214051246643 1.0
0.5035502314567566 0.5625 1.0
0.53125 0.7399749755859375 1.0
0.35350480675697327 0.796875 1.0
0.2027900516986847 0.703125 1.0
0.375 0.6688833236694336 1.0
0.3908372223377228 0.5625 1.0
0.28125 0.4528251588344574 1.0
0.484375 0.4045051336288452 1.0
0.6466861367225647 0.3125 1.0
0.515625 0.20252758264541626 1.0
0.49209317564964294 0.3125 1.0
0.4557352364063263 0.125 1.0
0.515625 0.09177153557538986 0.0
0.6963284611701965 0.15625 0.0
0.760257363319397 0.34375 0.0
0.640625 0.47601214051246643 0.0
0.5035502314567566 0.5625 0.0
0.53125 0.7399749755859375 0.0
0.35350480675697327 0.796875 0.0
0.2027900516986847 0.703125 0.0
0.375 0.6688833236694336 0.0
0.3908372223377228 0.5625 0.0
0.28125 0.4528251588344574 0.0
0.484375 0.4045051336288452 0.0
0.6466861367225647 0.3125 0.0
0.515625 0.20252758264541626 0.0
0.49209317564964294 0.3125 0.0
0.4557352364063263 0.125 0.0
16 0 1 2 3 4 5 6 7 8 9 10 11 12 13 14 15 255 0 0
16 16 31 30 29 28 27 26 25 24 23 22 21 20 19 18 17 0 0 255
4 1 0 16 17 128 0 128
4 2 1 17 18 0 255 0
4 3 2 18 19 0 255 0
4 4 3 19 20 0 255 0
4 5 4 20 21 0 255 0
4 6 5 21 22 0 255 0
4 7 6 22 23 0 255 0
4 8 7 23 24 0 255 0
4 9 8 24 25 0 255 0
4 10 9 25 26 0 255 0
4 11 10 26 27 0 255 0
4 12 11 27 28 0 255 0
4 13 12 28 29 0 255 0
4 14 13 29 30 0 255 0
4 15 14 30 31 0 255 0
4 0 15 31 16 128 0 128
