ply
format ascii 1.0
element vertex 38
property float x
property float y
property float z
element face 33
property list uchar int vertex_index
property uchar red
property uchar green
property uchar blue
end_header
0.29816552996635437 0.140625 1.0
0.203125 0.2660942077636719 1.0
0.22140182554721832 0.46875 1.0
0.28446856141090393 0.625 1.0
0.390625 0.772005021572113 1.0
0.515625 0.7825884819030762 1.0
0.610519289970398 0.6875 1.0
0.765625 0.5803484916687012 1.0
0.8132658004760742 0.421875 1.0
0.71875 0.27114731073379517 1.0
0.5760166645050049 0.171875 1.0
0.359375 0.12791235744953156 1.0
0.390625 0.19563239812850952 1.0
0.5 0.2351710945367813 1.0
0.6385411024093628 0.328125 1.0
0.671875 0.49169445037841797 1.0
0.515625 0.5849460959434509 1.0
0.3125 0.5338027477264404 1.0
0.29736021161079407 0.328125 1.0
0.29816552996635437 0.140625 0.0
0.203125 0.2660942077636719 0.0
0.22140182554721832 0.46875 0.0
0.28446856141090393 0.625 0.0
0.390625 0.772005021572113 0.0
0.515625 0.7825884819030762 0.0
0.610519289970398 0.6875 0.0
0.765625 0.5803484916687012 0.0
0.8132658004760742 0.421875 0.0
0.71875 0.27114731073379517 0.0
0.5760166645050049 0.171875 0.0
0.359375 0.12791235744953156 0.0
0.390625 0.19563239812850952 0.0
0.5 0.2351710945367813 0.0
0.6385411024093628 0.328125 0.0
0.671875 0.49169445037841797 0.0
0.515625 0.5849460959434509 0.0
0.3125 0.5338027477264404 0.0
0.29736021161079407 0.328125 0.0
5 7 15 14 9 8 255 0 0
5 1 18 17 3 2 255 0 0
4 10 13 12 11 255 0 0
6 3 17 16 6 5 4 255 0 0
4 6 16 15 7 255 0 0
4 9 14 13 10 255 0 0
5 11 12 18 1 0 255 0 0
5 26 27 28 33 34 0 0 255
5 20 21 22 36 37 0 0 255
4 29 30 31 32 0 0 255
6 22 23 24 25 35 36 0 0 255
4 25 26 34 35 0 0 255
4 28 29 32 33 0 0 255
5 30 19 20 37 31 0 0 255
4 0 1 20 19 0 255 0
4 1 2 21 20 0 255 0
4 2 3 22 21 0 255 0
4 3 4 23 22 0 255 0
4 4 5 24 23 0 255 0
4 5 6 25 24 0 255 0
4 6 7 26 25 0 255 0
4 7 8 27 26 0 255 0
4 8 9 28 27 0 255 0
4 9 10 29 28 0 255 0
4 10 11 30 29 128 0 128
4 11 0 19 30 128 0 128
4 12 13 32 31 0 255 0
4 13 14 33 32 0 255 0
4 14 15 34 33 0 255 0
4 15 16 35 34 0 255 0
4 16 17 36 35 0 255 0
4 17 18 37 36 0 255 0
4 18 12 31 37 0 255 0
