ply
format ascii 1.0
element vertex 44
property float x
property float y
property float z
element face 28
property list uchar int vertex_index
property uchar red
property uchar green
property uchar blue
end_header
0.603415846824646 0.203125 1.0
0.40625 0.25850263237953186 1.0
0.2755228579044342 0.34375 1.0
0.2091194987297058 0.53125 1.0
0.23086364567279816 0.734375 1.0
0.375 0.8344960808753967 1.0
0.546875 0.7508645057678223 1.0
0.390625 0.7696608304977417 1.0
0.30074137449264526 0.609375 1.0
0.3340606689453125 0.421875 1.0
0.5264514088630676 0.46875 1.0
0.734375 0.4531104266643524 1.0
0.890625 0.349040150642395 1.0
0.8125 0.2288997322320938 1.0
0.625 0.20095202326774597 1.0
0.603415846824646 0.203125 1.0
0.625 0.2649978995323181 1.0
0.7857903838157654 0.28125 1.0
0.6875 0.39740434288978577 1.0
0.484375 0.38549908995628357 1.0
0.5 0.29485294222831726 1.0
0.625 0.2649978995323181 1.0
0.603415846824646 0.203125 0.0
0.40625 0.25850263237953186 0.0
0.2755228579044342 0.34375 0.0
0.2091194987297058 0.53125 0.0
0.23086364567279816 0.734375 0.0
0.375 0.8344960808753967 0.0
0.546875 0.7508645057678223 0.0
0.390625 0.7696608304977417 0.0
0.30074137449264526 0.609375 0.0
0.3340606689453125 0.421875 0.0
0.5264514088630676 0.46875 0.0
0.734375 0.4531104266643524 0.0
0.890625 0.349040150642395 0.0
0.8125 0.2288997322320938 0.0
0.625 0.20095202326774597 0.0
0.603415846824646 0.203125 0.0
0.625 0.2649978995323181 0.0
0.7857903838157654 0.28125 0.0
0.6875 0.39740434288978577 0.0
0.484375 0.38549908995628357 0.0
0.5 0.29485294222831726 0.0
0.625 0.2649978995323181 0.0
12 1 20 19 10 9 8 7 6 5 4 3 2 255 0 0
4 13 17 16 14 255 0 0
4 10 19 18 11 255 0 0
5 11 18 17 13 12 255 0 0
12 23 24 25 26 27 28 29 30 31 32 41 42 0 0 255
4 35 36 38 39 0 0 255
4 32 33 40 41 0 0 255
5 33 34 35 39 40 0 0 255
4 0 1 23 22 0 255 0
4 1 2 24 23 0 255 0
4 2 3 25 24 0 255 0
4 3 4 26 25 0 255 0
4 4 5 27 26 0 255 0
4 5 6 28 27 0 255 0
4 6 7 29 28 0 255 0
4 7 8 30 29 0 255 0
4 8 9 31 30 0 255 0
4 9 10 32 31 0 255 0
4 10 11 33 32 0 255 0
4 11 12 34 33 0 255 0
4 12 13 35 34 0 255 0
4 13 14 36 35 128 0 128
4 14 15 37 36 128 0 128
4 16 17 39 38 0 255 0
4 17 18 40 39 0 255 0
4 18 19 41 40 0 255 0
4 19 20 42 41 0 255 0
4 20 21 43 42 0 255 0
