ply
format ascii 1.0
element vertex 40
property float x
property float y
property float z
element face 36
property list uchar int vertex_index
property uchar red
property uchar green
property uchar blue
end_header
0.2794978618621826 0.125 1.0
0.16237933933734894 0.265625 1.0
0.234375 0.4530184864997864 1.0
0.32814544439315796 0.59375 1.0
0.4375 0.7218136191368103 1.0
0.4375 0.8416762351989746 1.0
0.65625 0.8010423183441162 1.0
0.765625 0.6669168472290039 1.0
0.8062080144882202 0.453125 1.0
0.7161262035369873 0.296875 1.0
0.5625 0.19711318612098694 1.0
0.390625 0.12379981577396393 1.0
0.34375 0.23016783595085144 1.0
0.515625 0.2734300494194031 1.0
0.6543524861335754 0.390625 1.0
0.693671464920044 0.5625 1.0
0.59375 0.7057817578315735 1.0
0.4658328890800476 0.59375 1.0
0.35327017307281494 0.453125 1.0
0.2726455330848694 0.28125 1.0
0.2794978618621826 0.125 0.0
0.16237933933734894 0.265625 0.0
0.234375 0.4530184864997864 0.0
0.32814544439315796 0.59375 0.0
0.4375 0.7218136191368103 0.0
0.4375 0.8416762351989746 0.0
0.65625 0.8010423183441162 0.0
0.765625 0.6669168472290039 0.0
0.8062080144882202 0.453125 0.0
0.7161262035369873 0.296875 0.0
0.5625 0.19711318612098694 0.0
0.390625 0.12379981577396393 0.0
0.34375 0.23016783595085144 0.0
0.515625 0.2734300494194031 0.0
0.6543524861335754 0.390625 0.0
0.693671464920044 0.5625 0.0
0.59375 0.7057817578315735 0.0
0.4658328890800476 0.59375 0.0
0.35327017307281494 0.453125 0.0
0.2726455330848694 0.28125 0.0
5 7 15 14 9 8 255 0 0
5 4 17 16 6 5 255 0 0
4 1 19 18 2 255 0 0
4 10 13 12 11 255 0 0
4 6 16 15 7 255 0 0
4 9 14 13 10 255 0 0
5 2 18 17 4 3 255 0 0
5 11 12 19 1 0 255 0 0
5 27 28 29 34 35 0 0 255
5 24 25 26 36 37 0 0 255
4 21 22 38 39 0 0 255
4 30 31 32 33 0 0 255
4 26 27 35 36 0 0 255
4 29 30 33 34 0 0 255
5 22 23 24 37 38 0 0 255
5 31 20 21 39 32 0 0 255
4 0 1 21 20 0 255 0
4 1 2 22 21 0 255 0
4 2 3 23 22 0 255 0
4 3 4 24 23 0 255 0
4 4 5 25 24 0 255 0
4 5 6 26 25 0 255 0
4 6 7 27 26 0 255 0
4 7 8 28 27 0 255 0
4 8 9 29 28 0 255 0
4 9 10 30 29 0 255 0
4 10 11 31 30 128 0 128
4 11 0 20 31 128 0 128
4 12 13 33 32 0 255 0
4 13 14 34 33 0 255 0
4 14 15 35 34 0 255 0
4 15 16 36 35 0 255 0
4 16 17 37 36 0 255 0
4 17 18 38 37 0 255 0
4 18 19 39 38 0 255 0
4 19 12 32 39 0 255 0
