ply
format ascii 1.0
element vertex 38
property float x
property float y
property float z
element face 33
property list uchar int vertex_index
property uchar red
property uchar green
property uchar blue
end_header
0.38426288962364197 0.125 1.0
0.25 0.23758536577224731 1.0
0.203125 0.4370821714401245 1.0
0.2542959451675415 0.59375 1.0
0.3670567274093628 0.65625 1.0
0.45565855503082275 0.671875 1.0
0.546875 0.8340173363685608 1.0
0.71875 0.757513701915741 1.0
0.7370232343673706 0.59375 1.0
0.7712281942367554 0.375 1.0
0.6893168091773987 0.203125 1.0
0.515625 0.1257932186126709 1.0
0.453125 0.2779925763607025 1.0
0.5 0.28214243054389954 1.0
0.6537142395973206 0.390625 1.0
0.6313308477401733 0.59375 1.0
0.5 0.5895854234695435 1.0
0.36527881026268005 0.46875 1.0
0.40625 0.29581528902053833 1.0
0.38426288962364197 0.125 0.0
0.25 0.23758536577224731 0.0
0.203125 0.4370821714401245 0.0
0.2542959451675415 0.59375 0.0
0.3670567274093628 0.65625 0.0
0.45565855503082275 0.671875 0.0
0.546875 0.8340173363685608 0.0
0.71875 0.757513701915741 0.0
0.7370232343673706 0.59375 0.0
0.7712281942367554 0.375 0.0
0.6893168091773987 0.203125 0.0
0.515625 0.1257932186126709 0.0
0.453125 0.2779925763607025 0.0
0.5 0.28214243054389954 0.0
0.6537142395973206 0.390625 0.0
0.6313308477401733 0.59375 0.0
0.5 0.5895854234695435 0.0
0.36527881026268005 0.46875 0.0
0.40625 0.29581528902053833 0.0
4 1 18 17 2 255 0 0
6 2 17 16 5 4 3 255 0 0
5 9 14 13 11 10 255 0 0
6 5 16 15 8 7 6 255 0 0
4 8 15 14 9 255 0 0
5 11 12 18 1 0 255 0 0
3 11 13 12 255 0 0
4 20 21 36 37 0 0 255
6 21 22 23 24 35 36 0 0 255
5 28 29 30 32 33 0 0 255
6 24 25 26 27 34 35 0 0 255
4 27 28 33 34 0 0 255
5 30 19 20 37 31 0 0 255
3 30 31 32 0 0 255
4 0 1 20 19 128 0 128
4 1 2 21 20 0 255 0
4 2 3 22 21 0 255 0
4 3 4 23 22 0 255 0
4 4 5 24 23 0 255 0
4 5 6 25 24 0 255 0
4 6 7 26 25 0 255 0
4 7 8 27 26 0 255 0
4 8 9 28 27 0 255 0
4 9 10 29 28 0 255 0
4 10 11 30 29 0 255 0
4 11 0 19 30 128 0 128
4 12 13 32 31 0 255 0
4 13 14 33 32 0 255 0
4 14 15 34 33 0 255 0
4 15 16 35 34 0 255 0
4 16 17 36 35 0 255 0
4 17 18 37 36 0 255 0
4 18 12 31 37 0 255 0
