ply
format ascii 1.0
element vertex 36
property float x
property float y
property float z
element face 32
property list uchar int vertex_index
property uchar red
property uchar green
property uchar blue
end_header
0.35742825269699097 0.125 1.0
0.265625 0.2935195863246918 1.0
0.28125 0.5132681727409363 1.0
0.3560601770877838 0.6875 1.0
0.46875 0.8239215016365051 1.0
0.53125 0.7332786321640015 1.0
0.7019227743148804 0.640625 1.0
0.768303394317627 0.46875 1.0
0.695266604423523 0.296875 1.0
0.5625 0.17785944044589996 1.0
0.375 0.12236327677965164 1.0
0.46875 0.23031450808048248 1.0
0.6008545160293579 0.28125 1.0
0.6678032279014587 0.46875 1.0
0.5769060254096985 0.625 1.0
0.40365657210350037 0.65625 1.0
0.3337029218673706 0.46875 1.0
0.38189414143562317 0.265625 1.0
0.35742825269699097 0.125 0.0
0.265625 0.2935195863246918 0.0
0.28125 0.5132681727409363 0.0
0.3560601770877838 0.6875 0.0
0.46875 0.8239215016365051 0.0
0.53125 0.7332786321640015 0.0
0.7019227743148804 0.640625 0.0
0.768303394317627 0.46875 0.0
0.695266604423523 0.296875 0.0
0.5625 0.17785944044589996 0.0
0.375 0.12236327677965164 0.0
0.46875 0.23031450808048248 0.0
0.6008545160293579 0.28125 0.0
0.6678032279014587 0.46875 0.0
0.5769060254096985 0.625 0.0
0.40365657210350037 0.65625 0.0
0.3337029218673706 0.46875 0.0
0.38189414143562317 0.265625 0.0
4 8 12 11 9 255 0 0
5 5 14 13 7 6 255 0 0
4 1 17 16 2 255 0 0
4 7 13 12 8 255 0 0
5 3 15 14 5 4 255 0 0
6 9 11 17 1 0 10 255 0 0
4 2 16 15 3 255 0 0
4 26 27 29 30 0 0 255
5 23 24 25 31 32 0 0 255
4 19 20 34 35 0 0 255
4 25 26 30 31 0 0 255
5 21 22 23 32 33 0 0 255
6 27 28 18 19 35 29 0 0 255
4 20 21 33 34 0 0 255
4 0 1 19 18 0 255 0
4 1 2 20 19 0 255 0
4 2 3 21 20 0 255 0
4 3 4 22 21 0 255 0
4 4 5 23 22 0 255 0
4 5 6 24 23 0 255 0
4 6 7 25 24 0 255 0
4 7 8 26 25 0 255 0
4 8 9 27 26 0 255 0
4 9 10 28 27 128 0 128
4 10 0 18 28 128 0 128
4 11 12 30 29 0 255 0
4 12 13 31 30 0 255 0
4 13 14 32 31 0 255 0
4 14 15 33 32 0 255 0
4 15 16 34 33 0 255 0
4 16 17 35 34 0 255 0
4 17 11 29 35 0 255 0
