ply
format ascii 1.0
element vertex 40
property float x
property float y
property float z
element face 22
property list uchar int vertex_index
property uchar red
property uchar green
property uchar blue
end_header
0.34375 0.13933564722537994 1.0
0.5347768068313599 0.140625 1.0
0.734375 0.18737058341503143 1.0
0.8125 0.341908723115921 1.0
0.703125 0.47693169116973877 1.0
0.6200886964797974 0.609375 1.0
0.53125 0.7660588622093201 1.0
0.34375 0.8390354514122009 1.0
0.140625 0.7962548136711121 1.0
0.203125 0.7706218957901001 1.0
0.40625 0.7645289301872253 1.0
0.5541350841522217 0.65625 1.0
0.44098085165023804 0.5625 1.0
0.34375 0.47923341393470764 1.0
0.5149933695793152 0.46875 1.0
0.6875 0.4111224114894867 1.0
0.703125 0.2581111192703247 1.0
0.515625 0.19823108613491058 1.0
0.3125 0.2041466236114502 1.0
0.1828867495059967 0.1875 1.0
0.34375 0.13933564722537994 0.0
0.5347768068313599 0.140625 0.0
0.734375 0.18737058341503143 0.0
0.8125 0.341908723115921 0.0
0.703125 0.47693169116973877 0.0
0.6200886964797974 0.609375 0.0
0.53125 0.7660588622093201 0.0
0.34375 0.8390354514122009 0.0
0.140625 0.7962548136711121 0.0
0.203125 0.7706218957901001 0.0
0.40625 0.7645289301872253 0.0
0.5541350841522217 0.65625 0.0
0.44098085165023804 0.5625 0.0
0.34375 0.47923341393470764 0.0
0.5149933695793152 0.46875 0.0
0.6875 0.4111224114894867 0.0
0.703125 0.2581111192703247 0.0
0.515625 0.19823108613491058 0.0
0.3125 0.2041466236114502 0.0
0.1828867495059967 0.1875 0.0
20 0 1 2 3 4 5 6 7 8 9 10 11 12 13 14 15 16 17 18 19 255 0 0
20 20 39 38 37 36 35 34 33 32 31 30 29 28 27 26 25 24 23 22 21 0 0 255
4 1 0 20 21 128 0 128
4 2 1 21 22 0 255 0
4 3 2 22 23 0 255 0
4 4 3 23 24 0 255 0
4 5 4 24 25 0 255 0
4 6 5 25 26 0 255 0
4 7 6 26 27 0 255 0
4 8 7 27 28 0 255 0
4 9 8 28 29 0 255 0
4 10 9 29 30 0 255 0
4 11 10 30 31 0 255 0
4 12 11 31 32 0 255 0
4 13 12 32 33 0 255 0
4 14 13 33 34 0 255 0
4 15 14 34 35 0 255 0
4 16 15 35 36 0 255 0
4 17 16 36 37 0 255 0
4 18 17 37 38 0 255 0
4 19 18 38 39 0 255 0
4 0 19 39 20 128 0 128
