ply
format ascii 1.0
element vertex 40
property float x
property float y
property float z
element face 26
property list uchar int vertex_index
property uchar red
property uchar green
property uchar blue
end_header
0.46473008394241333 0.171875 1.0
0.33433714509010315 0.296875 1.0
0.27797171473503113 0.484375 1.0
0.27731868624687195 0.703125 1.0
0.359375 0.8690256476402283 1.0
0.3713879883289337 0.65625 1.0
0.37005096673965454 0.40625 1.0
0.46875 0.4760873019695282 1.0
0.578125 0.623860239982605 1.0
0.7335247993469238 0.609375 1.0
0.7326866984367371 0.421875 1.0
0.6622467041015625 0.234375 1.0
0.484375 0.1624971628189087 1.0
0.46473008394241333 0.171875 1.0
0.546875 0.2644455134868622 1.0
0.6297675967216492 0.359375 1.0
0.6863182187080383 0.53125 1.0
0.5625 0.48166754841804504 1.0
0.49053096771240234 0.296875 1.0
0.546875 0.2644455134868622 1.0
0.46473008394241333 0.171875 0.0
0.33433714509010315 0.296875 0.0
0.27797171473503113 0.484375 0.0
0.27731868624687195 0.703125 0.0
0.359375 0.8690256476402283 0.0
0.3713879883289337 0.65625 0.0
0.37005096673965454 0.40625 0.0
0.46875 0.4760873019695282 0.0
0.578125 0.623860239982605 0.0
0.7335247993469238 0.609375 0.0
0.7326866984367371 0.421875 0.0
0.6622467041015625 0.234375 0.0
0.484375 0.1624971628189087 0.0
0.46473008394241333 0.171875 0.0
0.546875 0.2644455134868622 0.0
0.6297675967216492 0.359375 0.0
0.6863182187080383 0.53125 0.0
0.5625 0.48166754841804504 0.0
0.49053096771240234 0.296875 0.0
0.546875 0.2644455134868622 0.0
5 7 17 16 9 8 255 0 0
4 9 16 15 10 255 0 0
10 0 18 17 7 6 5 4 3 2 1 255 0 0
4 10 15 14 11 255 0 0
5 27 28 29 36 37 0 0 255
4 29 30 35 36 0 0 255
10 20 21 22 23 24 25 26 27 37 38 0 0 255
4 30 31 34 35 0 0 255
4 0 1 21 20 0 255 0
4 1 2 22 21 0 255 0
4 2 3 23 22 0 255 0
4 3 4 24 23 0 255 0
4 4 5 25 24 0 255 0
4 5 6 26 25 0 255 0
4 6 7 27 26 0 255 0
4 7 8 28 27 0 255 0
4 8 9 29 28 0 255 0
4 9 10 30 29 0 255 0
4 10 11 31 30 0 255 0
4 11 12 32 31 128 0 128
4 12 13 33 32 128 0 128
4 14 15 35 34 0 255 0
4 15 16 36 35 0 255 0
4 16 17 37 36 0 255 0
4 17 18 38 37 0 255 0
4 18 19 39 38 0 255 0
