ply
format ascii 1.0
element vertex 38
property float x
property float y
property float z
element face 27
property list uchar int vertex_index
property uchar red
property uchar green
property uchar blue
end_header
0.375 0.09502173215150833 1.0
0.23929132521152496 0.21875 1.0
0.3125 0.39852988719940186 1.0
0.36803361773490906 0.5625 1.0
0.44391635060310364 0.703125 1.0
0.640625 0.7590400576591492 1.0
0.8456767797470093 0.796875 1.0
0.8803494572639465 0.734375 1.0
0.7259539365768433 0.65625 1.0
0.59375 0.5425523519515991 1.0
0.546875 0.40735241770744324 1.0
0.5840141773223877 0.203125 1.0
0.4375 0.10459273308515549 1.0
0.375 0.19527778029441833 1.0
0.480173796415329 0.3125 1.0
0.359375 0.34450626373291016 1.0
0.3498706519603729 0.203125 1.0
0.453125 0.5732053518295288 1.0
0.5475860238075256 0.609375 1.0
0.375 0.09502173215150833 0.0
0.23929132521152496 0.21875 0.0
0.3125 0.39852988719940186 0.0
0.36803361773490906 0.5625 0.0
0.44391635060310364 0.703125 0.0
0.640625 0.7590400576591492 0.0
0.8456767797470093 0.796875 0.0
0.8803494572639465 0.734375 0.0
0.7259539365768433 0.65625 0.0
0.59375 0.5425523519515991 0.0
0.546875 0.40735241770744324 0.0
0.5840141773223877 0.203125 0.0
0.4375 0.10459273308515549 0.0
0.375 0.19527778029441833 0.0
0.480173796415329 0.3125 0.0
0.359375 0.34450626373291016 0.0
0.3498706519603729 0.203125 0.0
0.453125 0.5732053518295288 0.0
0.5475860238075256 0.609375 0.0
5 0 16 15 2 1 255 0 0
3 0 13 16 255 0 0
6 10 14 13 0 12 11 255 0 0
8 2 15 14 10 9 18 17 3 255 0 0
9 3 17 18 9 8 7 6 5 4 255 0 0
5 19 20 21 34 35 0 0 255
3 19 35 32 0 0 255
6 29 30 31 19 32 33 0 0 255
8 21 22 36 37 28 29 33 34 0 0 255
9 22 23 24 25 26 27 28 37 36 0 0 255
4 0 1 20 19 128 0 128
4 1 2 21 20 0 255 0
4 2 3 22 21 0 255 0
4 3 4 23 22 0 255 0
4 4 5 24 23 0 255 0
4 5 6 25 24 0 255 0
4 6 7 26 25 0 255 0
4 7 8 27 26 0 255 0
4 8 9 28 27 0 255 0
4 9 10 29 28 0 255 0
4 10 11 30 29 0 255 0
4 11 12 31 30 0 255 0
4 12 0 19 31 128 0 128
4 13 14 33 32 0 255 0
4 14 15 34 33 0 255 0
4 15 16 35 34 0 255 0
4 16 13 32 35 0 255 0
